<?xml version="1.0" encoding="UTF-8"?>
<!-- Generator: https://ezgif.com/png-to-svg -->
<svg version="1.1" xmlns="http://www.w3.org/2000/svg" width="1024" height="1536">
<path d="M0 0 C337.92 0 675.84 0 1024 0 C1024 506.88 1024 1013.76 1024 1536 C686.08 1536 348.16 1536 0 1536 C0 1029.12 0 522.24 0 0 Z " fill="none" transform="translate(0,0)"/>
<path d="M0 0 C0.33 0 0.66 0 1 0 C0.49 6.26 -0.34 12.42 -1.34 18.62 C-1.53 19.8 -1.53 19.8 -1.73 21.01 C-2.26 24.3 -2.8 27.59 -3.34 30.88 C-4.94 40.61 -6.29 50.3 -7.23 60.12 C-7.81 65.79 -8.74 71.28 -9.86 76.86 C-11.57 85.61 -12.45 94.46 -13.44 103.31 C-13.65 105.21 -13.87 107.11 -14.09 109 C-14.73 114.67 -15.37 120.33 -16 126 C-16.68 132.13 -17.37 138.25 -18.06 144.38 C-18.14 145.08 -18.22 145.79 -18.3 146.52 C-19.57 157.79 -21.04 169.02 -22.69 180.24 C-23.84 188.15 -24.52 196.03 -25 204 C-24.07 203.62 -23.14 203.25 -22.18 202.86 C-20.89 202.35 -19.6 201.83 -18.31 201.31 C-17.71 201.07 -17.1 200.82 -16.47 200.57 C-5.56 196.2 5.4 192.08 16.56 188.38 C17.69 187.99 18.82 187.61 19.98 187.22 C26.38 185.08 32.78 183.22 39.34 181.64 C41.55 181.11 43.74 180.54 45.93 179.94 C68.95 173.56 98.51 166.73 121 178 C129.12 182.64 133.62 189.21 137.13 197.75 C143.14 220.25 133.69 246 124 266 C123.67 266.68 123.34 267.36 123.01 268.07 C121.39 271.41 119.73 274.72 118 278 C117.67 278 117.34 278 117 278 C116.91 277.24 116.83 276.48 116.74 275.69 C115.4 265.88 113.03 259.26 105.38 252.75 C83.32 236.54 53.52 236.92 27.56 240.56 C14.09 242.64 1.06 246.15 -12 250 C-13.28 250.37 -14.56 250.73 -15.85 251.09 C-42.5 258.91 -67.84 270.74 -92.62 283.12 C-93.46 283.54 -94.29 283.96 -95.15 284.38 C-111.09 292.35 -126.67 300.92 -142 310 C-132.86 305.49 -123.78 300.86 -114.75 296.12 C-107.2 292.17 -99.62 288.26 -92 284.44 C-91.19 284.03 -90.39 283.63 -89.56 283.21 C-85.09 280.98 -80.61 278.92 -76 277 C-75.16 276.65 -74.32 276.29 -73.45 275.93 C-61.34 270.85 -49.23 265.78 -37 261 C-36.08 260.63 -35.17 260.25 -34.22 259.87 C-25.88 256.54 -17.44 254.06 -8.75 251.81 C-7.44 251.47 -6.13 251.12 -4.82 250.78 C10.88 246.66 25.96 243.63 42.26 243.68 C44.37 243.69 46.48 243.66 48.59 243.64 C66.45 243.55 84.6 246.72 97.87 259.62 C106.15 268.88 107.63 275.83 107 288 C105.48 299.26 95.44 307.27 87 314 C84.1 315.97 81.11 317.72 78.06 319.44 C77.23 319.91 76.4 320.38 75.54 320.87 C63.24 327.75 50.71 333.25 37.5 338.19 C36.42 338.59 35.34 339 34.23 339.41 C19.26 344.89 3.87 348.93 -11.56 352.88 C-12.83 353.2 -12.83 353.2 -14.11 353.53 C-27.3 356.9 -40.52 359.97 -53.83 362.81 C-54.48 362.94 -55.13 363.08 -55.8 363.23 C-56.46 363.37 -57.11 363.51 -57.79 363.65 C-66.28 365.47 -74.73 367.47 -83.19 369.44 C-97.09 372.68 -111.02 375.77 -124.98 378.75 C-133.91 380.67 -142.82 382.61 -151.69 384.75 C-152.51 384.95 -153.34 385.15 -154.19 385.35 C-155.74 385.73 -157.29 386.1 -158.84 386.48 C-172.06 389.67 -185.38 392.26 -198.73 394.83 C-214.67 397.9 -230.54 401.24 -246.39 404.75 C-254.68 406.56 -263 408.12 -271.38 409.5 C-272.67 409.72 -273.97 409.93 -275.31 410.15 C-283.38 411.47 -291.45 412.67 -299.56 413.69 C-300.84 413.85 -300.84 413.85 -302.14 414.01 C-305.09 414.36 -308.05 414.68 -311 415 C-311.71 415.08 -312.41 415.16 -313.14 415.25 C-327.9 416.96 -342.47 417.24 -357.31 417.12 C-359.53 417.11 -361.75 417.11 -363.96 417.1 C-369.31 417.08 -374.65 417.04 -380 417 C-380 416.67 -380 416.34 -380 416 C-378.65 415.76 -378.65 415.76 -377.27 415.52 C-373.66 414.86 -370.05 414.18 -366.45 413.47 C-364.86 413.17 -363.27 412.87 -361.68 412.58 C-324.12 405.64 -287.99 388.8 -254 372 C-253.17 371.59 -252.34 371.18 -251.48 370.76 C-246.98 368.52 -242.49 366.27 -238 364 C-235.33 362.66 -232.67 361.33 -230 360 C-228.27 359.13 -228.27 359.13 -226.5 358.25 C-225.68 357.84 -224.85 357.42 -224 357 C-224.68 356.96 -225.36 356.92 -226.05 356.88 C-264.45 354.54 -301.3 347.03 -328 317 C-342.1 299.6 -345.91 278.87 -344 257 C-343.25 251.81 -341.73 246.94 -340 242 C-339.65 240.87 -339.3 239.74 -338.94 238.57 C-336.66 231.59 -333.72 225.18 -330.31 218.69 C-329.92 217.94 -329.53 217.19 -329.12 216.42 C-326.26 211.13 -326.26 211.13 -324 210 C-324.46 211.83 -324.92 213.67 -325.38 215.5 C-325.65 216.61 -325.92 217.71 -326.2 218.86 C-326.79 221.19 -327.47 223.51 -328.19 225.81 C-331.36 238.74 -328.8 253.03 -322.57 264.62 C-314.67 276.61 -301.69 283.62 -288 287 C-278.76 288.84 -269.59 289.39 -260.19 289.62 C-258.91 289.66 -257.63 289.7 -256.32 289.74 C-253.21 289.84 -250.11 289.92 -247 290 C-246.73 288.89 -246.47 287.78 -246.2 286.64 C-245.84 285.18 -245.48 283.71 -245.12 282.25 C-244.95 281.52 -244.78 280.79 -244.6 280.04 C-242.37 270.96 -242.37 270.96 -237.87 267.81 C-236.54 267.01 -235.21 266.22 -233.88 265.44 C-232.41 264.55 -230.94 263.66 -229.48 262.76 C-228.73 262.3 -227.98 261.85 -227.21 261.38 C-209.12 250.12 -192.1 236.95 -175.69 223.39 C-173.38 221.49 -171.03 219.65 -168.69 217.81 C-164.2 214.24 -160 210.38 -155.78 206.49 C-153.13 204.12 -150.41 201.9 -147.62 199.69 C-142.57 195.62 -138.02 191.17 -133.5 186.52 C-130.49 183.42 -127.39 180.69 -124 178 C-123.01 176.93 -122.05 175.82 -121.12 174.69 C-117.47 170.4 -113.5 166.46 -109.5 162.5 C-105.04 158.08 -100.65 153.67 -96.59 148.88 C-94.66 146.6 -92.64 144.4 -90.62 142.19 C-86.78 137.92 -83.1 133.55 -79.5 129.09 C-77.69 126.85 -75.87 124.63 -74.04 122.41 C-65.63 112.22 -57.74 101.71 -50 91 C-49.48 90.29 -48.96 89.57 -48.43 88.84 C-28.88 62 -10.56 31.68 0 0 Z " fill="#FB8643" transform="translate(643,670)"/>
<path d="M0 0 C1.3 2.54 2.59 5.08 3.88 7.62 C4.42 8.69 4.42 8.69 4.98 9.79 C10.62 20.95 10.22 28.91 7.75 41 C7.29 43.33 6.83 45.65 6.37 47.98 C6.02 49.73 6.02 49.73 5.67 51.52 C4.65 56.8 3.72 62.08 2.81 67.38 C2.58 68.72 2.58 68.72 2.34 70.09 C1.56 74.64 0.8 79.19 0.05 83.75 C-0.3 85.83 -0.65 87.92 -1 90 C-1.19 91.13 -1.38 92.27 -1.58 93.44 C-13.41 162.65 -52.53 222.29 -102 271 C-104.74 273.73 -107.46 276.47 -110.16 279.23 C-116.33 285.51 -122.52 291.47 -129.43 296.93 C-131.99 298.99 -134.4 301.15 -136.81 303.38 C-142.93 308.94 -149.45 313.96 -156 319 C-157.35 320.04 -158.7 321.09 -160.04 322.13 C-174.01 332.92 -188.2 343.39 -203 353 C-204.39 353.91 -205.77 354.81 -207.16 355.72 C-229.06 370 -229.06 370 -232 370 C-231.29 362.75 -229.64 355.82 -227.94 348.75 C-227.3 346.06 -226.67 343.38 -226.04 340.69 C-225.79 339.64 -225.79 339.64 -225.54 338.56 C-217.16 302.92 -210.41 267.04 -204 231 C-205.02 231.52 -206.05 232.03 -207.1 232.56 C-233.81 245.98 -261.03 258.3 -290 266 C-290.74 266.21 -291.48 266.42 -292.25 266.63 C-302.61 269.51 -312.69 270.42 -323.44 270.56 C-325.18 270.6 -325.18 270.6 -326.96 270.64 C-336.91 270.6 -344.25 267.38 -353 263 C-353.11 255.49 -352.81 248.1 -352.2 240.62 C-352.11 239.57 -352.03 238.52 -351.94 237.43 C-351.76 235.22 -351.58 233.01 -351.4 230.8 C-351.13 227.47 -350.86 224.14 -350.6 220.82 C-350.26 216.53 -349.89 212.25 -349.5 207.97 C-349.16 204.18 -348.92 200.41 -348.8 196.61 C-348.3 185.42 -348.3 185.42 -344.95 181.76 C-342.1 180.09 -339.4 179.06 -336.25 178.06 C-334.05 177.22 -331.86 176.36 -329.66 175.51 C-328.55 175.1 -327.43 174.69 -326.29 174.27 C-321.23 172.32 -316.44 169.91 -311.62 167.44 C-310.72 166.98 -309.81 166.52 -308.88 166.05 C-300.11 161.61 -291.53 156.87 -283 152 C-282.27 151.59 -281.55 151.18 -280.8 150.75 C-259.07 138.44 -237.94 125.32 -217.59 110.84 C-215.15 109.11 -212.7 107.39 -210.25 105.68 C-201.64 99.68 -193.24 93.49 -185 87 C-184.15 86.34 -183.31 85.67 -182.43 84.99 C-169.19 74.51 -156.51 63.34 -144 52 C-143.51 51.56 -143.02 51.11 -142.51 50.65 C-134.87 43.73 -127.25 36.82 -120.5 29 C-119.91 28.35 -119.33 27.69 -118.73 27.02 C-116.97 25.03 -116.97 25.03 -115.52 22.86 C-108.9 14.38 -97.94 14.41 -88 13 C-86.04 12.7 -84.08 12.39 -82.11 12.09 C-77.88 11.42 -73.64 10.78 -69.39 10.14 C-60.62 8.81 -51.87 7.34 -43.12 5.88 C-42.36 5.75 -41.59 5.62 -40.8 5.49 C-37.18 4.88 -33.55 4.27 -29.92 3.66 C-24.62 2.77 -19.31 1.88 -14 1 C-12.99 0.82 -11.98 0.64 -10.94 0.45 C-7.23 -0.12 -3.75 -0.06 0 0 Z " fill="#36486C" transform="translate(675,401)"/>
<path d="M0 0 C1.54 3.08 0.18 5.11 -0.88 8.31 C-5.73 23.19 -5.28 37.78 1.12 52.19 C8.66 66.2 22.43 72.53 37 77 C38.66 77.36 40.33 77.71 42 78 C42 78.66 42 79.32 42 80 C42.99 80 43.98 80 45 80 C45 80.99 45 81.98 45 83 C45.61 82.83 46.23 82.66 46.86 82.49 C48.08 82.19 48.08 82.19 49.31 81.88 C50.51 81.56 50.51 81.56 51.74 81.24 C54 81 54 81 57 83 C58.67 83.04 60.33 83.04 62 83 C63.34 83.29 64.68 83.61 66 84 C66 84.66 66 85.32 66 86 C67.49 86.5 67.49 86.5 69 87 C69 87.66 69 88.32 69 89 C69.99 89 70.98 89 72 89 C72.99 92.47 72.99 92.47 74 96 C75.32 96.33 76.64 96.66 78 97 C78.33 98.32 78.66 99.64 79 101 C79.99 100.67 80.98 100.34 82 100 C84.48 101.11 84.48 101.11 87.19 102.75 C88.54 103.55 88.54 103.55 89.92 104.36 C90.61 104.9 91.29 105.44 92 106 C92 106.99 92 107.98 92 109 C88.87 110.86 86.63 111.2 83 111 C83 111.66 83 112.32 83 113 C84.24 113.16 85.48 113.33 86.75 113.5 C87.45 113.59 88.14 113.69 88.86 113.78 C91.92 114.09 94.68 114.07 97.69 113.44 C98.83 113.22 98.83 113.22 100 113 C100.33 113.33 100.66 113.66 101 114 C101.66 112.35 102.32 110.7 103 109 C106.89 109.54 108.93 110.62 112 113 C112.66 113.14 113.32 113.29 114 113.44 C116.78 114.22 118.1 115.89 120 118 C119.67 118.66 119.34 119.32 119 120 C120.05 119.78 120.05 119.78 121.12 119.56 C124.08 118.99 127.03 118.48 130 118 C130.33 117.01 130.66 116.02 131 115 C131.99 114.34 132.98 113.68 134 113 C133.67 112.01 133.34 111.02 133 110 C135.29 107.32 136.93 106.54 140.38 105.94 C144.75 105.07 148.45 104.17 152.06 101.44 C154.67 99.5 157.03 99.17 160.19 98.62 C160.79 98.42 161.38 98.21 162 98 C162.33 97.01 162.66 96.02 163 95 C165.7 94.17 168.24 93.54 171 93 C171.91 92.81 172.82 92.63 173.75 92.43 C176.17 91.94 178.58 91.47 181 91 C180.67 92.98 180.34 94.96 180 97 C178.91 97.08 177.81 97.16 176.69 97.25 C173.04 97.65 173.04 97.65 171.19 99.75 C169.92 102.02 169.92 102.02 169.06 104.69 C168.71 105.45 168.36 106.21 168 107 C166 107.62 166 107.62 164 108 C163.34 108.99 162.68 109.98 162 111 C159.02 112.15 158.13 112.04 155 111 C155.33 111.99 155.66 112.98 156 114 C153 116 153 116 150 117 C150 117.66 150 118.32 150 119 C150.69 118.63 151.37 118.25 152.08 117.87 C152.98 117.4 153.88 116.92 154.81 116.44 C155.71 115.96 156.6 115.49 157.52 115 C160 114 160 114 163 115 C161.02 120.44 161.02 120.44 159 126 C160.84 128.29 160.84 128.29 163.62 128.12 C164.41 128.08 165.19 128.04 166 128 C166.33 127.01 166.66 126.02 167 125 C169 124.06 169 124.06 172 123 C174.34 121.95 176.68 120.88 179.01 119.8 C181 119 181 119 183 119 C183 118.34 183 117.68 183 117 C184.05 116.49 185.1 115.98 186.18 115.46 C196.48 110.43 196.48 110.43 206.11 104.23 C208 103 208 103 210.64 102.02 C214.01 100.56 214.45 98.23 216 95 C218.8 93.32 221.83 92.27 224.88 91.12 C228.98 89.51 232.34 87.47 236 85 C237.24 84.78 237.24 84.78 238.5 84.56 C241.55 83.88 243.17 82.31 245.46 80.26 C247.74 78.39 250.36 77.29 253 76 C253.85 75.3 254.69 74.6 255.56 73.88 C258.14 71.89 259.81 71.36 263 71 C263 70.34 263 69.68 263 69 C267.45 65.55 272.08 62.74 277 60 C277.99 59.34 278.98 58.68 280 58 C280.99 58.33 281.98 58.66 283 59 C283.33 58.01 283.66 57.02 284 56 C285.32 56.33 286.64 56.66 288 57 C288.33 56.34 288.66 55.68 289 55 C289.99 55 290.98 55 292 55 C292 54.34 292 53.68 292 53 C292.99 53 293.98 53 295 53 C294.67 52.01 294.34 51.02 294 50 C300.68 45.47 308.16 43.84 315.88 41.88 C317.21 41.53 318.55 41.18 319.89 40.82 C335.67 36.7 350.87 33.63 367.26 33.68 C369.37 33.69 371.48 33.66 373.59 33.64 C391.45 33.55 409.6 36.72 422.87 49.62 C431.15 58.88 432.63 65.83 432 78 C430.48 89.26 420.44 97.27 412 104 C409.1 105.97 406.11 107.72 403.06 109.44 C402.23 109.91 401.4 110.38 400.54 110.87 C388.24 117.75 375.71 123.25 362.5 128.19 C361.42 128.59 360.34 129 359.23 129.41 C344.26 134.89 328.87 138.93 313.44 142.88 C312.17 143.2 312.17 143.2 310.89 143.53 C297.7 146.9 284.48 149.97 271.17 152.81 C270.52 152.94 269.87 153.08 269.2 153.23 C268.54 153.37 267.89 153.51 267.21 153.65 C258.72 155.47 250.27 157.47 241.81 159.44 C227.91 162.68 213.98 165.77 200.02 168.75 C191.09 170.67 182.18 172.61 173.31 174.75 C172.08 175.05 172.08 175.05 170.81 175.35 C169.26 175.73 167.71 176.1 166.16 176.48 C152.94 179.67 139.62 182.26 126.27 184.83 C110.33 187.9 94.46 191.24 78.61 194.75 C70.32 196.56 62 198.12 53.62 199.5 C52.33 199.72 51.03 199.93 49.69 200.15 C41.62 201.47 33.55 202.67 25.44 203.69 C24.16 203.85 24.16 203.85 22.86 204.01 C19.91 204.36 16.95 204.68 14 205 C12.94 205.12 12.94 205.12 11.86 205.25 C-2.9 206.96 -17.47 207.24 -32.31 207.12 C-34.53 207.11 -36.75 207.11 -38.96 207.1 C-44.31 207.08 -49.65 207.04 -55 207 C-55 206.67 -55 206.34 -55 206 C-54.1 205.84 -53.2 205.68 -52.27 205.52 C-48.66 204.86 -45.05 204.18 -41.45 203.47 C-39.86 203.17 -38.27 202.87 -36.68 202.58 C0.88 195.64 37.01 178.8 71 162 C71.83 161.59 72.66 161.18 73.52 160.76 C78.02 158.52 82.51 156.27 87 154 C89.67 152.66 92.33 151.33 95 150 C96.15 149.42 97.31 148.85 98.5 148.25 C99.32 147.84 100.15 147.42 101 147 C100.32 146.96 99.64 146.92 98.95 146.88 C60.55 144.54 23.7 137.03 -3 107 C-17.1 89.6 -20.91 68.87 -19 47 C-18.25 41.81 -16.73 36.94 -15 32 C-14.47 30.3 -14.47 30.3 -13.94 28.57 C-11.03 19.65 -6.74 6.74 0 0 Z " fill="#EF433E" transform="translate(318,880)"/>
<path d="M0 0 C1.39 4.18 -0.05 5.79 -1.94 9.69 C-2.5 10.87 -3.07 12.05 -3.65 13.26 C-4.1 14.17 -4.54 15.07 -5 16 C-4.09 15.15 -3.18 14.31 -2.25 13.44 C0.67 11 0.67 11 3.31 11 C5 12 5 12 6 15 C6.33 15.66 6.66 16.32 7 17 C6.01 17.33 5.02 17.66 4 18 C2.77 21.01 2.77 21.01 2 24 C3.98 24.99 3.98 24.99 6 26 C6.32 32.39 5.11 38.21 3.75 44.44 C3.52 45.51 3.29 46.58 3.05 47.68 C2.38 50.79 1.69 53.89 1 57 C0.83 57.77 0.67 58.53 0.5 59.32 C-12.65 119.95 -52.52 174.19 -96 217 C-98.74 219.73 -101.46 222.47 -104.16 225.23 C-110.33 231.51 -116.52 237.47 -123.43 242.93 C-125.99 244.99 -128.4 247.15 -130.81 249.38 C-136.93 254.94 -143.45 259.96 -150 265 C-151.35 266.04 -152.7 267.09 -154.04 268.13 C-168.01 278.92 -182.2 289.39 -197 299 C-198.39 299.91 -199.77 300.81 -201.16 301.72 C-223.06 316 -223.06 316 -226 316 C-225.29 308.75 -223.64 301.82 -221.94 294.75 C-221.3 292.06 -220.67 289.38 -220.04 286.69 C-219.87 285.99 -219.71 285.29 -219.54 284.56 C-213.6 259.31 -207.95 233.97 -203.73 208.37 C-203.13 204.68 -202.51 201 -201.89 197.32 C-201.44 194.6 -201.01 191.88 -200.59 189.16 C-200.31 187.48 -200.03 185.81 -199.75 184.13 C-199.63 183.35 -199.51 182.58 -199.39 181.77 C-198.84 178.56 -198.45 176.45 -196.1 174.11 C-195.41 173.74 -194.72 173.38 -194 173 C-192.31 172.05 -192.31 172.05 -190.59 171.08 C-189.18 170.32 -187.78 169.57 -186.38 168.81 C-168.32 158.92 -150.69 148.05 -134 136 C-133.25 135.46 -132.49 134.91 -131.72 134.35 C-112.17 120.19 -93.63 105.23 -75.98 88.76 C-73.35 86.31 -70.65 83.93 -67.94 81.56 C-63.46 77.56 -59.43 73.24 -55.4 68.8 C-52.46 65.56 -49.45 62.43 -46.31 59.38 C-42.32 55.44 -38.8 51.23 -35.3 46.86 C-33.02 44.02 -30.67 41.26 -28.31 38.5 C-18.11 26.28 -8.94 13.17 0 0 Z " fill="#188DAC" transform="translate(669,455)"/>
<path d="M0 0 C0.33 0 0.66 0 1 0 C0.49 6.26 -0.34 12.42 -1.34 18.62 C-1.53 19.8 -1.53 19.8 -1.73 21.01 C-2.26 24.3 -2.8 27.59 -3.34 30.88 C-4.94 40.61 -6.29 50.3 -7.23 60.12 C-7.81 65.79 -8.74 71.28 -9.86 76.86 C-11.57 85.61 -12.45 94.46 -13.44 103.31 C-13.65 105.21 -13.87 107.11 -14.09 109 C-14.73 114.67 -15.37 120.33 -16 126 C-16.68 132.13 -17.37 138.25 -18.06 144.38 C-18.14 145.08 -18.22 145.79 -18.3 146.52 C-19.58 157.85 -21.05 169.14 -22.69 180.42 C-23.61 186.79 -24.31 193.12 -24.75 199.54 C-25 202 -25 202 -26 205 C-28.77 206.44 -31.48 207.71 -34.34 208.92 C-35.21 209.3 -36.07 209.68 -36.96 210.06 C-38.83 210.88 -40.7 211.69 -42.57 212.49 C-46.51 214.18 -50.44 215.9 -54.37 217.62 C-56.37 218.49 -58.36 219.36 -60.36 220.22 C-69.22 224.08 -78.03 228.05 -86.81 232.06 C-88.18 232.68 -89.54 233.31 -90.9 233.93 C-95.6 236.07 -100.29 238.22 -104.99 240.37 C-111.32 243.26 -117.65 246.14 -124 249 C-124.6 249.27 -125.19 249.54 -125.81 249.82 C-146.63 259.22 -167.59 268.01 -189 276 C-189.94 276.36 -190.88 276.72 -191.84 277.09 C-198.93 279.76 -206.11 281.75 -213.44 283.62 C-215.14 284.07 -215.14 284.07 -216.88 284.53 C-226.42 286.99 -236.09 289.45 -246 289 C-245.83 287.13 -245.63 285.26 -245.36 283.4 C-244.97 281.01 -244.97 281.01 -244.86 278.63 C-244.31 274.89 -243.38 272.2 -240.45 269.66 C-236.25 266.61 -231.77 264.01 -227.29 261.38 C-223.81 259.28 -220.46 257 -217.12 254.69 C-216.15 254.02 -216.15 254.02 -215.16 253.33 C-201.58 243.88 -188.44 233.93 -175.69 223.39 C-173.38 221.49 -171.03 219.65 -168.69 217.81 C-164.2 214.24 -160 210.38 -155.78 206.49 C-153.13 204.12 -150.41 201.9 -147.62 199.69 C-142.57 195.62 -138.02 191.17 -133.5 186.52 C-130.49 183.42 -127.39 180.69 -124 178 C-123.01 176.93 -122.05 175.82 -121.12 174.69 C-117.47 170.4 -113.5 166.46 -109.5 162.5 C-105.04 158.08 -100.65 153.67 -96.59 148.88 C-94.66 146.6 -92.64 144.4 -90.62 142.19 C-86.78 137.92 -83.1 133.55 -79.5 129.09 C-77.69 126.85 -75.87 124.63 -74.04 122.41 C-65.63 112.22 -57.74 101.71 -50 91 C-49.48 90.29 -48.96 89.57 -48.43 88.84 C-28.88 62 -10.56 31.68 0 0 Z " fill="#07152F" transform="translate(643,670)"/>
<path d="M0 0 C0.33 0 0.66 0 1 0 C0.43 7.42 -0.51 14.69 -1.78 22.02 C-2.04 23.56 -2.04 23.56 -2.31 25.13 C-2.68 27.31 -3.06 29.49 -3.43 31.67 C-4.37 37.17 -5.29 42.67 -6.22 48.17 C-6.5 49.83 -6.5 49.83 -6.78 51.52 C-7.36 54.93 -7.93 58.34 -8.5 61.75 C-8.7 62.92 -8.89 64.1 -9.1 65.31 C-11.57 80.05 -14 94.78 -15.86 109.61 C-15.99 110.59 -16.11 111.57 -16.25 112.58 C-16.35 113.4 -16.45 114.22 -16.55 115.06 C-17 117 -17 117 -19 119 C-19.75 120.55 -20.45 122.13 -21.11 123.71 C-21.74 125.19 -21.74 125.19 -22.37 126.69 C-23.06 128.3 -23.06 128.3 -23.75 129.94 C-44.25 177.29 -74.34 219.63 -108.95 257.74 C-110.83 259.81 -112.67 261.9 -114.5 264 C-115.67 265.33 -116.83 266.67 -118 268 C-118.64 268.73 -119.28 269.47 -119.94 270.23 C-125.09 276.05 -130.49 281.57 -136.04 287 C-138.72 289.65 -141.3 292.29 -143.68 295.21 C-145.63 297.55 -147.48 299.44 -149.81 301.38 C-152.62 303.76 -155.25 306.23 -157.81 308.88 C-161.64 312.76 -165.77 316.12 -170.02 319.52 C-173.24 322.2 -176.27 325.01 -179.31 327.88 C-185.29 333.47 -191.57 338.54 -198.07 343.51 C-200.12 345.09 -202.15 346.7 -204.18 348.31 C-218.12 359.33 -232.57 369.54 -247.44 379.25 C-248.47 379.93 -248.47 379.93 -249.53 380.63 C-250.5 381.25 -250.5 381.25 -251.5 381.89 C-252.33 382.43 -252.33 382.43 -253.19 382.99 C-255.38 384.22 -257.65 385.11 -260 386 C-258.36 375.07 -255.39 364.43 -252.62 353.75 C-252.14 351.86 -251.65 349.96 -251.16 348.07 C-248.77 338.76 -246.34 329.46 -243.82 320.18 C-242.97 316.87 -242.27 313.54 -241.56 310.19 C-239.23 302.71 -233.93 299.22 -227.68 295.11 C-225.19 293.47 -222.79 291.7 -220.38 289.94 C-219.48 289.29 -218.58 288.64 -217.66 287.97 C-213.53 284.91 -209.59 281.65 -205.64 278.36 C-203.79 276.82 -201.92 275.3 -200.05 273.77 C-191.08 266.43 -182.23 258.96 -173.51 251.32 C-172.29 250.25 -171.05 249.19 -169.82 248.12 C-157.32 237.38 -145.66 225.76 -134 214.12 C-133.36 213.49 -132.72 212.85 -132.07 212.2 C-125.49 205.64 -119 199.1 -113 192 C-111.55 190.39 -110.09 188.79 -108.62 187.19 C-103.89 181.94 -99.43 176.51 -95 171 C-94.1 169.89 -93.2 168.78 -92.29 167.67 C-80.89 153.6 -69.78 139.25 -60 124 C-59.13 122.67 -58.26 121.35 -57.39 120.02 C-51.78 111.44 -46.35 102.76 -41.14 93.91 C-40.3 92.51 -39.45 91.11 -38.59 89.72 C-34.87 83.65 -31.65 77.45 -28.62 71 C-28.15 70 -27.68 69 -27.19 67.97 C-21.32 55.51 -15.56 43.12 -11.07 30.08 C-10.14 27.41 -9.14 24.8 -8.06 22.19 C-5.09 14.9 -2.59 7.43 0 0 Z " fill="#84B3C2" transform="translate(662,554)"/>
<path d="M0 0 C2.95 3.23 3.52 4.78 3.94 9.06 C3.18 18.34 -2.8 24.52 -9.55 30.4 C-38.89 54.14 -78.04 64.58 -113.94 73.75 C-115.2 74.07 -115.2 74.07 -116.49 74.4 C-129.67 77.78 -142.89 80.84 -156.2 83.68 C-156.85 83.82 -157.5 83.96 -158.18 84.1 C-158.83 84.24 -159.49 84.38 -160.16 84.52 C-168.65 86.35 -177.1 88.34 -185.56 90.31 C-199.47 93.55 -213.4 96.64 -227.36 99.63 C-236.28 101.54 -245.19 103.48 -254.06 105.62 C-254.89 105.82 -255.71 106.02 -256.56 106.23 C-258.11 106.6 -259.66 106.98 -261.22 107.35 C-274.43 110.54 -287.76 113.14 -301.11 115.7 C-317.05 118.77 -332.92 122.12 -348.77 125.62 C-357.06 127.44 -365.37 128.99 -373.75 130.38 C-375.05 130.59 -376.35 130.81 -377.69 131.03 C-388.63 132.82 -399.6 134.33 -410.62 135.57 C-412.42 135.77 -414.22 135.98 -416.02 136.19 C-430.82 137.95 -445.48 138.11 -460.38 137.88 C-460.38 137.55 -460.38 137.21 -460.38 136.88 C-459.45 136.74 -458.52 136.61 -457.57 136.47 C-455.77 136.21 -455.77 136.21 -453.94 135.94 C-452.74 135.76 -451.55 135.59 -450.32 135.41 C-447.5 135.19 -447.5 135.19 -446.38 133.88 C-444.28 133.58 -442.19 133.29 -440.09 133.03 C-414.79 129.87 -390.15 122.48 -365.94 114.69 C-363.2 113.82 -360.45 112.96 -357.71 112.11 C-349.24 109.48 -340.87 106.86 -332.75 103.29 C-329.06 101.74 -325.32 100.36 -321.57 98.98 C-301 91.42 -280.81 82.88 -260.84 73.88 C-257.5 72.37 -254.15 70.9 -250.79 69.44 C-239.48 64.51 -228.24 59.47 -217.06 54.25 C-216.44 53.96 -215.82 53.67 -215.19 53.37 C-207.68 49.87 -200.2 46.32 -192.73 42.73 C-172.52 33.04 -152.11 24.05 -131.32 15.66 C-129.48 14.92 -127.64 14.17 -125.8 13.42 C-115.97 9.44 -106.22 5.54 -95.95 2.84 C-93.15 2.08 -90.41 1.28 -87.64 0.41 C-77.29 -2.82 -67.11 -5.5 -56.38 -7.12 C-55.2 -7.31 -54.02 -7.49 -52.8 -7.68 C-35.65 -9.73 -14.32 -11.36 0 0 Z " fill="#A51637" transform="translate(745.375,949.125)"/>
<path d="M0 0 C0.66 0 1.32 0 2 0 C2.98 2.27 3.96 4.54 4.94 6.81 C5.22 7.46 5.49 8.1 5.78 8.76 C8.77 15.72 9.39 19.75 7 27 C4.5 30 4.5 30 2 32 C1.34 32.66 0.68 33.32 0 34 C0 34.97 0 35.94 0 36.94 C0 40 0 40 -2 43 C-2.66 43 -3.32 43 -4 43 C-4.33 43.99 -4.66 44.98 -5 46 C-6.2 47.87 -7.46 49.7 -8.75 51.5 C-9.43 52.46 -10.1 53.42 -10.8 54.41 C-13.03 57.04 -14.99 58.37 -18 60 C-19.37 61.29 -20.71 62.63 -22 64 C-22.68 64.66 -23.36 65.32 -24.06 66 C-25.9 67.9 -27.46 69.85 -29 72 C-28.01 72 -27.02 72 -26 72 C-25.45 75.08 -25.54 77.23 -27.17 79.95 C-29.05 82.36 -31 84.68 -33 87 C-33.87 88.04 -34.73 89.08 -35.6 90.12 C-43.49 99.58 -51.6 108.78 -60.45 117.38 C-62.49 119.48 -64.4 121.61 -66.31 123.83 C-69.94 128.02 -73.86 131.8 -77.94 135.56 C-78.6 136.18 -79.27 136.8 -79.95 137.44 C-84.55 141.72 -89.25 145.89 -94 150 C-94.59 150.52 -95.19 151.03 -95.8 151.56 C-107.68 161.87 -120.02 171.25 -132.8 180.42 C-134.74 181.81 -136.68 183.22 -138.61 184.64 C-162.28 201.93 -188.11 216.35 -214 230 C-215.09 230.58 -215.09 230.58 -216.21 231.17 C-220.76 233.55 -225.35 235.82 -230 238 C-230.88 238.41 -231.76 238.83 -232.67 239.26 C-248.73 246.73 -265.01 252.99 -282 258 C-283.08 258.32 -284.16 258.64 -285.27 258.97 C-297.78 262.54 -309.84 264.54 -322.88 264.69 C-324.01 264.71 -325.14 264.73 -326.31 264.75 C-336.03 264.61 -343.45 261.32 -352 257 C-352.22 248.97 -351.58 241.26 -350.5 233.31 C-350.36 232.22 -350.21 231.12 -350.07 229.99 C-349.72 227.33 -349.36 224.66 -349 222 C-348.67 222 -348.34 222 -348 222 C-347.64 223.48 -347.29 224.96 -346.94 226.44 C-346.74 227.26 -346.54 228.08 -346.34 228.93 C-346.23 229.62 -346.12 230.3 -346 231 C-346.33 231.33 -346.66 231.66 -347 232 C-347.02 233.38 -346.99 234.75 -346.94 236.12 C-346.87 240.51 -347.67 243.85 -349 248 C-349 248.99 -349 249.98 -349 251 C-347.99 250.69 -346.98 250.38 -345.94 250.06 C-343.4 249.32 -341.22 248.92 -338.56 248.62 C-334.88 247.98 -332.44 246.85 -329.19 245.12 C-319.2 240 -319.2 240 -314 240 C-314.33 240.66 -314.66 241.32 -315 242 C-262.6 220.3 -212.59 195.6 -166 163 C-164.55 161.99 -163.1 160.99 -161.64 159.98 C-152.23 153.43 -143.07 146.6 -134.01 139.56 C-132.07 138.05 -130.12 136.55 -128.17 135.05 C-122.04 130.31 -116.14 125.44 -110.44 120.19 C-107.8 117.82 -105.07 115.6 -102.31 113.38 C-98.57 110.35 -95.11 107.24 -91.78 103.78 C-90.04 102.04 -88.23 100.44 -86.36 98.85 C-81.68 94.78 -77.31 90.45 -72.94 86.06 C-72.17 85.3 -71.41 84.54 -70.62 83.76 C-66.44 79.57 -62.41 75.28 -58.55 70.79 C-56.46 68.37 -54.29 66.03 -52.12 63.69 C-46.17 57.14 -40.57 50.34 -35.17 43.34 C-34.68 42.71 -34.2 42.08 -33.7 41.44 C-32.76 40.22 -31.82 39 -30.89 37.77 C-28.22 34.3 -25.48 31.7 -22 29 C-21.34 28.01 -20.68 27.02 -20 26 C-19.34 26 -18.68 26 -18 26 C-17.92 25.38 -17.84 24.76 -17.75 24.12 C-17 22 -17 22 -14.94 20.75 C-14.3 20.5 -13.66 20.25 -13 20 C-13.1 19.3 -13.21 18.6 -13.31 17.88 C-12.94 14.44 -11.59 12.99 -9.3 10.48 C-7.56 8.5 -6.33 6.28 -5 4 C-4.34 3.34 -3.68 2.68 -3 2 C-2.01 2 -1.02 2 0 2 C0 1.34 0 0.68 0 0 Z " fill="#14233E" transform="translate(674,407)"/>
<path d="M0 0 C8.85 9.59 10.52 19.76 10.23 32.27 C9.36 50.39 3.71 66.83 -4.13 83.02 C-4.46 83.71 -4.79 84.39 -5.13 85.09 C-6.74 88.43 -8.4 91.74 -10.13 95.02 C-10.46 95.02 -10.79 95.02 -11.13 95.02 C-11.22 94.26 -11.31 93.5 -11.39 92.71 C-12.73 82.9 -15.1 76.29 -22.76 69.77 C-45.03 53.4 -75.04 53.97 -101.2 57.77 C-109.92 59.13 -118.41 60.95 -126.92 63.27 C-131.14 64.26 -134.83 64.33 -139.13 64.02 C-138.64 62.54 -138.64 62.54 -138.13 61.02 C-138.79 61.02 -139.45 61.02 -140.13 61.02 C-140.46 59.7 -140.79 58.38 -141.13 57.02 C-140.17 56.34 -140.17 56.34 -139.2 55.65 C-136.11 53.22 -136.15 52.17 -135.63 48.15 C-135.55 47.44 -135.47 46.73 -135.39 45.99 C-135.13 44.02 -135.13 44.02 -134.51 41.65 C-133.92 39.91 -133.92 39.91 -135.13 38.02 C-135.9 38.52 -136.66 39.01 -137.45 39.52 C-140.13 41.02 -140.13 41.02 -143.13 41.02 C-143.46 40.36 -143.79 39.7 -144.13 39.02 C-144.75 39.98 -144.75 39.98 -145.38 40.96 C-148.32 44.42 -152.21 44.19 -156.57 44.87 C-163.93 46.08 -169.99 47.95 -176.58 51.62 C-179.05 52.98 -181.51 54 -184.13 55.02 C-186.19 56.06 -188.23 57.13 -190.27 58.22 C-192.13 59.02 -192.13 59.02 -195.13 59.02 C-193.64 54.41 -191.49 51.46 -188.13 48.02 C-186.81 48.02 -185.49 48.02 -184.13 48.02 C-183.8 47.03 -183.47 46.04 -183.13 45.02 C-182.35 44.94 -181.57 44.86 -180.76 44.77 C-179.89 44.53 -179.03 44.28 -178.13 44.02 C-177.04 42.09 -177.04 42.09 -176.13 40.02 C-174.81 39.34 -173.47 38.68 -172.13 38.02 C-170.12 36.48 -168.18 34.88 -166.23 33.27 C-163.69 31.76 -162.04 31.79 -159.13 32.02 C-158.8 31.03 -158.47 30.04 -158.13 29.02 C-154.64 27.28 -152.06 26.02 -148.13 26.02 C-147.47 25.03 -146.81 24.04 -146.13 23.02 C-144.18 21.96 -144.18 21.96 -141.88 21.02 C-139.1 19.86 -136.49 18.68 -133.82 17.27 C-131.13 16.02 -131.13 16.02 -127.13 16.02 C-126.64 14.54 -126.64 14.54 -126.13 13.02 C-125.14 12.69 -124.15 12.36 -123.13 12.02 C-123.13 12.68 -123.13 13.34 -123.13 14.02 C-122.14 13.36 -121.15 12.7 -120.13 12.02 C-118.47 11.67 -116.8 11.33 -115.13 11.02 C-114.64 10.53 -114.64 10.53 -114.13 10.02 C-112.47 9.98 -110.8 9.98 -109.13 10.02 C-109.13 8.7 -109.13 7.38 -109.13 6.02 C-108.48 5.97 -107.83 5.93 -107.16 5.88 C-102.17 5.45 -97.85 4.78 -93.13 3.02 C-91.47 2.69 -89.8 2.36 -88.13 2.02 C-87.08 1.67 -86.03 1.32 -84.95 0.96 C-82.13 0.02 -82.13 0.02 -80.13 0.02 C-78.77 -0.94 -77.43 -1.94 -76.13 -2.98 C-75.64 -1.99 -75.64 -1.99 -75.13 -0.98 C-74.8 -1.97 -74.47 -2.96 -74.13 -3.98 C-73.14 -3.98 -72.15 -3.98 -71.13 -3.98 C-71.13 -4.64 -71.13 -5.3 -71.13 -5.98 C-68.84 -6.46 -66.55 -6.94 -64.26 -7.41 C-62.98 -7.68 -61.71 -7.95 -60.39 -8.22 C-40.84 -11.92 -16.05 -13.87 0 0 Z " fill="#ED463A" transform="translate(771.1328125,852.9765625)"/>
<path d="M0 0 C0.66 0 1.32 0 2 0 C1.16 10.63 0.08 21.13 -1.81 31.62 C-3.82 42.97 -5.19 54.37 -6.5 65.81 C-6.61 66.74 -6.71 67.67 -6.82 68.62 C-7.56 75.08 -8.28 81.54 -9 88 C-9.68 94.13 -10.37 100.25 -11.06 106.38 C-11.14 107.08 -11.22 107.79 -11.3 108.52 C-12.58 119.85 -14.05 131.14 -15.69 142.42 C-16.61 148.79 -17.31 155.12 -17.75 161.54 C-18 164 -18 164 -19 167 C-21.77 168.44 -24.48 169.71 -27.34 170.92 C-28.21 171.3 -29.07 171.68 -29.96 172.06 C-31.83 172.88 -33.7 173.69 -35.57 174.49 C-39.51 176.18 -43.44 177.9 -47.37 179.62 C-49.37 180.49 -51.36 181.36 -53.36 182.22 C-62.22 186.08 -71.03 190.05 -79.81 194.06 C-81.18 194.68 -82.54 195.31 -83.9 195.93 C-88.6 198.07 -93.29 200.22 -97.99 202.37 C-109.46 207.62 -120.98 212.8 -132.52 217.92 C-134.03 218.59 -135.54 219.26 -137.05 219.94 C-144.6 223.3 -152.08 226.6 -160 229 C-160.66 228.34 -161.32 227.68 -162 227 C-160.05 225.16 -158.09 223.33 -156.12 221.5 C-155.57 220.98 -155.01 220.45 -154.44 219.91 C-150.23 216 -150.23 216 -148 216 C-148 215.34 -148 214.68 -148 214 C-147.34 214 -146.68 214 -146 214 C-146 213.34 -146 212.68 -146 212 C-144.47 210.65 -142.88 209.38 -141.27 208.13 C-135.21 203.28 -129.75 198.02 -124.3 192.51 C-122.74 190.93 -121.18 189.36 -119.61 187.79 C-114.2 182.37 -108.96 176.84 -104 171 C-102.97 169.82 -101.94 168.65 -100.9 167.47 C-95.87 161.7 -91.04 156.06 -87.09 149.48 C-86.73 148.99 -86.37 148.5 -86 148 C-85.34 148 -84.68 148 -84 148 C-83.61 147.14 -83.61 147.14 -83.21 146.26 C-81.91 143.82 -80.4 141.93 -78.62 139.81 C-73.26 133.21 -68.45 126.24 -63.59 119.26 C-62 117.01 -60.41 114.76 -58.81 112.51 C-53.96 105.7 -49.14 98.9 -44.73 91.79 C-43.51 89.81 -42.24 87.87 -40.95 85.93 C-34.66 76.39 -29.41 66.34 -24.19 56.19 C-23.82 55.47 -23.45 54.76 -23.07 54.02 C-17.08 42.36 -11.37 30.86 -7.44 18.31 C-5.42 11.88 -3.17 5.96 0 0 Z " fill="#152E52" transform="translate(636,708)"/>
<path d="M0 0 C1.54 3.08 0.18 5.11 -0.88 8.31 C-5.73 23.19 -5.28 37.78 1.12 52.19 C8.66 66.2 22.43 72.53 37 77 C38.66 77.36 40.33 77.71 42 78 C42 78.66 42 79.32 42 80 C42.99 80 43.98 80 45 80 C45 80.99 45 81.98 45 83 C45.61 82.83 46.23 82.66 46.86 82.49 C48.08 82.19 48.08 82.19 49.31 81.88 C50.51 81.56 50.51 81.56 51.74 81.24 C54 81 54 81 57 83 C58.67 83.04 60.33 83.04 62 83 C63.34 83.29 64.68 83.61 66 84 C66 84.66 66 85.32 66 86 C67.49 86.5 67.49 86.5 69 87 C69 87.66 69 88.32 69 89 C69.99 89 70.98 89 72 89 C72.99 92.47 72.99 92.47 74 96 C75.98 96.5 75.98 96.5 78 97 C78.33 98.32 78.66 99.64 79 101 C79.99 100.67 80.98 100.34 82 100 C84.48 101.11 84.48 101.11 87.19 102.75 C88.09 103.28 88.99 103.81 89.92 104.36 C90.61 104.9 91.29 105.44 92 106 C92 106.99 92 107.98 92 109 C88.87 110.86 86.63 111.2 83 111 C83 111.66 83 112.32 83 113 C84.24 113.16 85.48 113.33 86.75 113.5 C87.45 113.59 88.14 113.69 88.86 113.78 C91.92 114.09 94.68 114.07 97.69 113.44 C98.83 113.22 98.83 113.22 100 113 C100.33 113.33 100.66 113.66 101 114 C101.66 112.35 102.32 110.7 103 109 C106.89 109.54 108.93 110.62 112 113 C112.66 113.14 113.32 113.29 114 113.44 C116.78 114.22 118.1 115.89 120 118 C119.67 118.66 119.34 119.32 119 120 C120.05 119.78 120.05 119.78 121.12 119.56 C124.08 118.99 127.03 118.48 130 118 C130.33 117.01 130.66 116.02 131 115 C131.99 114.34 132.98 113.68 134 113 C133.67 112.01 133.34 111.02 133 110 C135.29 107.32 136.93 106.54 140.38 105.94 C144.75 105.07 148.45 104.17 152.06 101.44 C154.67 99.5 157.03 99.17 160.19 98.62 C160.79 98.42 161.38 98.21 162 98 C162.33 97.01 162.66 96.02 163 95 C165.7 94.17 168.24 93.54 171 93 C171.91 92.81 172.82 92.63 173.75 92.43 C176.17 91.94 178.58 91.47 181 91 C180.67 92.98 180.34 94.96 180 97 C178.91 97.08 177.81 97.16 176.69 97.25 C173.04 97.65 173.04 97.65 171.19 99.75 C169.92 102.02 169.92 102.02 169.06 104.69 C168.71 105.45 168.36 106.21 168 107 C166 107.62 166 107.62 164 108 C163.34 108.99 162.68 109.98 162 111 C159.02 112.15 158.13 112.04 155 111 C155.33 111.99 155.66 112.98 156 114 C153 116 153 116 150 117 C149.91 117.61 149.81 118.21 149.72 118.84 C148.76 121.74 147.08 122.35 144.44 123.69 C143.48 124.15 143.48 124.15 142.5 124.62 C141.13 125.32 139.75 126.02 138.38 126.72 C137.66 127.09 136.94 127.46 136.2 127.84 C132.52 129.78 128.95 131.92 125.38 134.06 C101.09 148.52 81.65 147.96 54 141 C28.57 134.29 3.81 120.06 -10 97 C-19.67 79.64 -22.22 58.19 -17.31 38.94 C-16.57 36.61 -15.8 34.3 -15 32 C-14.65 30.87 -14.3 29.74 -13.94 28.57 C-11.03 19.65 -6.74 6.74 0 0 Z " fill="#F16D24" transform="translate(318,880)"/>
<path d="M0 0 C0.99 0.5 0.99 0.5 2 1 C0.48 2.03 0.48 2.03 -1.08 3.09 C-13.09 11.27 -24.76 19.78 -36 29 C-37.44 30.18 -37.44 30.18 -38.91 31.38 C-52.48 42.6 -65.53 54.63 -77 68 C-77.47 68.55 -77.94 69.1 -78.43 69.66 C-102.93 98.44 -119.62 131.57 -117 170 C-116.28 175.19 -114.77 180.08 -113 185 C-112.63 186.07 -112.25 187.13 -111.87 188.23 C-103.56 209.94 -85.51 224.38 -65 234 C-56.24 237.84 -47.22 240.53 -38 243 C-38 243.33 -38 243.66 -38 244 C-71.3 244.88 -103.06 239.17 -129 217 C-130.05 216.11 -130.05 216.11 -131.11 215.2 C-144.32 202.95 -150.26 185.33 -151.16 167.81 C-152.01 133.46 -130.56 102.1 -108 78 C-100.67 70.33 -93.21 62.74 -85 56 C-84.47 55.56 -83.95 55.12 -83.41 54.67 C-58.39 33.76 -29.9 13.37 0 0 Z " fill="#F9952F" transform="translate(391,790)"/>
<path d="M0 0 C2.61 -0 5.22 -0 7.83 -0 C13.26 -0 18.69 -0 24.13 0 C29.61 0.01 35.1 0.01 40.59 0 C70.76 -0.02 100.92 0.01 131.07 1.13 C131.4 1.79 131.73 2.45 132.07 3.13 C131 3.11 129.93 3.09 128.82 3.07 C125.33 2.97 125.33 2.97 123.07 3.7 C120.01 4.37 117.15 3.57 114.07 3.13 C112.74 3.45 111.4 3.78 110.07 4.13 C107.32 3.7 107.32 3.7 105.07 3.13 C105.4 5.44 105.73 7.75 106.07 10.13 C101.74 13.43 98.32 15.51 93.07 17.13 C92.74 17.79 92.41 18.45 92.07 19.13 C91.3 18.82 91.3 18.82 90.51 18.51 C87.05 17.98 84.4 19.14 81.07 20.13 C78.32 20.26 78.32 20.26 76.07 20.13 C73.22 20.01 73.22 20.01 71.07 20.63 C69.07 21.13 69.07 21.13 66.07 21.13 C62.95 21.25 59.82 21.41 56.7 21.57 C55.85 21.61 55 21.65 54.12 21.69 C53.29 21.73 52.47 21.77 51.61 21.82 C50.49 21.87 50.49 21.87 49.34 21.93 C47.04 22.09 47.04 22.09 44.7 22.65 C41.59 23.22 38.69 23.23 35.52 23.2 C34.27 23.19 33.01 23.18 31.72 23.17 C29.09 23.15 26.47 23.12 23.84 23.09 C16.35 22.98 16.35 22.98 8.89 23.62 C3.67 24.32 -1.48 24.28 -6.74 24.26 C-7.75 24.26 -8.77 24.27 -9.82 24.27 C-16.57 24.26 -23.21 23.86 -29.93 23.13 C-30.26 23.79 -30.59 24.45 -30.93 25.13 C-30.93 24.47 -30.93 23.81 -30.93 23.13 C-31.92 23.13 -32.91 23.13 -33.93 23.13 C-34.26 23.79 -34.59 24.45 -34.93 25.13 C-37.93 25.13 -37.93 25.13 -40.93 24.13 C-44.03 24.37 -44.03 24.37 -46.93 25.13 C-47.26 25.79 -47.59 26.45 -47.93 27.13 C-48.59 27.13 -49.25 27.13 -49.93 27.13 C-50.26 26.8 -50.59 26.47 -50.93 26.13 C-51.59 26.79 -52.25 27.45 -52.93 28.13 C-52.93 27.47 -52.93 26.81 -52.93 26.13 C-53.92 25.8 -54.91 25.47 -55.93 25.13 C-55.93 24.8 -55.93 24.47 -55.93 24.13 C-56.61 24.14 -57.3 24.14 -58.01 24.15 C-61.1 24.17 -64.2 24.18 -67.3 24.2 C-68.92 24.21 -68.92 24.21 -70.57 24.22 C-72.12 24.23 -72.12 24.23 -73.7 24.23 C-74.65 24.24 -75.61 24.24 -76.59 24.25 C-78.93 24.13 -78.93 24.13 -80.93 23.13 C-81.26 23.79 -81.59 24.45 -81.93 25.13 C-81.93 24.47 -81.93 23.81 -81.93 23.13 C-82.97 23.2 -84.01 23.28 -85.09 23.35 C-94.04 23.93 -102.96 24.24 -111.93 24.26 C-113.37 24.26 -113.37 24.26 -114.84 24.27 C-115.73 24.27 -116.63 24.27 -117.55 24.27 C-118.35 24.26 -119.14 24.26 -119.96 24.26 C-121.93 24.13 -121.93 24.13 -123.93 23.13 C-125.68 22.99 -127.44 22.92 -129.2 22.87 C-130.31 22.83 -131.42 22.8 -132.56 22.77 C-133.77 22.73 -134.97 22.7 -136.22 22.67 C-138.8 22.59 -141.37 22.51 -143.95 22.43 C-148 22.31 -152.05 22.2 -156.09 22.08 C-171.95 21.63 -187.7 20.9 -203.49 19.36 C-209.44 18.8 -215.4 18.42 -221.36 18.01 C-222.59 17.92 -223.83 17.84 -225.1 17.75 C-228.04 17.54 -230.98 17.34 -233.93 17.13 C-233.93 16.8 -233.93 16.47 -233.93 16.13 C-232.88 16.12 -231.83 16.1 -230.75 16.09 C-196.97 15.58 -163.38 13.76 -130.18 6.99 C-128.81 6.71 -128.81 6.71 -127.41 6.43 C-125.78 6.09 -124.14 5.73 -122.51 5.35 C-116.64 4.1 -110.94 4.07 -104.96 4.14 C-95.44 4.22 -85.98 3.41 -76.49 2.7 C-50.99 0.78 -25.57 -0.02 0 0 Z " fill="#C6CAD2" transform="translate(504.92578125,1070.8671875)"/>
<path d="M0 0 C0.33 0.66 0.66 1.32 1 2 C1.99 2.5 1.99 2.5 3 3 C2 6 2 6 -0.08 7.29 C-0.98 7.71 -1.88 8.13 -2.81 8.56 C-4.3 9.26 -4.3 9.26 -5.82 9.98 C-7.4 10.7 -7.4 10.7 -9 11.44 C-10.02 11.92 -11.03 12.39 -12.08 12.88 C-15.05 14.27 -18.02 15.64 -21 17 C-22.33 17.61 -22.33 17.61 -23.69 18.24 C-24.49 18.6 -25.3 18.97 -26.12 19.35 C-26.83 19.67 -27.53 19.99 -28.26 20.32 C-30 21 -30 21 -32 21 C-31.67 22.65 -31.34 24.3 -31 26 C-39.5 32.06 -48.17 37.6 -57.16 42.9 C-60.1 44.66 -63.02 46.45 -65.94 48.25 C-66.98 48.89 -68.03 49.54 -69.11 50.2 C-71.65 51.78 -74.17 53.39 -76.69 55 C-80 57 -80 57 -82 57 C-82.33 57.99 -82.66 58.98 -83 60 C-78.33 59.44 -74.8 58.14 -70.61 56.02 C-69.42 55.43 -68.22 54.84 -67.02 54.24 C-65.16 53.31 -63.29 52.37 -61.43 51.42 C-59.62 50.51 -57.81 49.61 -55.99 48.71 C-54.91 48.17 -53.83 47.62 -52.72 47.06 C-50 46 -50 46 -47 47 C-62.78 58.06 -78.78 68.8 -95.2 78.89 C-96.97 79.98 -98.73 81.08 -100.49 82.18 C-106.24 85.76 -112.03 89.18 -118 92.38 C-120.26 93.6 -122.49 94.85 -124.71 96.12 C-136.04 102.63 -147.59 108.79 -160 113 C-160.76 113.28 -161.53 113.55 -162.31 113.84 C-168.65 115.99 -174.34 116.34 -181 116 C-179.6 112.5 -178.29 111.29 -174.88 109.75 C-173.79 109.25 -173.79 109.25 -172.68 108.73 C-171.85 108.37 -171.85 108.37 -171 108 C-173.35 107.31 -173.35 107.31 -176 107 C-176.99 107.66 -177.98 108.32 -179 109 C-180.32 109 -181.64 109 -183 109 C-183 108.34 -183 107.68 -183 107 C-186.3 106.67 -189.6 106.34 -193 106 C-193 105.34 -193 104.68 -193 104 C-194.14 103.81 -194.14 103.81 -195.31 103.62 C-198 103 -198 103 -201 101 C-201 100.34 -201 99.68 -201 99 C-201.96 98.63 -201.96 98.63 -202.94 98.25 C-205 97 -205 97 -206 93 C-209.96 92.34 -213.92 91.68 -218 91 C-218 90.34 -218 89.68 -218 89 C-226.58 89 -235.16 89 -244 89 C-244 88.67 -244 88.34 -244 88 C-236.41 88 -228.82 88 -221 88 C-220.67 87.34 -220.34 86.68 -220 86 C-219.03 86.03 -218.07 86.07 -217.07 86.1 C-212.55 86.09 -208.29 85.29 -203.88 84.38 C-202.57 84.11 -202.57 84.11 -201.24 83.84 C-164.49 76.06 -130.06 60.4 -96 45 C-95.35 44.71 -94.7 44.41 -94.03 44.11 C-81.55 38.46 -69.06 32.81 -56.62 27.06 C-46.15 22.22 -35.64 17.48 -25.06 12.87 C-23.75 12.3 -22.44 11.73 -21.12 11.15 C-14.16 8.11 -7.26 5.25 0 3 C0 2.01 0 1.02 0 0 Z " fill="#FCA954" transform="translate(617,872)"/>
<path d="M0 0 C1.15 2.09 1.15 2.09 2 4 C0.73 3.97 0.73 3.97 -0.56 3.94 C-24.06 3.43 -24.06 3.43 -47 8 C-49.19 8.65 -51.39 9.29 -53.58 9.94 C-64.39 13.18 -75.05 16.54 -85.5 20.81 C-89.11 22.27 -92.74 23.64 -96.39 24.96 C-108.65 29.44 -120.68 34.65 -132.25 40.69 C-137.02 43.14 -141.99 44.96 -147.03 46.77 C-152.13 48.62 -157.06 50.77 -162 53 C-184.34 62.88 -184.34 62.88 -195.18 66.93 C-198.1 68.04 -200.99 69.23 -203.88 70.44 C-225.28 79.41 -247.03 87.53 -269 95 C-269.63 95.21 -270.25 95.43 -270.9 95.65 C-295.81 104.12 -320.79 112.26 -346.31 118.77 C-349.76 119.66 -353.18 120.61 -356.6 121.6 C-366.45 124.42 -375.68 126.96 -386 127 C-386 126.34 -386 125.68 -386 125 C-384.73 124.67 -383.45 124.34 -382.14 124 C-371.27 121.15 -360.54 117.98 -349.88 114.44 C-348.78 114.07 -347.68 113.71 -346.54 113.34 C-340.21 111.2 -334.04 108.82 -327.89 106.2 C-323.37 104.32 -318.78 102.68 -314.19 101 C-294.65 93.77 -275.45 85.56 -256.46 77 C-253.12 75.5 -249.77 74.02 -246.41 72.56 C-235.11 67.64 -223.86 62.6 -212.69 57.38 C-212.07 57.09 -211.45 56.8 -210.81 56.5 C-203.31 52.99 -195.82 49.44 -188.36 45.86 C-168.14 36.17 -147.74 27.17 -126.95 18.79 C-125.11 18.04 -123.26 17.29 -121.42 16.55 C-111.59 12.56 -101.85 8.66 -91.57 5.96 C-88.78 5.21 -86.03 4.4 -83.27 3.54 C-72.91 0.31 -62.74 -2.37 -52 -4 C-50.82 -4.18 -49.64 -4.36 -48.43 -4.55 C-33.38 -6.35 -13.53 -8.17 0 0 Z " fill="#610A1B" transform="translate(741,946)"/>
<path d="M0 0 C1.3 2.6 0.79 3.38 -0.1 6.1 C-1.86 11.06 -4.38 15.14 -7.38 19.44 C-7.9 20.2 -8.42 20.97 -8.96 21.76 C-10.62 24.18 -12.31 26.59 -14 29 C-14.56 29.79 -15.11 30.59 -15.69 31.4 C-21.52 39.68 -27.46 47.81 -33.97 55.57 C-35.96 57.95 -37.89 60.37 -39.81 62.81 C-47.95 73.01 -56.59 82.76 -65.46 92.32 C-66.64 93.6 -67.8 94.9 -68.96 96.21 C-74.63 102.58 -80.52 108.67 -86.56 114.69 C-87.46 115.59 -88.35 116.48 -89.27 117.41 C-93.77 121.9 -98.33 126.26 -103.16 130.41 C-106.13 132.98 -108.96 135.68 -111.81 138.38 C-116.8 143.04 -121.9 147.49 -127.23 151.76 C-129.77 153.81 -132.25 155.91 -134.73 158.03 C-141.11 163.49 -147.66 168.67 -154.35 173.74 C-156.06 175.05 -157.76 176.38 -159.46 177.71 C-160.03 178.15 -160.6 178.6 -161.19 179.06 C-162.77 180.3 -164.35 181.53 -165.93 182.77 C-169.19 185.14 -172.47 187.07 -176 189 C-175.42 181.38 -174.14 174.03 -172.56 166.56 C-172.35 165.49 -172.13 164.41 -171.9 163.31 C-171.69 162.28 -171.48 161.25 -171.25 160.19 C-170.96 158.8 -170.96 158.8 -170.67 157.39 C-170 155 -170 155 -168 152 C-167.34 152 -166.68 152 -166 152 C-165.79 151.44 -165.59 150.89 -165.38 150.31 C-162.94 146.23 -159.49 143.5 -155 142 C-153.29 140.37 -151.63 138.7 -150 137 C-142.58 129.79 -134.88 123.22 -126.6 117.01 C-119.14 111.4 -111.98 105.46 -104.81 99.5 C-102.48 97.57 -100.12 95.69 -97.75 93.81 C-93.39 90.35 -89.14 86.76 -84.89 83.14 C-81.39 80.16 -77.84 77.25 -74.25 74.38 C-70.01 70.93 -66.14 67.28 -62.36 63.34 C-60.46 61.46 -58.54 59.74 -56.52 58 C-51.13 53.33 -46.13 48.28 -41.1 43.23 C-39.44 41.57 -37.78 39.91 -36.11 38.25 C-31.07 33.21 -26.1 28.14 -21.47 22.71 C-19.21 20.08 -16.85 17.55 -14.5 15 C-10.7 10.88 -6.96 6.71 -3.34 2.43 C-2 1 -2 1 0 0 Z " fill="#46AEC3" transform="translate(635,512)"/>
<path d="M0 0 C0.99 0.5 0.99 0.5 2 1 C0.48 2.03 0.48 2.03 -1.08 3.09 C-13.09 11.27 -24.76 19.78 -36 29 C-37.44 30.18 -37.44 30.18 -38.91 31.38 C-52.48 42.6 -65.53 54.63 -77 68 C-77.47 68.55 -77.94 69.1 -78.43 69.66 C-90.94 84.36 -100.82 100.55 -109 118 C-110.32 118 -111.64 118 -113 118 C-112.91 119.11 -112.91 119.11 -112.81 120.25 C-113.03 123.49 -113.82 124.65 -116 127 C-116.99 127.5 -116.99 127.5 -118 128 C-118.66 128.99 -119.32 129.98 -120 131 C-119.67 128.36 -119.34 125.72 -119 123 C-122.37 123 -124.38 125.04 -127 127 C-128.17 128.92 -128.17 128.92 -129 131 C-131 133.75 -131 133.75 -133 136 C-133.66 136 -134.32 136 -135 136 C-134.67 136.99 -134.34 137.98 -134 139 C-135.3 141.02 -136.64 143.02 -138 145 C-138 145.99 -138 146.98 -138 148 C-139.35 149.58 -139.35 149.58 -141.06 151.25 C-142.76 153.04 -142.76 153.04 -144 155 C-143.84 158.61 -143.84 158.61 -143 162 C-143.94 165.18 -145.15 167.22 -147 170 C-147.99 170 -148.98 170 -150 170 C-150.84 132.68 -131.23 102.32 -106.09 76 C-99.34 69.05 -92.5 62.16 -85 56 C-84.47 55.56 -83.95 55.12 -83.41 54.67 C-58.39 33.76 -29.9 13.37 0 0 Z " fill="#F17326" transform="translate(391,790)"/>
<path d="M0 0 C0.66 0 1.32 0 2 0 C3.12 5.75 3.12 5.75 2 8 C1.34 8 0.68 8 0 8 C0 8.99 0 9.98 0 11 C0.99 11.49 0.99 11.49 2 12 C-24.78 22.38 -24.78 22.38 -35.07 25.96 C-37.25 26.74 -39.42 27.54 -41.58 28.36 C-58.56 34.75 -75.83 39.96 -93.42 44.34 C-96.61 45.16 -99.77 46.07 -102.93 46.99 C-115.71 50.7 -128.82 53.52 -142.08 54.75 C-144.85 55.11 -147.36 56.1 -150 57 C-156.52 58.05 -162.9 58.12 -169.5 58.06 C-170.51 58.06 -171.53 58.05 -172.57 58.05 C-175.05 58.04 -177.52 58.02 -180 58 C-180 57.67 -180 57.34 -180 57 C-179.1 56.84 -178.2 56.68 -177.27 56.52 C-173.66 55.86 -170.05 55.18 -166.45 54.47 C-164.86 54.17 -163.27 53.87 -161.68 53.58 C-122.98 46.43 -83.94 29.22 -49.54 10.62 C-43.55 7.39 -38.94 5.17 -31.99 5.95 C-29.68 6.2 -29.68 6.2 -27 4 C-26.01 4 -25.02 4 -24 4 C-23.67 3.34 -23.34 2.68 -23 2 C-21.35 2.33 -19.7 2.66 -18 3 C-18.19 4.81 -18.19 4.81 -19 7 C-21.31 8.62 -21.31 8.62 -24 10 C-25.14 10.59 -25.14 10.59 -26.31 11.19 C-26.87 11.46 -27.43 11.72 -28 12 C-26 12 -24.04 11.23 -22.12 10.69 C-21.24 10.44 -20.36 10.2 -19.45 9.95 C-16.91 8.96 -15.82 7.96 -14 6 C-12.34 5.65 -10.67 5.32 -9 5 C-8.15 4.48 -7.31 3.97 -6.44 3.44 C-4 2 -4 2 0 2 C0 1.34 0 0.68 0 0 Z " fill="#D11F3E" transform="translate(443,1029)"/>
<path d="M0 0 C-1.32 0.99 -2.64 1.98 -4 3 C-4.99 2.51 -4.99 2.51 -6 2 C-9.06 1.58 -11.95 1.51 -15 2 C-17.92 4.25 -17.92 4.25 -20 7 C-20.99 7.66 -21.98 8.32 -23 9 C-22.34 9 -21.68 9 -21 9 C-21.12 10.88 -21.12 10.88 -22 13 C-25 14.12 -25 14.12 -28 15 C-28.33 15.66 -28.66 16.32 -29 17 C-29 16.34 -29 15.68 -29 15 C-29.99 15 -30.98 15 -32 15 C-32 15.66 -32 16.32 -32 17 C-37.56 19.34 -42.67 19.28 -48.6 19.26 C-50.18 19.26 -50.18 19.26 -51.8 19.27 C-55.29 19.28 -58.78 19.27 -62.28 19.27 C-64.72 19.27 -67.17 19.27 -69.62 19.27 C-74.76 19.27 -79.9 19.27 -85.04 19.26 C-91.56 19.25 -98.09 19.26 -104.61 19.27 C-109.68 19.28 -114.74 19.27 -119.81 19.27 C-122.21 19.27 -124.61 19.27 -127.01 19.27 C-141.64 19.29 -156.04 18.72 -170.59 17.23 C-176.53 16.66 -182.49 16.28 -188.44 15.88 C-190.29 15.75 -190.29 15.75 -192.17 15.61 C-195.11 15.41 -198.06 15.2 -201 15 C-201 14.67 -201 14.34 -201 14 C-199.95 13.99 -198.9 13.97 -197.82 13.96 C-163.07 13.44 -128.66 11.32 -94.52 4.29 C-86.88 2.72 -79.87 1.7 -72.04 1.94 C-65.03 2.12 -58.12 1.54 -51.12 1 C-34.08 -0.28 -17.08 -0.2 0 0 Z " fill="#ABB1BB" transform="translate(472,1073)"/>
<path d="M0 0 C0.33 0.66 0.66 1.32 1 2 C-2.89 4.17 -5.53 5.35 -10 5 C-14.56 5 -18.68 5.5 -23 7 C-24.94 8.97 -24.94 8.97 -26 11 C-26.66 11 -27.32 11 -28 11 C-28.33 9.68 -28.66 8.36 -29 7 C-30.11 7.77 -30.11 7.77 -31.25 8.56 C-34.35 10.18 -34.85 9.98 -38 9 C-38.66 9.66 -39.32 10.32 -40 11 C-40 10.34 -40 9.68 -40 9 C-40.66 9.33 -41.32 9.66 -42 10 C-43.13 9.98 -44.27 9.96 -45.44 9.94 C-49.11 9.68 -49.11 9.68 -52 12 C-54.48 12.2 -54.48 12.2 -57.19 12.12 C-58.09 12.11 -58.99 12.09 -59.92 12.07 C-60.61 12.05 -61.29 12.02 -62 12 C-62.35 12.87 -62.7 13.73 -63.06 14.62 C-65.14 18.25 -67.24 20.16 -70.48 22.7 C-72.13 23.94 -72.13 23.94 -73 26 C-74.93 26.84 -76.9 27.6 -78.88 28.31 C-83.22 29.93 -87.48 31.61 -91.69 33.56 C-104.97 39.71 -104.97 39.71 -112 41 C-114.05 41.44 -116.09 41.9 -118.12 42.38 C-119.16 42.61 -120.19 42.84 -121.26 43.09 C-124.01 44 -125.2 44.78 -127 47 C-127 46.34 -127 45.68 -127 45 C-131.48 45.45 -131.48 45.45 -135 48 C-134.67 48.66 -134.34 49.32 -134 50 C-134.91 50.56 -135.82 51.11 -136.75 51.69 C-139.84 53.89 -141.79 55.94 -144 59 C-144 58.34 -144 57.68 -144 57 C-147.81 59.32 -150.28 60.84 -152 65 C-152.99 65.5 -152.99 65.5 -154 66 C-154 67.32 -154 68.64 -154 70 C-155.03 70.25 -156.06 70.5 -157.12 70.75 C-162.08 72.18 -165.89 74.29 -168.75 78.69 C-169.16 79.45 -169.57 80.21 -170 81 C-170.99 81.5 -170.99 81.5 -172 82 C-172.33 82.66 -172.66 83.32 -173 84 C-173.99 84 -174.98 84 -176 84 C-177.24 85.5 -178.47 87 -179.66 88.54 C-181.48 90.53 -183.48 91.16 -186 92 C-186.33 92.66 -186.66 93.32 -187 94 C-186.01 94.5 -186.01 94.5 -185 95 C-188 96 -188 96 -191 95 C-191 95.66 -191 96.32 -191 97 C-191.99 97 -192.98 97 -194 97 C-194 97.66 -194 98.32 -194 99 C-197.58 103.23 -200.96 104.88 -206 107 C-209.31 109.25 -211.7 111.09 -213 115 C-216.46 114.5 -216.46 114.5 -220 114 C-220.19 114.89 -220.37 115.77 -220.56 116.69 C-222.88 122.03 -226.89 124.11 -232.12 126.31 C-234.88 126.97 -237.18 127.17 -240 127 C-235.44 123.22 -230.61 119.88 -225.75 116.5 C-223.95 115.24 -222.15 113.99 -220.36 112.73 C-217.78 110.94 -215.2 109.14 -212.62 107.34 C-203.22 100.78 -194 94.09 -185 87 C-184.15 86.34 -183.31 85.67 -182.43 84.99 C-169.19 74.51 -156.51 63.34 -144 52 C-143.51 51.56 -143.02 51.11 -142.51 50.65 C-134.87 43.73 -127.25 36.82 -120.5 29 C-119.91 28.35 -119.33 27.69 -118.73 27.02 C-116.97 25.03 -116.97 25.03 -115.52 22.86 C-108.9 14.38 -97.94 14.41 -88 13 C-86.04 12.7 -84.08 12.39 -82.11 12.09 C-77.88 11.42 -73.64 10.78 -69.39 10.14 C-60.62 8.81 -51.87 7.34 -43.12 5.88 C-42.36 5.75 -41.59 5.62 -40.8 5.49 C-37.18 4.88 -33.55 4.27 -29.92 3.66 C-24.62 2.77 -19.31 1.88 -14 1 C-12.95 0.82 -11.9 0.64 -10.81 0.45 C-7.15 -0.14 -3.71 -0.06 0 0 Z " fill="#596E95" transform="translate(675,401)"/>
<path d="M0 0 C-4.65 2.18 -8.92 4.08 -14 5 C-14.66 5.66 -15.32 6.32 -16 7 C-22.38 9.21 -22.38 9.21 -26 8 C-26 8.66 -26 9.32 -26 10 C-26.5 10.45 -26.99 10.91 -27.5 11.38 C-29.45 13.12 -29.45 13.12 -29 17 C-28.42 16.86 -27.85 16.71 -27.25 16.56 C-25.17 16.04 -23.08 15.52 -21 15 C-21 15.66 -21 16.32 -21 17 C-18.52 16.01 -18.52 16.01 -16 15 C-15.67 16.32 -15.34 17.64 -15 19 C-20.84 20.77 -26.72 22.05 -32.69 23.28 C-33.71 23.49 -34.74 23.7 -35.79 23.92 C-39.05 24.59 -42.3 25.27 -45.56 25.94 C-48.79 26.6 -52.01 27.27 -55.24 27.94 C-57.32 28.37 -59.41 28.8 -61.5 29.23 C-66.88 30.35 -72.26 31.48 -77.63 32.66 C-84.51 34.14 -91.43 35.35 -98.38 36.5 C-99.67 36.72 -100.97 36.93 -102.31 37.15 C-113.26 38.94 -124.22 40.46 -135.25 41.69 C-137.05 41.89 -138.85 42.1 -140.65 42.32 C-155.45 44.08 -170.11 44.23 -185 44 C-185 43.67 -185 43.34 -185 43 C-183.61 42.8 -183.61 42.8 -182.19 42.6 C-180.99 42.42 -179.8 42.24 -178.56 42.06 C-177.37 41.89 -176.17 41.71 -174.94 41.54 C-172.12 41.31 -172.12 41.31 -171 40 C-168.91 39.7 -166.81 39.41 -164.71 39.15 C-150.2 37.34 -135.4 34.62 -121.56 29.8 C-118.9 28.97 -117.2 28.94 -114.44 29.19 C-105.09 29.38 -95.97 26.35 -87 24 C-85.95 23.73 -85.95 23.73 -84.87 23.45 C-80.57 22.34 -76.28 21.18 -72 20 C-71.34 19.82 -70.68 19.64 -70 19.45 C-65.51 18.23 -61.03 16.98 -56.55 15.72 C-54.79 15.22 -53.03 14.73 -51.28 14.24 C-38.13 10.55 -25.2 6.48 -12.38 1.76 C-10.82 1.2 -10.82 1.2 -9.23 0.62 C-8.32 0.29 -7.4 -0.05 -6.46 -0.4 C-3.85 -1.04 -2.5 -0.9 0 0 Z " fill="#801130" transform="translate(470,1043)"/>
<path d="M0 0 C8.59 -0.78 16.9 2.14 23.88 7.12 C30.26 12.51 35.23 20.56 36.24 28.96 C37.65 51.4 31.7 71.99 22 92 C21.67 92.68 21.34 93.36 21.01 94.07 C19.39 97.41 17.73 100.72 16 104 C15.67 104 15.34 104 15 104 C14.91 103.24 14.83 102.48 14.74 101.69 C13.4 91.88 11.03 85.26 3.38 78.75 C-11.56 67.77 -30.97 65.32 -49 63 C-45.8 60.87 -45.4 60.78 -41.84 61.13 C-41.05 61.19 -40.25 61.26 -39.44 61.33 C-37.77 61.48 -36.1 61.65 -34.43 61.81 C-33.64 61.87 -32.84 61.94 -32.03 62 C-31.3 62.07 -30.58 62.14 -29.83 62.22 C-28.93 62.11 -28.93 62.11 -28 62 C-25.87 58.81 -25.76 58.51 -26.31 55 C-26.46 53.98 -26.46 53.98 -26.61 52.94 C-27 50.8 -27 50.8 -28 48 C-29.32 48.66 -30.64 49.32 -32 50 C-32 49.01 -32 48.02 -32 47 C-34.48 47.5 -34.48 47.5 -37 48 C-37.5 46.51 -37.5 46.51 -38 45 C-32.49 44.8 -27.75 45.34 -22.39 46.66 C-19.68 47.05 -17.64 46.67 -15 46 C-14.67 46.66 -14.34 47.32 -14 48 C-13.24 47.98 -12.47 47.96 -11.69 47.94 C-9 48 -9 48 -6 49 C-5.5 48.01 -5.5 48.01 -5 47 C-5 47.66 -5 48.32 -5 49 C-3.68 48.34 -2.36 47.68 -1 47 C-2 49.99 -2.75 50.95 -5 53 C-4.01 53 -3.02 53 -2 53 C-1.67 53.99 -1.34 54.98 -1 56 C-0.01 56.33 0.98 56.66 2 57 C2.33 57.99 2.66 58.98 3 60 C3.99 60.5 3.99 60.5 5 61 C5 63 5 65 5 67 C5.66 67 6.32 67 7 67 C7.25 67.78 7.5 68.57 7.75 69.38 C9.15 72.32 10.01 72.9 13 74 C12.98 74.91 12.96 75.82 12.94 76.75 C12.99 79.47 13.31 81.42 14 84 C14 85.32 14 86.64 14 88 C15.65 88.33 17.3 88.66 19 89 C19 88.01 19 87.02 19 86 C19.66 86 20.32 86 21 86 C21.12 85.4 21.24 84.79 21.37 84.17 C21.53 83.37 21.7 82.57 21.88 81.75 C22.04 80.96 22.2 80.17 22.37 79.36 C22.99 77.02 23.9 75.15 25 73 C26.31 68.16 27.37 63.29 28.43 58.39 C29.03 55.86 29.76 53.38 30.5 50.88 C32.42 44.02 33.19 37.06 34 30 C32.68 29.34 31.36 28.68 30 28 C30.04 26.76 30.08 25.52 30.12 24.25 C30.12 21.01 30.03 18.67 28 16 C27.01 15.67 26.02 15.34 25 15 C24.01 15.66 23.02 16.32 22 17 C22.33 15.02 22.66 13.04 23 11 C21.89 11.09 21.89 11.09 20.75 11.19 C17.51 10.97 16.28 10.28 14 8 C14 7.01 14 6.02 14 5 C12.35 5.33 10.7 5.66 9 6 C8.5 4.51 8.5 4.51 8 3 C4.98 3.59 1.98 4.23 -1 5 C-0.67 3.35 -0.34 1.7 0 0 Z M-25 49 C-25.33 49.66 -25.66 50.32 -26 51 C-25.34 51 -24.68 51 -24 51 C-24.33 50.34 -24.66 49.68 -25 49 Z " fill="#DB273C" transform="translate(745,844)"/>
<path d="M0 0 C0 3.36 -0.39 3.85 -2.38 6.38 C-4.01 8.54 -5.04 10.11 -6 12.69 C-7 15 -7 15 -9.28 16.78 C-12.27 19.22 -14.27 21.77 -16.56 24.88 C-22.05 32.2 -27.98 39.11 -34 46 C-34.55 46.63 -35.09 47.26 -35.66 47.92 C-45.18 58.87 -55.26 69.34 -65.5 79.62 C-66.45 80.58 -66.45 80.58 -67.42 81.56 C-71.21 85.34 -75.13 88.93 -79.18 92.43 C-81.43 94.37 -83.62 96.37 -85.81 98.38 C-90.16 102.3 -94.63 106.03 -99.18 109.71 C-101.97 111.97 -104.7 114.3 -107.44 116.62 C-123 129.62 -139.7 141.3 -156.38 152.81 C-157.02 153.26 -157.66 153.7 -158.32 154.16 C-160.21 155.45 -162.1 156.73 -164 158 C-165.05 158.73 -165.05 158.73 -166.11 159.47 C-166.81 159.94 -167.51 160.41 -168.23 160.89 C-168.85 161.32 -169.48 161.74 -170.13 162.19 C-172.48 163.21 -173.63 162.85 -176 162 C-175.85 160.23 -175.85 160.23 -175 158 C-172.65 156.2 -172.65 156.2 -169.38 154.25 C-150.72 142.8 -133.01 129.75 -116 116 C-114.46 114.77 -112.92 113.54 -111.38 112.31 C-109.58 110.88 -107.79 109.44 -106 108 C-105.4 107.52 -104.8 107.04 -104.18 106.54 C-96.32 100.25 -88.59 93.9 -81.23 87.02 C-75.69 82 -75.69 82 -73 82 C-72.78 81.45 -72.55 80.9 -72.32 80.34 C-70.58 77.25 -68.33 75.11 -65.81 72.62 C-65.32 72.14 -64.83 71.65 -64.32 71.15 C-61.16 68.05 -57.89 65.15 -54.49 62.33 C-52.02 60.13 -50.07 57.58 -48 55 C-47.26 54.28 -46.51 53.56 -45.75 52.81 C-43.77 51.02 -43.77 51.02 -43 48 C-42.28 47.61 -41.56 47.22 -40.81 46.81 C-37.49 44.67 -35.82 42.32 -33.55 39.13 C-31.59 36.43 -29.42 33.95 -27.2 31.45 C-25.9 29.99 -25.9 29.99 -25 28 C-24.34 28 -23.68 28 -23 28 C-22.67 27.01 -22.34 26.02 -22 25 C-20 23.33 -18 21.67 -16 20 C-15.67 19.01 -15.34 18.02 -15 17 C-14.34 17 -13.68 17 -13 17 C-12.94 16.28 -12.88 15.56 -12.81 14.81 C-11.75 11.15 -9.77 9.56 -7 7 C-6.67 6.34 -6.34 5.68 -6 5 C-5.34 5 -4.68 5 -4 5 C-3.71 4.36 -3.42 3.72 -3.12 3.06 C-2 1 -2 1 0 0 Z " fill="#5F718C" transform="translate(659,422)"/>
<path d="M0 0 C0.33 0.66 0.66 1.32 1 2 C1.99 2.5 1.99 2.5 3 3 C2 6 2 6 0.01 7.24 C-0.85 7.64 -1.71 8.04 -2.6 8.45 C-3.56 8.9 -4.52 9.35 -5.5 9.82 C-6.53 10.29 -7.56 10.76 -8.62 11.25 C-9.68 11.74 -10.74 12.24 -11.82 12.75 C-14.88 14.17 -17.94 15.59 -21 17 C-22.32 17.62 -23.63 18.24 -24.95 18.86 C-30.66 21.54 -36.39 24.18 -42.13 26.81 C-56.22 33.25 -56.22 33.25 -70.12 40.06 C-151.29 81.31 -151.29 81.31 -178 82 C-178 81.34 -178 80.68 -178 80 C-176.51 79.5 -176.51 79.5 -175 79 C-174.52 78.51 -174.04 78.03 -173.54 77.53 C-170.87 74.89 -167.13 74.19 -163.62 73.06 C-140.51 65.28 -118.2 55.04 -96 45 C-95.35 44.71 -94.7 44.41 -94.03 44.11 C-81.55 38.46 -69.06 32.81 -56.62 27.06 C-46.15 22.22 -35.64 17.48 -25.06 12.87 C-23.75 12.3 -22.44 11.73 -21.12 11.15 C-14.16 8.11 -7.26 5.25 0 3 C0 2.01 0 1.02 0 0 Z " fill="#F0CC9E" transform="translate(617,872)"/>
<path d="M0 0 C0.21 8.8 -0.41 17.33 -1.44 26.06 C-1.57 27.27 -1.71 28.48 -1.85 29.72 C-2.86 38.58 -2.86 38.58 -4 42 C-6.36 43.35 -6.36 43.35 -9.46 44.7 C-10.57 45.19 -11.68 45.67 -12.83 46.17 C-14 46.67 -15.17 47.17 -16.38 47.69 C-17.54 48.2 -18.7 48.71 -19.9 49.24 C-28.58 53 -28.58 53 -32 53 C-31.67 50.36 -31.34 47.72 -31 45 C-30.34 45 -29.68 45 -29 45 C-28.93 44.44 -28.85 43.88 -28.77 43.3 C-27.59 35.73 -25.47 28.55 -23.21 21.26 C-21.64 16.2 -20.24 11.15 -19 6 C-17.68 6.33 -16.36 6.66 -15 7 C-15 7.99 -15 8.98 -15 10 C-12.69 10 -10.38 10 -8 10 C-7.75 9.09 -7.5 8.18 -7.25 7.25 C-5.89 3.71 -4.22 0 0 0 Z " fill="#081A34" transform="translate(621,833)"/>
<path d="M0 0 C5.23 2.57 9.38 6.76 12 12 C12.51 18.12 12.1 21.14 8 26 C5.03 29.5 3.52 30.72 -1 31.55 C-6.92 31.9 -11.06 31.68 -15.69 27.75 C-19.09 24.34 -20.86 21.51 -21.31 16.69 C-20.83 11.01 -19.31 6.84 -14.94 3.12 C-9.95 -0.48 -6.06 -0.66 0 0 Z " fill="#F96C49" transform="translate(752,476)"/>
<path d="M0 0 C0.99 0.5 0.99 0.5 2 1 C1.01 1.66 0.02 2.32 -1 3 C-1 3.66 -1 4.32 -1 5 C-1.99 5 -2.98 5 -4 5 C-4 5.66 -4 6.32 -4 7 C-4.99 7 -5.98 7 -7 7 C-7.33 7.99 -7.66 8.98 -8 10 C-9.32 9.67 -10.64 9.34 -12 9 C-12.33 9.66 -12.66 10.32 -13 11 C-13.7 11.1 -14.4 11.21 -15.12 11.31 C-18.58 12.14 -20.57 13.69 -23.37 15.8 C-25.16 17.12 -26.97 18.09 -29 19 C-29.74 19.37 -30.49 19.74 -31.25 20.12 C-31.83 20.41 -32.4 20.7 -33 21 C-33 21.66 -33 22.32 -33 23 C-33.99 23 -34.98 23 -36 23 C-36.33 23.66 -36.66 24.32 -37 25 C-38.64 26.05 -40.31 27.04 -42 28 C-46.53 30.67 -51 33.41 -55.12 36.69 C-57.14 38.1 -58.63 38.43 -61 39 C-62.67 39.99 -64.34 40.99 -66 42 C-69.79 43.9 -71.91 44.17 -76 43 C-75.67 42.01 -75.34 41.02 -75 40 C-73.34 39.32 -71.67 38.65 -70 38 C-69.34 37.01 -68.68 36.02 -68 35 C-75.58 35.9 -80.42 39.08 -86 44 C-86 43.01 -86 42.02 -86 41 C-87.32 40.67 -88.64 40.34 -90 40 C-85 37.49 -80 34.98 -75 32.47 C-73.31 31.62 -71.61 30.77 -69.91 29.92 C-67.46 28.69 -65.01 27.46 -62.56 26.23 C-61.81 25.85 -61.06 25.47 -60.28 25.08 C-55.91 22.9 -51.51 20.88 -47 19 C-45.63 18.42 -45.63 18.42 -44.24 17.84 C-32.2 12.8 -20.15 7.78 -8 3 C-6.71 2.47 -6.71 2.47 -5.39 1.94 C-3.61 1.23 -1.81 0.6 0 0 Z " fill="#FA674A" transform="translate(614,928)"/>
<path d="M0 0 C4.05 2.02 6.61 4.19 9 8 C9.79 12.34 10.01 16.96 8.02 20.98 C5.25 24.44 2.24 26.61 -2.11 27.37 C-7.36 27.53 -10.42 26.68 -14.59 23.48 C-17.49 20.44 -18.36 17.4 -18.56 13.25 C-18.42 8.1 -16.89 5.08 -13.27 1.45 C-9.02 -1.26 -4.81 -0.99 0 0 Z " fill="#159DC0" transform="translate(214,1005)"/>
<path d="M0 0 C-15.77 11.06 -31.77 21.8 -48.19 31.88 C-49.99 33 -51.8 34.12 -53.59 35.25 C-56.71 37.2 -59.85 39.11 -63 41 C-63.77 41.47 -64.54 41.94 -65.34 42.42 C-69.97 45.02 -72.86 45.13 -78 44 C-78.99 44.5 -78.99 44.5 -80 45 C-78.69 42.01 -77.44 40.26 -74.83 38.3 C-73.88 37.58 -73.88 37.58 -72.9 36.84 C-72.21 36.34 -71.52 35.83 -70.81 35.31 C-70.09 34.78 -69.36 34.25 -68.62 33.7 C-53.84 22.99 -37.75 15.33 -21.3 7.56 C-18.49 6.23 -15.69 4.88 -12.9 3.51 C-11.56 2.86 -10.22 2.21 -8.88 1.56 C-7.78 1.03 -6.68 0.49 -5.55 -0.06 C-3 -1 -3 -1 0 0 Z " fill="#FDC990" transform="translate(570,919)"/>
<path d="M0 0 C42.8 -0.99 42.8 -0.99 59.5 13.31 C64.69 18.35 70.89 24.96 71.1 32.48 C71.09 33.86 71.08 35.24 71.06 36.62 C71.06 37.33 71.05 38.04 71.05 38.77 C71.04 40.51 71.02 42.26 71 44 C69 41 69 41 68.31 39.12 C64.39 32.77 57.41 30.84 50.64 28.83 C44.63 27.46 38.77 27.49 32.62 27.62 C31.35 27.64 30.07 27.66 28.76 27.67 C15.69 27.91 3.69 29.54 -8.86 33.2 C-12 34 -12 34 -16 34 C-16 33.34 -16 32.68 -16 32 C-12.7 31.34 -9.4 30.68 -6 30 C-6 29.34 -6 28.68 -6 28 C-4.54 27.64 -3.08 27.29 -1.62 26.94 C-0.41 26.64 -0.41 26.64 0.84 26.34 C3 26 3 26 5 27 C7.02 26.39 9.02 25.73 11 25 C11 25.66 11 26.32 11 27 C11.66 27 12.32 27 13 27 C13.33 26.34 13.66 25.68 14 25 C15.28 25.04 16.56 25.08 17.88 25.12 C21.34 25.14 24.33 24.77 27.69 23.94 C34.08 22.51 43.02 22.01 49 25 C49 25.66 49 26.32 49 27 C52.96 26.5 52.96 26.5 57 26 C57.5 26.99 57.5 26.99 58 28 C58.99 28 59.98 28 61 28 C61.5 28.99 61.5 28.99 62 30 C62.86 27.24 62.86 27.24 63 24 C61.33 21.24 61.33 21.24 59 19 C58.53 18.42 58.05 17.85 57.56 17.25 C55.44 15.55 53.69 15.27 51 15 C50.01 15.33 49.02 15.66 48 16 C48.33 14.68 48.66 13.36 49 12 C48.38 11.9 47.76 11.79 47.12 11.69 C45 11 45 11 43 8 C40.5 7.07 38.02 6.87 35.38 6.5 C32 6 32 6 30 5 C30 4.34 30 3.68 30 3 C26.83 4.83 26.83 4.83 25 8 C24.5 6.02 24.5 6.02 24 4 C21.86 3.64 19.71 3.29 17.56 2.94 C16.37 2.74 15.17 2.54 13.94 2.34 C12.49 2.17 12.49 2.17 11 2 C10.67 2.33 10.34 2.66 10 3 C8.48 3.07 6.96 3.08 5.44 3.06 C4.61 3.05 3.78 3.04 2.93 3.04 C2.3 3.02 1.66 3.01 1 3 C0.67 2.01 0.34 1.02 0 0 Z " fill="#DA283F" transform="translate(679,914)"/>
<path d="M0 0 C2 2 2 2 2.23 5.47 C2.1 10.58 1.22 15.53 0.32 20.55 C0.15 21.54 -0.03 22.52 -0.2 23.53 C-0.57 25.6 -0.94 27.66 -1.31 29.72 C-1.88 32.88 -2.43 36.05 -2.98 39.22 C-3.34 41.23 -3.7 43.23 -4.05 45.24 C-4.22 46.19 -4.38 47.14 -4.55 48.12 C-4.71 48.99 -4.87 49.87 -5.04 50.77 C-5.18 51.54 -5.31 52.31 -5.46 53.1 C-6 55 -6 55 -8 57 C-9.32 56.34 -10.64 55.68 -12 55 C-11.5 53.87 -11.01 52.73 -10.5 51.56 C-8.94 48.49 -8.94 48.49 -9 47 C-9 45.68 -9 44.36 -9 43 C-12.87 43.57 -15.08 45.49 -18 48 C-18.33 47.34 -18.66 46.68 -19 46 C-18.1 43.96 -17.11 41.97 -16.06 40 C-13.81 36.19 -13.81 36.19 -13 32 C-13.44 32.68 -13.88 33.36 -14.33 34.06 C-18.5 40.45 -22.87 46.64 -27.44 52.75 C-28.24 53.82 -28.24 53.82 -29.05 54.92 C-30.34 56.63 -31.67 58.32 -33 60 C-33.33 60 -33.66 60 -34 60 C-34 58.35 -34 56.7 -34 55 C-35.65 55.66 -37.3 56.32 -39 57 C-38.34 55.68 -37.68 54.36 -37 53 C-36.34 53 -35.68 53 -35 53 C-34.75 52.24 -34.5 51.47 -34.25 50.69 C-32.88 47.74 -31.76 46.64 -29 45 C-28.34 45 -27.68 45 -27 45 C-26.63 44.04 -26.63 44.04 -26.25 43.06 C-25.84 42.38 -25.42 41.7 -25 41 C-24.34 40.86 -23.68 40.71 -23 40.56 C-22.34 40.38 -21.68 40.19 -21 40 C-20.27 38.36 -19.61 36.69 -19 35 C-17.71 33.3 -16.38 31.63 -15 30 C-14.46 29.24 -13.93 28.47 -13.38 27.69 C-12.92 27.13 -12.47 26.57 -12 26 C-11.34 26 -10.68 26 -10 26 C-9.98 25.13 -9.98 25.13 -9.96 24.24 C-9.58 18.14 -8.38 15.28 -4 11 C-3.34 10.67 -2.68 10.34 -2 10 C-1.31 7.65 -1.31 7.65 -0.88 4.94 C-0.71 4.02 -0.54 3.1 -0.37 2.15 C-0.19 1.09 -0.19 1.09 0 0 Z " fill="#19395A" transform="translate(682,424)"/>
<path d="M0 0 C0.33 0.66 0.66 1.32 1 2 C3.97 2 6.94 2 10 2 C6.07 3.96 3.96 4.34 -0.31 4.75 C-21.83 7.25 -43.75 14.65 -63.47 23.47 C-67.64 25.28 -71.87 26.89 -76.12 28.5 C-82.29 30.85 -88.21 33.42 -94.03 36.54 C-96.45 37.73 -98.8 38.71 -101.31 39.67 C-108.93 42.67 -116.19 46.45 -123.5 50.12 C-124.25 50.5 -125 50.88 -125.78 51.26 C-135.37 56.07 -144.91 60.94 -154.15 66.4 C-155.74 67.32 -157.36 68.17 -159 69 C-159.66 68.67 -160.32 68.34 -161 68 C-144.85 58.1 -128.16 49.33 -111.31 40.7 C-108.33 39.17 -105.36 37.63 -102.39 36.08 C-87.63 28.46 -72.43 22.12 -57 16 C-56.1 15.64 -55.2 15.28 -54.28 14.91 C-41.41 9.76 -28.2 6.13 -14.78 2.71 C-13.05 2.27 -11.32 1.82 -9.6 1.36 C-6.23 0.47 -3.51 0 0 0 Z " fill="#F8DED2" transform="translate(661,912)"/>
<path d="M0 0 C1.62 2 1.62 2 3 4 C-27.14 23.29 -58.78 39.78 -91.44 54.38 C-92.19 54.72 -92.95 55.06 -93.73 55.41 C-95.88 56.37 -98.03 57.33 -100.18 58.27 C-100.83 58.57 -101.47 58.86 -102.14 59.16 C-106.66 61.11 -106.66 61.11 -110 60 C-106.35 58.18 -102.71 56.35 -99.06 54.53 C-98.3 54.15 -97.54 53.77 -96.75 53.38 C-94.66 52.33 -92.57 51.29 -90.47 50.25 C-81.24 45.67 -72.09 40.96 -62.98 36.15 C-60.81 35 -58.63 33.85 -56.45 32.71 C-48.75 28.65 -41.22 24.43 -33.86 19.79 C-30.88 17.92 -27.85 16.14 -24.81 14.38 C-14.68 8.6 -14.68 8.6 -5 2.12 C-2 0 -2 0 0 0 Z " fill="#4D5D77" transform="translate(483,582)"/>
<path d="M0 0 C-0.33 0.66 -0.66 1.32 -1 2 C-2.32 2 -3.64 2 -5 2 C-4.01 2.66 -3.02 3.32 -2 4 C-2 4.99 -2 5.98 -2 7 C-1.01 7.33 -0.02 7.66 1 8 C-26.14 8.48 -52.95 7.16 -80 5 C-80 4.67 -80 4.34 -80 4 C-78.95 3.99 -77.9 3.97 -76.82 3.96 C-41.36 3.92 -41.36 3.92 -6.28 -0.57 C-3.82 -1.03 -2.35 -0.78 0 0 Z " fill="#979FA9" transform="translate(351,1083)"/>
<path d="M0 0 C4.03 2.01 6.66 4.17 9 8 C9.29 10.8 9.29 10.8 9.19 13.75 C9.16 14.73 9.13 15.72 9.11 16.73 C9.07 17.48 9.04 18.23 9 19 C8.67 19 8.34 19 8 19 C8 17.35 8 15.7 8 14 C7.02 14.02 7.02 14.02 6.02 14.04 C-11.38 14.21 -11.38 14.21 -18 12 C-17.77 7.19 -16.49 4.34 -13.01 1.14 C-8.91 -1.19 -4.52 -0.79 0 0 Z " fill="#2EB1CD" transform="translate(214,1005)"/>
<path d="M0 0 C-0.66 1.98 -1.32 3.96 -2 6 C-2.66 6 -3.32 6 -4 6 C-4.33 6.66 -4.66 7.32 -5 8 C-5.99 8 -6.98 8 -8 8 C-9.24 9.5 -10.47 11 -11.66 12.54 C-13.48 14.53 -15.48 15.16 -18 16 C-18.33 16.66 -18.66 17.32 -19 18 C-18.34 18.33 -17.68 18.66 -17 19 C-20 20 -20 20 -23 19 C-23 19.66 -23 20.32 -23 21 C-23.99 21 -24.98 21 -26 21 C-26 21.66 -26 22.32 -26 23 C-29.58 27.23 -32.96 28.88 -38 31 C-41.31 33.25 -43.7 35.09 -45 39 C-48.46 38.5 -48.46 38.5 -52 38 C-52.19 38.89 -52.37 39.77 -52.56 40.69 C-54.88 46.03 -58.89 48.11 -64.12 50.31 C-66.88 50.97 -69.18 51.17 -72 51 C-67.44 47.22 -62.61 43.88 -57.75 40.5 C-55.95 39.24 -54.15 37.99 -52.36 36.73 C-49.78 34.94 -47.2 33.14 -44.62 31.34 C-32.45 22.85 -20.66 14.02 -9.12 4.69 C-8.07 3.85 -8.07 3.85 -7 3 C-5.97 2.15 -5.97 2.15 -4.91 1.28 C-3 0 -3 0 0 0 Z " fill="#4A5D80" transform="translate(507,477)"/>
<path d="M0 0 C-0.9 0.36 -1.81 0.71 -2.74 1.08 C-19.04 7.51 -35.3 14.01 -51.38 21 C-52.56 21.51 -53.74 22.03 -54.96 22.56 C-61.84 25.57 -61.84 25.57 -68.63 28.74 C-69.8 29.3 -70.96 29.86 -72.16 30.44 C-73.21 30.95 -74.26 31.47 -75.34 32 C-78 33 -78 33 -81 32 C-79.02 31.34 -77.04 30.68 -75 30 C-75 29.01 -75 28.02 -75 27 C-59.9 20.11 -44.78 13.24 -29.5 6.75 C-28.44 6.3 -27.38 5.84 -26.29 5.38 C-7.56 -2.52 -7.56 -2.52 0 0 Z " fill="#F17B66" transform="translate(641,955)"/>
<path d="M0 0 C-5.29 4.07 -10.69 7.85 -16.31 11.44 C-17.05 11.91 -17.79 12.38 -18.55 12.87 C-20.02 13.81 -21.49 14.75 -22.96 15.69 C-24.78 16.86 -26.6 18.04 -28.41 19.23 C-29.37 19.86 -30.32 20.48 -31.31 21.12 C-32.13 21.66 -32.95 22.2 -33.8 22.76 C-35.9 23.94 -37.65 24.56 -40 25 C-39.34 24.01 -38.68 23.02 -38 22 C-37.62 20.34 -37.27 18.68 -37 17 C-37.66 17 -38.32 17 -39 17 C-39.33 17.66 -39.66 18.32 -40 19 C-41.93 20.11 -41.93 20.11 -44.31 21.19 C-45.09 21.55 -45.87 21.92 -46.68 22.29 C-49.3 23.09 -50.43 22.75 -53 22 C-49.81 20.39 -46.63 18.79 -43.44 17.19 C-42.54 16.74 -41.65 16.28 -40.72 15.82 C-35.87 13.38 -31.02 11.09 -26 9 C-24.05 8.16 -22.09 7.32 -20.14 6.48 C-17.99 5.57 -15.84 4.66 -13.69 3.75 C-12.59 3.28 -11.49 2.81 -10.37 2.32 C-9.32 1.88 -8.28 1.44 -7.2 0.98 C-6.25 0.58 -5.3 0.17 -4.32 -0.24 C-2 -1 -2 -1 0 0 Z " fill="#FB9476" transform="translate(593,938)"/>
<path d="M0 0 C-1.75 3.88 -1.75 3.88 -4 5 C-3.01 5.66 -2.02 6.32 -1 7 C-5.02 7.29 -9.03 7.58 -13.05 7.85 C-15.07 8 -17.09 8.14 -19.11 8.29 C-27.76 8.89 -36.32 9.12 -45 9 C-42.33 6.33 -40.26 6.27 -36.56 5.56 C-35.92 5.44 -35.28 5.31 -34.61 5.18 C-32.56 4.78 -30.5 4.39 -28.44 4 C-26.41 3.61 -24.38 3.22 -22.35 2.82 C-20.4 2.44 -18.46 2.07 -16.51 1.7 C-13.58 1.12 -10.69 0.46 -7.79 -0.25 C-4.32 -0.94 -3.17 -0.98 0 0 Z " fill="#E6DFE2" transform="translate(438,1067)"/>
<path d="M0 0 C-0.99 0.66 -1.98 1.32 -3 2 C-3.66 1.67 -4.32 1.34 -5 1 C-5 1.66 -5 2.32 -5 3 C-4.34 3.33 -3.68 3.66 -3 4 C-30.82 11.29 -30.82 11.29 -42 11 C-42 10.34 -42 9.68 -42 9 C-43.98 9 -45.96 9 -48 9 C-47.67 8.34 -47.34 7.68 -47 7 C-46.04 7.04 -45.08 7.07 -44.1 7.11 C-39.42 7.1 -35 6.2 -30.44 5.25 C-29.12 4.98 -29.12 4.98 -27.78 4.71 C-21.37 3.38 -15.17 1.69 -8.95 -0.36 C-5.63 -1.08 -3.28 -0.76 0 0 Z " fill="#EDB470" transform="translate(444,951)"/>
<path d="M0 0 C0.66 0.66 1.32 1.32 2 2 C1.52 2.53 1.03 3.07 0.53 3.62 C-8.81 12.42 -8.81 12.42 -14 23 C-14.99 23.66 -15.98 24.32 -17 25 C-17.23 25.93 -17.45 26.86 -17.69 27.81 C-19.36 31.87 -21.36 32.81 -25.12 34.82 C-27.3 36.01 -27.3 36.01 -29 39 C-29.7 39.68 -30.4 40.36 -31.12 41.06 C-33.23 42.79 -33.23 42.79 -33 45 C-33.74 45.43 -34.49 45.87 -35.25 46.31 C-38.27 48.17 -39.83 50.24 -42 53 C-42.66 53 -43.32 53 -44 53 C-44.23 53.54 -44.45 54.07 -44.69 54.62 C-47.22 59.21 -50.1 62.97 -55 65 C-55.99 65.99 -55.99 65.99 -57 67 C-57 64 -57 64 -55.28 61.95 C-54.09 60.79 -54.09 60.79 -52.87 59.61 C-51.56 58.33 -51.56 58.33 -50.23 57.02 C-49.31 56.12 -48.39 55.23 -47.44 54.31 C-41.37 48.39 -35.51 42.44 -30 36 C-28.38 34.22 -26.76 32.45 -25.12 30.69 C-16.21 20.9 -8.14 10.43 0 0 Z " fill="#293D5F" transform="translate(647,440)"/>
<path d="M0 0 C0.5 0.99 0.5 0.99 1 2 C1.66 2.33 2.32 2.66 3 3 C2 6 2 6 -0.07 7.29 C-0.96 7.71 -1.86 8.13 -2.78 8.56 C-3.77 9.03 -4.76 9.5 -5.78 9.98 C-7.34 10.7 -7.34 10.7 -8.94 11.44 C-9.95 11.92 -10.95 12.39 -11.99 12.88 C-18.25 15.82 -24.56 18.52 -31 21 C-31.33 20.34 -31.66 19.68 -32 19 C-32.33 19.33 -32.66 19.66 -33 20 C-35 20.04 -37 20.04 -39 20 C-36.58 18.39 -34.45 17.22 -31.82 16.05 C-31 15.68 -30.18 15.31 -29.33 14.93 C-28.46 14.54 -27.59 14.15 -26.69 13.75 C-25.8 13.35 -24.91 12.95 -23.99 12.54 C-21.33 11.36 -18.66 10.18 -16 9 C-15.25 8.67 -14.5 8.34 -13.72 7.99 C-11.78 7.14 -9.83 6.28 -7.88 5.44 C-6.78 4.96 -5.68 4.49 -4.55 4 C-2 3 -2 3 0 3 C0 2.01 0 1.02 0 0 Z " fill="#EDB883" transform="translate(617,872)"/>
<path d="M0 0 C1.11 0.99 1.11 0.99 2.25 2 C4.97 4.39 4.97 4.39 9 4 C8.02 11.45 7.03 18.76 5 26 C3.35 25.67 1.7 25.34 0 25 C0.32 24.15 0.32 24.15 0.66 23.29 C0.93 22.55 1.21 21.82 1.5 21.06 C1.78 20.33 2.06 19.6 2.34 18.85 C3.06 17.17 3.06 17.17 3 16 C3 14.68 3 13.36 3 12 C-0.87 12.57 -3.08 14.49 -6 17 C-6.33 16.34 -6.66 15.68 -7 15 C-5.93 12.4 -4.8 9.9 -3.56 7.38 C-3.05 6.32 -3.05 6.32 -2.54 5.23 C-1.7 3.49 -0.85 1.74 0 0 Z " fill="#0A5073" transform="translate(670,455)"/>
<path d="M0 0 C0 3.36 -0.39 3.85 -2.38 6.38 C-4.01 8.54 -5.04 10.11 -6 12.69 C-7 15 -7 15 -9.25 16.74 C-12.37 19.3 -14.64 22.21 -17 25.44 C-24.99 36.29 -24.99 36.29 -31 39 C-32.35 39.98 -33.69 40.97 -35 42 C-33.44 38.16 -30.9 35.9 -28 33 C-27.44 32.07 -26.89 31.14 -26.31 30.19 C-25.88 29.47 -25.45 28.74 -25 28 C-24.34 28 -23.68 28 -23 28 C-22.67 27.01 -22.34 26.02 -22 25 C-20 23.33 -18 21.67 -16 20 C-15.67 19.01 -15.34 18.02 -15 17 C-14.34 17 -13.68 17 -13 17 C-12.94 16.28 -12.88 15.56 -12.81 14.81 C-11.75 11.15 -9.77 9.56 -7 7 C-6.67 6.34 -6.34 5.68 -6 5 C-5.34 5 -4.68 5 -4 5 C-3.71 4.36 -3.42 3.72 -3.12 3.06 C-2 1 -2 1 0 0 Z " fill="#506589" transform="translate(659,422)"/>
<path d="M0 0 C2 1.12 2 1.12 3 3 C3.54 6.63 3.46 8.32 1.38 11.38 C-1.71 13.49 -3.33 13.61 -7 13 C-9.38 11.38 -9.38 11.38 -11 9 C-11.45 5.86 -11.5 3.95 -10 1.12 C-6.78 -0.69 -3.6 -0.54 0 0 Z " fill="#FCBF36" transform="translate(713,539)"/>
<path d="M0 0 C-0.66 0.45 -1.32 0.91 -2 1.38 C-2.66 1.91 -3.32 2.45 -4 3 C-4 3.66 -4 4.32 -4 5 C-8.41 6.1 -12.48 6.08 -17 6 C-15.68 5.34 -14.36 4.68 -13 4 C-15.46 3.97 -17.92 3.95 -20.38 3.94 C-21.42 3.92 -21.42 3.92 -22.49 3.91 C-26.37 3.82 -26.37 3.82 -30 5 C-32.92 5.02 -35.81 4.97 -38.73 4.88 C-39.59 4.86 -40.45 4.83 -41.34 4.81 C-44.1 4.73 -46.86 4.65 -49.62 4.56 C-51.49 4.51 -53.36 4.46 -55.23 4.4 C-59.82 4.28 -64.41 4.14 -69 4 C-69 3.67 -69 3.34 -69 3 C-67.35 2.97 -67.35 2.97 -65.66 2.94 C-38.76 2.56 -38.76 2.56 -11.97 0.4 C-7.92 -0.01 -4.06 -0.07 0 0 Z " fill="#918492" transform="translate(340,1084)"/>
<path d="M0 0 C1 3 1 3 -0.18 5.64 C-0.74 6.64 -1.3 7.65 -1.88 8.69 C-4.49 13.67 -5.78 17.41 -6 23 C-6.66 23 -7.32 23 -8 23 C-8.66 25.64 -9.32 28.28 -10 31 C-11.32 31.33 -12.64 31.66 -14 32 C-12.79 28.28 -11.49 24.62 -10 21 C-11.65 21.33 -13.3 21.66 -15 22 C-10.11 14.59 -5.07 7.29 0 0 Z " fill="#156E8E" transform="translate(669,455)"/>
<path d="M0 0 C1 2 1 2 0.29 4.41 C-0.07 5.43 -0.44 6.45 -0.81 7.5 C-3.52 15.86 -4.26 24.28 -5 33 C-5.33 33 -5.66 33 -6 33 C-6.33 29.04 -6.66 25.08 -7 21 C-8.32 21.33 -9.64 21.66 -11 22 C-9.52 17.03 -7.41 12.71 -4.94 8.19 C-4.57 7.51 -4.21 6.83 -3.83 6.13 C-1.15 1.15 -1.15 1.15 0 0 Z " fill="#F07C2F" transform="translate(318,880)"/>
<path d="M0 0 C4.06 -0.03 8.12 -0.05 12.19 -0.06 C13.34 -0.07 14.49 -0.08 15.67 -0.09 C16.79 -0.09 17.9 -0.09 19.04 -0.1 C20.06 -0.1 21.09 -0.11 22.14 -0.11 C24.87 -0.01 27.34 0.38 30 1 C30 1.33 30 1.66 30 2 C27.03 2 24.06 2 21 2 C21 2.66 21 3.32 21 4 C21.84 4.19 21.84 4.19 22.69 4.38 C25.22 5.06 27.58 5.99 30 7 C26.38 8.25 23.73 7.63 20 7 C17.98 6.86 15.96 6.76 13.95 6.68 C12.84 6.64 11.73 6.6 10.59 6.56 C9.44 6.52 8.3 6.48 7.12 6.44 C5.96 6.39 4.79 6.35 3.59 6.31 C0.73 6.2 -2.14 6.1 -5 6 C-5 5.67 -5 5.34 -5 5 C2.26 5 9.52 5 17 5 C17.33 4.01 17.66 3.02 18 2 C12.06 1.67 6.12 1.34 0 1 C0 0.67 0 0.34 0 0 Z " fill="#F2C4C3" transform="translate(684,908)"/>
<path d="M0 0 C0.33 0 0.66 0 1 0 C1.36 1.48 1.71 2.96 2.06 4.44 C2.26 5.26 2.46 6.08 2.66 6.93 C2.77 7.62 2.88 8.3 3 9 C2.67 9.33 2.34 9.66 2 10 C1.98 11.4 2.01 12.79 2.06 14.19 C2.11 18.22 1.43 21.21 0 25 C-0.37 26.99 -0.71 28.99 -1 31 C-0.01 31.33 0.98 31.66 2 32 C-0.48 32.5 -0.48 32.5 -3 33 C-3.18 25.68 -2.47 18.68 -1.5 11.44 C-1.36 10.33 -1.21 9.23 -1.07 8.09 C-0.72 5.39 -0.36 2.7 0 0 Z " fill="#25334F" transform="translate(325,629)"/>
<path d="M0 0 C0 0.99 0 1.98 0 3 C-1.98 3.99 -1.98 3.99 -4 5 C-4 5.33 -4 5.66 -4 6 C-7.3 6 -10.6 6 -14 6 C-14.66 3.69 -15.32 1.38 -16 -1 C-10.16 -2.24 -5.73 -1.57 0 0 Z " fill="#EBECED" transform="translate(275,1082)"/>
<path d="M0 0 C0.66 0.33 1.32 0.66 2 1 C0.62 3 0.62 3 -1 5 C-1.66 5 -2.32 5 -3 5 C-3.33 5.99 -3.66 6.98 -4 8 C-5.62 9.75 -7.26 11.37 -9 13 C-9.6 13.57 -10.2 14.13 -10.81 14.71 C-12.81 16.59 -14.81 18.45 -16.81 20.31 C-17.85 21.28 -17.85 21.28 -18.91 22.27 C-20.61 23.85 -22.3 25.42 -24 27 C-24.33 26.01 -24.66 25.02 -25 24 C-24.01 23.34 -23.02 22.68 -22 22 C-21.67 21.01 -21.34 20.02 -21 19 C-19.22 17.72 -19.22 17.72 -17.06 16.5 C-14.03 14.78 -13.01 14.01 -11 11 C-10.34 11 -9.68 11 -9 11 C-8.69 10.16 -8.69 10.16 -8.38 9.31 C-7.03 7.05 -5.95 6 -3.94 4.38 C-0.99 2.33 -0.99 2.33 0 0 Z " fill="#475B7E" transform="translate(614,472)"/>
<path d="M0 0 C0.76 2.99 1.41 5.98 2 9 C1.01 9.66 0.02 10.32 -1 11 C-1.33 12.32 -1.66 13.64 -2 15 C2.45 14.5 2.45 14.5 7 14 C7.33 14.99 7.66 15.98 8 17 C3.95 17.98 0.16 18.08 -4 18 C-3.42 11.7 -1.96 6.01 0 0 Z " fill="#282E3F" transform="translate(401,941)"/>
<path d="M0 0 C0.33 0.66 0.66 1.32 1 2 C1.66 2.33 2.32 2.66 3 3 C2 6 2 6 -0.43 7.39 C-1.42 7.82 -2.42 8.25 -3.44 8.69 C-4.92 9.34 -4.92 9.34 -6.43 10.01 C-9 11 -9 11 -11 11 C-11 9.68 -11 8.36 -11 7 C-9.54 6.33 -8.08 5.66 -6.62 5 C-5.81 4.63 -5 4.26 -4.16 3.88 C-2 3 -2 3 0 3 C0 2.01 0 1.02 0 0 Z " fill="#E79D60" transform="translate(617,872)"/>
<path d="M0 0 C0.66 0.66 1.32 1.32 2 2 C-1.66 4.02 -5.33 6.03 -9 8.04 C-10.25 8.72 -11.49 9.41 -12.74 10.09 C-14.53 11.08 -16.32 12.06 -18.12 13.04 C-19.74 13.92 -19.74 13.92 -21.39 14.83 C-22.25 15.22 -23.11 15.6 -24 16 C-24.66 15.67 -25.32 15.34 -26 15 C-17.46 9.77 -8.74 4.88 0 0 Z " fill="#FCC4A4" transform="translate(526,965)"/>
<path d="M0 0 C0.78 0 1.56 0.01 2.36 0.01 C4.26 0.03 6.16 0.04 8.06 0.06 C8.39 0.72 8.72 1.38 9.06 2.06 C0.62 3.31 -7.51 3.53 -15.94 2.06 C-15.94 1.73 -15.94 1.4 -15.94 1.06 C-10.57 0.16 -5.43 -0.06 0 0 Z " fill="#090D22" transform="translate(354.9375,667.9375)"/>
<path d="M0 0 C0.33 0 0.66 0 1 0 C1.06 1.19 1.12 2.39 1.18 3.62 C1.79 15.34 1.79 15.34 3 27 C0 25 0 25 -0.56 22.62 C-0.71 21.76 -0.85 20.89 -1 20 C-1.56 18.92 -1.56 18.92 -2.12 17.81 C-2.41 17.21 -2.7 16.62 -3 16 C-2.67 15.34 -2.34 14.68 -2 14 C-1.34 14 -0.68 14 0 14 C0 9.38 0 4.76 0 0 Z " fill="#F69E4A" transform="translate(272,942)"/>
<path d="M0 0 C-2.65 1.46 -3.89 2 -7 2 C-6.5 2.45 -6.01 2.91 -5.5 3.38 C-4 5 -4 5 -4 7 C-5.42 6.88 -6.83 6.76 -8.25 6.62 C-9.04 6.56 -9.83 6.49 -10.64 6.41 C-13.09 5.98 -14.85 5.21 -17 4 C-14.54 3.14 -12.09 2.28 -9.62 1.44 C-8.58 1.07 -8.58 1.07 -7.51 0.69 C-2.23 -1.11 -2.23 -1.11 0 0 Z " fill="#C32F4E" transform="translate(323,1072)"/>
<path d="M0 0 C0.66 0.66 1.32 1.32 2 2 C-0.69 5.37 -4 6.3 -8 7.69 C-9.86 8.34 -9.86 8.34 -11.75 9.01 C-15 10 -15 10 -18 10 C-18 9.34 -18 8.68 -18 8 C-16.95 7.59 -15.9 7.18 -14.82 6.76 C-13.45 6.21 -12.07 5.67 -10.69 5.12 C-9.65 4.72 -9.65 4.72 -8.6 4.31 C-5.49 3.08 -2.79 1.86 0 0 Z " fill="#212E48" transform="translate(358,646)"/>
<path d="M0 0 C0.66 0 1.32 0 2 0 C1.89 1.6 1.76 3.21 1.62 4.81 C1.56 5.71 1.49 6.6 1.41 7.52 C1 10 1 10 -1 13 C-1.99 12.67 -2.98 12.34 -4 12 C-3.46 7.44 -2.21 4.03 0 0 Z " fill="#1A304C" transform="translate(636,708)"/>
<path d="M0 0 C-6.02 4.01 -13.98 3.11 -21 3 C-14.05 -0.71 -7.68 -1.4 0 0 Z " fill="#ECD9DD" transform="translate(543,1045)"/>
<path d="M0 0 C0.66 0.33 1.32 0.66 2 1 C-2.95 4.3 -7.9 7.6 -13 11 C-13.99 10.34 -14.98 9.68 -16 9 C-13.71 7.69 -11.42 6.37 -9.12 5.06 C-8.47 4.69 -7.82 4.32 -7.15 3.93 C-2.23 1.11 -2.23 1.11 0 0 Z " fill="#F49747" transform="translate(391,790)"/>
<path d="M0 0 C-1.58 0.82 -3.16 1.63 -4.75 2.44 C-5.63 2.89 -6.51 3.34 -7.42 3.81 C-11.15 5.53 -14.16 6.13 -18.25 6.06 C-20.11 6.03 -20.11 6.03 -22 6 C-18.3 3.53 -14.68 2.55 -10.44 1.31 C-9.66 1.07 -8.88 0.84 -8.07 0.59 C-2.25 -1.12 -2.25 -1.12 0 0 Z " fill="#C5C8CF" transform="translate(407,661)"/>
<path d="M0 0 C0 0.99 0 1.98 0 3 C-6.75 4.12 -6.75 4.12 -9 3 C-9.33 3.99 -9.66 4.98 -10 6 C-11.65 5.67 -13.3 5.34 -15 5 C-12.83 2.83 -11.5 2.32 -8.62 1.38 C-7.85 1.11 -7.08 0.85 -6.29 0.59 C-4 0 -4 0 0 0 Z " fill="#CF3452" transform="translate(342,1065)"/>
<path d="M0 0 C0.66 0.66 1.32 1.32 2 2 C-0.71 7.63 -3.94 12.28 -8 17 C-8.33 16.34 -8.66 15.68 -9 15 C-7.59 12.38 -6.14 9.89 -4.56 7.38 C-3.91 6.32 -3.91 6.32 -3.25 5.23 C-2.17 3.49 -1.09 1.74 0 0 Z " fill="#146D90" transform="translate(654,487)"/>
<path d="M0 0 C0.33 1.32 0.66 2.64 1 4 C-0.84 6.49 -2 7 -5 8 C-6.39 9.62 -7.73 11.29 -9 13 C-9.99 12.67 -10.98 12.34 -12 12 C-8.04 8.04 -4.08 4.08 0 0 Z " fill="#182B44" transform="translate(534,832)"/>
<path d="M0 0 C-0.64 0.27 -1.28 0.54 -1.94 0.81 C-4.33 1.89 -4.33 1.89 -5 5 C-5 4.34 -5 3.68 -5 3 C-11.27 3 -17.54 3 -24 3 C-24 2.67 -24 2.34 -24 2 C-21.5 1.66 -19 1.33 -16.5 1 C-15.8 0.9 -15.11 0.81 -14.39 0.71 C-9.55 0.08 -4.88 -0.09 0 0 Z " fill="#E75F5F" transform="translate(733,843)"/>
<path d="M0 0 C2.31 0.33 4.62 0.66 7 1 C6.01 1.71 6.01 1.71 5 2.44 C4.01 3.21 4.01 3.21 3 4 C3 4.33 3 4.66 3 5 C-0.3 5 -3.6 5 -7 5 C-7 3.68 -7 2.36 -7 1 C-4.69 1 -2.38 1 0 1 C0 0.67 0 0.34 0 0 Z " fill="#E5BEC8" transform="translate(268,1083)"/>
<path d="M0 0 C0.33 0 0.66 0 1 0 C1 5.28 1 10.56 1 16 C0.34 16 -0.32 16 -1 16 C-1 16.99 -1 17.98 -1 19 C-1.99 19.33 -2.98 19.66 -4 20 C-2.68 13.4 -1.36 6.8 0 0 Z " fill="#F2C9D1" transform="translate(780,891)"/>
<path d="M0 0 C0.66 0.66 1.32 1.32 2 2 C-2.62 2 -7.24 2 -12 2 C-8.48 -1.52 -4.61 -1.37 0 0 Z " fill="#D3CBD1" transform="translate(405,1074)"/>
<path d="M0 0 C0.66 0.66 1.32 1.32 2 2 C1.98 4.76 1.86 7.39 1.62 10.12 C1.57 10.88 1.51 11.63 1.45 12.41 C1.31 14.27 1.16 16.14 1 18 C0.67 18 0.34 18 0 18 C0 13.05 0 8.1 0 3 C-0.66 3 -1.32 3 -2 3 C-2 2.34 -2 1.68 -2 1 C-1.34 0.67 -0.68 0.34 0 0 Z " fill="#43556E" transform="translate(634,719)"/>
<path d="M0 0 C2.62 0.38 2.62 0.38 5 1 C5 1.66 5 2.32 5 3 C7.97 3.5 7.97 3.5 11 4 C11 4.66 11 5.32 11 6 C6.5 4.93 2.25 3.86 -2 2 C-1.34 1.34 -0.68 0.68 0 0 Z " fill="#F4DDCA" transform="translate(343,951)"/>
<path d="M0 0 C0.66 0 1.32 0 2 0 C2.33 3.63 2.66 7.26 3 11 C2.34 11 1.68 11 1 11 C0.67 11.66 0.34 12.32 0 13 C0 8.71 0 4.42 0 0 Z " fill="#DBDEE2" transform="translate(624,812)"/>
<path d="M0 0 C0 0.66 0 1.32 0 2 C-1.56 2.37 -3.12 2.72 -4.69 3.06 C-5.56 3.26 -6.43 3.46 -7.32 3.66 C-10.16 4.02 -12.25 3.71 -15 3 C-15 2.67 -15 2.34 -15 2 C-13.06 1.66 -11.13 1.33 -9.19 1 C-7.57 0.72 -7.57 0.72 -5.92 0.44 C-3 0 -3 0 0 0 Z " fill="#E7CED3" transform="translate(463,1061)"/>
<path d="M0 0 C0 0.66 0 1.32 0 2 C-0.99 2 -1.98 2 -3 2 C-3 2.66 -3 3.32 -3 4 C-5.97 3.67 -8.94 3.34 -12 3 C-7.75 0.87 -4.71 0 0 0 Z " fill="#ECD6DB" transform="translate(552,1041)"/>
<path d="M0 0 C0.66 0 1.32 0 2 0 C2.33 0.99 2.66 1.98 3 3 C-0.62 4.32 -3.1 5 -7 5 C-6.67 3.68 -6.34 2.36 -6 1 C-4.02 1.66 -2.04 2.32 0 3 C0 2.01 0 1.02 0 0 Z " fill="#B92C49" transform="translate(642,1016)"/>
<path d="M0 0 C0.43 0.47 0.87 0.95 1.31 1.44 C3.02 3.24 3.02 3.24 6 4 C1.25 8 1.25 8 -1 8 C-0.67 5.36 -0.34 2.72 0 0 Z " fill="#35A9C4" transform="translate(444,763)"/>
<path d="M0 0 C-3.12 2.52 -6.31 4.4 -10 6 C-10.66 5.67 -11.32 5.34 -12 5 C-8.69 0.03 -5.82 -0.26 0 0 Z " fill="#23304A" transform="translate(399,629)"/>
<path d="M0 0 C-2.69 2.69 -5.38 3.06 -9 4 C-8.62 2.06 -8.62 2.06 -8 0 C-5.14 -1.43 -3.07 -0.6 0 0 Z " fill="#1F2D47" transform="translate(387,635)"/>
<path d="M0 0 C0.66 0.66 1.32 1.32 2 2 C0.55 2.86 -0.91 3.72 -2.38 4.56 C-3.59 5.28 -3.59 5.28 -4.84 6 C-5.55 6.33 -6.26 6.66 -7 7 C-7.66 6.67 -8.32 6.34 -9 6 C-8.67 5.34 -8.34 4.68 -8 4 C-7.01 4 -6.02 4 -5 4 C-4.67 3.01 -4.34 2.02 -4 1 C-2.68 1.33 -1.36 1.66 0 2 C0 1.34 0 0.68 0 0 Z " fill="#27354F" transform="translate(423,614)"/>
<path d="M0 0 C0.9 0.31 0.9 0.31 1.81 0.62 C0.53 1.49 -0.77 2.34 -2.06 3.19 C-2.78 3.66 -3.5 4.14 -4.24 4.63 C-4.88 4.96 -5.53 5.29 -6.19 5.62 C-6.85 5.29 -7.51 4.97 -8.19 4.62 C-7.86 3.3 -7.53 1.99 -7.19 0.62 C-6.53 0.96 -5.87 1.28 -5.19 1.62 C-2.19 -0.38 -2.19 -0.38 0 0 Z " fill="#2B3853" transform="translate(446.1875,602.375)"/>
<path d="M0 0 C0.99 0 1.98 0 3 0 C2 3 2 3 0.23 4.18 C-2.26 5.09 -4.11 5.2 -6.75 5.12 C-7.55 5.11 -8.35 5.09 -9.17 5.07 C-9.78 5.05 -10.38 5.02 -11 5 C-11 4.67 -11 4.34 -11 4 C-8.36 4 -5.72 4 -3 4 C-3 3.34 -3 2.68 -3 2 C-2.01 2 -1.02 2 0 2 C0 1.34 0 0.68 0 0 Z " fill="#3EAAC7" transform="translate(216,1027)"/>
<path d="M0 0 C1.41 2.82 0.51 4.17 -0.44 7.12 C-0.72 8.04 -1.01 8.95 -1.31 9.88 C-1.54 10.58 -1.76 11.28 -2 12 C-2.33 11.34 -2.66 10.68 -3 10 C-3.66 10 -4.32 10 -5 10 C-3.67 6.41 -2.04 3.25 0 0 Z " fill="#ED974C" transform="translate(318,880)"/>
<path d="M0 0 C0.66 0.66 1.32 1.32 2 2 C1.94 4.5 1.94 4.5 1 7 C-1.56 8.31 -1.56 8.31 -4 9 C-2.8 5.92 -1.52 2.94 0 0 Z " fill="#142C47" transform="translate(620,719)"/>
<path d="M0 0 C0.33 0.99 0.66 1.98 1 3 C-1.97 5.48 -1.97 5.48 -5 8 C-5.66 7.67 -6.32 7.34 -7 7 C-4.69 4.69 -2.38 2.38 0 0 Z " fill="#F5DFD0" transform="translate(331,839)"/>
<path d="M0 0 C-0.99 0.33 -1.98 0.66 -3 1 C-3.33 1.66 -3.66 2.32 -4 3 C-6.31 2.67 -8.62 2.34 -11 2 C-7 -0.07 -4.44 -1.38 0 0 Z " fill="#E4C8CF" transform="translate(475,1059)"/>
<path d="M0 0 C-0.33 0.99 -0.66 1.98 -1 3 C-3.64 3.33 -6.28 3.66 -9 4 C-6.1 1.7 -3.85 0 0 0 Z " fill="#D0D3D8" transform="translate(433,650)"/>
<path d="M0 0 C0.33 0 0.66 0 1 0 C0.67 3.63 0.34 7.26 0 11 C-2 8 -2 8 -1.69 4.94 C-1 2 -1 2 0 0 Z " fill="#7CACC1" transform="translate(662,554)"/>
<path d="M0 0 C0 0.66 0 1.32 0 2 C-0.66 2 -1.32 2 -2 2 C-2 2.99 -2 3.98 -2 5 C-3.98 5 -5.96 5 -8 5 C-3.23 0 -3.23 0 0 0 Z " fill="#4C5B7B" transform="translate(429,532)"/>
<path d="M0 0 C0.66 0 1.32 0 2 0 C2.62 1.81 2.62 1.81 3 4 C2.01 5.49 2.01 5.49 1 7 C0.34 7 -0.32 7 -1 7 C-0.67 4.69 -0.34 2.38 0 0 Z " fill="#EDD6DA" transform="translate(749,958)"/>
<path d="M0 0 C0.66 0.33 1.32 0.66 2 1 C-1.96 3.48 -1.96 3.48 -6 6 C-6.66 5.34 -7.32 4.68 -8 4 C-6.71 3.3 -5.42 2.62 -4.12 1.94 C-3.41 1.55 -2.69 1.17 -1.95 0.78 C-1.3 0.52 -0.66 0.26 0 0 Z " fill="#F3BC84" transform="translate(391,790)"/>
</svg>
