<?xml version="1.0" encoding="UTF-8"?>
<svg version="1.1" xmlns="http://www.w3.org/2000/svg" width="474" height="248">
<path d="M0 0 C156.42 0 312.84 0 474 0 C474 81.84 474 163.68 474 248 C317.58 248 161.16 248 0 248 C0 166.16 0 84.32 0 0 Z " fill="#FDFDFD" transform="translate(0,0)"/>
<path d="M0 0 C20.46 0 40.92 0 62 0 C69.93276511 14.2789772 72.5486678 28.25672478 68.4375 44.1875 C65.2083514 54.2311864 60.13786435 64.97184443 52 72 C51.34 72 50.68 72 50 72 C50 72.66 50 73.32 50 74 C34.4569051 86.36594925 19.63533816 87 0 87 C0 58.29 0 29.58 0 0 Z " fill="#EB1B24" transform="translate(254,127)"/>
<path d="M0 0 C20.13 0 40.26 0 61 0 C67 12 67 12 67 15 C67.66 15 68.32 15 69 15 C69 23.91 69 32.82 69 42 C68.34 42 67.68 42 67 42 C66.773125 43.27875 66.54625 44.5575 66.3125 45.875 C63.33200594 58.8038999 54.62763744 70.61665119 43.625 78 C28.72303768 86.61955231 17.8300387 87 0 87 C0 58.29 0 29.58 0 0 Z " fill="#EC1B23" transform="translate(405,127)"/>
<path d="M0 0 C18.81 0 37.62 0 57 0 C59.33459311 5.25283451 61.53265899 10.21560307 63.4375 15.58203125 C63.85773438 16.76216797 64.27796875 17.94230469 64.7109375 19.15820312 C65.13632813 20.36412109 65.56171875 21.57003906 66 22.8125 C66.42539063 24.00681641 66.85078125 25.20113281 67.2890625 26.43164062 C69.24298258 31.93678048 71.16249866 37.44966456 72.99609375 42.99609375 C75.24282083 49.78649065 77.64826814 56.51765929 80.0625 63.25 C80.49626953 64.46429688 80.93003906 65.67859375 81.37695312 66.9296875 C83.14225161 71.8628504 84.90788975 76.78912807 86.80859375 81.671875 C88 85 88 85 88 88 C72.82 88 57.64 88 42 88 C39.69 81.07 37.38 74.14 35 67 C32.94095309 61.25353485 32.94095309 61.25353485 30.84765625 55.51953125 C30 53 30 53 30 51 C20.1 51 10.2 51 0 51 C0 34.17 0 17.34 0 0 Z " fill="#EB1B24" transform="translate(93,127)"/>
<path d="M0 0 C1.01037827 0.00222061 2.02075653 0.00444122 3.06175232 0.00672913 C4.77341331 0.00684242 4.77341331 0.00684242 6.51965332 0.00695801 C7.76129745 0.01211929 9.00294159 0.01728058 10.2822113 0.02259827 C12.17785072 0.02472069 12.17785072 0.02472069 14.11178589 0.02688599 C17.47705394 0.0315487 20.84225495 0.04053972 24.20750427 0.05158997 C27.63930164 0.06180606 31.07110613 0.06643873 34.50291443 0.07142639 C41.2405826 0.08163189 47.97813276 0.10120361 54.71580505 0.12025452 C54.71580505 16.95025452 54.71580505 33.78025452 54.71580505 51.12025452 C44.81580505 51.12025452 34.91580505 51.12025452 24.71580505 51.12025452 C24.38580505 53.10025452 24.05580505 55.08025452 23.71580505 57.12025452 C23.09705737 59.08347653 22.42933271 61.03177088 21.7197113 62.96400452 C21.32590271 64.04552795 20.93209412 65.12705139 20.52635193 66.24134827 C20.11449646 67.35638733 19.70264099 68.47142639 19.27830505 69.62025452 C18.46654821 71.83880009 17.65533281 74.05754386 16.8447113 76.27650452 C16.4844989 77.25425842 16.1242865 78.23201233 15.75315857 79.23939514 C14.69320835 82.18300837 13.70516612 85.1521713 12.71580505 88.12025452 C-2.46419495 88.12025452 -17.64419495 88.12025452 -33.28419495 88.12025452 C-33.28419495 86.47025452 -33.28419495 84.82025452 -33.28419495 83.12025452 C-32.62419495 83.12025452 -31.96419495 83.12025452 -31.28419495 83.12025452 C-30.88128235 81.41119934 -30.88128235 81.41119934 -30.4702301 79.6676178 C-29.33494013 75.13503692 -27.86661422 70.7643719 -26.30763245 66.36244202 C-26.02113831 65.54480377 -25.73464417 64.72716553 -25.43946838 63.88475037 C-24.51632766 61.25363097 -23.58791686 58.62440848 -22.65919495 55.99525452 C-22.02179819 54.1824957 -21.38459187 52.3696699 -20.74757385 50.55677795 C-17.13227504 40.28248534 -13.47391911 30.02540167 -9.71510315 19.80262756 C-7.68037825 14.26061265 -5.76554491 8.69615732 -3.9756012 3.06947327 C-3.0141458 0.35892952 -2.93075115 0.15429334 0 0 Z " fill="#EC1B23" transform="translate(33.28419494628906,126.87974548339844)"/>
<path d="M0 0 C17.49 0 34.98 0 53 0 C53 29.04 53 58.08 53 88 C35.51 88 18.02 88 0 88 C0 58.96 0 29.92 0 0 Z " fill="#EB1C23" transform="translate(346,127)"/>
<path d="M0 0 C17.49 0 34.98 0 53 0 C53 29.04 53 58.08 53 88 C35.51 88 18.02 88 0 88 C0 58.96 0 29.92 0 0 Z " fill="#EC1B22" transform="translate(346,33)"/>
<path d="M0 0 C17.49 0 34.98 0 53 0 C53 29.04 53 58.08 53 88 C35.51 88 18.02 88 0 88 C0 58.96 0 29.92 0 0 Z " fill="#E71E26" transform="translate(196,33)"/>
<path d="M0 0 C17.49 0 34.98 0 53 0 C53 28.71 53 57.42 53 87 C35.51 87 18.02 87 0 87 C0 58.29 0 29.58 0 0 Z " fill="#EC1B23" transform="translate(196,127)"/>
<path d="M0 0 C31.02054795 0 31.02054795 0 43 11 C50.85165274 19.0697542 53.3036208 28.84806133 53.31469727 39.71899414 C53.11395671 50.24658907 49.24137864 58.37749617 42 66 C40.69139041 67.03214278 39.36426115 68.04262375 38 69 C38.60585938 69.38929687 39.21171875 69.77859375 39.8359375 70.1796875 C46.65849909 74.73505939 52.50656296 79.89877843 58 86 C58 86.33 58 86.66 58 87 C38.86 87 19.72 87 0 87 C0 58.29 0 29.58 0 0 Z " fill="#EB1D26" transform="translate(254,34)"/>
<path d="M0 0 C30.8 0 30.8 0 43.53125 12.50390625 C51.76308777 21.71452961 52.72839694 32.18138622 52.17480469 44.02880859 C51.40683357 52.68886278 46.87475797 59.81604424 41 66 C39.69139041 67.03214278 38.36426115 68.04262375 37 69 C38.41152344 69.94359375 38.41152344 69.94359375 39.8515625 70.90625 C41.10984674 71.77014664 42.36763268 72.63476937 43.625 73.5 C44.24246094 73.90992187 44.85992187 74.31984375 45.49609375 74.7421875 C50.80549254 78.43082245 52.80979389 81.41305852 57 87 C38.19 87 19.38 87 0 87 C0 58.29 0 29.58 0 0 Z " fill="#EC1B23" transform="translate(405,34)"/>
<path d="M0 0 C7.92 0 15.84 0 24 0 C27.78242369 8.75420182 31.00923516 17.57664646 34.04931641 26.60864258 C35.35274775 30.47932497 36.67038644 34.34516006 37.98828125 38.2109375 C38.24727203 38.97118225 38.50626282 39.731427 38.77310181 40.51470947 C41.49954641 48.49794371 44.3651508 56.42803767 47.28125 64.34375 C47.55839844 65.0965625 47.83554688 65.849375 48.12109375 66.625 C48.75399396 68.33523702 49.39272686 70.04331965 50.03515625 71.75 C50.38449219 72.6884375 50.73382813 73.626875 51.09375 74.59375 C51.41021484 75.43615234 51.72667969 76.27855469 52.05273438 77.14648438 C53.2338418 80.70441828 54.09076928 84.36307713 55 88 C36.85 88 18.7 88 0 88 C0 58.96 0 29.92 0 0 Z " fill="#EC1B24" transform="translate(93,33)"/>
<path d="M0 0 C7.92 0 15.84 0 24 0 C24 29.04 24 58.08 24 88 C5.85 88 -12.3 88 -31 88 C-29.2675 82.781875 -27.535 77.56375 -25.75 72.1875 C-25.21213867 70.56481201 -24.67427734 68.94212402 -24.12011719 67.27026367 C-20.6844874 56.92839 -17.06351463 46.68498191 -13.10791016 36.52905273 C-9.71123359 27.78931787 -6.60860098 19.01999737 -3.90283203 10.04101562 C-3.67966309 9.30431641 -3.45649414 8.56761719 -3.2265625 7.80859375 C-3.03658691 7.16720459 -2.84661133 6.52581543 -2.65087891 5.86499023 C-2 4 -2 4 0 0 Z " fill="#EC1B23" transform="translate(64,33)"/>
<path d="M0 0 C7.26 0 14.52 0 22 0 C22.99 0.99 22.99 0.99 24 2 C16.74 2 9.48 2 2 2 C2 30.71 2 59.42 2 89 C30.215 88.505 30.215 88.505 59 88 C56.69 85.69 54.38 83.38 52 81 C55 80 55 80 57.625 80.5625 C60 82 60 82 60.8125 85.125 C60.9053125 86.548125 60.9053125 86.548125 61 88 C63.31 88.33 65.62 88.66 68 89 C68 90.65 68 92.3 68 94 C67.01 94.495 67.01 94.495 66 95 C65.505 96.485 65.505 96.485 65 98 C64.67 97.34 64.34 96.68 64 96 C43.54 95.67 23.08 95.34 2 95 C2 123.71 2 152.42 2 182 C17.03352758 181.39400803 17.03352758 181.39400803 32 180 C31.67 180.99 31.34 181.98 31 183 C24.51605026 183.96258161 18.17540719 184.18316198 11.625 184.1875 C10.62855469 184.19974609 9.63210938 184.21199219 8.60546875 184.22460938 C7.65542969 184.22654297 6.70539063 184.22847656 5.7265625 184.23046875 C4.43613037 184.23663208 4.43613037 184.23663208 3.11962891 184.24291992 C1 184 1 184 -1 182 C-1 181.34 -1 180.68 -1 180 C-1.66 180.99 -2.32 181.98 -3 183 C-20.82 183 -38.64 183 -57 183 C-57 123.27 -57 63.54 -57 2 C-56.67 2 -56.34 2 -56 2 C-56 30.71 -56 59.42 -56 89 C-38.51 89 -21.02 89 -3 89 C-3 60.29 -3 31.58 -3 2 C-2.67 2 -2.34 2 -2 2 C-1.67 28.4 -1.34 54.8 -1 82 C-0.34 82 0.32 82 1 82 C0.67 54.94 0.34 27.88 0 0 Z M-56 95 C-56 123.71 -56 152.42 -56 182 C-38.51 182 -21.02 182 -3 182 C-3 153.29 -3 124.58 -3 95 C-20.49 95 -37.98 95 -56 95 Z " fill="#FDD9DB" transform="translate(252,32)"/>
<path d="M0 0 C8.58 0 17.16 0 26 0 C25.67 0.66 25.34 1.32 25 2 C17.08 1.67 9.16 1.34 1 1 C1 30.04 1 59.08 1 89 C27.73 88.505 27.73 88.505 55 88 C54.01 83.545 54.01 83.545 53 79 C53.66 79 54.32 79 55 79 C55.6708712 80.6232687 56.33657029 82.24867578 57 83.875 C57.37125 84.77992187 57.7425 85.68484375 58.125 86.6171875 C59 89 59 89 59 91 C58.67 91.33 58.34 91.66 58 92 C58.680625 92.86625 58.680625 92.86625 59.375 93.75 C62.19266055 97.65137615 62.19266055 97.65137615 63 100 C62.125 102.25 62.125 102.25 61 104 C60.01 101.36 59.02 98.72 58 96 C39.19 95.67 20.38 95.34 1 95 C1 111.83 1 128.66 1 146 C10.9 146 20.8 146 31 146 C35 156 35 156 34 160 C34 159.34 34 158.68 34 158 C32.35 157.34 30.7 156.68 29 156 C29.20625 155.38125 29.4125 154.7625 29.625 154.125 C29.74875 153.42375 29.8725 152.7225 30 152 C29.34 151.34 28.68 150.68 28 150 C28 149.67 28 149.34 28 149 C21.55447615 147.97388476 15.50333305 148.04730002 9 148.4375 C8.03449219 148.48970703 7.06898437 148.54191406 6.07421875 148.59570312 C3.7157175 148.72413636 1.35777955 148.85903189 -1 149 C-1 148.01 -1 147.02 -1 146 C-1.66 146.33 -2.32 146.66 -3 147 C-5.32273159 147.15520557 -7.64959313 147.25019167 -9.9765625 147.31640625 C-10.66181 147.33718735 -11.3470575 147.35796844 -12.05307007 147.37937927 C-14.24361069 147.44480185 -16.43427189 147.50372554 -18.625 147.5625 C-20.1093875 147.60569218 -21.59376278 147.6493067 -23.078125 147.69335938 C-26.71862084 147.80047553 -30.35925251 147.90176362 -34 148 C-34 147.34 -34 146.68 -34 146 C-24.1 146 -14.2 146 -4 146 C-4 129.17 -4 112.34 -4 95 C-22.81 95 -41.62 95 -61 95 C-61 94.67 -61 94.34 -61 94 C-34.27 93.505 -34.27 93.505 -7 93 C-6.67 92.34 -6.34 91.68 -6 91 C-23.49 91 -40.98 91 -59 91 C-59 90.34 -59 89.68 -59 89 C-40.85 89 -22.7 89 -4 89 C-4 60.29 -4 31.58 -4 2 C-3.01 2 -2.02 2 -1 2 C-0.67 1.34 -0.34 0.68 0 0 Z " fill="#FEE6E7" transform="translate(92,32)"/>
<path d="M0 0 C32 0 32 0 38 5 C38.515625 5.53625 39.03125 6.0725 39.5625 6.625 C41.49544472 8.47390365 43.68232562 9.68456319 46 11 C45.34 11.66 44.68 12.32 44 13 C43.30777344 12.41992188 43.30777344 12.41992188 42.6015625 11.828125 C41.94929688 11.30734375 41.29703125 10.7865625 40.625 10.25 C39.99851562 9.73953125 39.37203125 9.2290625 38.7265625 8.703125 C26.3498665 0.97212291 18.64769474 2.68033455 3 2 C3 30.71 3 59.42 3 89 C21.48 89 39.96 89 59 89 C58.67 89.66 58.34 90.32 58 91 C40.51 91 23.02 91 5 91 C5 91.66 5 92.32 5 93 C24.8 92.67 44.6 92.34 65 92 C65.33 93.98 65.66 95.96 66 98 C65.34 97.34 64.68 96.68 64 96 C61.33033886 95.66778599 61.33033886 95.66778599 58.17333984 95.68115234 C56.93511475 95.66109131 55.69688965 95.64103027 54.42114258 95.62036133 C53.1142749 95.60900146 51.80740723 95.5976416 50.4609375 95.5859375 C49.26380127 95.56829346 48.06666504 95.55064941 46.83325195 95.5324707 C42.34730638 95.46924844 37.86113246 95.42316925 33.375 95.375 C18.339375 95.189375 18.339375 95.189375 3 95 C3 123.71 3 152.42 3 182 C2.67 182 2.34 182 2 182 C1.67 152.3 1.34 122.6 1 92 C0.01 92.495 0.01 92.495 -1 93 C-1 92.34 -1 91.68 -1 91 C-18.49 91 -35.98 91 -54 91 C-54 91.66 -54 92.32 -54 93 C-53.39056549 92.99555878 -52.78113098 92.99111755 -52.15322876 92.98654175 C-45.82711118 92.94239593 -39.50103715 92.91217013 -33.17480469 92.89013672 C-30.81183089 92.88006076 -28.44886961 92.86639971 -26.0859375 92.84912109 C-22.69528112 92.82494276 -19.30478916 92.81353301 -15.9140625 92.8046875 C-14.85256989 92.79436493 -13.79107727 92.78404236 -12.69741821 92.77340698 C-11.22611954 92.77318039 -11.22611954 92.77318039 -9.72509766 92.77294922 C-8.85905914 92.768508 -7.99302063 92.76406677 -7.10073853 92.75949097 C-5 93 -5 93 -3 95 C-20.49 95 -37.98 95 -56 95 C-55.67 93.68 -55.34 92.36 -55 91 C-55.99 91 -56.98 91 -58 91 C-57.67 61.63 -57.34 32.26 -57 2 C-56.67 2 -56.34 2 -56 2 C-56 30.71 -56 59.42 -56 89 C-38.51 89 -21.02 89 -3 89 C-3 60.29 -3 31.58 -3 2 C-2.34 2 -1.68 2 -1 2 C-1 28.73 -1 55.46 -1 83 C-0.34 83 0.32 83 1 83 C0.67 55.61 0.34 28.22 0 0 Z " fill="#FEE3E4" transform="translate(402,32)"/>
<path d="M0 0 C17.49 0 34.98 0 53 0 C53 29.04 53 58.08 53 88 C35.51 88 18.02 88 0 88 C0 58.96 0 29.92 0 0 Z M7 9 C6.34 10.98 5.68 12.96 5 15 C4.01 15 3.02 15 2 15 C2 38.43 2 61.86 2 86 C17.84 86 33.68 86 50 86 C50 60.59 50 35.18 50 9 C35.81 9 21.62 9 7 9 Z " fill="#EE1A2C" transform="translate(346,33)"/>
<path d="M0 0 C18.66666667 0 37.33333333 0 56 0 C56 30.03 56 60.06 56 91 C49.25 94.375 49.25 94.375 44.36181641 94.2487793 C43.28114899 94.22853195 42.20048157 94.20828461 41.08706665 94.18742371 C39.93685028 94.15006607 38.78663391 94.11270844 37.6015625 94.07421875 C35.81641739 94.03455742 35.81641739 94.03455742 33.99520874 93.99409485 C30.20461801 93.90652298 26.4150055 93.797303 22.625 93.6875 C20.05081599 93.62422162 17.47659683 93.56235624 14.90234375 93.50195312 C8.60106317 93.35101231 2.30044689 93.18230759 -4 93 C-5.12596377 79.41411952 -5.12596377 79.41411952 -5.1328125 72.5859375 C-5.13474609 71.26762939 -5.13667969 69.94932129 -5.13867188 68.59106445 C-5.13454497 67.18570831 -5.12997577 65.7803534 -5.125 64.375 C-5.12411377 63.64807953 -5.12322754 62.92115906 -5.12231445 62.17221069 C-5.0942048 42.10975807 -4.54273883 22.05391121 -4 2 C-3.01 2 -2.02 2 -1 2 C-1.33 31.7 -1.66 61.4 -2 92 C15.49 92 32.98 92 51 92 C51 62.63 51 33.26 51 3 C34.17 2.67 17.34 2.34 0 2 C0 1.34 0 0.68 0 0 Z " fill="#FEE1E0" transform="translate(348,123)"/>
<path d="M0 0 C23 0 23 0 33 4 C33.66 4.66 34.32 5.32 35 6 C32.03 6 29.06 6 26 6 C26 6.66 26 7.32 26 8 C23.69 8 21.38 8 19 8 C19 6.68 19 5.36 19 4 C13.72 3.67 8.44 3.34 3 3 C2.67 4.98 2.34 6.96 2 9 C2.99 8.67 3.98 8.34 5 8 C5 32.09 5 56.18 5 81 C4.01 81.495 4.01 81.495 3 82 C3 82.66 3 83.32 3 84 C18.84 84 34.68 84 51 84 C49.35 82.35 47.7 80.7 46 79 C45.505 78.4225 45.01 77.845 44.5 77.25 C43.00323136 75.79326032 43.00323136 75.79326032 40.5625 75.5625 C37.26659778 74.83900927 35.99693379 73.6881801 34 71 C34.25 68.75 34.25 68.75 35 67 C36.98 66.505 36.98 66.505 39 66 C38.34 66.99 37.68 67.98 37 69 C38.41152344 69.94359375 38.41152344 69.94359375 39.8515625 70.90625 C41.10984674 71.77014664 42.36763268 72.63476937 43.625 73.5 C44.24246094 73.90992187 44.85992187 74.31984375 45.49609375 74.7421875 C50.80549254 78.43082245 52.80979389 81.41305852 57 87 C38.19 87 19.38 87 0 87 C0 58.29 0 29.58 0 0 Z " fill="#E12127" transform="translate(405,34)"/>
<path d="M0 0 C0.66 0 1.32 0 2 0 C2.6708712 1.6232687 3.33657029 3.24867578 4 4.875 C4.37125 5.77992187 4.7425 6.68484375 5.125 7.6171875 C6 10 6 10 6 12 C5.67 12.33 5.34 12.66 5 13 C5.45375 13.5775 5.9075 14.155 6.375 14.75 C9.19266055 18.65137615 9.19266055 18.65137615 10 21 C9.125 23.25 9.125 23.25 8 25 C7.01 22.36 6.02 19.72 5 17 C-13.81 16.67 -32.62 16.34 -52 16 C-52 32.83 -52 49.66 -52 67 C-42.1 67 -32.2 67 -22 67 C-18 77 -18 77 -19 81 C-19 80.34 -19 79.68 -19 79 C-20.65 78.34 -22.3 77.68 -24 77 C-23.79375 76.38125 -23.5875 75.7625 -23.375 75.125 C-23.189375 74.073125 -23.189375 74.073125 -23 73 C-23.66 72.34 -24.32 71.68 -25 71 C-25 70.67 -25 70.34 -25 70 C-31.44552385 68.97388476 -37.49666695 69.04730002 -44 69.4375 C-44.96550781 69.48970703 -45.93101563 69.54191406 -46.92578125 69.59570312 C-49.2842825 69.72413636 -51.64222045 69.85903189 -54 70 C-54 69.01 -54 68.02 -54 67 C-54.99 67.495 -54.99 67.495 -56 68 C-58.32273159 68.15520557 -60.64959313 68.25019167 -62.9765625 68.31640625 C-63.66181 68.33718735 -64.3470575 68.35796844 -65.05307007 68.37937927 C-67.24361069 68.44480185 -69.43427189 68.50372554 -71.625 68.5625 C-73.1093875 68.60569218 -74.59376278 68.6493067 -76.078125 68.69335938 C-79.71862084 68.80047553 -83.35925251 68.90176362 -87 69 C-87 68.34 -87 67.68 -87 67 C-77.1 67 -67.2 67 -57 67 C-57 50.17 -57 33.34 -57 16 C-75.81 16 -94.62 16 -114 16 C-114 15.67 -114 15.34 -114 15 C-104.72931334 14.82494996 -95.45847687 14.65888812 -86.1875 14.5 C-85.14840107 14.48218412 -85.14840107 14.48218412 -84.08831024 14.46400833 C-56.39066554 13.9924411 -28.70180373 13.88111599 -1 14 C-0.67 13.01 -0.34 12.02 0 11 C-17.16 11 -34.32 11 -52 11 C-52 10.67 -52 10.34 -52 10 C-25.27 9.505 -25.27 9.505 2 9 C1.01 4.545 1.01 4.545 0 0 Z " fill="#FEE0E0" transform="translate(145,111)"/>
<path d="M0 0 C7.92 0 15.84 0 24 0 C24 29.04 24 58.08 24 88 C5.85 88 -12.3 88 -31 88 C-27.7 78.1 -24.4 68.2 -21 58 C-20.34 58.33 -19.68 58.66 -19 59 C-19.34302035 64.98511371 -19.82307843 69.75117306 -23 75 C-23.66 75 -24.32 75 -25 75 C-25.33 78.63 -25.66 82.26 -26 86 C-10.16 86 5.68 86 22 86 C22 58.61 22 31.22 22 3 C15.07 3 8.14 3 1 3 C0.67 4.98 0.34 6.96 0 9 C0.66 9.33 1.32 9.66 2 10 C-0.625 13.875 -0.625 13.875 -4 15 C-3.67 17.64 -3.34 20.28 -3 23 C-3.66 23 -4.32 23 -5 23 C-5.103125 23.928125 -5.20625 24.85625 -5.3125 25.8125 C-6.0070192 29.03254358 -6.47740939 30.02579865 -9 32 C-10.32197638 28.34395118 -9.65587966 26.12333204 -8.41796875 22.5 C-8.06283203 21.448125 -7.70769531 20.39625 -7.34179688 19.3125 C-6.96087891 18.219375 -6.57996094 17.12625 -6.1875 16 C-5.81818359 14.906875 -5.44886719 13.81375 -5.06835938 12.6875 C-3.56863933 8.29334719 -2.0804504 4.1609008 0 0 Z " fill="#C74049" transform="translate(64,33)"/>
<path d="M0 0 C17.49 0 34.98 0 53 0 C53 28.71 53 57.42 53 87 C35.51 87 18.02 87 0 87 C0 58.29 0 29.58 0 0 Z M2 2 C1.88369566 16.32321057 1.88369566 16.32321057 1.8046875 30.64648438 C1.78075678 36.48671973 1.75241834 42.32670475 1.69824219 48.16674805 C1.65484619 52.87406854 1.63087598 57.58112066 1.62049103 62.28862572 C1.6130884 64.08644017 1.59863304 65.88423959 1.57707977 67.68194008 C1.5481282 70.19624432 1.54404044 72.70943341 1.54589844 75.22387695 C1.53151733 75.97050095 1.51713623 76.71712494 1.50231934 77.4863739 C1.52799629 80.68823326 1.57443194 82.51997211 3.74182129 84.96472168 C6.23829603 86.10924854 7.84773818 86.36364266 10.58496094 86.34057617 C11.49810059 86.34021362 12.41124023 86.33985107 13.35205078 86.33947754 C14.30321777 86.32412964 15.25438477 86.30878174 16.234375 86.29296875 C17.55526123 86.28843689 17.55526123 86.28843689 18.90283203 86.28381348 C22.18534095 86.26814349 25.46768251 86.22625943 28.75 86.1875 C36.0925 86.125625 43.435 86.06375 51 86 C51 58.28 51 30.56 51 2 C34.83 2 18.66 2 2 2 Z " fill="#C12D34" transform="translate(196,127)"/>
<path d="M0 0 C1.01037827 0.00222061 2.02075653 0.00444122 3.06175232 0.00672913 C4.77341331 0.00684242 4.77341331 0.00684242 6.51965332 0.00695801 C7.76129745 0.01211929 9.00294159 0.01728058 10.2822113 0.02259827 C12.17785072 0.02472069 12.17785072 0.02472069 14.11178589 0.02688599 C17.47705394 0.0315487 20.84225495 0.04053972 24.20750427 0.05158997 C27.63930164 0.06180606 31.07110613 0.06643873 34.50291443 0.07142639 C41.2405826 0.08163189 47.97813276 0.10120361 54.71580505 0.12025452 C54.71580505 16.95025452 54.71580505 33.78025452 54.71580505 51.12025452 C44.81580505 51.12025452 34.91580505 51.12025452 24.71580505 51.12025452 C24.38580505 53.10025452 24.05580505 55.08025452 23.71580505 57.12025452 C23.29044648 58.49684679 22.8236082 59.86170168 22.3056488 61.20619202 C21.9044281 62.26000061 21.9044281 62.26000061 21.49510193 63.33509827 C21.21730896 64.04794983 20.93951599 64.76080139 20.65330505 65.49525452 C20.3716449 66.2313092 20.08998474 66.96736389 19.79978943 67.72572327 C19.11013887 69.52582812 18.41366574 71.32331661 17.71580505 73.12025452 C17.05580505 72.79025452 16.39580505 72.46025452 15.71580505 72.12025452 C15.50813608 68.38221301 16.02763526 66.40012727 17.71580505 63.12025452 C18.28391802 61.54621675 18.82569126 59.96242442 19.34080505 58.37025452 C19.60119568 57.57103577 19.8615863 56.77181702 20.12986755 55.94837952 C20.32322693 55.34509827 20.5165863 54.74181702 20.71580505 54.12025452 C19.39580505 54.78025452 18.07580505 55.44025452 16.71580505 56.12025452 C16.71580505 53.81025452 16.71580505 51.50025452 16.71580505 49.12025452 C28.59580505 49.12025452 40.47580505 49.12025452 52.71580505 49.12025452 C52.38580505 33.94025452 52.05580505 18.76025452 51.71580505 3.12025452 C34.88580505 3.12025452 18.05580505 3.12025452 0.71580505 3.12025452 C-0.69156382 8.04604556 -1.67187868 12.13425065 -2.28419495 17.12025452 C-2.47169495 18.59942118 -2.65919495 20.07858785 -2.84669495 21.55775452 C-3.06325745 23.32119202 -3.06325745 23.32119202 -3.28419495 25.12025452 C-5.22169495 25.68275452 -5.22169495 25.68275452 -7.28419495 26.12025452 C-7.61419495 25.79025452 -7.94419495 25.46025452 -8.28419495 25.12025452 C-9.60419495 26.44025452 -10.92419495 27.76025452 -12.28419495 29.12025452 C-10.40158122 22.54762062 -8.30551828 16.04804127 -6.15919495 9.55775452 C-5.89348694 8.74773987 -5.62777893 7.93772522 -5.35401917 7.10316467 C-3.04364153 0.1602366 -3.04364153 0.1602366 0 0 Z " fill="#D4242E" transform="translate(33.28419494628906,126.87974548339844)"/>
<path d="M0 0 C0.33 0 0.66 0 1 0 C1 28.71 1 57.42 1 87 C19.48 87 37.96 87 57 87 C56.67 87.66 56.34 88.32 56 89 C38.51 89 21.02 89 3 89 C3 89.66 3 90.32 3 91 C22.8 90.67 42.6 90.34 63 90 C63.33 91.98 63.66 93.96 64 96 C63.01 95.01 63.01 95.01 62 94 C59.33033886 93.66778599 59.33033886 93.66778599 56.17333984 93.68115234 C54.93511475 93.66109131 53.69688965 93.64103027 52.42114258 93.62036133 C51.1142749 93.60900146 49.80740723 93.5976416 48.4609375 93.5859375 C46.66523315 93.55947144 46.66523315 93.55947144 44.83325195 93.5324707 C40.34730638 93.46924844 35.86113246 93.42316925 31.375 93.375 C16.339375 93.189375 16.339375 93.189375 1 93 C1 121.71 1 150.42 1 180 C0.67 180 0.34 180 0 180 C0 120.6 0 61.2 0 0 Z " fill="#F8ABB2" transform="translate(404,34)"/>
<path d="M0 0 C17.49 0 34.98 0 53 0 C53 29.04 53 58.08 53 88 C35.51 88 18.02 88 0 88 C0 58.96 0 29.92 0 0 Z M1 1 C1 28.72 1 56.44 1 85 C3.41774581 86.20887291 4.93331064 86.12059343 7.63330078 86.11352539 C8.60759033 86.11340454 9.58187988 86.11328369 10.58569336 86.11315918 C12.12495483 86.10548523 12.12495483 86.10548523 13.6953125 86.09765625 C14.63689209 86.09664917 15.57847168 86.09564209 16.54858398 86.09460449 C20.07406834 86.08936287 23.59953536 86.07540166 27.125 86.0625 C35.00375 86.041875 42.8825 86.02125 51 86 C51 57.95 51 29.9 51 1 C34.5 1 18 1 1 1 Z " fill="#BB3940" transform="translate(346,127)"/>
<path d="M0 0 C20.13 0 40.26 0 61 0 C61.66 1.32 62.32 2.64 63 4 C62.34 4.33 61.68 4.66 61 5 C61 4.34 61 3.68 61 3 C53.45501767 2.97687149 45.91003899 2.95908231 38.36502934 2.94818783 C34.86191115 2.94296011 31.35881715 2.9358645 27.85571289 2.92456055 C23.83219159 2.91165794 19.80869586 2.90677088 15.78515625 2.90234375 C13.88987938 2.89460182 13.88987938 2.89460182 11.95631409 2.88670349 C10.795186 2.88662796 9.63405792 2.88655243 8.43774414 2.88647461 C7.40960098 2.884254 6.38145782 2.88203339 5.32215881 2.87974548 C3.0386489 2.73815391 3.0386489 2.73815391 2 4 C1.90493948 6.55589888 1.87443239 9.08467972 1.88647461 11.64086914 C1.88625557 12.84077736 1.88625557 12.84077736 1.8860321 14.06492615 C1.88673145 16.72169665 1.89452482 19.37839793 1.90234375 22.03515625 C1.90420785 23.87218691 1.90563179 25.70921806 1.90663147 27.54624939 C1.91045725 32.39109662 1.92028804 37.23591408 1.93133545 42.08074951 C1.94154828 47.02062578 1.94612881 51.96050685 1.95117188 56.90039062 C1.96191026 66.60027353 1.9789874 76.30013429 2 86 C4.75150737 85.91288896 7.49981633 85.80600385 10.25 85.6875 C11.02730469 85.66494141 11.80460937 85.64238281 12.60546875 85.61914062 C17.07753145 85.40891546 19.54652755 85.06701244 23 82 C25 82 27 82 29 82 C31.13344768 80.6083124 31.13344768 80.6083124 33 79 C34.33106622 78.65772583 35.66400079 78.32248257 37 78 C37.33 77.34 37.66 76.68 38 76 C38.99 75.7834375 38.99 75.7834375 40 75.5625 C40.66 75.376875 41.32 75.19125 42 75 C42.495 73.515 42.495 73.515 43 72 C43.763125 71.71125 44.52625 71.4225 45.3125 71.125 C49.51637487 69.36523843 51.28608918 66.19937018 53.5625 62.375 C55.36160305 59.40256888 57.46653377 57.46880366 60.0625 55.1875 C62.34957487 52.6053187 63.09999377 50.30002286 64 47 C64.66 47 65.32 47 66 47 C64.10970932 54.45314611 60.68950411 59.96226346 56 66 C55.46375 66.71414062 54.9275 67.42828125 54.375 68.1640625 C46.04927284 78.53119392 33.65090422 83.83727394 21 87 C14.07 87 7.14 87 0 87 C0 58.29 0 29.58 0 0 Z " fill="#BE232F" transform="translate(405,127)"/>
<path d="M0 0 C17.49 0 34.98 0 53 0 C53 29.04 53 58.08 53 88 C35.51 88 18.02 88 0 88 C0 58.96 0 29.92 0 0 Z M29.87841797 1.37231445 C27.62617314 1.41577083 25.37389308 1.45743758 23.12158203 1.49731445 C19.88303401 1.55490023 16.644657 1.6186121 13.40625 1.68359375 C12.39477905 1.70030624 11.38330811 1.71701874 10.34118652 1.73423767 C8.93963318 1.7641555 8.93963318 1.7641555 7.50976562 1.79467773 C6.27305115 1.81799416 6.27305115 1.81799416 5.01135254 1.84178162 C2.92923068 1.87884509 2.92923068 1.87884509 1 3 C1 30.72 1 58.44 1 87 C17.83 87 34.66 87 52 87 C52 58.62 52 30.24 52 1 C44.62677768 1 37.24993846 1.22721428 29.87841797 1.37231445 Z " fill="#B83F43" transform="translate(346,33)"/>
<path d="M0 0 C20.46 0 40.92 0 62 0 C62 0.99 62 1.98 62 3 C61.01 2.67 60.02 2.34 59 2 C57.14471321 1.88373271 55.2857064 1.82339944 53.42700195 1.79467773 C52.27010864 1.77449585 51.11321533 1.75431396 49.92126465 1.73352051 C48.09818787 1.70880676 48.09818787 1.70880676 46.23828125 1.68359375 C45.12078491 1.66494263 44.00328857 1.6462915 42.85192871 1.6270752 C38.67220059 1.55870821 34.49234062 1.49860377 30.3125 1.4375 C20.969375 1.293125 11.62625 1.14875 2 1 C2.33 28.39 2.66 55.78 3 84 C7.95 84.66 12.9 85.32 18 86 C18 85.34 18 84.68 18 84 C20.95777419 83.33076624 23.91616298 82.66450361 26.875 82 C27.71675781 81.80921875 28.55851562 81.6184375 29.42578125 81.421875 C30.23144531 81.24140625 31.03710938 81.0609375 31.8671875 80.875 C32.61081543 80.70742187 33.35444336 80.53984375 34.12060547 80.3671875 C36 80 36 80 38 80 C38 79.34 38 78.68 38 78 C42.625 75.875 42.625 75.875 46 77 C43.50494359 78.30203187 41.00462318 79.59160266 38.5 80.875 C37.80390625 81.23980469 37.1078125 81.60460937 36.390625 81.98046875 C35.69453125 82.33496094 34.9984375 82.68945312 34.28125 83.0546875 C33.65283203 83.37937012 33.02441406 83.70405273 32.37695312 84.03857422 C21.12646146 88.58915312 13.127842 87 0 87 C0 58.29 0 29.58 0 0 Z " fill="#C93B43" transform="translate(254,127)"/>
<path d="M0 0 C2.76276177 0.52268466 5.3260876 1.10869587 8 2 C8.495 4.97 8.495 4.97 9 8 C11.31 8.33 13.62 8.66 16 9 C16 10.65 16 12.3 16 14 C15.34 14.33 14.68 14.66 14 15 C13.67 15.99 13.34 16.98 13 18 C12.505 17.01 12.505 17.01 12 16 C-8.46 15.67 -28.92 15.34 -50 15 C-50 14.67 -50 14.34 -50 14 C-44.16781504 12.73650566 -38.41063768 12.87352391 -32.4765625 12.90234375 C-31.37524994 12.9037587 -30.27393738 12.90517365 -29.13925171 12.90663147 C-25.63447308 12.91221248 -22.1297592 12.92476154 -18.625 12.9375 C-16.24349051 12.94251745 -13.86198001 12.94707993 -11.48046875 12.95117188 C-5.65362388 12.96217569 0.17318343 12.97889493 6 13 C6 12.34 6 11.68 6 11 C4.99188766 11.00666183 4.99188766 11.00666183 3.96340942 11.01345825 C-3.01151408 11.05759634 -9.98639813 11.08782667 -16.96142578 11.10986328 C-19.56691091 11.11994064 -22.17238469 11.1336027 -24.77783203 11.15087891 C-28.51597899 11.17505102 -32.25397685 11.1864656 -35.9921875 11.1953125 C-37.74847977 11.21079636 -37.74847977 11.21079636 -39.54025269 11.22659302 C-41.161707 11.22681961 -41.161707 11.22681961 -42.81591797 11.22705078 C-43.77078094 11.231492 -44.72564392 11.23593323 -45.70944214 11.24050903 C-48 11 -48 11 -50 9 C-21.785 8.505 -21.785 8.505 7 8 C4.69 5.69 2.38 3.38 0 1 C0 0.67 0 0.34 0 0 Z " fill="#FED3D6" transform="translate(304,112)"/>
<path d="M0 0 C0.33 0 0.66 0 1 0 C1 28.71 1 57.42 1 87 C18.49 87 35.98 87 54 87 C52 89 52 89 49.89926147 89.24050903 C49.03322296 89.23606781 48.16718445 89.23162659 47.27490234 89.22705078 C45.80360367 89.22682419 45.80360367 89.22682419 44.30258179 89.22659302 C43.24108917 89.21627045 42.17959656 89.20594788 41.0859375 89.1953125 C40.00116119 89.1924826 38.91638489 89.18965271 37.79873657 89.18673706 C34.32404687 89.17551578 30.84961218 89.15040762 27.375 89.125 C25.02344121 89.11497272 22.6718784 89.10584643 20.3203125 89.09765625 C14.54678756 89.07557011 8.77341199 89.04207345 3 89 C3 89.66 3 90.32 3 91 C3.60943451 90.99555878 4.21886902 90.99111755 4.84677124 90.98654175 C11.17288882 90.94239593 17.49896285 90.91217013 23.82519531 90.89013672 C26.18816911 90.88006076 28.55113039 90.86639971 30.9140625 90.84912109 C34.30471888 90.82494276 37.69521084 90.81353301 41.0859375 90.8046875 C42.14743011 90.79436493 43.20892273 90.78404236 44.30258179 90.77340698 C45.77388046 90.77318039 45.77388046 90.77318039 47.27490234 90.77294922 C48.14094086 90.768508 49.00697937 90.76406677 49.89926147 90.75949097 C52 91 52 91 54 93 C36.51 93 19.02 93 1 93 C1.33 91.68 1.66 90.36 2 89 C1.01 89 0.02 89 -1 89 C-0.67 59.63 -0.34 30.26 0 0 Z " fill="#FEC9CB" transform="translate(345,34)"/>
<path d="M0 0 C18.48 0 36.96 0 56 0 C57.86088989 4.65222472 58.276578 7.80052715 58.22705078 12.63598633 C58.22734283 13.38774139 58.22763489 14.13949646 58.22793579 14.91403198 C58.22654785 17.3868178 58.21101211 19.85929838 58.1953125 22.33203125 C58.19158046 24.05124243 58.18873439 25.77045573 58.18673706 27.4896698 C58.17911564 32.00570591 58.15947998 36.52161255 58.1373291 41.03759766 C58.11683853 45.64939625 58.10772848 50.26121584 58.09765625 54.87304688 C58.07623266 63.91542134 58.04211473 72.95769989 58 82 C57.34 82 56.68 82 56 82 C54.50021509 79.00043018 54.82091296 75.90465985 54.79467773 72.61279297 C54.78477814 71.85172241 54.77487854 71.09065186 54.76467896 70.30651855 C54.73303322 67.78510676 54.70829443 65.26367612 54.68359375 62.7421875 C54.66302687 60.99626164 54.64203047 59.25034078 54.62062073 57.50442505 C54.56537254 52.90460258 54.5159754 48.30473497 54.46777344 43.70483398 C54.40875638 38.18816682 54.34251332 32.67158233 54.27747345 27.15498352 C54.17942937 18.77003941 54.09059701 10.38504279 54 2 C36.18 2 18.36 2 0 2 C0 1.34 0 0.68 0 0 Z " fill="#FEF0F7" transform="translate(195,32)"/>
<path d="M0 0 C18.66666667 0 37.33333333 0 56 0 C55.83923477 0.497276 55.67846954 0.994552 55.51283264 1.50689697 C54.80255935 4.95984507 54.82186995 8.3791407 54.79467773 11.88964844 C54.78477814 12.68027176 54.77487854 13.47089508 54.76467896 14.28547668 C54.73314339 16.89341254 54.70833799 19.5013666 54.68359375 22.109375 C54.66301736 23.91970284 54.64202071 25.73002595 54.62062073 27.54034424 C54.5654708 32.30125086 54.51603033 37.06220034 54.46777344 41.82318115 C54.4175067 46.68294074 54.36184764 51.54263822 54.30664062 56.40234375 C54.19914564 65.93484276 54.09768147 75.46739573 54 85 C53.01 85.495 53.01 85.495 52 86 C51.67 58.94 51.34 31.88 51 4 C48.58093209 2.79046605 46.97833692 2.84320092 44.27490234 2.79467773 C42.80360367 2.7647599 42.80360367 2.7647599 41.30258179 2.73423767 C40.24108917 2.71752518 39.17959656 2.70081268 38.0859375 2.68359375 C36.45877304 2.6524221 36.45877304 2.6524221 34.79873657 2.62062073 C31.32422379 2.55509366 27.84963376 2.49622553 24.375 2.4375 C22.02342942 2.39431779 19.67186674 2.3507036 17.3203125 2.30664062 C11.5469573 2.19940907 5.7735248 2.09764856 0 2 C0 1.34 0 0.68 0 0 Z " fill="#FEF8F7" transform="translate(348,123)"/>
<path d="M0 0 C7.92 0 15.84 0 24 0 C24 0.33 24 0.66 24 1 C16.41 1 8.82 1 1 1 C1.33 28.72 1.66 56.44 2 85 C18.17 85 34.34 85 51 85 C49.540798 77.81044847 49.540798 77.81044847 47.0625 71.375 C46.71832031 70.63121094 46.37414062 69.88742188 46.01953125 69.12109375 C45.10653247 67.22163651 44.17919952 65.32908474 43.25 63.4375 C41.74294808 59.29310721 41.76973995 56.37494095 42 52 C43.69529843 54.54294765 44.60228132 56.38438884 45.5859375 59.2109375 C46.02292969 60.46197266 46.02292969 60.46197266 46.46875 61.73828125 C46.7678125 62.60839844 47.066875 63.47851562 47.375 64.375 C47.66632813 65.20644531 47.95765625 66.03789063 48.2578125 66.89453125 C50.68455924 73.88739356 52.81961967 80.91376392 55 88 C36.85 88 18.7 88 0 88 C0 58.96 0 29.92 0 0 Z " fill="#CA4F51" transform="translate(93,33)"/>
<path d="M0 0 C7.92 0 15.84 0 24 0 C24.66 2.64 25.32 5.28 26 8 C25.34 8 24.68 8 24 8 C23.67 7.67 23.34 7.34 23 7 C23 7.99 23 8.98 23 10 C22.34 10 21.68 10 21 10 C20.67 8.68 20.34 7.36 20 6 C19.34 7.32 18.68 8.64 18 10 C18 9.34 18 8.68 18 8 C13.05 8.33 8.1 8.66 3 9 C2.17729296 13.1135352 1.85020569 16.47748887 1.79467773 20.6262207 C1.78477814 21.27068649 1.77487854 21.91515228 1.76467896 22.57914734 C1.73326613 24.69465549 1.70838721 26.81018605 1.68359375 28.92578125 C1.66300672 30.39837708 1.6420098 31.87096724 1.62062073 33.34355164 C1.56558057 37.20845933 1.51609214 41.07341874 1.46777344 44.93841553 C1.41742608 48.88672457 1.36180928 52.83495903 1.30664062 56.78320312 C1.19928011 64.52207215 1.09778662 72.26100345 1 80 C0.67 80 0.34 80 0 80 C0 53.6 0 27.2 0 0 Z " fill="#D41E27" transform="translate(94,34)"/>
<path d="M0 0 C23 0 23 0 33 4 C33.66 4.66 34.32 5.32 35 6 C29.88372874 6.30095713 27.22835174 5.85699442 23 3 C15.87827589 1.21956897 8.34090518 2 1 2 C1.33 29.39 1.66 56.78 2 85 C18.83 85 35.66 85 53 85 C50.36 83.02 47.72 81.04 45 79 C44.34 78.01 43.68 77.02 43 76 C41.824375 75.7834375 41.824375 75.7834375 40.625 75.5625 C37.28438835 74.84665465 36.02201775 73.72194697 34 71 C34.25 68.75 34.25 68.75 35 67 C36.98 66.505 36.98 66.505 39 66 C38.34 66.99 37.68 67.98 37 69 C38.41152344 69.94359375 38.41152344 69.94359375 39.8515625 70.90625 C41.10984674 71.77014664 42.36763268 72.63476937 43.625 73.5 C44.24246094 73.90992187 44.85992187 74.31984375 45.49609375 74.7421875 C50.80549254 78.43082245 52.80979389 81.41305852 57 87 C38.19 87 19.38 87 0 87 C0 58.29 0 29.58 0 0 Z " fill="#B8232E" transform="translate(405,34)"/>
<path d="M0 0 C0.33 0 0.66 0 1 0 C1 25.74 1 51.48 1 78 C17.17 77.67 33.34 77.34 50 77 C49.34 75.35 48.68 73.7 48 72 C47.01 71.67 46.02 71.34 45 71 C45 70.34 45 69.68 45 69 C44.01 69 43.02 69 42 69 C42 68.34 42 67.68 42 67 C41.01 66.67 40.02 66.34 39 66 C39.33 65.34 39.66 64.68 40 64 C46.29296722 68.37249766 51.84023791 73.32665048 57 79 C57 79.33 57 79.66 57 80 C38.19 80 19.38 80 0 80 C0 53.6 0 27.2 0 0 Z " fill="#CC1F26" transform="translate(255,41)"/>
<path d="M0 0 C0.99 0.99 1.98 1.98 3 3 C3 3.99 3 4.98 3 6 C2.34 6 1.68 6 1 6 C1 7.32 1 8.64 1 10 C1.66 10 2.32 10 3 10 C3 10.66 3 11.32 3 12 C2.34 12 1.68 12 1 12 C1 35.43 1 58.86 1 83 C13.75887172 82.63273655 13.75887172 82.63273655 26.51733398 82.25170898 C28.13524059 82.2076784 29.75315986 82.16411008 31.37109375 82.12109375 C32.18872192 82.09438599 33.0063501 82.06767822 33.84875488 82.04016113 C34.65977661 82.01973755 35.47079834 81.99931396 36.30639648 81.97827148 C36.99700668 81.95828598 37.68761688 81.93830048 38.39915466 81.91770935 C42.28095268 82.0405293 46.14001344 82.5711126 50 83 C50 56.6 50 30.2 50 3 C50.33 3 50.66 3 51 3 C51 29.73 51 56.46 51 84 C34.17 84 17.34 84 0 84 C0 56.28 0 28.56 0 0 Z " fill="#D4272E" transform="translate(347,36)"/>
<path d="M0 0 C7.59 0 15.18 0 23 0 C23 28.38 23 56.76 23 86 C22.01 85.505 22.01 85.505 21 85 C21.33 57.61 21.66 30.22 22 2 C15.07 2 8.14 2 1 2 C0.67 3.98 0.34 5.96 0 8 C0.66 8.33 1.32 8.66 2 9 C-0.625 12.875 -0.625 12.875 -4 14 C-3.67 16.64 -3.34 19.28 -3 22 C-3.66 22 -4.32 22 -5 22 C-5.1546875 23.3921875 -5.1546875 23.3921875 -5.3125 24.8125 C-6.0070192 28.03254358 -6.47740939 29.02579865 -9 31 C-10.32639383 27.33660083 -9.6510202 25.09790387 -8.41796875 21.46484375 C-8.06283203 20.40845703 -7.70769531 19.35207031 -7.34179688 18.26367188 C-6.96087891 17.16603516 -6.57996094 16.06839844 -6.1875 14.9375 C-5.81818359 13.83599609 -5.44886719 12.73449219 -5.06835938 11.59960938 C-2.29060745 3.43591118 -2.29060745 3.43591118 0 0 Z " fill="#C9212F" transform="translate(64,34)"/>
<path d="M0 0 C18.81 0 37.62 0 57 0 C57.99 1.98 58.98 3.96 60 6 C59.67 6.66 59.34 7.32 59 8 C58.01 7.67 57.02 7.34 56 7 C56 5.68 56 4.36 56 3 C53.05690137 2.01896712 51.0503097 1.84778313 47.9777832 1.79467773 C46.44653557 1.7647599 46.44653557 1.7647599 44.88435364 1.73423767 C43.78427475 1.71752518 42.68419586 1.70081268 41.55078125 1.68359375 C39.85915108 1.6524221 39.85915108 1.6524221 38.13334656 1.62062073 C34.5264604 1.55517153 30.91950071 1.49626156 27.3125 1.4375 C24.86913298 1.39431039 22.42577344 1.35069596 19.98242188 1.30664062 C13.98835556 1.19869448 7.99423442 1.09958608 2 1 C2 17.17 2 33.34 2 50 C11.24 50 20.48 50 30 50 C30 50.33 30 50.66 30 51 C20.1 51 10.2 51 0 51 C0 34.17 0 17.34 0 0 Z " fill="#C5474D" transform="translate(93,127)"/>
<path d="M0 0 C16.83 0 33.66 0 51 0 C51 0.66 51 1.32 51 2 C51.66 2.66 52.32 3.32 53 4 C35.51 4 18.02 4 0 4 C0 2.68 0 1.36 0 0 Z " fill="#FFEFF4" transform="translate(94,122)"/>
<path d="M0 0 C0.33 0 0.66 0 1 0 C1.47017292 5.52453178 0.36078577 8.88335199 -2.04296875 13.84375 C-3.23035245 16.51899818 -3.70234062 19.09782103 -4 22 C-4.66 22 -5.32 22 -6 22 C-6.33 24.97 -6.66 27.94 -7 31 C-7.66 31 -8.32 31 -9 31 C-9.33 32.98 -9.66 34.96 -10 37 C3.2 37 16.4 37 30 37 C30.33 35.02 30.66 33.04 31 31 C31.66 31 32.32 31 33 31 C33.28875 30.21625 33.5775 29.4325 33.875 28.625 C35 26 35 26 37 24 C36.71259058 25.37589617 36.41982258 26.75067322 36.125 28.125 C35.96257813 28.89070313 35.80015625 29.65640625 35.6328125 30.4453125 C34.91544747 33.34134171 33.94348279 36.16955163 33 39 C17.82 39 2.64 39 -13 39 C-13 37.35 -13 35.7 -13 34 C-12.34 34 -11.68 34 -11 34 C-10.64808594 32.43765625 -10.64808594 32.43765625 -10.2890625 30.84375 C-8.72760869 24.59793477 -6.50886065 18.56816622 -4.375 12.5 C-3.95476563 11.29601562 -3.53453125 10.09203125 -3.1015625 8.8515625 C-2.07083438 5.89993198 -1.03690179 2.94946617 0 0 Z " fill="#CA5359" transform="translate(13,176)"/>
<path d="M0 0 C1.58415434 3.01544394 2.806489 6.05558272 3.953125 9.26171875 C4.32244141 10.29071289 4.69175781 11.31970703 5.07226562 12.37988281 C5.46091797 13.47139648 5.84957031 14.56291016 6.25 15.6875 C6.64896484 16.80350586 7.04792969 17.91951172 7.45898438 19.06933594 C8.26353436 21.32168722 9.06693176 23.57445056 9.86914062 25.82763672 C10.87106875 28.63831334 11.87935221 31.44658226 12.890625 34.25390625 C13.42735309 35.75250758 13.96383223 37.25119811 14.5 38.75 C14.74266602 39.42119873 14.98533203 40.09239746 15.23535156 40.78393555 C16.45547273 44.21741334 17.27941945 47.39709726 18 51 C2.82 51 -12.36 51 -28 51 C-28 50.34 -28 49.68 -28 49 C-14.47 48.67 -0.94 48.34 13 48 C10.92091092 34.18402833 10.92091092 34.18402833 7 27 C6.44887956 25.16038039 5.94636029 23.30530527 5.5 21.4375 C4.48423444 17.52866393 3.49514175 14.25453272 1 11 C0.34 10.67 -0.32 10.34 -1 10 C-1.125 2.25 -1.125 2.25 0 0 Z " fill="#C84650" transform="translate(163,164)"/>
<path d="M0 0 C0.66 0 1.32 0 2 0 C2.6708712 1.6232687 3.33657029 3.24867578 4 4.875 C4.37125 5.77992187 4.7425 6.68484375 5.125 7.6171875 C6 10 6 10 6 12 C5.67 12.33 5.34 12.66 5 13 C5.45375 13.5775 5.9075 14.155 6.375 14.75 C9.19266055 18.65137615 9.19266055 18.65137615 10 21 C9.125 23.25 9.125 23.25 8 25 C7.01 22.36 6.02 19.72 5 17 C-13.48 16.67 -31.96 16.34 -51 16 C-51 15.67 -51 15.34 -51 15 C-34.5 14.67 -18 14.34 -1 14 C-0.67 13.01 -0.34 12.02 0 11 C-17.16 11 -34.32 11 -52 11 C-52 10.67 -52 10.34 -52 10 C-25.27 9.505 -25.27 9.505 2 9 C1.34 6.03 0.68 3.06 0 0 Z " fill="#FCC0C0" transform="translate(145,111)"/>
<path d="M0 0 C0.33 0 0.66 0 1 0 C1 29.37 1 58.74 1 89 C0.01 88.67 -0.98 88.34 -2 88 C-1.89194562 78.29801549 -1.7792066 68.59609954 -1.66066074 58.89423752 C-1.60574519 54.38817306 -1.55237942 49.88210187 -1.50268555 45.37597656 C-1.45457422 41.01871998 -1.40222203 36.66153225 -1.34705925 32.30435944 C-1.32684524 30.65080759 -1.30810086 28.99723703 -1.29092598 27.34365082 C-1.19476726 18.18509628 -0.94709119 9.11997237 0 0 Z " fill="#FEF3EF" transform="translate(194,34)"/>
<path d="M0 0 C1.01037827 0.00222061 2.02075653 0.00444122 3.06175232 0.00672913 C4.77341331 0.00684242 4.77341331 0.00684242 6.51965332 0.00695801 C7.76129745 0.01211929 9.00294159 0.01728058 10.2822113 0.02259827 C12.17785072 0.02472069 12.17785072 0.02472069 14.11178589 0.02688599 C17.47705394 0.0315487 20.84225495 0.04053972 24.20750427 0.05158997 C27.63930164 0.06180606 31.07110613 0.06643873 34.50291443 0.07142639 C41.2405826 0.08163189 47.97813276 0.10120361 54.71580505 0.12025452 C54.71580505 16.95025452 54.71580505 33.78025452 54.71580505 51.12025452 C45.14580505 51.12025452 35.57580505 51.12025452 25.71580505 51.12025452 C25.71580505 50.79025452 25.71580505 50.46025452 25.71580505 50.12025452 C34.95580505 50.12025452 44.19580505 50.12025452 53.71580505 50.12025452 C53.38580505 34.28025452 53.05580505 18.44025452 52.71580505 2.12025452 C35.22580505 2.12025452 17.73580505 2.12025452 -0.28419495 2.12025452 C-2.59419495 7.73025452 -4.90419495 13.34025452 -7.28419495 19.12025452 C-8.43020488 14.53621476 -7.53055083 12.14569254 -5.90919495 7.93275452 C-5.67458557 7.29144592 -5.4399762 6.65013733 -5.19825745 5.98939514 C-3.03131744 0.15958779 -3.03131744 0.15958779 0 0 Z " fill="#BC3C47" transform="translate(33.28419494628906,126.87974548339844)"/>
<path d="M0 0 C0.66 0 1.32 0 2 0 C0.10970932 7.45314611 -3.31049589 12.96226346 -8 19 C-8.53625 19.71414062 -9.0725 20.42828125 -9.625 21.1640625 C-18.15846965 31.78987326 -31.65208911 38.12450878 -45 40 C-45 39.34 -45 38.68 -45 38 C-43.375 36.375 -43.375 36.375 -41 35 C-39 35 -37 35 -35 35 C-32.86655232 33.6083124 -32.86655232 33.6083124 -31 32 C-29.66893378 31.65772583 -28.33599921 31.32248257 -27 31 C-26.67 30.34 -26.34 29.68 -26 29 C-25.34 28.855625 -24.68 28.71125 -24 28.5625 C-23.34 28.376875 -22.68 28.19125 -22 28 C-21.67 27.01 -21.34 26.02 -21 25 C-20.236875 24.71125 -19.47375 24.4225 -18.6875 24.125 C-14.48362513 22.36523843 -12.71391082 19.19937018 -10.4375 15.375 C-8.63839695 12.40256888 -6.53346623 10.46880366 -3.9375 8.1875 C-1.65042513 5.6053187 -0.90000623 3.30002286 0 0 Z " fill="#C02E38" transform="translate(469,174)"/>
<path d="M0 0 C32 0 32 0 38 5 C38.515625 5.53625 39.03125 6.0725 39.5625 6.625 C41.49544472 8.47390365 43.68232562 9.68456319 46 11 C45.34 11.66 44.68 12.32 44 13 C43.53851563 12.61328125 43.07703125 12.2265625 42.6015625 11.828125 C41.94929688 11.30734375 41.29703125 10.7865625 40.625 10.25 C39.99851562 9.73953125 39.37203125 9.2290625 38.7265625 8.703125 C26.04883877 0.7840884 18.12476768 2.67186532 2 2 C2 30.38 2 58.76 2 88 C1.67 88 1.34 88 1 88 C0.67 58.96 0.34 29.92 0 0 Z " fill="#FEE1E1" transform="translate(402,32)"/>
<path d="M0 0 C0.495 1.98 0.495 1.98 1 4 C0.34 4 -0.32 4 -1 4 C-1.103125 4.598125 -1.20625 5.19625 -1.3125 5.8125 C-2.10127968 8.32225354 -3.17017086 9.17017086 -5 11 C-5.71447643 13.10332891 -5.71447643 13.10332891 -6 15 C-9 15 -9 15 -12 14 C-12.21398437 14.62390625 -12.42796875 15.2478125 -12.6484375 15.890625 C-14.53556697 18.83585597 -16.27476726 18.97087611 -19.625 19.75 C-21.12933594 20.11351562 -21.12933594 20.11351562 -22.6640625 20.484375 C-23.43492187 20.65453125 -24.20578125 20.8246875 -25 21 C-25 21.66 -25 22.32 -25 23 C-35.23 23 -45.46 23 -56 23 C-56 22.67 -56 22.34 -56 22 C-55.1478894 21.98598145 -55.1478894 21.98598145 -54.27856445 21.97167969 C-36.74429283 21.61011177 -19.42855185 19.66120603 -6 7 C-3.93835446 4.71533992 -1.94748803 2.38249395 0 0 Z " fill="#F5CECE" transform="translate(461,192)"/>
<path d="M0 0 C16.56078472 -0.5697769 29.19891201 -0.75445816 42 11 C49.37711157 18.58203134 52.17830104 27.84056715 52.1875 38.125 C52.19974609 38.85332031 52.21199219 39.58164063 52.22460938 40.33203125 C52.22985188 42.22282978 52.12233385 44.11315581 52 46 C51.34 46.66 50.68 47.32 50 48 C50.02320313 47.01 50.04640625 46.02 50.0703125 45 C50.20483619 36.76172737 49.62178955 29.86536864 47 22 C45.9790625 21.01 45.9790625 21.01 44.9375 20 C43 18 43 18 43 15 C42.01 14.67 41.02 14.34 40 14 C40 13.34 40 12.68 40 12 C39.071875 11.7834375 39.071875 11.7834375 38.125 11.5625 C36 11 36 11 34 10 C34 9.01 34 8.02 34 7 C32.7934375 6.814375 32.7934375 6.814375 31.5625 6.625 C30.716875 6.41875 29.87125 6.2125 29 6 C28.67 5.34 28.34 4.68 28 4 C22.03907962 1.68680702 16.39254353 1.76250435 10.0625 1.875 C8.6074707 1.88853516 8.6074707 1.88853516 7.12304688 1.90234375 C4.74843593 1.92573893 2.37435224 1.95851824 0 2 C0 1.34 0 0.68 0 0 Z " fill="#BF2C37" transform="translate(255,34)"/>
<path d="M0 0 C7.26 0 14.52 0 22 0 C22.66 0.66 23.32 1.32 24 2 C16.74 2 9.48 2 2 2 C2 30.38 2 58.76 2 88 C1.67 88 1.34 88 1 88 C0.67 58.96 0.34 29.92 0 0 Z " fill="#FFDDDF" transform="translate(252,32)"/>
<path d="M0 0 C14.52 0 29.04 0 44 0 C43.34 0.33 42.68 0.66 42 1 C40.86649466 3.01669827 40.86649466 3.01669827 40 5 C40 4.34 40 3.68 40 3 C26.8 3 13.6 3 0 3 C0 2.01 0 1.02 0 0 Z " fill="#E21D1F" transform="translate(352,35)"/>
<path d="M0 0 C0 2.97 0 5.94 0 9 C-0.33 9 -0.66 9 -1 9 C-1.66 7.02 -2.32 5.04 -3 3 C-20.16 2.67 -37.32 2.34 -55 2 C-55 1.34 -55 0.68 -55 0 C-47.64948343 -0.16813088 -40.29882126 -0.328039 -32.94799805 -0.48217773 C-30.44632904 -0.53561207 -27.94469981 -0.59094252 -25.44311523 -0.64819336 C-21.85148697 -0.73006397 -18.25977183 -0.80515863 -14.66796875 -0.87890625 C-13.54601608 -0.90594131 -12.42406342 -0.93297638 -11.26811218 -0.96083069 C-10.22725967 -0.98092697 -9.18640717 -1.00102325 -8.11401367 -1.02172852 C-6.7383448 -1.05170677 -6.7383448 -1.05170677 -5.33488464 -1.08229065 C-3 -1 -3 -1 0 0 Z " fill="#FEF7F9" transform="translate(251,123)"/>
<path d="M0 0 C2.76276177 0.52268466 5.3260876 1.10869587 8 2 C8.495 4.97 8.495 4.97 9 8 C11.31 8.33 13.62 8.66 16 9 C16 10.65 16 12.3 16 14 C15.01 14 14.02 14 13 14 C13 13.34 13 12.68 13 12 C11.68 12 10.36 12 9 12 C9 11.34 9 10.68 9 10 C-10.47 10 -29.94 10 -50 10 C-50 9.67 -50 9.34 -50 9 C-21.785 8.505 -21.785 8.505 7 8 C4.69 5.69 2.38 3.38 0 1 C0 0.67 0 0.34 0 0 Z " fill="#FCCBC8" transform="translate(304,112)"/>
<path d="M0 0 C18.48 0.33 36.96 0.66 56 1 C56 1.33 56 1.66 56 2 C38.51 2 21.02 2 3 2 C2.01 5.3 1.02 8.6 0 12 C-0.88376968 14.71354635 -1.77440542 17.42157798 -2.6875 20.125 C-2.91244141 20.7953125 -3.13738281 21.465625 -3.36914062 22.15625 C-3.91133967 23.77131099 -4.45545267 25.38572926 -5 27 C-5.33 27 -5.66 27 -6 27 C-6 24.69 -6 22.38 -6 20 C-5.34 20 -4.68 20 -4 20 C-4 16.04 -4 12.08 -4 8 C-3.01 8 -2.02 8 -1 8 C-0.67 5.36 -0.34 2.72 0 0 Z " fill="#FEE7EB" transform="translate(28,124)"/>
<path d="M0 0 C6.80450428 8.03282453 7.82349137 19.86443976 7.390625 30.03125 C6.47377864 39.34640902 3.55691488 47.86265199 -1 56 C-1.33 56 -1.66 56 -2 56 C-2 54.35 -2 52.7 -2 51 C-1.34 51 -0.68 51 0 51 C-0.04125 50.2575 -0.0825 49.515 -0.125 48.75 C0.01001786 45.77960702 0.66096921 44.60367099 2 42 C3.74199203 36.12238987 4.31112308 30.86230762 4.25 24.75 C4.25773437 23.96109375 4.26546875 23.1721875 4.2734375 22.359375 C4.25987267 18.3441862 4.14176164 15.50395487 2 12 C1.61936779 9.6739143 1.28730055 7.33944736 1 5 C0.68033861 3.33065717 0.35268934 1.6626783 0 0 Z " fill="#C1353E" transform="translate(317,130)"/>
<path d="M0 0 C0.33 0.66 0.66 1.32 1 2 C1.99 2 2.98 2 4 2 C4.99 4.97 5.98 7.94 7 11 C7.66 11 8.32 11 9 11 C13.8193915 22.55363051 14.88758703 34.06110519 10.8515625 46.046875 C10 48 10 48 8 51 C7.34 50.67 6.68 50.34 6 50 C6.28875 49.3915625 6.5775 48.783125 6.875 48.15625 C11.04830765 38.30260694 12.13529491 26.16666164 8.0546875 16.0234375 C5.24834461 10.63941669 1.64865723 5.83229901 -2 1 C-1.34 0.67 -0.68 0.34 0 0 Z " fill="#FCCBCD" transform="translate(296,41)"/>
<path d="M0 0 C17.49 0 34.98 0 53 0 C53 0.66 53 1.32 53 2 C35.51 2.33 18.02 2.66 0 3 C0 2.01 0 1.02 0 0 Z " fill="#FEEDF0" transform="translate(345,31)"/>
<path d="M0 0 C0.66 0 1.32 0 2 0 C2.66 1.32 3.32 2.64 4 4 C4.66 3.67 5.32 3.34 6 3 C6 4.32 6 5.64 6 7 C6.66 7.33 7.32 7.66 8 8 C7.773125 8.78375 7.54625 9.5675 7.3125 10.375 C6.67365047 17.78565459 10.03560507 24.54490507 13.42578125 30.9921875 C14.19113118 33.66830901 13.30676993 34.63531003 12 37 C0 4.28384279 0 4.28384279 0 0 Z " fill="#F9E4E3" transform="translate(129,65)"/>
<path d="M0 0 C3.11647321 2.54984172 3.84188155 5.21681307 5 9 C5.5878125 10.0209375 5.5878125 10.0209375 6.1875 11.0625 C7.28935182 13.6899928 6.79767682 15.31690523 6 18 C5 19 5 19 2.18139648 19.11523438 C0.94462158 19.10814453 -0.29215332 19.10105469 -1.56640625 19.09375 C-2.57013023 19.08837219 -2.57013023 19.08837219 -3.59413147 19.08288574 C-11.04605832 19.0243453 -18.49059653 18.77213376 -25.9375 18.5 C-27.31444473 18.45158354 -28.69139787 18.4034056 -30.06835938 18.35546875 C-33.37899603 18.23930606 -36.6895295 18.12078961 -40 18 C-40 17.67 -40 17.34 -40 17 C-25.15 17 -10.3 17 5 17 C3.35 12.38 1.7 7.76 0 3 C0 2.01 0 1.02 0 0 Z " fill="#FDDFE3" transform="translate(176,198)"/>
<path d="M0 0 C2.475 0.495 2.475 0.495 5 1 C5 1.66 5 2.32 5 3 C3.03501678 4.38442 1.02951535 5.71203834 -1 7 C-1.70125 7.556875 -2.4025 8.11375 -3.125 8.6875 C-5 10 -5 10 -7.125 10.375 C-7.74375 10.58125 -8.3625 10.7875 -9 11 C-9.495 12.2375 -9.495 12.2375 -10 13.5 C-11 16 -11 16 -12.625 16.875 C-16.17112583 17.0616382 -19.48878133 16.5266828 -23 16 C-19.86193268 13.4729506 -16.6154525 11.70455241 -13 9.9375 C-11.96875 9.43089844 -10.9375 8.92429688 -9.875 8.40234375 C-8.92625 7.93957031 -7.9775 7.47679687 -7 7 C-5.66579005 6.33508945 -4.33205006 5.66922707 -3 5 C-3 4.34 -3 3.68 -3 3 C-2.34 3 -1.68 3 -1 3 C-0.67 2.01 -0.34 1.02 0 0 Z " fill="#FADBD8" transform="translate(307,196)"/>
<path d="M0 0 C0.66 0.33 1.32 0.66 2 1 C1.690625 2.010625 1.38125 3.02125 1.0625 4.0625 C0.02969483 7.68459137 -0.54037916 11.25737313 -1 15 C-1.1875 16.47916667 -1.375 17.95833333 -1.5625 19.4375 C-1.7790625 21.2009375 -1.7790625 21.2009375 -2 23 C-3.9375 23.5625 -3.9375 23.5625 -6 24 C-6.33 23.67 -6.66 23.34 -7 23 C-8.32 24.32 -9.64 25.64 -11 27 C-10.01 23.7 -9.02 20.4 -8 17 C-7.34 17 -6.68 17 -6 17 C-5.81824219 16.443125 -5.63648438 15.88625 -5.44921875 15.3125 C-3.75137815 10.15803009 -1.93577765 5.06989385 0 0 Z " fill="#E21E25" transform="translate(32,129)"/>
<path d="M0 0 C0.33 0 0.66 0 1 0 C0.67 28.05 0.34 56.1 0 85 C-0.33 85 -0.66 85 -1 85 C-1.15517326 76.91462016 -1.30332281 68.82915273 -1.4429636 60.74349117 C-1.50804344 56.98737062 -1.57537388 53.2313209 -1.64819336 49.4753418 C-1.71862581 45.83791424 -1.78269547 42.20042114 -1.84269524 38.56280708 C-1.86642461 37.18799464 -1.89229278 35.81321707 -1.92053413 34.43848991 C-2.1147873 24.88779343 -1.77498809 15.5135025 -1 6 C-1.66 5.67 -2.32 5.34 -3 5 C-2.67 4.34 -2.34 3.68 -2 3 C-1.34 3 -0.68 3 0 3 C0 2.01 0 1.02 0 0 Z " fill="#DF1B2D" transform="translate(397,34)"/>
<path d="M0 0 C0.87454834 0.00523682 1.74909668 0.01047363 2.65014648 0.01586914 C3.59438477 0.0190918 4.53862305 0.02231445 5.51147461 0.02563477 C6.50469727 0.03401367 7.49791992 0.04239258 8.52124023 0.05102539 C9.51833008 0.05553711 10.51541992 0.06004883 11.54272461 0.06469727 C14.01478872 0.07652532 16.48673541 0.0930069 18.95874023 0.11352539 C18.95874023 0.44352539 18.95874023 0.77352539 18.95874023 1.11352539 C13.67874023 1.11352539 8.39874023 1.11352539 2.95874023 1.11352539 C2.95874023 3.09352539 2.95874023 5.07352539 2.95874023 7.11352539 C0.64874023 7.44352539 -1.66125977 7.77352539 -4.04125977 8.11352539 C-3.71125977 9.10352539 -3.38125977 10.09352539 -3.04125977 11.11352539 C-4.03125977 12.59852539 -4.03125977 12.59852539 -5.04125977 14.11352539 C-5.70125977 14.11352539 -6.36125977 14.11352539 -7.04125977 14.11352539 C-7.37125977 15.76352539 -7.70125977 17.41352539 -8.04125977 19.11352539 C-9.3719371 16.07743975 -8.96978472 14.9064371 -7.86157227 11.69555664 C-7.30816861 10.43384925 -6.74263715 9.17740473 -6.16625977 7.92602539 C-5.88395508 7.2847168 -5.60165039 6.6434082 -5.31079102 5.98266602 C-2.71202145 0.15083004 -2.71202145 0.15083004 0 0 Z " fill="#FBF6F5" transform="translate(61.041259765625,178.886474609375)"/>
<path d="M0 0 C0.33 0 0.66 0 1 0 C1.58618766 4.83604818 -0.29652167 8.14708361 -3 12 C-4.29470975 13.37086915 -5.62150897 14.71340837 -7 16 C-7.66 16.99 -8.32 17.98 -9 19 C-7.68 19.66 -6.36 20.32 -5 21 C-5 21.66 -5 22.32 -5 23 C-4.13375 23.0928125 -4.13375 23.0928125 -3.25 23.1875 C-0.07551517 24.33384174 1.12848575 26.25956842 3 29 C3 29.66 3 30.32 3 31 C3.66 31.33 4.32 31.66 5 32 C4.01 32 3.02 32 2 32 C0.85015425 30.85015425 -0.29389475 29.69370931 -1.40234375 28.50390625 C-4.00302476 26.05583244 -7.00746234 24.24566684 -10.01171875 22.33203125 C-12 21 -12 21 -14 19 C-13.154375 18.401875 -12.30875 17.80375 -11.4375 17.1875 C-6.22614959 12.88193192 -2.12755597 6.38266791 0 0 Z " fill="#FBCDD1" transform="translate(455,84)"/>
<path d="M0 0 C4.74528043 5.39236413 5.36606286 11.93191434 5.3125 18.875 C5.31121094 19.57173828 5.30992187 20.26847656 5.30859375 20.98632812 C5.20488556 26.56064312 4.18230853 30.90794676 2 36 C1.34 36 0.68 36 0 36 C0 34.02 0 32.04 0 30 C0.66 30 1.32 30 2 30 C2 22.74 2 15.48 2 8 C1.34 8 0.68 8 0 8 C0 5.36 0 2.72 0 0 Z " fill="#C2323C" transform="translate(452,53)"/>
<path d="M0 0 C18.48 0 36.96 0 56 0 C56.99 1.98 57.98 3.96 59 6 C58.67 6.66 58.34 7.32 58 8 C57.01 7.67 56.02 7.34 55 7 C55 5.68 55 4.36 55 3 C51.99633486 1.99877829 50.02260407 1.87887989 46.88598633 1.88647461 C45.32470757 1.88658791 45.32470757 1.88658791 43.73188782 1.88670349 C42.60993515 1.89186478 41.48798248 1.89702606 40.33203125 1.90234375 C39.18208176 1.9037587 38.03213226 1.90517365 36.84733582 1.90663147 C33.16903092 1.91223571 29.49078655 1.92478896 25.8125 1.9375 C23.32096442 1.94251445 20.82942789 1.94707745 18.33789062 1.95117188 C12.22523971 1.96220653 6.11262418 1.97894882 0 2 C0 1.34 0 0.68 0 0 Z " fill="#AC292C" transform="translate(94,127)"/>
<path d="M0 0 C2 3 2 3 2 5 C2.66 5.33 3.32 5.66 4 6 C1.375 9.875 1.375 9.875 -2 11 C-1.67 13.64 -1.34 16.28 -1 19 C-1.66 19 -2.32 19 -3 19 C-3.1546875 20.3921875 -3.1546875 20.3921875 -3.3125 21.8125 C-4.0070192 25.03254358 -4.47740939 26.02579865 -7 28 C-8.3564176 24.29578878 -7.61495906 22.02480466 -6.34765625 18.359375 C-5.98349609 17.28945313 -5.61933594 16.21953125 -5.24414062 15.1171875 C-4.85419922 14.00601563 -4.46425781 12.89484375 -4.0625 11.75 C-3.67642578 10.62335937 -3.29035156 9.49671875 -2.89257812 8.3359375 C-1.93773154 5.55391536 -0.9732436 2.77562868 0 0 Z " fill="#D2252E" transform="translate(62,37)"/>
<path d="M0 0 C0.33 0 0.66 0 1 0 C1.47017292 5.52453178 0.36078577 8.88335199 -2.04296875 13.84375 C-3.23035245 16.51899818 -3.70234062 19.09782103 -4 22 C-4.66 22 -5.32 22 -6 22 C-6.33 24.97 -6.66 27.94 -7 31 C-7.66 31 -8.32 31 -9 31 C-9.33 32.98 -9.66 34.96 -10 37 C-10.99 36.67 -11.98 36.34 -13 36 C-13 35.34 -13 34.68 -13 34 C-12.34 34 -11.68 34 -11 34 C-10.64808594 32.43765625 -10.64808594 32.43765625 -10.2890625 30.84375 C-8.72760869 24.59793477 -6.50886065 18.56816622 -4.375 12.5 C-3.95476563 11.29601562 -3.53453125 10.09203125 -3.1015625 8.8515625 C-2.07083438 5.89993198 -1.03690179 2.94946617 0 0 Z " fill="#C3353D" transform="translate(13,176)"/>
<path d="M0 0 C0.66 0 1.32 0 2 0 C6.33390644 10.26723074 7.17964832 23.68331631 3 34.125 C2.3658487 35.43293706 1.7129281 36.73327953 1 38 C0.04485324 34.92749994 -0.00170571 34.00591313 0.9375 30.75 C3.60737053 21.05128666 2.58197336 9.59018677 0 0 Z " fill="#FDDCDC" transform="translate(321,138)"/>
<path d="M0 0 C9.57 0 19.14 0 29 0 C33 10 33 10 32 14 C32 13.34 32 12.68 32 12 C30.35 11.34 28.7 10.68 27 10 C27.309375 9.071875 27.309375 9.071875 27.625 8.125 C27.74875 7.42375 27.8725 6.7225 28 6 C27.34 5.34 26.68 4.68 26 4 C26 3.67 26 3.34 26 3 C20.35652914 2.08877472 14.77002113 1.70225954 9.0625 1.4375 C7.75055664 1.37272461 7.75055664 1.37272461 6.41210938 1.30664062 C4.27488005 1.20153099 2.13745762 1.10036015 0 1 C0 0.67 0 0.34 0 0 Z " fill="#FCDCD8" transform="translate(94,178)"/>
<path d="M0 0 C0.495 0.515625 0.99 1.03125 1.5 1.5625 C3.45736425 3.43830741 5.65042336 4.6664565 8 6 C7.34 6.66 6.68 7.32 6 8 C5.53851563 7.61328125 5.07703125 7.2265625 4.6015625 6.828125 C3.94929688 6.30734375 3.29703125 5.7865625 2.625 5.25 C1.99851562 4.73953125 1.37203125 4.2290625 0.7265625 3.703125 C-7.3024966 -1.3121612 -14.76281772 -2.61897709 -24.125 -2.75 C-25.176875 -2.77964844 -26.22875 -2.80929688 -27.3125 -2.83984375 C-29.87507309 -2.90973211 -32.43677962 -2.96282401 -35 -3 C-35 -3.33 -35 -3.66 -35 -4 C-30.75038214 -4.19694005 -26.50029973 -4.38092074 -22.25 -4.5625 C-21.0434375 -4.61857422 -19.836875 -4.67464844 -18.59375 -4.73242188 C-16.85351562 -4.80493164 -16.85351562 -4.80493164 -15.078125 -4.87890625 C-14.00981445 -4.9260376 -12.94150391 -4.97316895 -11.84082031 -5.02172852 C-6.47155354 -4.98066073 -4.0478986 -3.52893724 0 0 Z " fill="#F3C1C5" transform="translate(440,37)"/>
<path d="M0 0 C1.16959987 0.97566112 2.33561177 1.955625 3.5 2.9375 C4.47453125 3.75541016 4.47453125 3.75541016 5.46875 4.58984375 C5.9740625 5.05519531 6.479375 5.52054687 7 6 C7 6.33 7 6.66 7 7 C-11.81 7 -30.62 7 -50 7 C-49.67 6.34 -49.34 5.68 -49 5 C-31.84 5.33 -14.68 5.66 3 6 C2.01 4.68 1.02 3.36 0 2 C0 1.34 0 0.68 0 0 Z " fill="#AF2C2B" transform="translate(305,114)"/>
<path d="M0 0 C0.61875 0.66 1.2375 1.32 1.875 2 C3.75637427 4.2284549 3.75637427 4.2284549 6 4 C6.1875 6.875 6.1875 6.875 6 10 C5.01 10.66 4.02 11.32 3 12 C2.01 11.67 1.02 11.34 0 11 C0 10.01 0 9.02 0 8 C-0.26554687 8.71027344 -0.53109375 9.42054688 -0.8046875 10.15234375 C-1.15789063 11.07144531 -1.51109375 11.99054688 -1.875 12.9375 C-2.22304688 13.85402344 -2.57109375 14.77054688 -2.9296875 15.71484375 C-4 18 -4 18 -6 19 C-4.12275039 12.62267685 -2.14328358 6.29304541 0 0 Z " fill="#E32020" transform="translate(20,156)"/>
<path d="M0 0 C-2.49505641 1.30203187 -4.99537682 2.59160266 -7.5 3.875 C-8.19609375 4.23980469 -8.8921875 4.60460937 -9.609375 4.98046875 C-15.63176183 8.04742501 -21.1405645 10 -28 10 C-28 9.01 -28 8.02 -28 7 C-25.04222581 6.33076624 -22.08383702 5.66450361 -19.125 5 C-17.86236328 4.71382812 -17.86236328 4.71382812 -16.57421875 4.421875 C-15.76855469 4.24140625 -14.96289062 4.0609375 -14.1328125 3.875 C-13.38918457 3.70742187 -12.64555664 3.53984375 -11.87939453 3.3671875 C-10 3 -10 3 -8 3 C-8 2.34 -8 1.68 -8 1 C-3.375 -1.125 -3.375 -1.125 0 0 Z " fill="#C2313A" transform="translate(300,204)"/>
<path d="M0 0 C1.16841813 3.9293469 0.67280656 6.96316067 0 11 C0 11.66 0 12.32 0 13 C-0.66 13 -1.32 13 -2 13 C-2.33 13.99 -2.66 14.98 -3 16 C-4.8125 17.75 -4.8125 17.75 -7 19 C-9.13671875 18.578125 -9.13671875 18.578125 -11 18 C-10.62488281 17.53851563 -10.24976563 17.07703125 -9.86328125 16.6015625 C-5.7748968 11.39067452 -2.77953215 6.00182163 0 0 Z " fill="#FAE5E7" transform="translate(320,176)"/>
<path d="M0 0 C0.66 0.33 1.32 0.66 2 1 C1.34 1.66 0.68 2.32 0 3 C0.96421875 3.65226562 1.9284375 4.30453125 2.921875 4.9765625 C4.19831087 5.85880494 5.47433064 6.74164959 6.75 7.625 C7.38421875 8.05167969 8.0184375 8.47835937 8.671875 8.91796875 C12.86307187 11.8430749 15.42996556 14.57382957 18 19 C13.20850869 16.78854247 8.95891216 14.43836824 6 10 C5.21625 9.855625 4.4325 9.71125 3.625 9.5625 C0.28438835 8.84665465 -0.97798225 7.72194697 -3 5 C-2.875 2.8125 -2.875 2.8125 -2 1 C-1.34 0.67 -0.68 0.34 0 0 Z " fill="#BE2E3D" transform="translate(442,100)"/>
<path d="M0 0 C2.90928428 4.36392642 4.40073394 9.15123205 6.1875 14.0625 C6.56841797 15.08150391 6.94933594 16.10050781 7.34179688 17.15039062 C7.69693359 18.12298828 8.05207031 19.09558594 8.41796875 20.09765625 C8.74563232 20.98976807 9.0732959 21.88187988 9.41088867 22.80102539 C10 25 10 25 9 27 C8.67 26.01 8.34 25.02 8 24 C7.01 24 6.02 24 5 24 C4.26570037 21.0628015 3.53181974 18.12551251 2.80078125 15.1875 C2.32909005 13.30993894 1.85035778 11.43408034 1.35546875 9.5625 C0.4733972 6.21189729 0 3.49846192 0 0 Z " fill="#C53A40" transform="translate(153,136)"/>
<path d="M0 0 C0.66 0 1.32 0 2 0 C0.55478418 7.22607911 -1.56830221 14.04851609 -4 21 C-4.35578125 22.04800781 -4.7115625 23.09601563 -5.078125 24.17578125 C-5.42359375 25.16964844 -5.7690625 26.16351563 -6.125 27.1875 C-6.43695313 28.08855469 -6.74890625 28.98960938 -7.0703125 29.91796875 C-8 32 -8 32 -10 33 C-9.59251871 27.39713227 -8.40471463 23.30644878 -5.98828125 18.25390625 C-4.52342761 14.91311357 -3.77635199 11.55827995 -3 8 C-2.34 8 -1.68 8 -1 8 C-0.67 5.36 -0.34 2.72 0 0 Z " fill="#FEDBDE" transform="translate(42,88)"/>
<path d="M0 0 C0.99 0 1.98 0 3 0 C3.1546875 0.9590625 3.1546875 0.9590625 3.3125 1.9375 C3.6528125 2.9584375 3.6528125 2.9584375 4 4 C4.99 4.33 5.98 4.66 7 5 C-7.85 5 -22.7 5 -38 5 C-38 4.67 -38 4.34 -38 4 C-25.46 3.67 -12.92 3.34 0 3 C0 2.01 0 1.02 0 0 Z " fill="#D61C1E" transform="translate(390,208)"/>
<path d="M0 0 C0.66 0.33 1.32 0.66 2 1 C1.65697965 6.98511371 1.17692157 11.75117306 -2 17 C-2.66 17 -3.32 17 -4 17 C-4.33 17.99 -4.66 18.98 -5 20 C-6.10960573 16.67118282 -5.9412896 16.12635748 -4.78515625 12.98828125 C-4.51123047 12.23095703 -4.23730469 11.47363281 -3.95507812 10.69335938 C-3.66052734 9.90767578 -3.36597656 9.12199219 -3.0625 8.3125 C-2.77181641 7.51521484 -2.48113281 6.71792969 -2.18164062 5.89648438 C-1.46260698 3.92798243 -0.73236297 1.96358188 0 0 Z " fill="#D72738" transform="translate(43,91)"/>
<path d="M0 0 C2.17515859 3.26273789 3.31011941 6.30910713 4.625 10 C5.07101563 11.2375 5.51703125 12.475 5.9765625 13.75 C7 17 7 17 7 20 C6.34 20 5.68 20 5 20 C4.34 19.01 3.68 18.02 3 17 C2.34 17.33 1.68 17.66 1 18 C0.04380267 14.00204108 -0.1039592 10.29196078 -0.0625 6.1875 C-0.05347656 5.02605469 -0.04445313 3.86460937 -0.03515625 2.66796875 C-0.02355469 1.78753906 -0.01195313 0.90710938 0 0 Z " fill="#FAE2DC" transform="translate(128,194)"/>
<path d="M0 0 C1.73172156 2.59758235 2.65004684 4.52453822 3.65625 7.421875 C3.95660156 8.28296875 4.25695312 9.1440625 4.56640625 10.03125 C4.87449219 10.9284375 5.18257812 11.825625 5.5 12.75 C5.80808594 13.63171875 6.11617187 14.5134375 6.43359375 15.421875 C8.10664828 20.24716532 9.65394182 25.07342704 11 30 C7.57466748 26.90284662 6.42286071 23.26993717 4.9375 19 C2.93768184 13.28437926 2.93768184 13.28437926 0 8 C-0.25760279 5.30547479 -0.08900053 2.71451625 0 0 Z " fill="#C03B49" transform="translate(135,85)"/>
<path d="M0 0 C0.66 0.66 1.32 1.32 2 2 C-0.49154371 7.35220501 -2.92376901 11.70923053 -7 16 C-7.66 16 -8.32 16 -9 16 C-8.67 14.68 -8.34 13.36 -8 12 C-7.34 12 -6.68 12 -6 12 C-5.87625 10.88625 -5.7525 9.7725 -5.625 8.625 C-5 5 -5 5 -3 3 C-2.01 3 -1.02 3 0 3 C0 2.01 0 1.02 0 0 Z " fill="#C62E36" transform="translate(303,84)"/>
<path d="M0 0 C0.99 0 1.98 0 3 0 C3.32613281 1.14597656 3.65226563 2.29195312 3.98828125 3.47265625 C4.4294515 5.00267223 4.87087106 6.53261635 5.3125 8.0625 C5.52583984 8.81466797 5.73917969 9.56683594 5.95898438 10.34179688 C7.00764109 13.95731482 8.12640677 17.43206088 9.65625 20.875 C10.96343269 23.91495975 11.29585174 25.74563091 11 29 C8.83511325 26.83511325 8.32820707 25.52959073 7.34375 22.67578125 C7.04339844 21.81146484 6.74304688 20.94714844 6.43359375 20.05664062 C5.97146484 18.69829102 5.97146484 18.69829102 5.5 17.3125 C5.19191406 16.42626953 4.88382813 15.54003906 4.56640625 14.62695312 C2.89643582 9.78547234 1.35152335 4.93981785 0 0 Z " fill="#FDD4D5" transform="translate(165,169)"/>
<path d="M0 0 C-1.9172718 7.50931455 -4.24049015 14.75803759 -7 22 C-8.15985564 18.30806515 -7.58693963 15.88361433 -6.53515625 12.1640625 C-5.9918876 9.96719513 -5.75495608 7.8771456 -5.5625 5.625 C-5.376875 4.42875 -5.19125 3.2325 -5 2 C-2 0 -2 0 0 0 Z " fill="#FDE7E5" transform="translate(16,168)"/>
<path d="M0 0 C0.33 0 0.66 0 1 0 C0.80902294 11.04194652 0.80902294 11.04194652 -2.375 14.8125 C-5 16 -5 16 -8 15 C-7.38511719 14.00419922 -7.38511719 14.00419922 -6.7578125 12.98828125 C-6.21898437 12.10527344 -5.68015625 11.22226563 -5.125 10.3125 C-4.59132813 9.44238281 -4.05765625 8.57226562 -3.5078125 7.67578125 C-2.09359186 5.16608918 -1.00105211 2.69700931 0 0 Z " fill="#FCD3D5" transform="translate(470,176)"/>
<path d="M0 0 C0.83265381 0.00523682 1.66530762 0.01047363 2.52319336 0.01586914 C3.42231445 0.0190918 4.32143555 0.02231445 5.24780273 0.02563477 C6.66609375 0.03820313 6.66609375 0.03820313 8.11303711 0.05102539 C9.06243164 0.05553711 10.01182617 0.06004883 10.98999023 0.06469727 C13.34356776 0.07652429 15.69702188 0.09300514 18.05053711 0.11352539 C17.06053711 0.60852539 17.06053711 0.60852539 16.05053711 1.11352539 C16.05053711 2.10352539 16.05053711 3.09352539 16.05053711 4.11352539 C15.39053711 4.11352539 14.73053711 4.11352539 14.05053711 4.11352539 C14.05053711 3.45352539 14.05053711 2.79352539 14.05053711 2.11352539 C8.77053711 2.11352539 3.49053711 2.11352539 -1.94946289 2.11352539 C-2.27946289 3.43352539 -2.60946289 4.75352539 -2.94946289 6.11352539 C-2.99218389 4.44740634 -2.99010121 2.77969654 -2.94946289 1.11352539 C-1.94946289 0.11352539 -1.94946289 0.11352539 0 0 Z " fill="#DA2024" transform="translate(257.949462890625,34.886474609375)"/>
<path d="M0 0 C3.62493334 -0.05787784 7.24974857 -0.0935542 10.875 -0.125 C11.90753906 -0.14175781 12.94007813 -0.15851562 14.00390625 -0.17578125 C14.99003906 -0.18222656 15.97617187 -0.18867188 16.9921875 -0.1953125 C18.35899658 -0.21102295 18.35899658 -0.21102295 19.75341797 -0.22705078 C22 0 22 0 24 2 C16.41 2.33 8.82 2.66 1 3 C0.67 2.01 0.34 1.02 0 0 Z " fill="#F2BCC1" transform="translate(252,32)"/>
<path d="M0 0 C3.40291461 5.10437191 4.38434465 11.27913607 3.8125 17.375 C3 21 3 21 0 25 C0 16.75 0 8.5 0 0 Z " fill="#FAC4CA" transform="translate(456,59)"/>
<path d="M0 0 C-0.375 2.9375 -0.375 2.9375 -1 6 C-1.99 6.495 -1.99 6.495 -3 7 C-3.72693904 8.97888961 -4.39816251 10.97954558 -5 13 C-5.33333333 11.66666667 -5.66666667 10.33333333 -6 9 C-6.20625 8.34 -6.4125 7.68 -6.625 7 C-7.06523704 4.65206912 -6.84397442 3.22502347 -6 1 C-4 0 -4 0 0 0 Z " fill="#DC222A" transform="translate(472,168)"/>
<path d="M0 0 C0.99 0.33 1.98 0.66 3 1 C5.53769062 6.81554101 7.24043948 12.91017352 9 19 C8.34 19.66 7.68 20.32 7 21 C4.69 14.07 2.38 7.14 0 0 Z " fill="#FDDBDB" transform="translate(134,81)"/>
<path d="M0 0 C-0.33 0.66 -0.66 1.32 -1 2 C-10.24001866 3.71942095 -19.7139375 2.83484656 -29 2 C-29 1.67 -29 1.34 -29 1 C-28.38479492 0.97494385 -27.76958984 0.9498877 -27.13574219 0.92407227 C-24.34029844 0.80781513 -21.54516702 0.68522358 -18.75 0.5625 C-17.78191406 0.52318359 -16.81382812 0.48386719 -15.81640625 0.44335938 C-14.88183594 0.40146484 -13.94726562 0.35957031 -12.984375 0.31640625 C-12.12553711 0.27974854 -11.26669922 0.24309082 -10.38183594 0.20532227 C-8.01461215 0.06532679 -8.01461215 0.06532679 -5.82910156 -0.54711914 C-3.58836145 -1.10192065 -2.1705798 -0.69768636 0 0 Z " fill="#F1BCC0" transform="translate(284,213)"/>
<path d="M0 0 C0.66 0.33 1.32 0.66 2 1 C0.02 6.61 -1.96 12.22 -4 18 C-4.66 18 -5.32 18 -6 18 C-6.51326523 12.61071507 -5.06999794 10.33411474 -2 6 C-0.75675853 2.7750792 -0.75675853 2.7750792 0 0 Z " fill="#FAD7D9" transform="translate(6,192)"/>
<path d="M0 0 C0.66 0 1.32 0 2 0 C1.60246179 1.46366342 1.18118616 2.9208935 0.75 4.375 C0.40195312 5.59316406 0.40195312 5.59316406 0.046875 6.8359375 C-1.23508611 9.48596158 -2.35160989 9.88013965 -5 11 C-5.68486725 12.32407669 -6.34870203 13.65909241 -7 15 C-8.62746694 16.70496537 -10.28891311 18.37897032 -12 20 C-10.46194334 14.36045892 -8.15630864 11.90262527 -3.875 8.125 C-1.62627434 5.57644426 -0.88682154 3.25167898 0 0 Z " fill="#E02232" transform="translate(469,174)"/>
<path d="M0 0 C1.60379341 -0.05416188 3.20811406 -0.09286638 4.8125 -0.125 C5.70582031 -0.14820313 6.59914063 -0.17140625 7.51953125 -0.1953125 C10 0 10 0 13 2 C13 2.66 13 3.32 13 4 C13.99 4 14.98 4 16 4 C16.33 5.32 16.66 6.64 17 8 C12.49997743 6.31249154 8.27620373 4.17635816 4 2 C2.6671306 1.33240628 1.33392698 0.66547805 0 0 Z " fill="#F9D5D3" transform="translate(277,34)"/>
<path d="M0 0 C0.33 0 0.66 0 1 0 C1.05410136 3.06273831 1.09372225 6.12451452 1.125 9.1875 C1.14175781 10.05181641 1.15851563 10.91613281 1.17578125 11.80664062 C1.21038233 16.32208103 1.15567916 19.90081483 -1 24 C-1.66 24 -2.32 24 -3 24 C-3 22.02 -3 20.04 -3 18 C-2.34 18 -1.68 18 -1 18 C-0.505 9.09 -0.505 9.09 0 0 Z " fill="#CD2B32" transform="translate(455,65)"/>
<path d="M0 0 C6.20988129 0.44356295 10.60540561 1.91532502 16 5 C16 5.33 16 5.66 16 6 C10.88372874 6.30095713 8.22835174 5.85699442 4 3 C1.80869466 2.30420546 1.80869466 2.30420546 0 2 C0 1.34 0 0.68 0 0 Z " fill="#C53035" transform="translate(424,34)"/>
<path d="M0 0 C0 0.66 0 1.32 0 2 C-5.61 2 -11.22 2 -17 2 C-17 1.34 -17 0.68 -17 0 C-11.06390334 -0.89316269 -5.93024803 -0.97040422 0 0 Z " fill="#E81D2E" transform="translate(424,211)"/>
<path d="M0 0 C-0.33 0.66 -0.66 1.32 -1 2 C-3.06640625 2.6328125 -3.06640625 2.6328125 -5.5625 3.125 C-6.80193359 3.37636719 -6.80193359 3.37636719 -8.06640625 3.6328125 C-8.70449219 3.75398437 -9.34257812 3.87515625 -10 4 C-10 4.66 -10 5.32 -10 6 C-11.32 6.33 -12.64 6.66 -14 7 C-13.10768411 3.9174542 -12.61713933 2.3702836 -9.8125 0.6875 C-6.46645592 -0.13042189 -3.43185585 -0.13458258 0 0 Z " fill="#E21F2E" transform="translate(302,201)"/>
<path d="M0 0 C1.65 0.33 3.3 0.66 5 1 C5 1.66 5 2.32 5 3 C3.03501678 4.38442 1.02951535 5.71203834 -1 7 C-2.34175973 7.98866506 -3.67896002 8.9838154 -5 10 C-5 8.35 -5 6.7 -5 5 C-4.34 5 -3.68 5 -3 5 C-3 4.34 -3 3.68 -3 3 C-2.34 3 -1.68 3 -1 3 C-0.67 2.01 -0.34 1.02 0 0 Z " fill="#F4E4E2" transform="translate(307,196)"/>
<path d="M0 0 C0.66 0.33 1.32 0.66 2 1 C1.06558465 2.27310312 0.12732889 3.543388 -0.8125 4.8125 C-1.59560547 5.87404297 -1.59560547 5.87404297 -2.39453125 6.95703125 C-3.84252498 8.79961207 -5.23101505 10.46364869 -7 12 C-7.66 12 -8.32 12 -9 12 C-9 12.66 -9 13.32 -9 14 C-9.66 14 -10.32 14 -11 14 C-11 13.01 -11 12.02 -11 11 C-10.01 11 -9.02 11 -8 11 C-7.87625 10.360625 -7.7525 9.72125 -7.625 9.0625 C-7.41875 8.381875 -7.2125 7.70125 -7 7 C-6.34 6.67 -5.68 6.34 -5 6 C-4.505 5.175 -4.01 4.35 -3.5 3.5 C-2 1 -2 1 0 0 Z " fill="#C83141" transform="translate(313,187)"/>
<path d="M0 0 C2 2 2 2 2 5 C2.99 5 3.98 5 5 5 C5.66 9.29 6.32 13.58 7 18 C6.34 18 5.68 18 5 18 C4.16112944 15.56427941 3.32873471 13.12666783 2.5 10.6875 C2.14228516 9.65206055 2.14228516 9.65206055 1.77734375 8.59570312 C0.76791737 5.61068511 0 3.17341086 0 0 Z " fill="#FCDCD5" transform="translate(159,150)"/>
<path d="M0 0 C2 3 2 3 2 5 C2.66 5.33 3.32 5.66 4 6 C1.375 9.875 1.375 9.875 -2 11 C-2.73323796 13.01508358 -2.73323796 13.01508358 -3 15 C-4.28497537 11.14507389 -3.4052209 9.59653164 -2.0625 5.8125 C-1.68222656 4.72582031 -1.30195312 3.63914063 -0.91015625 2.51953125 C-0.60980469 1.68808594 -0.30945312 0.85664062 0 0 Z " fill="#CF3740" transform="translate(62,37)"/>
<path d="M0 0 C1.1875 1.5625 1.1875 1.5625 2 4 C0.6875 7.4375 0.6875 7.4375 -1 11 C-1.69140522 13.77888613 -1.69140522 13.77888613 -2 16 C-2.99 16 -3.98 16 -5 16 C-4.54548816 14.26982492 -4.08621143 12.54090123 -3.625 10.8125 C-3.36976562 9.84957031 -3.11453125 8.88664063 -2.8515625 7.89453125 C-2.05233704 5.17789793 -1.0968638 2.60862825 0 0 Z " fill="#F8CCC9" transform="translate(51,198)"/>
<path d="M0 0 C2.14642449 3.21963674 3.35881354 6.44429859 4.625 10.0625 C4.85445313 10.69994141 5.08390625 11.33738281 5.3203125 11.99414062 C7 16.738258 7 16.738258 7 19 C6.01 18.67 5.02 18.34 4 18 C2.83203125 14.98046875 2.83203125 14.98046875 1.8125 11.1875 C1.46832031 9.94355469 1.12414062 8.69960938 0.76953125 7.41796875 C0 4 0 4 0 0 Z " fill="#C83C45" transform="translate(123,51)"/>
<path d="M0 0 C1.40503535 2.59391142 2.57705808 5.26973914 3.6875 8 C3.95949219 8.66 4.23148438 9.32 4.51171875 10 C5.08433496 12.34543601 4.75352292 13.73437404 4 16 C3.54625 15.195625 3.0925 14.39125 2.625 13.5625 C1.25274335 10.91143428 1.25274335 10.91143428 -1 10 C-1.125 2.25 -1.125 2.25 0 0 Z " fill="#C92C36" transform="translate(163,164)"/>
<path d="M0 0 C2.92965912 2.92965912 3.94133569 5.680053 4.125 9.8125 C4.08375 10.534375 4.0425 11.25625 4 12 C2.35 12 0.7 12 -1 12 C-0.814375 11.113125 -0.62875 10.22625 -0.4375 9.3125 C-0.01789594 6.13549782 -0.29693468 4.07591077 -1 1 C-0.67 0.67 -0.34 0.34 0 0 Z " fill="#D02835" transform="translate(468,132)"/>
<path d="M0 0 C0.99 0.33 1.98 0.66 3 1 C0.69 6.61 -1.62 12.22 -4 18 C-5.15294 13.38824 -4.20941739 10.98124468 -2.5625 6.75 C-2.31951172 6.1003125 -2.07652344 5.450625 -1.82617188 4.78125 C-1.22714006 3.18383183 -0.61485679 1.59139406 0 0 Z " fill="#BF3B43" transform="translate(30,128)"/>
<path d="M0 0 C1.16959987 0.97566112 2.33561177 1.955625 3.5 2.9375 C4.1496875 3.48277344 4.799375 4.02804688 5.46875 4.58984375 C5.9740625 5.05519531 6.479375 5.52054687 7 6 C7 6.33 7 6.66 7 7 C-0.26 7 -7.52 7 -15 7 C-15 6.67 -15 6.34 -15 6 C-9.06 6 -3.12 6 3 6 C2.01 4.68 1.02 3.36 0 2 C0 1.34 0 0.68 0 0 Z " fill="#AF2929" transform="translate(305,114)"/>
<path d="M0 0 C1.31534494 3.65857532 0.65468309 6.08026481 -0.4375 9.75 C-0.72496094 10.73484375 -1.01242188 11.7196875 -1.30859375 12.734375 C-1.65083984 13.85585937 -1.65083984 13.85585937 -2 15 C-2.66 15 -3.32 15 -4 15 C-4 15.99 -4 16.98 -4 18 C-4.66 18 -5.32 18 -6 18 C-4.23536928 11.89262558 -2.30442525 5.92566493 0 0 Z " fill="#C83742" transform="translate(50,72)"/>
<path d="M0 0 C0.33 0.66 0.66 1.32 1 2 C-1.82553984 6.23830976 -4.12180888 5.97715348 -9 7 C-9 7.66 -9 8.32 -9 9 C-9.66 9 -10.32 9 -11 9 C-11 7.68 -11 6.36 -11 5 C-7.37 3.35 -3.74 1.7 0 0 Z " fill="#FBD6D4" transform="translate(445,206)"/>
<path d="M0 0 C0.66 0.99 1.32 1.98 2 3 C1.20703125 6.03125 1.20703125 6.03125 -0.1875 9.5 C-0.63480469 10.6446875 -1.08210938 11.789375 -1.54296875 12.96875 C-2.81830113 15.62198841 -3.7651658 17.15411924 -6 19 C-4.12275039 12.62267685 -2.14328358 6.29304541 0 0 Z " fill="#C33C45" transform="translate(20,156)"/>
<path d="M0 0 C2.23551759 3.35327639 2.17283528 3.90743657 1.625 7.6875 C1.51414063 8.49574219 1.40328125 9.30398437 1.2890625 10.13671875 C1.19367187 10.75160156 1.09828125 11.36648437 1 12 C0.34 12 -0.32 12 -1 12 C-1.33 12.66 -1.66 13.32 -2 14 C-2.3690205 4.58997722 -2.3690205 4.58997722 0 0 Z " fill="#D82533" transform="translate(53,64)"/>
<path d="M0 0 C1.12752716 3.38258148 0.87098905 4.32595291 -0.1875 7.625 C-0.42855469 8.42164063 -0.66960938 9.21828125 -0.91796875 10.0390625 C-2 12 -2 12 -4.11328125 12.7734375 C-4.73589844 12.84820312 -5.35851563 12.92296875 -6 13 C-5.67 11.02 -5.34 9.04 -5 7 C-4.34 7 -3.68 7 -3 7 C-2.690625 6.21625 -2.38125 5.4325 -2.0625 4.625 C-1 2 -1 2 0 0 Z " fill="#C82931" transform="translate(49,200)"/>
<path d="M0 0 C2 3.75 2 3.75 2 6 C1.34 6.66 0.68 7.32 0 8 C-0.6425235 10.06874034 -0.6425235 10.06874034 -1 12 C-1.66 12 -2.32 12 -3 12 C-3.2954439 6.97745369 -2.98514628 4.10457614 0 0 Z " fill="#E12125" transform="translate(137,96)"/>
<path d="M0 0 C0.99 0.33 1.98 0.66 3 1 C1.88266271 2.50571657 0.75589965 4.00444292 -0.375 5.5 C-1.00148438 6.3353125 -1.62796875 7.170625 -2.2734375 8.03125 C-2.84320313 8.6809375 -3.41296875 9.330625 -4 10 C-4.66 10 -5.32 10 -6 10 C-6 8.68 -6 7.36 -6 6 C-5.01 6 -4.02 6 -3 6 C-2.87625 5.38125 -2.7525 4.7625 -2.625 4.125 C-2 2 -2 2 0 0 Z " fill="#C63030" transform="translate(450,90)"/>
<path d="M0 0 C0.66 0 1.32 0 2 0 C1.55005243 1.79379098 1.08975857 3.58498928 0.625 5.375 C0.36976562 6.37273437 0.11453125 7.37046875 -0.1484375 8.3984375 C-1 11 -1 11 -3 13 C-4 12 -4 12 -4.1875 9.6875 C-3.90434548 5.62895185 -2.23369194 3.35053791 0 0 Z " fill="#C52833" transform="translate(53,187)"/>
<path d="M0 0 C0.99528744 2.98586231 1.23314275 4.89143 1 8 C0.01 9.485 0.01 9.485 -1 11 C-1.66 11 -2.32 11 -3 11 C-3.33 12.65 -3.66 14.3 -4 16 C-5.16161779 13.13421241 -4.9946154 11.98369837 -4.00390625 8.984375 C-3.52824219 7.91703125 -3.05257812 6.8496875 -2.5625 5.75 C-2.08941406 4.67234375 -1.61632813 3.5946875 -1.12890625 2.484375 C-0.75636719 1.66453125 -0.38382813 0.8446875 0 0 Z " fill="#FACCCD" transform="translate(57,182)"/>
<path d="M0 0 C1.875 0.625 1.875 0.625 4 2 C5.57312411 5.61818544 6 8.02093353 6 12 C5.34 12 4.68 12 4 12 C3.3291288 10.3767313 2.66342971 8.75132422 2 7.125 C1.62875 6.22007812 1.2575 5.31515625 0.875 4.3828125 C0 2 0 2 0 0 Z " fill="#FDD3D5" transform="translate(468,130)"/>
<path d="M0 0 C0.66 0.33 1.32 0.66 2 1 C1.34 1.66 0.68 2.32 0 3 C1.65 4.65 3.3 6.3 5 8 C3.25 8.75 3.25 8.75 1 9 C-1.3125 7.3125 -1.3125 7.3125 -3 5 C-2.875 2.8125 -2.875 2.8125 -2 1 C-1.34 0.67 -0.68 0.34 0 0 Z " fill="#CE272E" transform="translate(442,100)"/>
<path d="M0 0 C0.33 0.66 0.66 1.32 1 2 C1.99 2 2.98 2 4 2 C4.99 4.64 5.98 7.28 7 10 C3.51127585 8.83709195 2.90023136 7.86032391 0.8125 4.9375 C0.28269531 4.20402344 -0.24710937 3.47054687 -0.79296875 2.71484375 C-1.19128906 2.14894531 -1.58960938 1.58304688 -2 1 C-1.34 0.67 -0.68 0.34 0 0 Z " fill="#FDDFE1" transform="translate(296,41)"/>
<path d="M0 0 C1.25955231 3.77865693 0.48087189 5.03411786 -0.9375 8.6875 C-1.31777344 9.68136719 -1.69804688 10.67523438 -2.08984375 11.69921875 C-2.39019531 12.45847656 -2.69054688 13.21773437 -3 14 C-5 11 -5 11 -4.75 8.5625 C-4.05282249 6.18047686 -3.20252143 4.16453858 -2 2 C-1.34 2 -0.68 2 0 2 C0 1.34 0 0.68 0 0 Z " fill="#FCCDCE" transform="translate(54,58)"/>
<path d="M0 0 C0.33 1.32 0.66 2.64 1 4 C0.34 4 -0.32 4 -1 4 C-1.0825 4.61875 -1.165 5.2375 -1.25 5.875 C-2 8 -2 8 -4.0625 9.25 C-4.701875 9.4975 -5.34125 9.745 -6 10 C-5.58578031 5.16743695 -3.53586014 3.17320782 0 0 Z " fill="#F6CFD1" transform="translate(461,192)"/>
<path d="M0 0 C2.475 0.495 2.475 0.495 5 1 C5.66 3.31 6.32 5.62 7 8 C5.68 7.67 4.36 7.34 3 7 C3 5.68 3 4.36 3 3 C2.01 2.67 1.02 2.34 0 2 C0 1.34 0 0.68 0 0 Z " fill="#C03736" transform="translate(146,127)"/>
<path d="M0 0 C0.66 0.33 1.32 0.66 2 1 C1.27991594 5.60853797 -0.31295939 9.67237409 -2 14 C-2.66 13.67 -3.32 13.34 -4 13 C-3.52140759 11.39566191 -3.04210442 9.79153584 -2.5625 8.1875 C-2.29566406 7.29417969 -2.02882812 6.40085937 -1.75390625 5.48046875 C-1.19612127 3.64526945 -0.60655425 1.81966274 0 0 Z " fill="#C4414A" transform="translate(41,97)"/>
<path d="M0 0 C1.25955231 3.77865693 0.48087189 5.03411786 -0.9375 8.6875 C-1.31777344 9.68136719 -1.69804687 10.67523438 -2.08984375 11.69921875 C-2.39019531 12.45847656 -2.69054687 13.21773437 -3 14 C-4.03719328 10.78543644 -3.94068337 8.59074417 -3.1875 5.3125 C-3.01605469 4.52488281 -2.84460938 3.73726562 -2.66796875 2.92578125 C-2 1 -2 1 0 0 Z " fill="#FDD7D5" transform="translate(21,151)"/>
<path d="M0 0 C3.26845713 4.90268569 4.27944109 9.13173703 4 15 C3.566875 14.1028125 3.566875 14.1028125 3.125 13.1875 C1.95257974 10.80672208 1.95257974 10.80672208 0 8 C-0.25760279 5.30547479 -0.08900053 2.71451625 0 0 Z " fill="#C3343F" transform="translate(135,85)"/>
<path d="M0 0 C1.60080151 4.00200378 0.29279692 7.04556236 -1 11 C-2.32 11.33 -3.64 11.66 -5 12 C-3.68938409 7.76570244 -2.05643741 3.92592596 0 0 Z " fill="#F9CBD0" transform="translate(320,176)"/>
<path d="M0 0 C0.66 0 1.32 0 2 0 C4.66590937 4.55426184 5.31563182 7.73946963 5 13 C2.53698577 10.53698577 2.23233479 8.72639964 1.375 5.375 C1.11460937 4.37210938 0.85421875 3.36921875 0.5859375 2.3359375 C0.39257812 1.56507813 0.19921875 0.79421875 0 0 Z " fill="#FDD9DA" transform="translate(154,137)"/>
<path d="M0 0 C4.78504172 2.48454089 7.86077669 4.47951843 11 9 C10.01 9.495 10.01 9.495 9 10 C9 9.34 9 8.68 9 8 C8.01 7.67 7.02 7.34 6 7 C6 6.34 6 5.68 6 5 C5.01 5 4.02 5 3 5 C3 4.34 3 3.68 3 3 C2.01 2.67 1.02 2.34 0 2 C0 1.34 0 0.68 0 0 Z " fill="#C23A44" transform="translate(294,105)"/>
<path d="M0 0 C5.01202555 2.98334854 8.38748484 6.43951988 12 11 C11.01 11.495 11.01 11.495 10 12 C8.33333333 10.33333333 6.66666667 8.66666667 5 7 C4.071875 6.113125 3.14375 5.22625 2.1875 4.3125 C0 2 0 2 0 0 Z " fill="#BE4143" transform="translate(440,40)"/>
<path d="M0 0 C0.66 0 1.32 0 2 0 C1.00956295 4.83628305 0.04301154 9.47618873 -2 14 C-2.33 14 -2.66 14 -3 14 C-3 11.69 -3 9.38 -3 7 C-2.34 7 -1.68 7 -1 7 C-0.67 4.69 -0.34 2.38 0 0 Z " fill="#FBD0D0" transform="translate(25,137)"/>
<path d="M0 0 C0.66 0.33 1.32 0.66 2 1 C1.67 2.65 1.34 4.3 1 6 C-0.65 6 -2.3 6 -4 6 C-3.67 4.68 -3.34 3.36 -3 2 C-2.01 2 -1.02 2 0 2 C0 1.34 0 0.68 0 0 Z " fill="#E12126" transform="translate(54,74)"/>
<path d="M0 0 C2.3125 0.8125 2.3125 0.8125 3.3125 2.8125 C0.0125 3.4725 -3.2875 4.1325 -6.6875 4.8125 C-6.6875 2.8125 -6.6875 2.8125 -5 1.125 C-2.6875 -0.1875 -2.6875 -0.1875 0 0 Z " fill="#CC323F" transform="translate(430.6875,209.1875)"/>
<path d="M0 0 C4.26086957 6.39130435 4.26086957 6.39130435 3.625 10.3125 C3.41875 10.869375 3.2125 11.42625 3 12 C2.34 12 1.68 12 1 12 C0.67 8.04 0.34 4.08 0 0 Z " fill="#F8C7C7" transform="translate(128,194)"/>
<path d="M0 0 C2.3125 0.1875 2.3125 0.1875 5 1 C6.875 3.4375 6.875 3.4375 8 6 C7.67 6.66 7.34 7.32 7 8 C5.83035398 6.8572081 4.66435444 5.71068285 3.5 4.5625 C2.8503125 3.92441406 2.200625 3.28632812 1.53125 2.62890625 C0 1 0 1 0 0 Z " fill="#F7CDCB" transform="translate(304,112)"/>
<path d="M0 0 C0.66 0 1.32 0 2 0 C1.55123384 1.64846769 1.09069512 3.29373455 0.625 4.9375 C0.36976562 5.85402344 0.11453125 6.77054687 -0.1484375 7.71484375 C-1 10 -1 10 -3 11 C-2.25 3.375 -2.25 3.375 0 0 Z " fill="#FBD3D6" transform="translate(35,110)"/>
<path d="M0 0 C0.66 0 1.32 0 2 0 C2.20086443 3.71599191 2.1519437 4.77208445 0 8 C-0.66 8 -1.32 8 -2 8 C-2.20086443 4.28400809 -2.1519437 3.22791555 0 0 Z " fill="#D82329" transform="translate(16,172)"/>
<path d="M0 0 C0.33 0 0.66 0 1 0 C2.25 7.625 2.25 7.625 0 11 C0 10.34 0 9.68 0 9 C-0.66 9 -1.32 9 -2 9 C-1.34 6.03 -0.68 3.06 0 0 Z " fill="#F6F8F0" transform="translate(309,76)"/>
<path d="M0 0 C1.921875 0.33203125 1.921875 0.33203125 4 1 C5.88698167 5.05701058 6.21117043 8.56542098 6 13 C4.53347983 10.11980724 3.17952126 7.20691485 1.875 4.25 C1.52179688 3.45078125 1.16859375 2.6515625 0.8046875 1.828125 C0.53914063 1.22484375 0.27359375 0.6215625 0 0 Z " fill="#FAC1C7" transform="translate(301,51)"/>
<path d="M0 0 C0.66 0.66 1.32 1.32 2 2 C1.625 4.625 1.625 4.625 1 7 C0.34 6.67 -0.32 6.34 -1 6 C-1.66 6.66 -2.32 7.32 -3 8 C-2.25 2.25 -2.25 2.25 0 0 Z " fill="#F31C2E" transform="translate(467,136)"/>
<path d="M0 0 C1.1875 1.6875 1.1875 1.6875 2 4 C0.75 6.75 0.75 6.75 -1 9 C-1.66 9 -2.32 9 -3 9 C-2.67 6.69 -2.34 4.38 -2 2 C-1.34 2 -0.68 2 0 2 C0 1.34 0 0.68 0 0 Z " fill="#DD1E32" transform="translate(304,78)"/>
<path d="M0 0 C2.34914492 2.34914492 2.73140357 3.95679446 3.625 7.125 C3.88539063 8.03507812 4.14578125 8.94515625 4.4140625 9.8828125 C4.70410156 10.93082031 4.70410156 10.93082031 5 12 C4.01 11.67 3.02 11.34 2 11 C0.60955102 7.12137916 0 4.13537997 0 0 Z " fill="#BB353C" transform="translate(130,72)"/>
<path d="M0 0 C0.66 0 1.32 0 2 0 C2 2.64 2 5.28 2 8 C1.01 8 0.02 8 -1 8 C-1.04241723 5.66705225 -1.04092937 3.33297433 -1 1 C-0.67 0.67 -0.34 0.34 0 0 Z " fill="#F7F8F4" transform="translate(309,56)"/>
<path d="M0 0 C1.32 0.33 2.64 0.66 4 1 C3.4375 2.9375 3.4375 2.9375 2 5 C-1.625 5.75 -1.625 5.75 -5 6 C-5 5.34 -5 4.68 -5 4 C-4.0409375 3.8453125 -4.0409375 3.8453125 -3.0625 3.6875 C-2.381875 3.460625 -1.70125 3.23375 -1 3 C-0.67 2.01 -0.34 1.02 0 0 Z " fill="#D8252F" transform="translate(448,199)"/>
<path d="M0 0 C1.65 0 3.3 0 5 0 C5.33 0.99 5.66 1.98 6 3 C6.66 3 7.32 3 8 3 C8.33 4.32 8.66 5.64 9 7 C7.4972763 6.02501855 5.99788037 5.04490611 4.5 4.0625 C3.6646875 3.51722656 2.829375 2.97195312 1.96875 2.41015625 C1.3190625 1.94480469 0.669375 1.47945313 0 1 C0 0.67 0 0.34 0 0 Z " fill="#FBD9DA" transform="translate(295,105)"/>
<path d="M0 0 C1.9375 0.75 1.9375 0.75 4 2 C4.75 4.125 4.75 4.125 5 6 C3.02 6 1.04 6 -1 6 C-0.67 4.02 -0.34 2.04 0 0 Z " fill="#DC1C1F" transform="translate(121,58)"/>
<path d="M0 0 C0 0.99 0 1.98 0 3 C-1.8125 4.75 -1.8125 4.75 -4 6 C-4.99 5.67 -5.98 5.34 -7 5 C-4.78065836 1.67098753 -3.65316671 1.24976756 0 0 Z " fill="#FDE5E3" transform="translate(469,186)"/>
<path d="M0 0 C0.66 0 1.32 0 2 0 C5.11450382 4.15267176 5.11450382 4.15267176 4.6875 7.3125 C4.460625 7.869375 4.23375 8.42625 4 9 C3.67 7.68 3.34 6.36 3 5 C2.34 5 1.68 5 1 5 C0.67 3.35 0.34 1.7 0 0 Z " fill="#F7F3F1" transform="translate(300,103)"/>
<path d="M0 0 C0.99 0.495 0.99 0.495 2 1 C2 1.66 2 2.32 2 3 C2.66 3 3.32 3 4 3 C4 4.32 4 5.64 4 7 C2.68 6.67 1.36 6.34 0 6 C0 4.02 0 2.04 0 0 Z " fill="#D5242C" transform="translate(448,49)"/>
<path d="M0 0 C0.33 0 0.66 0 1 0 C1 2.97 1 5.94 1 9 C0.34 9 -0.32 9 -1 9 C-1.625 6.1875 -1.625 6.1875 -2 3 C-1.34 2.01 -0.68 1.02 0 0 Z " fill="#F7F7F4" transform="translate(127,47)"/>
<path d="M0 0 C0.66 0 1.32 0 2 0 C1.55090939 1.48199902 1.09043436 2.96055236 0.625 4.4375 C0.36976563 5.26121094 0.11453125 6.08492187 -0.1484375 6.93359375 C-1 9 -1 9 -3 10 C-2.69201674 8.51988629 -2.378482 7.04092675 -2.0625 5.5625 C-1.88847656 4.73878906 -1.71445312 3.91507813 -1.53515625 3.06640625 C-1 1 -1 1 0 0 Z " fill="#BC3844" transform="translate(469,174)"/>
<path d="M0 0 C0.33 0 0.66 0 1 0 C1.25 2.75 1.25 2.75 1 6 C-1 8.375 -1 8.375 -3 10 C-2.01 6.7 -1.02 3.4 0 0 Z " fill="#CA323C" transform="translate(24,146)"/>
<path d="M0 0 C0.66 0.99 1.32 1.98 2 3 C1.125 6.1875 1.125 6.1875 0 9 C-0.99 8.67 -1.98 8.34 -3 8 C-3 7.34 -3 6.68 -3 6 C-2.34 6 -1.68 6 -1 6 C-0.67 4.02 -0.34 2.04 0 0 Z " fill="#C74345" transform="translate(3,204)"/>
<path d="M0 0 C0.66 0.33 1.32 0.66 2 1 C1.01 4.3 0.02 7.6 -1 11 C-2.13757948 6.44968209 -1.4283779 4.36915594 0 0 Z " fill="#FCD1D4" transform="translate(10,179)"/>
<path d="M0 0 C1.5625 1.6875 1.5625 1.6875 3 4 C2.6875 6.75 2.6875 6.75 2 9 C1.34 8.67 0.68 8.34 0 8 C0 5.36 0 2.72 0 0 Z " fill="#FDF5EB" transform="translate(165,160)"/>
<path d="M0 0 C1.16959987 0.97566112 2.33561177 1.955625 3.5 2.9375 C4.1496875 3.48277344 4.799375 4.02804688 5.46875 4.58984375 C5.9740625 5.05519531 6.479375 5.52054687 7 6 C7 6.33 7 6.66 7 7 C5.35 7 3.7 7 2 7 C1.855625 6.401875 1.71125 5.80375 1.5625 5.1875 C1.1127561 3.43849596 0.57107659 1.71322977 0 0 Z " fill="#A6383C" transform="translate(305,114)"/>
<path d="M0 0 C1 3 1 3 -0.4375 6.1875 C-1.2109375 7.5796875 -1.2109375 7.5796875 -2 9 C-2.6875 7.3125 -2.6875 7.3125 -3 5 C-1.5625 2.25 -1.5625 2.25 0 0 Z " fill="#FBF5F4" transform="translate(459,79)"/>
</svg>
