<?xml version="1.0" encoding="UTF-8"?>
<svg version="1.1" xmlns="http://www.w3.org/2000/svg" width="768" height="379">
<path d="M0 0 C253.44 0 506.88 0 768 0 C768 125.07 768 250.14 768 379 C514.56 379 261.12 379 0 379 C0 253.93 0 128.86 0 0 Z " fill="#F0F1F9" transform="translate(0,0)"/>
<path d="M0 0 C15.0046875 -0.12375 15.0046875 -0.12375 30.3125 -0.25 C33.44919189 -0.28641602 36.58588379 -0.32283203 39.81762695 -0.36035156 C42.33283811 -0.37204544 44.8480569 -0.38223561 47.36328125 -0.390625 C49.28690491 -0.4213208 49.28690491 -0.4213208 51.24938965 -0.45263672 C61.35511325 -0.45652167 69.49261824 1.4211415 78 7 C79.765625 9.33984375 79.765625 9.33984375 81.25 11.9375 C81.75015625 12.79214844 82.2503125 13.64679688 82.765625 14.52734375 C85.95462991 20.91544536 85.94476127 28.01654335 83.8125 34.75 C81.3896128 39.09448739 78.52319096 42.47680904 75 46 C75.59167969 46.31710938 76.18335938 46.63421875 76.79296875 46.9609375 C83.27697426 50.78999133 86.81598745 54.7234582 89 62 C90.19692931 69.49149506 88.99959181 76.52344919 85 83 C80.12452541 88.6321789 75.11805843 91.94903401 68 94 C67.39448303 94.1845726 66.78896606 94.3691452 66.1651001 94.55931091 C63.30260659 95.14194894 60.59239876 95.11927638 57.67089844 95.11352539 C56.37200684 95.11340454 55.07311523 95.11328369 53.73486328 95.11315918 C52.35970003 95.10812414 50.98453725 95.10295759 49.609375 95.09765625 C48.35527832 95.09664917 47.10118164 95.09564209 45.80908203 95.09460449 C41.12271206 95.08937101 36.43635511 95.07540975 31.75 95.0625 C21.2725 95.041875 10.795 95.02125 0 95 C0 63.65 0 32.3 0 0 Z " fill="#04215E" transform="translate(374,141)"/>
<path d="M0 0 C8.9925 -0.061875 17.985 -0.12375 27.25 -0.1875 C30.0643457 -0.21481201 32.87869141 -0.24212402 35.77832031 -0.27026367 C38.04491753 -0.27903729 40.31151953 -0.28667915 42.578125 -0.29296875 C43.72587402 -0.30831665 44.87362305 -0.32366455 46.05615234 -0.33947754 C57.30287186 -0.34306845 68.41881992 1.13250222 77 9 C84.64175117 18.31800626 86.13101169 27.27045426 85 39 C83.46881382 46.61925578 80.31482562 52.37264344 74 57 C70.69819061 58.89159101 67.86652869 60 64 60 C68.65149645 68.83180514 73.86917943 77.18385174 79.31640625 85.54101562 C79.92097656 86.47751953 80.52554688 87.41402344 81.1484375 88.37890625 C81.69677246 89.2201001 82.24510742 90.06129395 82.81005859 90.92797852 C84 93 84 93 84 95 C75.41389834 96.38485511 66.45690357 97.51517151 58 95 C51.87661996 90.40841365 48.8902393 83.01355836 45.65673828 76.27392578 C42.77191651 70.57315065 39.21798934 65.29580922 35.75 59.9375 C34.48781613 57.95102962 33.23211429 55.96041869 31.984375 53.96484375 C31.45553711 53.1255835 30.92669922 52.28632324 30.38183594 51.42163086 C29.00370655 49.00649563 27.96727498 46.60368827 27 44 C27.78648926 43.9906543 28.57297852 43.98130859 29.38330078 43.97167969 C32.96449238 43.91782718 36.54439883 43.83420637 40.125 43.75 C41.3625 43.73582031 42.6 43.72164062 43.875 43.70703125 C52.7647445 43.56886924 52.7647445 43.56886924 60 39 C61.8457676 35.30846481 61.48175083 31.02978061 61 27 C58.80873184 23.90200019 57.58943664 23.19647888 54 22 C43.77 21.67 33.54 21.34 23 21 C23 45.42 23 69.84 23 95 C15.41 95 7.82 95 0 95 C0 63.65 0 32.3 0 0 Z " fill="#05225E" transform="translate(278,141)"/>
<path d="M0 0 C2.24658203 -0.34057617 2.24658203 -0.34057617 5.0078125 -0.29296875 C5.99394531 -0.28330078 6.98007813 -0.27363281 7.99609375 -0.26367188 C9.02863281 -0.23853516 10.06117188 -0.21339844 11.125 -0.1875 C12.68541016 -0.16719727 12.68541016 -0.16719727 14.27734375 -0.14648438 C16.85207627 -0.11105228 19.4257833 -0.06165221 22 0 C45.11230469 46.22460937 45.11230469 46.22460937 46.04275513 48.08564758 C46.72170848 49.44345689 47.40082232 50.80118596 48.08004761 52.15885925 C48.434711 52.8678688 48.78937439 53.57687836 49.15478516 54.30737305 C49.47581207 54.94901901 49.79683899 55.59066498 50.12759399 56.25175476 C50.87289309 57.74528597 51.61278655 59.24151263 52.3515625 60.73828125 C54.68546249 65.45619565 57.0642751 70.13967894 59.5390625 74.78515625 C59.98556152 75.62457764 60.43206055 76.46399902 60.89208984 77.32885742 C61.78152501 78.99658834 62.67493611 80.6622063 63.57275391 82.32543945 C64.1941626 83.49079224 64.1941626 83.49079224 64.828125 84.6796875 C65.1984082 85.36788574 65.56869141 86.05608398 65.95019531 86.76513672 C67.19473031 89.41454914 68.07435139 92.22305416 69 95 C60.09 95 51.18 95 42 95 C40.68 92.195 39.36 89.39 38 86.5 C34.1088469 78.26520121 30.09754173 70.09920447 25.99267578 61.96923828 C24.62161157 59.24936521 23.26005316 56.52478306 21.89916992 53.79980469 C21.22458836 52.44967672 20.54899497 51.10005376 19.87231445 49.75097656 C18.30776337 46.63043449 16.75521848 43.50538507 15.234375 40.36328125 C14.70328125 39.27402344 14.1721875 38.18476563 13.625 37.0625 C13.16351563 36.10472656 12.70203125 35.14695313 12.2265625 34.16015625 C11.18629129 31.86107475 11.18629129 31.86107475 9 31 C8.76410156 31.79019531 8.52820313 32.58039063 8.28515625 33.39453125 C6.64728141 37.98954182 4.56204285 42.30080568 2.4375 46.6875 C1.62215405 48.37816257 0.80828674 50.06953924 -0.00390625 51.76171875 C-0.36299072 52.50381592 -0.7220752 53.24591309 -1.09204102 54.01049805 C-2.10356061 56.13369587 -2.10356061 56.13369587 -3 59 C3.27 59 9.54 59 16 59 C17.50232286 62.14474329 19.00196044 65.29071721 20.5 68.4375 C20.92925781 69.33533203 21.35851562 70.23316406 21.80078125 71.15820312 C22.20683594 72.01220703 22.61289063 72.86621094 23.03125 73.74609375 C23.40830078 74.53685303 23.78535156 75.3276123 24.17382812 76.14233398 C25 78 25 78 25 79 C12.13 79.33 -0.74 79.66 -14 80 C-16.64 84.95 -19.28 89.9 -22 95 C-30.58 95 -39.16 95 -48 95 C-43.33498609 85.00354161 -38.61428862 75.12143395 -33.375 65.41601562 C-30.5867835 60.21102323 -28.04486825 54.91918939 -25.5625 49.5625 C-22.2604366 42.45036344 -18.62852532 35.61414627 -14.74829102 28.80273438 C-11.12752517 22.38407182 -7.94986309 15.79504765 -4.8671875 9.10351562 C-4.34511719 7.97139648 -4.34511719 7.97139648 -3.8125 6.81640625 C-3.50957031 6.15068604 -3.20664063 5.48496582 -2.89453125 4.79907227 C-2 3 -2 3 0 0 Z " fill="#07235D" transform="translate(165,141)"/>
<path d="M0 0 C1.20076172 0.23505249 1.20076172 0.23505249 2.42578125 0.47485352 C8.0739383 1.70684597 13.11793113 3.73114019 18.3125 6.25 C17.40075277 10.06247729 16.137758 13.68431057 14.8125 17.375 C14.14734375 19.23511719 14.14734375 19.23511719 13.46875 21.1328125 C12.3125 24.25 12.3125 24.25 11.3125 26.25 C10.79042969 26.06824219 10.26835938 25.88648438 9.73046875 25.69921875 C-4.62030557 20.79834136 -20.14966763 15.64189438 -34.6875 22.25 C-35.0175 22.58 -35.3475 22.91 -35.6875 23.25 C-35.83708506 26.70948786 -35.83708506 26.70948786 -34.6875 30.25 C-27.78412445 34.073408 -19.75587228 35.18642892 -12.11132812 36.82421875 C-0.35420426 39.48755268 9.27509154 44.01681891 17.3125 53.25 C20.8554274 59.26548398 21.18371445 66.44303876 20.3125 73.25 C17.70866458 82.6371605 13.49255964 87.82181331 5.23828125 92.8203125 C-2.61564588 96.65814605 -9.4668384 97.74554599 -18.1875 97.625 C-19.23832764 97.61629883 -20.28915527 97.60759766 -21.37182617 97.59863281 C-36.14113017 97.32389696 -50.94756256 95.20116663 -63.6875 87.25 C-62.87566332 84.47897074 -62.06305859 81.70817073 -61.25 78.9375 C-61.01990234 78.15181641 -60.78980469 77.36613281 -60.55273438 76.55664062 C-60.33037109 75.79931641 -60.10800781 75.04199219 -59.87890625 74.26171875 C-59.67467041 73.56522217 -59.47043457 72.86872559 -59.26000977 72.15112305 C-58.76527388 70.50826234 -58.23006381 68.87769144 -57.6875 67.25 C-56.57375 67.641875 -55.46 68.03375 -54.3125 68.4375 C-52.43874601 69.04552002 -50.56349507 69.64893024 -48.6875 70.25 C-48.0702002 70.45882812 -47.45290039 70.66765625 -46.81689453 70.8828125 C-37.86055771 73.87902035 -29.41781415 75.73283349 -19.9375 75.8125 C-19.10436279 75.82692139 -18.27122559 75.84134277 -17.4128418 75.85620117 C-12.09066154 75.76785049 -8.84819321 74.85943417 -4.6875 71.25 C-3.52061823 68.29493574 -3.52061823 68.29493574 -4.6875 65.25 C-10.06132266 60.44514921 -16.4282322 59.10079453 -23.3125 57.8125 C-48.57485395 52.552757 -48.57485395 52.552757 -55.6875 43.25 C-60.18843645 35.70789026 -60.97598343 27.50074195 -59.21484375 18.95703125 C-56.84509843 11.62075383 -51.61264609 6.08182446 -44.9765625 2.31640625 C-31.11425604 -4.14163072 -14.63413239 -2.86649374 0 0 Z " fill="#06235B" transform="translate(630.6875,140.75)"/>
<path d="M0 0 C7.92 0 15.84 0 24 0 C24.0093457 1.73491699 24.01869141 3.46983398 24.02832031 5.25732422 C24.06401231 11.02502003 24.11791381 16.79239577 24.18390274 22.55981255 C24.22321294 26.05258791 24.25548092 29.5451174 24.27099609 33.03808594 C24.28920428 37.06485362 24.33922617 41.09070561 24.390625 45.1171875 C24.39185364 46.35612762 24.39308228 47.59506775 24.39434814 48.87155151 C24.53589853 57.34556173 25.30606204 65.39401294 31.625 71.5625 C35.61217218 73.97578842 38.0459878 74.19045554 42.75 74.25 C43.96171875 74.27578125 45.1734375 74.3015625 46.421875 74.328125 C50.28829761 73.97356223 52.63714336 72.86825369 56 71 C56.66 71 57.32 71 58 71 C60.86941366 65.67108892 62.2434363 60.77728402 62.31884766 54.71923828 C62.33871735 53.4984256 62.35858704 52.27761292 62.37905884 51.01980591 C62.39061005 49.71647308 62.40216125 48.41314026 62.4140625 47.0703125 C62.4327915 45.71124112 62.45236619 44.35218115 62.4727478 42.99313354 C62.52389241 39.43240108 62.56361204 35.871631 62.60089111 32.31072998 C62.6410422 28.67060168 62.69208364 25.0306275 62.7421875 21.390625 C62.83873722 14.2605239 62.92220074 7.13033395 63 0 C70.92 0 78.84 0 87 0 C87.09087676 8.00694154 87.16404424 16.01347269 87.20724869 24.02079391 C87.22799934 27.74013394 87.25608273 31.45909859 87.30175781 35.17822266 C87.34566943 38.77685408 87.36923088 42.3751277 87.37950897 45.97400665 C87.39034408 47.99448972 87.42149526 50.01483164 87.45318604 52.03509521 C87.45625444 64.83585934 84.23038963 77.64251368 75 87.03515625 C63.04421615 97.09082446 47.96320472 98.15707883 33 97 C21.88032263 94.90758759 13.62173747 89.04384793 7 80 C-2.47994128 65.50418292 -0.49479725 47.07601558 -0.2746582 30.5512085 C-0.23314663 27.09804187 -0.2153461 23.64475243 -0.1953125 20.19140625 C-0.15160052 13.46058412 -0.08276188 6.7304506 0 0 Z " fill="#07245D" transform="translate(472,141)"/>
<path d="M0 0 C7.92 0 15.84 0 24 0 C24 31.35 24 62.7 24 95 C16.08 95 8.16 95 0 95 C0 63.65 0 32.3 0 0 Z " fill="#0B2761" transform="translate(239,141)"/>
<path d="M0 0 C4.89351776 -0.06899477 9.78533788 -0.12868855 14.67895508 -0.16479492 C16.34242481 -0.17985114 18.00585505 -0.20030063 19.66918945 -0.22631836 C22.06471522 -0.26284207 24.45971467 -0.27975782 26.85546875 -0.29296875 C27.96513252 -0.31619453 27.96513252 -0.31619453 29.09721375 -0.33988953 C33.58319123 -0.34134093 36.44084538 0.21521857 40 3 C41.60086627 6.20173254 41.49917089 9.52577059 41 13 C39.20636089 15.8100346 37.98119065 17.50940468 35 19 C32.37372867 19.08667255 29.77437517 19.11560135 27.1484375 19.09765625 C26.37440582 19.0962413 25.60037415 19.09482635 24.80288696 19.09336853 C22.32688558 19.08776403 19.85097412 19.07521083 17.375 19.0625 C15.69791797 19.05748558 14.02083453 19.05292257 12.34375 19.04882812 C8.22910403 19.03864336 4.11465285 19.01906894 0 19 C0 12.73 0 6.46 0 0 Z " fill="#E9F2F9" transform="translate(397,197)"/>
<path d="M0 0 C4.60872083 -0.06901579 9.2156363 -0.12870199 13.82446289 -0.16479492 C15.39093107 -0.17984622 16.95735736 -0.20029207 18.52368164 -0.22631836 C20.78021606 -0.26286433 23.03619153 -0.27976261 25.29296875 -0.29296875 C25.98899704 -0.30845261 26.68502533 -0.32393646 27.40214539 -0.33988953 C31.78170025 -0.34139243 34.51834504 0.31165419 38 3 C39.54586876 6.09173752 39.29359521 8.59429552 39 12 C37.13291495 14.36497439 35.67938569 15.66030715 33 17 C30.51900266 17.08649451 28.06655072 17.11565054 25.5859375 17.09765625 C24.85629791 17.0962413 24.12665833 17.09482635 23.37490845 17.09336853 C21.04156415 17.08776531 18.70831536 17.07521235 16.375 17.0625 C14.79427222 17.05748541 13.21354293 17.05292243 11.6328125 17.04882812 C7.75514182 17.03864517 3.87767798 17.01907055 0 17 C0 11.39 0 5.78 0 0 Z " fill="#E2EAF7" transform="translate(397,161)"/>
<path d="M0 0 C3 1 3 1 4.20751953 2.83154297 C4.59536621 3.62705566 4.98321289 4.42256836 5.3828125 5.2421875 C5.82399414 6.13518555 6.26517578 7.02818359 6.71972656 7.94824219 C7.1834668 8.91407227 7.64720703 9.87990234 8.125 10.875 C8.84381348 12.34694824 8.84381348 12.34694824 9.57714844 13.84863281 C10.56895827 15.88535003 11.55587721 17.92445563 12.53808594 19.96582031 C13.93089368 22.85657093 15.34208057 25.73761127 16.7578125 28.6171875 C17.5896354 30.32759352 18.4204172 32.03850637 19.25 33.75 C19.84192139 34.95438721 19.84192139 34.95438721 20.44580078 36.18310547 C21.35885565 38.09381135 22.18855048 40.04397959 23 42 C22.505 42.99 22.505 42.99 22 44 C20.35 44 18.7 44 17 44 C16.67 44.99 16.34 45.98 16 47 C13.29670689 43.70409309 11.58099915 40.24386481 9.8125 36.375 C9.28269531 35.22773438 8.75289062 34.08046875 8.20703125 32.8984375 C7 30 7 30 7 28 C0.73 28 -5.54 28 -12 28 C-11.19742021 23.18452128 -10.60641162 20.72517212 -8.49609375 16.6015625 C-8.00302734 15.62832031 -7.50996094 14.65507812 -7.00195312 13.65234375 C-6.48568359 12.65332031 -5.96941406 11.65429688 -5.4375 10.625 C-4.91736328 9.60277344 -4.39722656 8.58054688 -3.86132812 7.52734375 C-2.58139526 5.01444804 -1.29412869 2.50560608 0 0 Z " fill="#E1EBF5" transform="translate(174,172)"/>
<path d="M0 0 C0.66 0.33 1.32 0.66 2 1 C2 31.36 2 61.72 2 93 C1.67 93 1.34 93 1 93 C0.67 83.1 0.34 73.2 0 63 C-0.33 63 -0.66 63 -1 63 C-1.02312737 54.93347826 -1.04091709 46.86697028 -1.05181217 38.80042362 C-1.05704014 35.05516963 -1.06413622 31.30993824 -1.07543945 27.56469727 C-1.08627141 23.95318313 -1.09227749 20.34169079 -1.09487724 16.73016167 C-1.09673094 15.34939671 -1.10035049 13.968633 -1.10573006 12.58787727 C-1.11294447 10.66024048 -1.11340809 8.73258193 -1.11352539 6.80493164 C-1.115746 5.70572891 -1.11796661 4.60652618 -1.12025452 3.47401428 C-1 1 -1 1 0 0 Z " fill="#E0F2FD" transform="translate(237,143)"/>
<path d="M0 0 C11.55 0 23.1 0 35 0 C35 0.66 35 1.32 35 2 C34.0713916 2.01981934 33.1427832 2.03963867 32.18603516 2.06005859 C28.7454948 2.13808613 25.30540109 2.22477462 21.86523438 2.31738281 C20.37541111 2.35569998 18.88549446 2.39054808 17.39550781 2.421875 C15.25551952 2.46746729 13.11617564 2.52546874 10.9765625 2.5859375 C9.68830566 2.6173584 8.40004883 2.6487793 7.07275391 2.68115234 C3.89518495 2.68458268 3.89518495 2.68458268 2 5 C1.67 9.29 1.34 13.58 1 18 C12.22 18 23.44 18 35 18 C35 18.33 35 18.66 35 19 C23.45 19 11.9 19 0 19 C0 12.73 0 6.46 0 0 Z " fill="#D0E1F4" transform="translate(397,197)"/>
<path d="M0 0 C0.33 0.66 0.66 1.32 1 2 C0.43200587 3.41998534 -0.20675848 4.81184417 -0.875 6.1875 C-3.76662043 12.97782247 -3.80540636 19.70273839 -4 27 C-7.12358799 22.31461802 -6.45913364 17.48873392 -6 12 C-4.93237862 7.4589529 -3.09133628 3.53295574 0 0 Z " fill="#203460" transform="translate(577,150)"/>
<path d="M0 0 C7.92 0 15.84 0 24 0 C21.51942372 2.48057628 20.63807536 2.29019005 17.2109375 2.4140625 C16.26992188 2.45273438 15.32890625 2.49140625 14.359375 2.53125 C13.37453125 2.5621875 12.3896875 2.593125 11.375 2.625 C9.88613281 2.68300781 9.88613281 2.68300781 8.3671875 2.7421875 C5.91164615 2.8366314 3.4561159 2.92219875 1 3 C0.67 2.01 0.34 1.02 0 0 Z " fill="#051851" transform="translate(306,186)"/>
<path d="M0 0 C0.99 0.33 1.98 0.66 3 1 C3.6875 3.0625 3.6875 3.0625 4 5 C3.360625 5.433125 2.72125 5.86625 2.0625 6.3125 C-0.26746003 7.91239177 -0.26746003 7.91239177 -1 11 C-2.4375 12.6875 -2.4375 12.6875 -4 14 C-4.66 14 -5.32 14 -6 14 C-4.50829734 9.0276578 -2.39542583 4.58154261 0 0 Z " fill="#C4D4E5" transform="translate(174,172)"/>
<path d="M0 0 C0.66 0 1.32 0 2 0 C2.05382106 2.62527189 2.09358313 5.24944713 2.125 7.875 C2.14175781 8.62136719 2.15851563 9.36773437 2.17578125 10.13671875 C2.1933959 12.09194461 2.10320189 14.04742021 2 16 C1.34 16.66 0.68 17.32 0 18 C-1.33257403 5.33029613 -1.33257403 5.33029613 0 0 Z " fill="#172C57" transform="translate(361,164)"/>
<path d="M0 0 C11.55 0 23.1 0 35 0 C35.495 1.485 35.495 1.485 36 3 C35.49243164 2.84152588 34.98486328 2.68305176 34.46191406 2.51977539 C31.18677364 1.82830633 27.94303931 1.7656084 24.609375 1.68359375 C23.90476135 1.66281265 23.20014771 1.64203156 22.47418213 1.62062073 C20.23288319 1.55546163 17.99147136 1.49639752 15.75 1.4375 C14.22655103 1.39428274 12.70311329 1.35066743 11.1796875 1.30664062 C7.45324409 1.19981509 3.72667506 1.09845361 0 1 C0 0.67 0 0.34 0 0 Z " fill="#17315D" transform="translate(398,160)"/>
<path d="M0 0 C4 4.75 4 4.75 4 7 C-4.58 7 -13.16 7 -22 7 C-22 6.67 -22 6.34 -22 6 C-14.41 6 -6.82 6 1 6 C0.67 4.02 0.34 2.04 0 0 Z " fill="#23375C" transform="translate(358,229)"/>
<path d="M0 0 C1.32 0.66 2.64 1.32 4 2 C3.01 2.99 2.02 3.98 1 5 C1.66 5.33 2.32 5.66 3 6 C1.68 7.98 0.36 9.96 -1 12 C-1.66 11.67 -2.32 11.34 -3 11 C-2.01 7.37 -1.02 3.74 0 0 Z " fill="#2B3B65" transform="translate(573,208)"/>
<path d="M0 0 C0.33 0 0.66 0 1 0 C0.53680089 4.72463088 -0.09891706 8.17057052 -3 12 C-3.66 12 -4.32 12 -5 12 C-3.68938409 7.76570244 -2.05643741 3.92592596 0 0 Z " fill="#263A65" transform="translate(127,215)"/>
<path d="M0 0 C2.96124555 2.96124555 2.95957658 5.8018498 3.09765625 9.89453125 C3.08605469 10.85746094 3.07445312 11.82039062 3.0625 12.8125 C3.05347656 13.78832031 3.04445313 14.76414063 3.03515625 15.76953125 C3.02355469 16.50558594 3.01195312 17.24164063 3 18 C2.67 18 2.34 18 2 18 C2 15.36 2 12.72 2 10 C1.34 10 0.68 10 0 10 C0 6.7 0 3.4 0 0 Z " fill="#3E4E72" transform="translate(648,196)"/>
<path d="M0 0 C1.32 0.33 2.64 0.66 4 1 C4 1.66 4 2.32 4 3 C4.66 3 5.32 3 6 3 C6 4.32 6 5.64 6 7 C6.66 7 7.32 7 8 7 C8 7.66 8 8.32 8 9 C7.01 9 6.02 9 5 9 C3.35 6.03 1.7 3.06 0 0 Z " fill="#CFE1F1" transform="translate(452,149)"/>
<path d="M0 0 C-5.14285714 4.42857143 -5.14285714 4.42857143 -9 5 C-9 4.01 -9 3.02 -9 2 C-8.01 2.33 -7.02 2.66 -6 3 C-6 2.01 -6 1.02 -6 0 C-3 -1 -3 -1 0 0 Z " fill="#152D56" transform="translate(355,195)"/>
<path d="M0 0 C0.33 0.99 0.66 1.98 1 3 C0.360625 3.268125 -0.27875 3.53625 -0.9375 3.8125 C-3.33131686 4.88667752 -3.33131686 4.88667752 -4 8 C-4.99 8.33 -5.98 8.66 -7 9 C-7.66 8.34 -8.32 7.68 -9 7 C-3.25 3 -3.25 3 -1 3 C-0.67 2.01 -0.34 1.02 0 0 Z " fill="#BCCEE4" transform="translate(644,226)"/>
<path d="M0 0 C2.64 0.33 5.28 0.66 8 1 C8.66 2.65 9.32 4.3 10 6 C9.01 6.495 9.01 6.495 8 7 C7.54625 6.525625 7.0925 6.05125 6.625 5.5625 C5.06741796 3.90972192 5.06741796 3.90972192 3 3 C3 2.34 3 1.68 3 1 C2.01 0.67 1.02 0.34 0 0 Z " fill="#1B3159" transform="translate(429,195)"/>
<path d="M0 0 C0.33 0 0.66 0 1 0 C1.36923077 6.4 1.36923077 6.4 -0.5 9.4375 C-0.995 9.953125 -1.49 10.46875 -2 11 C-2.99 10.67 -3.98 10.34 -5 10 C-4.360625 9.0925 -3.72125 8.185 -3.0625 7.25 C-1.38571047 4.60778619 -0.46310002 3.0101501 0 0 Z " fill="#D3DDF0" transform="translate(458,172)"/>
<path d="M0 0 C0.66 0.66 1.32 1.32 2 2 C1.875 4 1.875 4 1 6 C-1.0625 7.25 -1.0625 7.25 -3 8 C-1.125 2.25 -1.125 2.25 0 0 Z " fill="#CFDFF0" transform="translate(149,223)"/>
<path d="M0 0 C0.66 0.33 1.32 0.66 2 1 C0.68 3.64 -0.64 6.28 -2 9 C-2.33 9 -2.66 9 -3 9 C-3.1875 5.625 -3.1875 5.625 -3 2 C-2.01 1.34 -1.02 0.68 0 0 Z " fill="#DDEDF7" transform="translate(132,202)"/>
<path d="M0 0 C0 0.99 0 1.98 0 3 C1.98 3 3.96 3 6 3 C5.67 3.66 5.34 4.32 5 5 C-0.53846154 4.38461538 -0.53846154 4.38461538 -2.875 2.4375 C-3.24625 1.963125 -3.6175 1.48875 -4 1 C-2 0 -2 0 0 0 Z " fill="#213566" transform="translate(575,228)"/>
<path d="M0 0 C0.66 0.99 1.32 1.98 2 3 C1.25 4.9375 1.25 4.9375 0 7 C-1.32 7.33 -2.64 7.66 -4 8 C-2.68 5.36 -1.36 2.72 0 0 Z " fill="#C1D3E8" transform="translate(554,216)"/>
<path d="M0 0 C3.91402949 1.26941497 5.79072873 2.51167694 8 6 C7.01 6 6.02 6 5 6 C4.67 5.34 4.34 4.68 4 4 C1.97536745 3.34786708 1.97536745 3.34786708 0 3 C0 2.01 0 1.02 0 0 Z " fill="#0D2851" transform="translate(637,186)"/>
<path d="M0 0 C0.66 0 1.32 0 2 0 C0.375 5.75 0.375 5.75 -3 8 C-2.37240135 5.07120629 -1.41377341 2.63904371 0 0 Z " fill="#1B2E5A" transform="translate(459,218)"/>
<path d="M0 0 C0.99 0.33 1.98 0.66 3 1 C3.6875 3.0625 3.6875 3.0625 4 5 C3.01 5.33 2.02 5.66 1 6 C0 5 0 5 -0.0625 2.4375 C-0.041875 1.633125 -0.02125 0.82875 0 0 Z " fill="#CDDDF0" transform="translate(174,172)"/>
</svg>
