<?xml version="1.0" encoding="UTF-8"?>
<svg version="1.1" xmlns="http://www.w3.org/2000/svg" width="1200" height="627">
<path d="M0 0 C396 0 792 0 1200 0 C1200 206.91 1200 413.82 1200 627 C804 627 408 627 0 627 C0 420.09 0 213.18 0 0 Z " fill="#FEFEFE" transform="translate(0,0)"/>
<path d="M0 0 C1.05367767 -0.00198395 2.10735535 -0.0039679 3.19296265 -0.00601196 C6.25916269 0.00819485 9.31813182 0.0768592 12.3828125 0.171875 C13.7649015 0.19224571 13.7649015 0.19224571 15.1749115 0.21302795 C21.65922907 0.53817 27.38433268 2.30182854 31.875 7.25 C32.11526489 9.95281982 32.11526489 9.95281982 31.875 12.25 C30.885 11.92 29.895 11.59 28.875 11.25 C28.875 10.59 28.875 9.93 28.875 9.25 C27.555 9.25 26.235 9.25 24.875 9.25 C24.545 9.91 24.215 10.57 23.875 11.25 C21.6272025 9.19766315 20.8727758 8.24332739 19.875 5.25 C9.975 5.25 0.075 5.25 -10.125 5.25 C-10.455 5.91 -10.785 6.57 -11.125 7.25 C-10.35929687 7.44722656 -9.59359375 7.64445313 -8.8046875 7.84765625 C-3.56418804 9.84483173 0.99456093 12.7395144 5.75 15.6875 C7.21179688 16.56631836 7.21179688 16.56631836 8.703125 17.46289062 C9.62351562 18.03072266 10.54390625 18.59855469 11.4921875 19.18359375 C12.75458252 19.9578772 12.75458252 19.9578772 14.04248047 20.74780273 C14.64721191 21.24352783 15.25194336 21.73925293 15.875 22.25 C15.875 23.24 15.875 24.23 15.875 25.25 C16.535 25.25 17.195 25.25 17.875 25.25 C17.875 25.91 17.875 26.57 17.875 27.25 C12.71298204 26.77488889 9.43535266 25.72915244 5.125 22.875 C-0.64115865 19.16577513 -6.49355177 15.66760395 -12.4375 12.25 C-13.2924707 11.75709473 -14.14744141 11.26418945 -15.02832031 10.75634766 C-17.05963283 9.58596413 -19.09183324 8.41715844 -21.125 7.25 C-21.23457031 8.0234375 -21.34414063 8.796875 -21.45703125 9.59375 C-23.78923358 24.91423358 -23.78923358 24.91423358 -27.125 28.25 C-27.40453219 30.3087768 -27.57234351 32.36728432 -27.74609375 34.4375 C-27.93365234 35.3346875 -27.93365234 35.3346875 -28.125 36.25 C-29.115 36.745 -29.115 36.745 -30.125 37.25 C-30.15189216 35.77093108 -30.17134621 34.29172517 -30.1875 32.8125 C-30.19910156 31.98878906 -30.21070313 31.16507812 -30.22265625 30.31640625 C-30.125 28.25 -30.125 28.25 -29.125 27.25 C-29.05175942 25.11686798 -29.12844789 23.00044487 -29.1875 20.8671875 C-29.10969755 17.60920972 -28.62836635 14.4668256 -28.125 11.25 C-29.68347656 12.42755859 -29.68347656 12.42755859 -31.2734375 13.62890625 C-38.80177204 19.30405671 -46.33719635 24.93332636 -54.125 30.25 C-47.71124445 37.07754623 -40.65885867 42.37097333 -32.125 46.25 C-32.125 43.61 -32.125 40.97 -32.125 38.25 C-31.465 38.25 -30.805 38.25 -30.125 38.25 C-28.6466774 41.20664519 -29.06467217 43.99229737 -29.125 47.25 C-28.135 47.25 -27.145 47.25 -26.125 47.25 C-26.125 48.9 -26.125 50.55 -26.125 52.25 C-24.59927368 52.41060913 -24.59927368 52.41060913 -23.04272461 52.57446289 C-19.07724522 53.2582344 -16.08288055 54.37309037 -12.44140625 56.05859375 C-11.82781754 56.34121567 -11.21422882 56.62383759 -10.58204651 56.9150238 C-8.61182691 57.82815795 -6.64934837 58.75653153 -4.6875 59.6875 C-4.02047058 60.0003595 -3.35344116 60.31321899 -2.66619873 60.63555908 C7.65017342 65.48248735 17.49175383 70.74468237 26.875 77.25 C26.37617546 63.23800251 25.868034 49.23698946 24.875 35.25 C22.895 35.58 20.915 35.91 18.875 36.25 C18.875 35.26 18.875 34.27 18.875 33.25 C19.535 33.25 20.195 33.25 20.875 33.25 C21.205 31.6 21.535 29.95 21.875 28.25 C22.535 28.25 23.195 28.25 23.875 28.25 C23.875 24.62 23.875 20.99 23.875 17.25 C24.535 17.58 25.195 17.91 25.875 18.25 C25.875 20.23 25.875 22.21 25.875 24.25 C26.535 24.25 27.195 24.25 27.875 24.25 C28.37 27.715 28.37 27.715 28.875 31.25 C29.90625 30.92 30.9375 30.59 32 30.25 C38.18822256 28.66384909 44.53691329 29.08976747 50.875 29.25 C50.875 28.59 50.875 27.93 50.875 27.25 C50.1325 27.023125 49.39 26.79625 48.625 26.5625 C45.29593866 24.97362982 44.16510592 23.1289903 41.875 20.25 C39.79414791 18.58211085 37.66061189 17.02521426 35.484375 15.484375 C34.95328125 15.07703125 34.4221875 14.6696875 33.875 14.25 C33.875 13.92 33.875 13.59 33.875 13.25 C38.10004277 12.64169963 40.40514749 13.32280037 43.78515625 15.734375 C45.1805764 16.80838558 46.56448766 17.89748776 47.9375 19 C48.63166016 19.53882813 49.32582031 20.07765625 50.04101562 20.6328125 C51.39044611 21.68365106 52.73264246 22.7438599 54.06665039 23.81420898 C55.59574507 25.02827754 57.16865706 26.18684676 58.75 27.33203125 C61.22017249 29.56154355 61.87656876 31.01650909 62.8125 34.1875 C63.13089844 35.239375 63.44929687 36.29125 63.77734375 37.375 C64.14473835 38.66623821 64.5104583 39.95795346 64.875 41.25 C65.35504843 42.91678778 65.83554887 44.58344542 66.31640625 46.25 C67.10151009 48.97977235 67.88148477 51.71062453 68.6484375 54.44555664 C69.75918296 58.40401138 70.87785392 62.34699557 72.18359375 66.24609375 C72.55613281 67.36113281 72.92867187 68.47617187 73.3125 69.625 C73.80556641 71.02878906 73.80556641 71.02878906 74.30859375 72.4609375 C76.03789953 80.97627768 71.55473235 90.27435664 69.00170898 98.26635742 C66.67537116 105.48320709 66.67537116 105.48320709 64.83203125 112.83203125 C62.14883039 124.02179903 55.31069978 128.58584643 46.17333984 134.69482422 C42.46803443 137.20202578 38.90181854 139.8933633 35.3125 142.5625 C33.17010856 144.12979207 31.02272042 145.69001093 28.875 147.25 C28.545 146.26 28.215 145.27 27.875 144.25 C26.885 143.92 25.895 143.59 24.875 143.25 C24.875 141.6 24.875 139.95 24.875 138.25 C25.535 139.24 26.195 140.23 26.875 141.25 C40.56050542 131.49746712 40.56050542 131.49746712 53.875 121.25 C49.67090572 110.07970119 42.13350674 96.83704117 31.875 90.25 C31.215 90.25 30.555 90.25 29.875 90.25 C29.875 95.2 29.875 100.15 29.875 105.25 C29.215 104.92 28.555 104.59 27.875 104.25 C27.875 98.31 27.875 92.37 27.875 86.25 C25.895 86.58 23.915 86.91 21.875 87.25 C19.19689925 87.36196073 16.55767314 87.29625299 13.875 87.25 C14.205 86.59 14.535 85.93 14.875 85.25 C16.195 85.25 17.515 85.25 18.875 85.25 C18.875 84.59 18.875 83.93 18.875 83.25 C19.865 82.59 20.855 81.93 21.875 81.25 C5.70213347 70.28534473 -12.27430585 63.01117137 -30.125 55.25 C-29.795 70.43 -29.465 85.61 -29.125 101.25 C-26.65 100.26 -26.65 100.26 -24.125 99.25 C-24.455 101.56 -24.785 103.87 -25.125 106.25 C-24.135 106.91 -23.145 107.57 -22.125 108.25 C-22.125 108.91 -22.125 109.57 -22.125 110.25 C-20.805 110.58 -19.485 110.91 -18.125 111.25 C-18.62 112.735 -18.62 112.735 -19.125 114.25 C-20.23875 113.2909375 -20.23875 113.2909375 -21.375 112.3125 C-24.11893661 109.97664214 -24.11893661 109.97664214 -28.125 109.25 C-28.125 114.86 -28.125 120.47 -28.125 126.25 C-27.465 126.25 -26.805 126.25 -26.125 126.25 C-26.125 128.56 -26.125 130.87 -26.125 133.25 C-26.785 133.25 -27.445 133.25 -28.125 133.25 C-32.69946809 116.10106383 -32.69946809 116.10106383 -33.125 107.25 C-34.775 107.25 -36.425 107.25 -38.125 107.25 C-37.465 105.6 -36.805 103.95 -36.125 102.25 C-36.81464844 102.00636719 -37.50429688 101.76273437 -38.21484375 101.51171875 C-41.62142093 100.03477321 -44.60821267 98.11035473 -47.6875 96.0625 C-57.87766543 88.28681345 -57.87766543 88.28681345 -69.125 84.25 C-69.455 85.24 -69.785 86.23 -70.125 87.25 C-71.115 87.25 -72.105 87.25 -73.125 87.25 C-75.42997958 80.19100005 -75.82738299 74.94577466 -73.32421875 67.80859375 C-70.7890033 60.37365192 -68.7381018 52.83226207 -66.68164062 45.25390625 C-65.85442384 42.2448358 -64.99416433 39.2471727 -64.125 36.25 C-63.92664551 35.48123535 -63.72829102 34.7124707 -63.52392578 33.92041016 C-61.74201103 27.9594304 -58.21311932 25.44806197 -53.125 22.125 C-45.76776056 17.29136772 -45.76776056 17.29136772 -39.36328125 11.30078125 C-28.04404241 -0.31960899 -15.36350147 -0.04689527 0 0 Z " fill="#EC121B" transform="translate(325.125,237.75)"/>
<path d="M0 0 C4.25276251 0.65934302 7.81799658 2.09680012 11.7421875 3.84375 C12.38349106 4.12897018 13.02479462 4.41419037 13.68553162 4.70805359 C15.7520508 5.63142318 17.81398461 6.56441517 19.875 7.5 C20.57297699 7.81546783 21.27095398 8.13093567 21.99008179 8.45596313 C48.7139669 20.57095035 48.7139669 20.57095035 53 27 C51.68 27.33 50.36 27.66 49 28 C49 28.66 49 29.32 49 30 C47.68 30.33 46.36 30.66 45 31 C49.29 31 53.58 31 58 31 C58.495 39.91 58.495 39.91 59 49 C59.33 44.38 59.66 39.76 60 35 C60.99 34.67 61.98 34.34 63 34 C68.0610576 38.49871787 71.88106805 43.44063116 75.6875 49 C76.15067627 49.67611328 76.61385254 50.35222656 77.09106445 51.04882812 C78.41885702 53.01748408 79.7135787 55.0041221 81 57 C81.63929443 57.94939453 81.63929443 57.94939453 82.29150391 58.91796875 C83.45703125 60.75 83.45703125 60.75 85 64 C83.85865037 67.52526293 81.84236117 69.15389337 78.89453125 71.27734375 C77.66573242 72.17163086 77.66573242 72.17163086 76.41210938 73.08398438 C75.55423828 73.69564453 74.69636719 74.30730469 73.8125 74.9375 C72.97396484 75.54529297 72.13542969 76.15308594 71.27148438 76.77929688 C68.85407289 78.52866491 66.42795476 80.26530838 64 82 C63.30567871 82.50160645 62.61135742 83.00321289 61.89599609 83.52001953 C57.23000879 86.88499561 57.23000879 86.88499561 55 88 C56.98 88.495 56.98 88.495 59 89 C58.71278617 91.77640038 58.25823949 92.7858582 56.08276367 94.58984375 C51.69822739 96.59547308 47.63968536 96.62224202 42.86328125 96.75 C41.869832 96.77658691 40.87638275 96.80317383 39.85282898 96.83056641 C37.74573479 96.87639722 35.63841714 96.91278729 33.53100586 96.94042969 C31.40787306 96.97972608 29.28505097 97.04748078 27.16381836 97.14550781 C11.17819167 97.8812846 1.82530612 95.23682851 -10.21139526 84.57141113 C-12.49522999 82.56490671 -14.91234345 80.77777017 -17.37109375 78.9921875 C-18.72846122 77.9556066 -20.08407295 76.91672052 -21.4375 75.875 C-22.14197266 75.33875 -22.84644531 74.8025 -23.57226562 74.25 C-27.37582197 71.33478617 -27.37582197 71.33478617 -29 70 C-29.77029541 69.39696045 -29.77029541 69.39696045 -30.55615234 68.78173828 C-32.71712185 66.1150566 -33.50601788 63.04893703 -34.48046875 59.8125 C-34.69818436 59.11358643 -34.91589996 58.41467285 -35.14021301 57.69458008 C-35.59751328 56.21995831 -36.05027264 54.74392166 -36.4987793 53.26660156 C-37.18595538 51.00508338 -37.88763137 48.74846651 -38.59179688 46.4921875 C-39.03471333 45.05755664 -39.47679905 43.62266898 -39.91796875 42.1875 C-40.23195869 41.17490112 -40.23195869 41.17490112 -40.55229187 40.1418457 C-41.40765476 37.31006261 -42 34.97766384 -42 32 C-41.34 32 -40.68 32 -40 32 C-39.67 30.68 -39.34 29.36 -39 28 C-34.55660843 29.62667514 -30.54328204 31.80226958 -26.4375 34.125 C-25.73874756 34.52025879 -25.03999512 34.91551758 -24.32006836 35.32275391 C-6.4940853 45.5177441 -6.4940853 45.5177441 -5 50 C-5.99 50.495 -5.99 50.495 -7 51 C-5.68 51.33 -4.36 51.66 -3 52 C-2.35129661 55.0202423 -1.70595844 58.04113979 -1.0625 61.0625 C-0.78889648 62.33383789 -0.78889648 62.33383789 -0.50976562 63.63085938 C0.50493477 68.40917576 1.3754625 73.15490384 2 78 C2.66 78 3.32 78 4 78 C4 75.69 4 73.38 4 71 C3.34 71 2.68 71 2 71 C2 65.39 2 59.78 2 54 C6.47851553 54.89570311 7.77175056 55.25000973 11 58 C11.495 57.01 11.495 57.01 12 56 C11.4225 55.9175 10.845 55.835 10.25 55.75 C7.22048017 54.74016006 5.88161522 53.57850974 4 51 C4.25 47.75 4.25 47.75 5 45 C3.02 45.495 3.02 45.495 1 46 C-0.192371 36.27148934 -0.11514301 26.59317383 -0.0625 16.8125 C-0.05747294 15.17643367 -0.05291217 13.54036583 -0.04882812 11.90429688 C-0.03792277 7.93616014 -0.0207253 3.96809709 0 0 Z " fill="#ED0812" transform="translate(295,293)"/>
<path d="M0 0 C4.23582327 -0.04938628 8.47149465 -0.08571263 12.70751953 -0.10986328 C14.14895547 -0.11992963 15.59037095 -0.1335838 17.03173828 -0.15087891 C19.10193934 -0.17510012 21.17187076 -0.18647641 23.2421875 -0.1953125 C25.11173096 -0.21102295 25.11173096 -0.21102295 27.01904297 -0.22705078 C30 0 30 0 32 2 C32 3.32 32 4.64 32 6 C35.465 5.505 35.465 5.505 39 5 C39 5.66 39 6.32 39 7 C39.66 7 40.32 7 41 7 C41.66 6.01 42.32 5.02 43 4 C44.65 5.65 46.3 7.3 48 9 C47.01 9.33 46.02 9.66 45 10 C45.59167969 10.44730469 46.18335938 10.89460937 46.79296875 11.35546875 C51.15793621 14.69506049 55.17606496 18.06018814 59 22 C59.66 22.33 60.32 22.66 61 23 C61 23.66 61 24.32 61 25 C60.0821875 25.06058594 59.164375 25.12117188 58.21875 25.18359375 C51.781492 25.62311242 45.39064295 26.10530999 39 27 C38.505 23.535 38.505 23.535 38 20 C37.34 20 36.68 20 36 20 C35.505 17.03 35.505 17.03 35 14 C34.92652344 15.06541016 34.92652344 15.06541016 34.8515625 16.15234375 C34.77679688 17.07144531 34.70203125 17.99054688 34.625 18.9375 C34.55539062 19.85402344 34.48578125 20.77054687 34.4140625 21.71484375 C34.27742188 22.46894531 34.14078125 23.22304688 34 24 C33.34 24.33 32.68 24.66 32 25 C31.34786708 27.02463255 31.34786708 27.02463255 31 29 C30.34 29 29.68 29 29 29 C29 29.99 29 30.98 29 32 C30.98 31.67 32.96 31.34 35 31 C37.3661082 44.98538955 37.2105262 58.85263919 37 73 C33.02314979 71.56473554 29.73133432 69.64021444 26.19140625 67.33984375 C19.40932952 63.05359282 12.32555251 59.70319916 4.99438477 56.4699707 C2.9038803 55.54766743 0.81983049 54.6118289 -1.26367188 53.67382812 C-8.43947567 50.28704581 -8.43947567 50.28704581 -16 48 C-16 46.35 -16 44.7 -16 43 C-16.99 43 -17.98 43 -19 43 C-19.33 40.03 -19.66 37.06 -20 34 C-20.66 34 -21.32 34 -22 34 C-22 36.64 -22 39.28 -22 42 C-30.83396011 40.39007269 -38.65700997 32.9794949 -45 27 C-40.78015904 22.45686477 -36.04322804 18.96093163 -31 15.375 C-30.2059375 14.80265625 -29.411875 14.2303125 -28.59375 13.640625 C-24.81342648 10.93139314 -21.04806605 8.30152142 -17 6 C-17.0721875 6.80824219 -17.144375 7.61648437 -17.21875 8.44921875 C-17.35796875 10.05216797 -17.35796875 10.05216797 -17.5 11.6875 C-17.63921875 13.27111328 -17.63921875 13.27111328 -17.78125 14.88671875 C-18.03882452 17.95074522 -18.03882452 17.95074522 -17.96875 20.83203125 C-18 23 -18 23 -19 24 C-19.07148199 25.35243917 -19.08399454 26.70834367 -19.0625 28.0625 C-19.041875 29.361875 -19.02125 30.66125 -19 32 C-18.87625 30.72125 -18.7525 29.4425 -18.625 28.125 C-18.25 24.25 -18.25 24.25 -16 22 C-15.26486953 19.97949505 -15.26486953 19.97949505 -14.7109375 17.6484375 C-14.49179687 16.79765625 -14.27265625 15.946875 -14.046875 15.0703125 C-13.71429688 13.73613281 -13.71429688 13.73613281 -13.375 12.375 C-13.03082031 11.02921875 -13.03082031 11.02921875 -12.6796875 9.65625 C-12.11358073 7.43899849 -11.55396941 5.22030938 -11 3 C-7.55460979 4.30726769 -4.39447498 5.8116607 -1.19921875 7.64453125 C-0.30396484 8.15693359 0.59128906 8.66933594 1.51367188 9.19726562 C2.8990918 9.99680664 2.8990918 9.99680664 4.3125 10.8125 C5.22451172 11.33392578 6.13652344 11.85535156 7.07617188 12.39257812 C11.90568774 15.16565497 16.66813622 18.00108235 21.33276367 21.04443359 C23.48954446 22.28057944 25.5351602 22.76892127 28 23 C28 22.34 28 21.68 28 21 C27.34 21 26.68 21 26 21 C26 20.01 26 19.02 26 18 C25.27385498 17.72744385 24.54770996 17.4548877 23.79956055 17.17407227 C21.09263322 16.03884827 18.71236842 14.7384586 16.20703125 13.21484375 C15.32982422 12.68439453 14.45261719 12.15394531 13.54882812 11.60742188 C12.64583984 11.05634766 11.74285156 10.50527344 10.8125 9.9375 C9.00684728 8.84189254 7.20087356 7.74681389 5.39453125 6.65234375 C4.20114136 5.92519165 4.20114136 5.92519165 2.98364258 5.18334961 C1.02426963 3.98123234 1.02426963 3.98123234 -1 3 C-0.67 2.01 -0.34 1.02 0 0 Z " fill="#E71921" transform="translate(315,242)"/>
<path d="M0 0 C4.22504277 -0.60830037 6.53014749 0.07280037 9.91015625 2.484375 C11.3055764 3.55838558 12.68948766 4.64748776 14.0625 5.75 C15.10374023 6.55824219 15.10374023 6.55824219 16.16601562 7.3828125 C17.51544611 8.43365106 18.85764246 9.4938599 20.19165039 10.56420898 C21.72074507 11.77827754 23.29365706 12.93684676 24.875 14.08203125 C27.34517249 16.31154355 28.00156876 17.76650909 28.9375 20.9375 C29.25589844 21.989375 29.57429688 23.04125 29.90234375 24.125 C30.26973835 25.41623821 30.6354583 26.70795346 31 28 C31.48004843 29.66678778 31.96054887 31.33344542 32.44140625 33 C33.22651009 35.72977235 34.00648477 38.46062453 34.7734375 41.19555664 C35.88418296 45.15401138 37.00285392 49.09699557 38.30859375 52.99609375 C38.68113281 54.11113281 39.05367188 55.22617187 39.4375 56.375 C39.93056641 57.77878906 39.93056641 57.77878906 40.43359375 59.2109375 C42.16289953 67.72627768 37.67973235 77.02435664 35.12670898 85.01635742 C32.80037116 92.23320709 32.80037116 92.23320709 30.95703125 99.58203125 C28.27383039 110.77179903 21.43569978 115.33584643 12.29833984 121.44482422 C8.59303443 123.95202578 5.02681854 126.6433633 1.4375 129.3125 C-0.70489144 130.87979207 -2.85227958 132.44001093 -5 134 C-5.33 133.01 -5.66 132.02 -6 131 C-6.99 130.67 -7.98 130.34 -9 130 C-9 128.35 -9 126.7 -9 125 C-8.34 125.99 -7.68 126.98 -7 128 C6.68550542 118.24746712 6.68550542 118.24746712 20 108 C16.37227511 98.36111745 10.65439944 90.17439934 4.015625 82.375 C2.25620667 80.30188693 0.60467694 78.19373556 -1 76 C-0.01 76 0.98 76 2 76 C2 75.34 2 74.68 2 74 C1.34 74 0.68 74 0 74 C0 73.01 0 72.02 0 71 C0.969375 70.87625 1.93875 70.7525 2.9375 70.625 C4.4534375 70.315625 4.4534375 70.315625 6 70 C6.33 69.34 6.66 68.68 7 68 C6.36191406 68.01160156 5.72382813 68.02320313 5.06640625 68.03515625 C4.24011719 68.04417969 3.41382813 68.05320312 2.5625 68.0625 C1.32693359 68.07990234 1.32693359 68.07990234 0.06640625 68.09765625 C-2 68 -2 68 -3 67 C-3.2462667 64.18161439 -3.42845036 61.38690116 -3.5625 58.5625 C-3.6049585 57.72098389 -3.64741699 56.87946777 -3.69116211 56.01245117 C-4.09250224 47.34043575 -4.0933213 38.67888046 -4 30 C-4.66 30 -5.32 30 -6 30 C-6 41.55 -6 53.1 -6 65 C-6.66 64.67 -7.32 64.34 -8 64 C-7.99476318 63.29617188 -7.98952637 62.59234375 -7.98413086 61.8671875 C-7.89820759 48.53711748 -7.87575018 35.2902389 -9 22 C-10.98 22.33 -12.96 22.66 -15 23 C-15 22.01 -15 21.02 -15 20 C-14.34 20 -13.68 20 -13 20 C-12.67 18.35 -12.34 16.7 -12 15 C-11.34 15 -10.68 15 -10 15 C-10 11.37 -10 7.74 -10 4 C-9.34 4.33 -8.68 4.66 -8 5 C-8 6.98 -8 8.96 -8 11 C-7.34 11 -6.68 11 -6 11 C-5.67 13.31 -5.34 15.62 -5 18 C-3.96875 17.67 -2.9375 17.34 -1.875 17 C4.31322256 15.41384909 10.66191329 15.83976747 17 16 C17 15.34 17 14.68 17 14 C16.2575 13.773125 15.515 13.54625 14.75 13.3125 C11.42093866 11.72362982 10.29010592 9.8789903 8 7 C5.91914791 5.33211085 3.78561189 3.77521426 1.609375 2.234375 C1.07828125 1.82703125 0.5471875 1.4196875 0 1 C0 0.67 0 0.34 0 0 Z " fill="#EB121A" transform="translate(359,251)"/>
<path d="M0 0 C40.05979381 0 40.05979381 0 47.33984375 5.89453125 C51.75999575 11.20087509 53.60314808 15.42833274 54.375 22.375 C53.73762274 28.53631356 51.44908351 33.26109978 47.5 38 C45.08932431 39.92854056 43.91480077 40.40715916 41 41 C42.74551867 44.68963737 44.49721896 48.37630781 46.25 52.0625 C46.74113281 53.10083984 47.23226562 54.13917969 47.73828125 55.20898438 C49.81876863 59.57800788 51.87852048 63.90086535 54.359375 68.05859375 C56 71 56 71 56 74 C50.39 74 44.78 74 39 74 C38.24074219 72.40929687 37.48148438 70.81859375 36.69921875 69.1796875 C35.6953409 67.07811143 34.69143307 64.97654969 33.6875 62.875 C33.18798828 61.82828125 32.68847656 60.7815625 32.17382812 59.703125 C31.20674841 57.67930254 30.22905874 55.66050862 29.23974609 53.64746094 C28 51 28 51 26.76953125 47.3203125 C25.89361328 46.17175781 25.89361328 46.17175781 25 45 C21.7 44.67 18.4 44.34 15 44 C15 53.9 15 63.8 15 74 C10.05 74 5.1 74 0 74 C0 49.58 0 25.16 0 0 Z " fill="#2D3535" transform="translate(758,277)"/>
<path d="M0 0 C40.92727273 0 40.92727273 0 48.5 7.4375 C53.02740174 13.10991323 53.49483442 18.69224067 53.3828125 25.765625 C52.6619484 31.85619109 49.80034075 35.40900119 45.3125 39.375 C44.549375 39.91125 43.78625 40.4475 43 41 C42.34 41.66 41.68 42.32 41 43 C42.55903118 46.14756367 44.1228746 49.29271391 45.6875 52.4375 C46.34008789 53.75524414 46.34008789 53.75524414 47.00585938 55.09960938 C49.55954406 60.22589493 52.21727135 65.25364245 55.09301758 70.20727539 C56 72 56 72 56 74 C50.39 74 44.78 74 39 74 C37.65808594 70.98552734 37.65808594 70.98552734 36.2890625 67.91015625 C35.39130179 65.96625136 34.48033507 64.02907978 33.56787109 62.09204102 C32.94311859 60.74725397 32.33220173 59.39594577 31.73583984 58.03833008 C30.87298114 56.08074632 29.96212386 54.15244718 29.0390625 52.22265625 C28.50490723 51.05484619 27.97075195 49.88703613 27.42041016 48.68383789 C24.47758217 44.81607576 24.47758217 44.81607576 15 45 C15 54.57 15 64.14 15 74 C10.05 74 5.1 74 0 74 C0 49.58 0 25.16 0 0 Z " fill="#2D3434" transform="translate(689,277)"/>
<path d="M0 0 C4.95 0 9.9 0 15 0 C15 9.9 15 19.8 15 30 C22.92 30 30.84 30 39 30 C39 20.1 39 10.2 39 0 C43.95 0 48.9 0 54 0 C54 24.42 54 48.84 54 74 C49.05 74 44.1 74 39 74 C39 63.77 39 53.54 39 43 C31.08 43 23.16 43 15 43 C15 53.23 15 63.46 15 74 C10.05 74 5.1 74 0 74 C0 49.58 0 25.16 0 0 Z " fill="#2D3535" transform="translate(546,277)"/>
<path d="M0 0 C3.96 0 7.92 0 12 0 C15.41089105 7.37799454 18.31453173 14.9163356 21.15405273 22.52685547 C21.92871905 24.6014838 22.70915175 26.67387392 23.49023438 28.74609375 C26.4644407 36.67144455 29.24649495 44.63739896 31.89038086 52.67871094 C33.25652539 56.76782651 34.75077534 60.79487061 36.3125 64.8125 C39 71.73166259 39 71.73166259 39 74 C33.72 74 28.44 74 23 74 C22.01 69.71 21.02 65.42 20 61 C11.09 61 2.18 61 -7 61 C-7.99 64.63 -8.98 68.26 -10 72 C-10.495 72.99 -10.495 72.99 -11 74 C-15.95 74 -20.9 74 -26 74 C-25.30330435 69.81982609 -24.68241341 66.72975192 -23.2578125 62.8828125 C-22.91363281 61.94566406 -22.56945312 61.00851562 -22.21484375 60.04296875 C-21.85519531 59.08003906 -21.49554687 58.11710937 -21.125 57.125 C-20.77308594 56.16980469 -20.42117188 55.21460938 -20.05859375 54.23046875 C-18.82389948 50.88440138 -17.57945344 47.54211813 -16.32493591 44.20343018 C-14.41186347 39.11151967 -12.52342289 34.01086353 -10.64453125 28.90625 C-10.33803146 28.07411987 -10.03153168 27.24198975 -9.71574402 26.38464355 C-8.74777619 23.75650993 -7.78013262 21.12825706 -6.8125 18.5 C-6.15171424 16.70572124 -5.49090715 14.91145033 -4.83007812 13.1171875 C-3.21980562 8.74488239 -1.60982368 4.37247038 0 0 Z " fill="#2D3535" transform="translate(638,277)"/>
<path d="M0 0 C1.95494304 1.44911862 3.83326947 2.93812586 5.671875 4.53125 C4.28999047 7.74168882 2.74765597 9.58061365 0.046875 11.78125 C-0.58476563 12.30203125 -1.21640625 12.8228125 -1.8671875 13.359375 C-2.34929688 13.74609375 -2.83140625 14.1328125 -3.328125 14.53125 C-4.42125 13.87125 -5.514375 13.21125 -6.640625 12.53125 C-11.79439054 9.95436723 -16.66885922 9.77845252 -22.328125 10.53125 C-25.44750469 11.90377707 -26.8178965 12.510793 -28.328125 15.53125 C-28.73117695 19.61513307 -28.73117695 19.61513307 -27.203125 23.28125 C-22.72014818 26.26990121 -17.70207675 26.81184064 -12.453125 27.34375 C-4.82760714 28.37335579 -0.21952645 30.48766953 5.046875 36.03125 C8.77582289 41.76809291 9.46686408 46.76881123 8.671875 53.53125 C6.91702421 60.08829728 3.54648026 65.04452386 -2.328125 68.53125 C-8.33519589 71.23539767 -13.21668821 72.00139194 -19.765625 71.90625 C-20.56033203 71.91785156 -21.35503906 71.92945313 -22.17382812 71.94140625 C-29.8168803 71.90409273 -36.87195796 70.26811394 -42.890625 65.34375 C-43.55191406 64.81394531 -44.21320312 64.28414063 -44.89453125 63.73828125 C-45.36761719 63.33996094 -45.84070313 62.94164062 -46.328125 62.53125 C-40.17778331 55.04833428 -40.17778331 55.04833428 -36.328125 52.53125 C-34.9359375 53.4903125 -34.9359375 53.4903125 -33.515625 54.46875 C-28.94047069 57.42914397 -25.81903522 57.69038895 -20.453125 57.71875 C-19.23882813 57.73292969 -18.02453125 57.74710937 -16.7734375 57.76171875 C-13.45767536 57.53991607 -11.253684 57.06959744 -8.328125 55.53125 C-6.77352195 52.42204391 -6.60091807 48.90041972 -7.328125 45.53125 C-10.68759244 41.73629604 -15.2730947 41.75088214 -20.015625 41.15625 C-34.95479513 38.94326053 -34.95479513 38.94326053 -39.7109375 32.72265625 C-40.828125 30.84375 -40.828125 30.84375 -42.328125 27.53125 C-42.658125 26.87125 -42.988125 26.21125 -43.328125 25.53125 C-44.02452892 18.11055249 -43.94857289 11.62369898 -39.328125 5.53125 C-29.95362135 -4.88750216 -12.06995099 -7.61459995 0 0 Z " fill="#2D3434" transform="translate(901.328125,279.46875)"/>
<path d="M0 0 C4.56935101 4.77704878 6.9296753 9.91510667 7.1875 16.5625 C6.86698959 22.9174477 3.78963071 27.13888123 -0.25 31.875 C0.69875 32.761875 1.6475 33.64875 2.625 34.5625 C6.6645592 38.66875003 7.84154728 41.88508249 8.125 47.625 C7.96771301 53.84246216 6.33479673 59.07430377 2.06640625 63.69921875 C-5.47904775 70.40088004 -12.52324595 70.59161943 -22.2890625 70.0703125 C-27.82199478 69.51922363 -31.44730783 66.99292293 -35.125 63 C-37.18830732 59.96572453 -38.32464549 57.40817177 -39.25 53.875 C-37.64967863 53.03430585 -36.04458829 52.20268495 -34.4375 51.375 C-33.54417969 50.9109375 -32.65085937 50.446875 -31.73046875 49.96875 C-29.25 48.875 -29.25 48.875 -26.25 48.875 C-25.2734375 50.66536458 -24.296875 52.45572917 -23.3203125 54.24609375 C-22.33589976 56.04118315 -22.33589976 56.04118315 -20.25 56.875 C-14.7958586 57.32555162 -14.7958586 57.32555162 -9.8125 55.5625 C-7.48096757 53.04444498 -7.24956639 50.87109752 -6.875 47.5 C-6.94416694 43.75947735 -6.94416694 43.75947735 -9.4375 41 C-12.35196207 38.47790934 -12.35196207 38.47790934 -17.25 37.875 C-17.25 33.915 -17.25 29.955 -17.25 25.875 C-14.61 25.215 -11.97 24.555 -9.25 23.875 C-8.25586828 19.89847311 -7.88649642 16.9462401 -8.25 12.875 C-9.6030128 10.27185006 -9.6030128 10.27185006 -12.25 8.875 C-15.03090014 8.32223911 -17.4716145 8.29878453 -20.25 8.875 C-23.21858157 11.08240681 -24.07865791 12.36097373 -25.25 15.875 C-29.85853797 15.15491594 -33.92237409 13.56204061 -38.25 11.875 C-37.79854169 6.90895857 -35.57097034 3.4599449 -32.25 -0.125 C-22.27115887 -7.71165319 -10.03745233 -6.5629496 0 0 Z " fill="#2D3434" transform="translate(523.25,281.125)"/>
<path d="M0 0 C0.21169276 8.66036205 -0.42833538 17.13848631 -1.3125 25.75 C-1.37869537 26.40865051 -1.44489075 27.06730103 -1.51309204 27.74591064 C-2.47959598 37.30050907 -3.69237236 46.67129251 -6 56 C-10.47968093 52.88741516 -14.50673269 49.60318117 -18.3125 45.6875 C-23.21117307 40.68033843 -28.51647274 36.34829264 -34 32 C-35.97551744 30.43143201 -37.95023309 28.86188291 -39.92333984 27.2902832 C-41.23780045 26.24429122 -42.55443888 25.20102852 -43.87353516 24.16088867 C-47.1068828 21.59418855 -50.15295688 19.00402295 -53 16 C-42.35359779 11.51055329 -31.68829968 7.41628239 -20.625 4.0625 C-19.17371704 3.62151978 -19.17371704 3.62151978 -17.69311523 3.17163086 C-11.74983245 1.40947858 -6.24015116 0 0 0 Z " fill="#FEF9F9" transform="translate(352,325)"/>
<path d="M0 0 C4.95 0 9.9 0 15 0 C15 20.13 15 40.26 15 61 C22.59 61 30.18 61 38 61 C38 65.29 38 69.58 38 74 C25.46 74 12.92 74 0 74 C0 49.58 0 25.16 0 0 Z " fill="#2D3434" transform="translate(437,277)"/>
<path d="M0 0 C4.25276251 0.65934302 7.81799658 2.09680012 11.7421875 3.84375 C12.38349106 4.12897018 13.02479462 4.41419037 13.68553162 4.70805359 C15.7520508 5.63142318 17.81398461 6.56441517 19.875 7.5 C20.57297699 7.81546783 21.27095398 8.13093567 21.99008179 8.45596313 C48.7139669 20.57095035 48.7139669 20.57095035 53 27 C47.62909964 28.85813287 42.24179508 30.51220907 36.75512695 31.99169922 C25.71444599 34.98361143 15.24034323 38.86169955 4.72973633 43.36083984 C3 44 3 44 1 44 C-0.32456929 34.99918661 -0.11081876 26.01139818 -0.0625 16.9375 C-0.0574758 15.29231907 -0.05291452 13.64713665 -0.04882812 12.00195312 C-0.03789342 8.00126502 -0.0206793 4.00064912 0 0 Z " fill="#FEF7F7" transform="translate(295,293)"/>
<path d="M0 0 C4.95 0 9.9 0 15 0 C15 24.42 15 48.84 15 74 C10.05 74 5.1 74 0 74 C0 49.58 0 25.16 0 0 Z " fill="#303736" transform="translate(828,277)"/>
<path d="M0 0 C2.90120981 8.70362944 2.12864592 18.62550932 2.0625 27.6875 C2.05798828 28.87794922 2.05347656 30.06839844 2.04882812 31.29492188 C2.03717452 34.19666936 2.02081559 37.09830626 2 40 C-1.9562547 38.57210415 -5.21786167 36.66302215 -8.734375 34.3671875 C-16.52124812 29.43408822 -24.8211386 25.80950558 -33.25 22.125 C-35.50827181 21.13384552 -37.76517163 20.13996357 -40.01873779 19.13815308 C-41.40590434 18.5217787 -42.795836 17.91158039 -44.18878174 17.30838013 C-48.88766464 15.22467071 -48.88766464 15.22467071 -50 13 C-34.73642579 6.75278966 -16.66867204 -0.38764354 0 0 Z " fill="#FEF6F6" transform="translate(350,275)"/>
<path d="M0 0 C4.44339157 1.62667514 8.45671796 3.80226958 12.5625 6.125 C13.61062866 6.71788818 13.61062866 6.71788818 14.67993164 7.32275391 C32.5059147 17.5177441 32.5059147 17.5177441 34 22 C33.01 22.495 33.01 22.495 32 23 C32.99 23.66 33.98 24.32 35 25 C33.97519531 25.59167969 32.95039063 26.18335938 31.89453125 26.79296875 C30.53361904 27.59074487 29.17295505 28.38894453 27.8125 29.1875 C26.80219727 29.76854492 26.80219727 29.76854492 25.77148438 30.36132812 C21.57276061 32.83959923 18.2933002 35.39975144 15 39 C15.85980469 39.60585938 16.71960938 40.21171875 17.60546875 40.8359375 C25.89110192 46.70030618 33.99902982 52.75339537 42 59 C39 59 39 59 37 58 C37 58.99 37 59.98 37 61 C33.14596691 59.27657488 29.83803933 56.84198443 26.4375 54.375 C25.87998047 53.97410156 25.32246094 53.57320313 24.74804688 53.16015625 C23.5348844 52.28646287 22.33063795 51.40030527 21.13378906 50.50439453 C18.9489822 48.91599749 18.9489822 48.91599749 16.28027344 47.42919922 C7.24654242 41.84523757 5.03504294 35.07527493 2.375 25.375 C1.95534047 23.96769627 1.53218153 22.56143117 1.10546875 21.15625 C-0.59041709 15.4779688 -2.12446152 9.87092832 -3 4 C-2.34 4 -1.68 4 -1 4 C-0.67 2.68 -0.34 1.36 0 0 Z " fill="#EB121B" transform="translate(256,321)"/>
<path d="M0 0 C5.2660461 2.01031339 9.99423661 4.70200441 14.875 7.5 C15.80014404 8.02883789 16.72528809 8.55767578 17.6784668 9.10253906 C25.69125995 13.73033734 33.40168672 18.7243662 41 24 C38.77711926 26.22288074 37.93734422 26.4156293 34.94921875 27.04296875 C34.11511475 27.22633789 33.28101074 27.40970703 32.42163086 27.59863281 C31.51936768 27.79295898 30.61710449 27.98728516 29.6875 28.1875 C19.21779066 30.54466466 9.16040154 33.75079692 -0.95141602 37.32324219 C-2.95159146 37.98400805 -4.9504768 38.51653753 -7 39 C-7.29564752 25.65151442 -3.61053775 12.75601155 0 0 Z " fill="#FEF8F8" transform="translate(304,245)"/>
<path d="M0 0 C0.66 0 1.32 0 2 0 C3.4783226 2.95664519 3.06032783 5.74229737 3 9 C3.99 9 4.98 9 6 9 C6 10.65 6 12.3 6 14 C7.01570068 14.10634766 8.03140137 14.21269531 9.07788086 14.32226562 C13.06942496 15.01199649 16.08821343 16.14550468 19.75390625 17.84375 C20.37282745 18.1290155 20.99174866 18.41428101 21.62942505 18.70819092 C23.61249422 19.62776066 25.58783852 20.56252687 27.5625 21.5 C28.23374908 21.8151355 28.90499817 22.130271 29.59658813 22.45495605 C39.20592975 26.97384959 48.38815512 31.74215686 57 38 C58.485 38.99 58.485 38.99 60 40 C60 28.45 60 16.9 60 5 C60.66 5 61.32 5 62 5 C62.99 23.315 62.99 23.315 64 42 C66.97 42.33 69.94 42.66 73 43 C72.67 43.99 72.34 44.98 72 46 C70.02 46 68.04 46 66 46 C66 46.99 66 47.98 66 49 C66.66 49 67.32 49 68 49 C68 49.66 68 50.32 68 51 C66.02 51.33 64.04 51.66 62 52 C62 56.95 62 61.9 62 67 C61.34 66.67 60.68 66.34 60 66 C60 60.06 60 54.12 60 48 C58.02 48.33 56.04 48.66 54 49 C51.32189925 49.11196073 48.68267314 49.04625299 46 49 C46.495 48.01 46.495 48.01 47 47 C48.32 47 49.64 47 51 47 C51 46.34 51 45.68 51 45 C51.99 44.34 52.98 43.68 54 43 C39.40346344 33.10404301 23.26256801 26.1981925 7.21972656 19.01806641 C5.12509445 18.05737394 3.06114797 17.03057399 1 16 C1 27.88 1 39.76 1 52 C-2 49 -2 49 -2.34057617 45.72192383 C-2.34010264 44.3835323 -2.32323735 43.04508054 -2.29296875 41.70703125 C-2.28872391 41.00100266 -2.28447906 40.29497406 -2.28010559 39.56755066 C-2.26333034 37.31547697 -2.22568243 35.06430258 -2.1875 32.8125 C-2.17245157 31.28451815 -2.15876344 29.75652224 -2.14648438 28.22851562 C-2.11343089 24.48533128 -2.06165832 20.74281804 -2 17 C-3.98 17 -5.96 17 -8 17 C-7.484375 16.236875 -6.96875 15.47375 -6.4375 14.6875 C-5.7259375 13.3571875 -5.7259375 13.3571875 -5 12 C-5.33 11.01 -5.66 10.02 -6 9 C-4.35 8.67 -2.7 8.34 -1 8 C-0.67 5.36 -0.34 2.72 0 0 Z " fill="#E81720" transform="translate(293,276)"/>
<path d="M0 0 C0.33 13.86 0.66 27.72 1 42 C-6.5524807 37.59438626 -14.01052996 33.17234292 -21.37109375 28.4765625 C-25.15547035 26.08405403 -28.95084019 23.93055916 -33 22 C-31.4703729 17.9334304 -28.619506 15.77948078 -25.25 13.25 C-24.39740601 12.60345459 -24.39740601 12.60345459 -23.52758789 11.94384766 C-7.41855965 0 -7.41855965 0 0 0 Z " fill="#FEF7F8" transform="translate(290,294)"/>
<path d="M0 0 C13.05695217 9.79271412 25.8291802 21.15264867 36 34 C36 34.66 36 35.32 36 36 C31.85420385 36.47948877 27.70835636 36.95853218 23.5625 37.4375 C22.39783203 37.57220703 21.23316406 37.70691406 20.03320312 37.84570312 C18.88916016 37.97783203 17.74511719 38.10996094 16.56640625 38.24609375 C15.52427979 38.36654053 14.48215332 38.4869873 13.40844727 38.61108398 C9.27329987 39.08291908 5.13652361 39.54038627 1 40 C0.67 26.8 0.34 13.6 0 0 Z " fill="#FEF8F9" transform="translate(356,278)"/>
<path d="M0 0 C5.00866552 3.96420012 8.93899283 8.10570665 12.625 13.3125 C13.09574951 13.96968018 13.56649902 14.62686035 14.05151367 15.30395508 C22.0508777 26.60199728 22.0508777 26.60199728 23 30 C21.70002523 33.48949988 19.87894231 35.12754237 16.89453125 37.27734375 C15.66573242 38.17163086 15.66573242 38.17163086 14.41210938 39.08398438 C13.55423828 39.69564453 12.69636719 40.30730469 11.8125 40.9375 C10.97396484 41.54529297 10.13542969 42.15308594 9.27148438 42.77929688 C6.85407683 44.52866205 4.42739858 46.26454014 2 48 C1.29407715 48.51320801 0.5881543 49.02641602 -0.13916016 49.55517578 C-4.88959581 53 -4.88959581 53 -6 53 C-5.39482976 47.35174441 -4.70804496 41.72314935 -3.9465332 36.09399414 C-2.32502314 24.08574832 -1.05877016 12.0699798 0 0 Z " fill="#FEF6F6" transform="translate(357,327)"/>
<path d="M0 0 C3.99535579 1.72213612 7.24527351 4.3773883 10.625 7.0625 C11.24455566 7.55202148 11.86411133 8.04154297 12.50244141 8.54589844 C17.07084342 12.18691603 21.460635 15.98627355 25.7578125 19.9453125 C28.44611152 22.40880603 31.21876003 24.76259135 34.015625 27.1015625 C36.89521144 29.85644244 39.40650194 32.97425226 42 36 C30.12 36 18.24 36 6 36 C-0.34782609 10.60869565 -0.34782609 10.60869565 0 0 Z " fill="#FEF6F7" transform="translate(298,348)"/>
<path d="M0 0 C-1.37424084 4.62098528 -3.37258393 6.38079799 -7.3125 9.0625 C-14.0554706 13.1744301 -14.0554706 13.1744301 -19 19 C-18.1229541 19.26498291 -17.2459082 19.52996582 -16.34228516 19.80297852 C-13.0901689 20.96770649 -10.46022307 22.34836306 -7.5234375 24.15234375 C-6.523125 24.76400391 -5.5228125 25.37566406 -4.4921875 26.00585938 C-3.46351563 26.64330078 -2.43484375 27.28074219 -1.375 27.9375 C-0.33859375 28.57107422 0.6978125 29.20464844 1.765625 29.85742188 C5.96506641 32.43731127 10.0977595 34.98256323 14 38 C14.33 35.36 14.66 32.72 15 30 C18.64775386 33.88309282 19.58525633 36.71201818 20 42 C21.65 41.34 23.3 40.68 25 40 C24.67 42.31 24.34 44.62 24 47 C24.99 47.66 25.98 48.32 27 49 C27 49.66 27 50.32 27 51 C28.32 51.33 29.64 51.66 31 52 C30.67 52.99 30.34 53.98 30 55 C28.88625 54.0409375 28.88625 54.0409375 27.75 53.0625 C25.00606339 50.72664214 25.00606339 50.72664214 21 50 C21 55.61 21 61.22 21 67 C21.66 67 22.32 67 23 67 C23 69.31 23 71.62 23 74 C22.34 74 21.68 74 21 74 C16.42553191 56.85106383 16.42553191 56.85106383 16 48 C14.35 48 12.7 48 11 48 C11.66 46.35 12.32 44.7 13 43 C12.31035156 42.75636719 11.62070312 42.51273437 10.91015625 42.26171875 C7.50357907 40.78477321 4.51678733 38.86035473 1.4375 36.8125 C-8.75266543 29.03681345 -8.75266543 29.03681345 -20 25 C-20.33 25.99 -20.66 26.98 -21 28 C-21.99 28 -22.98 28 -24 28 C-27.17273223 18.28350755 -25.48186987 11.4663337 -22 2 C-21.01 2 -20.02 2 -19 2 C-19 4.64 -19 7.28 -19 10 C-14.49700726 8.62408555 -12.84758414 6.64846718 -10 3 C-6.54601023 0.43164864 -4.29704625 -0.36831825 0 0 Z " fill="#F20B14" transform="translate(276,297)"/>
<path d="M0 0 C1.51794662 -0.01073296 1.51794662 -0.01073296 3.06655884 -0.02168274 C5.19963708 -0.0294401 7.33279508 -0.02448946 9.46582031 -0.00756836 C12.71052731 0.0116239 15.95092816 -0.02772424 19.1953125 -0.07226562 C21.27604419 -0.07255609 23.35677977 -0.06941334 25.4375 -0.0625 C26.87698502 -0.08542366 26.87698502 -0.08542366 28.34555054 -0.10881042 C34.59088456 -0.00206576 38.57843834 1.46105404 43.76651001 4.92521667 C45.3515625 6.69921875 45.3515625 6.69921875 45.59017944 9.40327454 C45.47206406 10.53976692 45.47206406 10.53976692 45.3515625 11.69921875 C44.3615625 11.36921875 43.3715625 11.03921875 42.3515625 10.69921875 C42.3515625 10.03921875 42.3515625 9.37921875 42.3515625 8.69921875 C41.0315625 8.69921875 39.7115625 8.69921875 38.3515625 8.69921875 C38.0215625 9.35921875 37.6915625 10.01921875 37.3515625 10.69921875 C35.103765 8.6468819 34.3493383 7.69254614 33.3515625 4.69921875 C23.4515625 4.69921875 13.5515625 4.69921875 3.3515625 4.69921875 C3.0215625 5.35921875 2.6915625 6.01921875 2.3515625 6.69921875 C3.11726563 6.89644531 3.88296875 7.09367188 4.671875 7.296875 C9.91237446 9.29405048 14.47112343 12.18873315 19.2265625 15.13671875 C20.68835938 16.01553711 20.68835938 16.01553711 22.1796875 16.91210938 C23.10007812 17.47994141 24.02046875 18.04777344 24.96875 18.6328125 C26.23114502 19.40709595 26.23114502 19.40709595 27.51904297 20.19702148 C28.12377441 20.69274658 28.72850586 21.18847168 29.3515625 21.69921875 C29.3515625 22.68921875 29.3515625 23.67921875 29.3515625 24.69921875 C30.0115625 24.69921875 30.6715625 24.69921875 31.3515625 24.69921875 C31.3515625 25.35921875 31.3515625 26.01921875 31.3515625 26.69921875 C26.18954454 26.22410764 22.91191516 25.17837119 18.6015625 22.32421875 C12.83540385 18.61499388 6.98301073 15.1168227 1.0390625 11.69921875 C0.1840918 11.20631348 -0.67087891 10.7134082 -1.55175781 10.20556641 C-3.58307033 9.03518288 -5.61527074 7.86637719 -7.6484375 6.69921875 C-7.75800781 7.47265625 -7.86757813 8.24609375 -7.98046875 9.04296875 C-10.31267108 24.36345233 -10.31267108 24.36345233 -13.6484375 27.69921875 C-13.92796969 29.75799555 -14.09578101 31.81650307 -14.26953125 33.88671875 C-14.39457031 34.48484375 -14.51960938 35.08296875 -14.6484375 35.69921875 C-15.6384375 36.19421875 -15.6384375 36.19421875 -16.6484375 36.69921875 C-16.67532966 35.22014983 -16.69478371 33.74094392 -16.7109375 32.26171875 C-16.72253906 31.43800781 -16.73414063 30.61429687 -16.74609375 29.765625 C-16.6484375 27.69921875 -16.6484375 27.69921875 -15.6484375 26.69921875 C-15.601255 25.32502851 -15.61116307 23.94871343 -15.6484375 22.57421875 C-15.7006966 18.49147672 -15.33284417 14.72010792 -14.6484375 10.69921875 C-16.6284375 10.69921875 -18.6084375 10.69921875 -20.6484375 10.69921875 C-16.14873219 1.43511958 -9.45043428 -0.06848856 0 0 Z " fill="#ED0C14" transform="translate(311.6484375,238.30078125)"/>
<path d="M0 0 C-2.20715568 7.38174367 -4.4417781 14.75490641 -6.6875 22.125 C-7.16799805 23.7028125 -7.16799805 23.7028125 -7.65820312 25.3125 C-8.43861795 27.87505615 -9.21922002 30.43755509 -10 33 C-10.99 33 -11.98 33 -13 33 C-14.4375 30.83203125 -14.4375 30.83203125 -16 27.8125 C-19.18846737 22.05687261 -22.89797303 17.27199663 -27.26757812 12.36645508 C-29.64261505 9.68611642 -31.48679404 7.23695246 -33 4 C-29.10457803 3.4257851 -25.20849944 2.85627487 -21.31176758 2.29101562 C-19.33834479 2.003762 -17.36545672 1.71284265 -15.39257812 1.421875 C-13.52182617 1.15117187 -13.52182617 1.15117187 -11.61328125 0.875 C-10.46641846 0.70742188 -9.31955566 0.53984375 -8.13793945 0.3671875 C-5.38399103 0.0449329 -2.76793505 -0.07254211 0 0 Z " fill="#FEF4F5" transform="translate(394,318)"/>
<path d="M0 0 C4.22504277 -0.60830037 6.53014749 0.07280037 9.91015625 2.484375 C11.3055764 3.55838558 12.68948766 4.64748776 14.0625 5.75 C15.10374023 6.55824219 15.10374023 6.55824219 16.16601562 7.3828125 C17.5155363 8.43372129 18.8578134 9.49401262 20.19189453 10.56445312 C21.71949289 11.77729114 23.29103804 12.93446563 24.87109375 14.078125 C29.07013235 17.86881673 29.31113132 22.40186768 29.9375 27.8125 C30.47842326 31.94948112 31.05180617 35.69229547 32.625 39.5625 C33.89335566 42.73338915 34.31427914 44.64768921 34 48 C33.34 48 32.68 48 32 48 C31.67 46.35 31.34 44.7 31 43 C30.34 43 29.68 43 29 43 C27.99572108 39.54289448 26.9973056 36.08412303 26 32.625 C25.71382813 31.64015625 25.42765625 30.6553125 25.1328125 29.640625 C24.86210937 28.69960938 24.59140625 27.75859375 24.3125 26.7890625 C24.06113281 25.91975098 23.80976563 25.05043945 23.55078125 24.15478516 C23 22 23 22 23 20 C11.615 20.99 11.615 20.99 0 22 C0 23.32 0 24.64 0 26 C-2.97 25.67 -5.94 25.34 -9 25 C-9 24.01 -9 23.02 -9 22 C-10.98 22.33 -12.96 22.66 -15 23 C-15 22.01 -15 21.02 -15 20 C-14.34 20 -13.68 20 -13 20 C-12.67 18.35 -12.34 16.7 -12 15 C-11.34 15 -10.68 15 -10 15 C-10 11.37 -10 7.74 -10 4 C-9.34 4.33 -8.68 4.66 -8 5 C-8 6.98 -8 8.96 -8 11 C-7.34 11 -6.68 11 -6 11 C-5.67 13.31 -5.34 15.62 -5 18 C-3.96875 17.67 -2.9375 17.34 -1.875 17 C4.31322256 15.41384909 10.66191329 15.83976747 17 16 C17 15.34 17 14.68 17 14 C16.2575 13.773125 15.515 13.54625 14.75 13.3125 C11.42093866 11.72362982 10.29010592 9.8789903 8 7 C5.91914791 5.33211085 3.78561189 3.77521426 1.609375 2.234375 C1.07828125 1.82703125 0.5471875 1.4196875 0 1 C0 0.67 0 0.34 0 0 Z " fill="#EA121A" transform="translate(359,251)"/>
<path d="M0 0 C6.38522548 3.38509875 12.66622336 6.92789659 18.875 10.625 C19.5047876 10.99681396 20.1345752 11.36862793 20.78344727 11.75170898 C24.40958102 13.92661679 27.84603306 16.15783207 31 19 C31 19.66 31 20.32 31 21 C28.65097245 22.54808686 26.31208254 23.97846955 23.875 25.375 C22.53821962 26.15219789 21.2022717 26.93082948 19.8671875 27.7109375 C18.89410645 28.27893066 18.89410645 28.27893066 17.90136719 28.85839844 C15.20089487 30.47979142 12.60167899 32.22502274 10 34 C9.82621826 33.47575439 9.65243652 32.95150879 9.47338867 32.41137695 C8.05959416 28.15698448 6.62952436 23.90888831 5.17578125 19.66796875 C4.55464071 17.84116174 3.93354736 16.01433869 3.3125 14.1875 C2.99216797 13.26001953 2.67183594 12.33253906 2.34179688 11.37695312 C2.03951172 10.48298828 1.73722656 9.58902344 1.42578125 8.66796875 C1.15161377 7.86641357 0.87744629 7.0648584 0.5949707 6.23901367 C0 4 0 4 0 0 Z " fill="#FEF4F5" transform="translate(257,321)"/>
<path d="M0 0 C1.14294897 3.42884692 0.81516179 4.75302299 0.0390625 8.2265625 C-0.18523437 9.25910156 -0.40953125 10.29164063 -0.640625 11.35546875 C-0.88296875 12.43441406 -1.1253125 13.51335937 -1.375 14.625 C-2.95877123 21.75197054 -4.34402542 28.72325878 -5 36 C-13.44912308 32.93305853 -20.36069696 26.91763967 -27 21 C-22.77041089 16.43717053 -18.00668649 12.95902531 -12.9375 9.375 C-11.34228474 8.23720791 -9.74722724 7.0991946 -8.15234375 5.9609375 C-7.45101318 5.46384277 -6.74968262 4.96674805 -6.02709961 4.45458984 C-3.996325 2.99736292 -1.99427355 1.50668499 0 0 Z " fill="#FEF3F3" transform="translate(297,248)"/>
<path d="M0 0 C0.882466 4.50053856 1.75501186 9.00284417 2.6184082 13.50708008 C2.91353631 15.03918273 3.21137156 16.57076648 3.51196289 18.10180664 C3.9434903 20.30223977 4.36525673 22.50435359 4.78515625 24.70703125 C4.92156021 25.39150833 5.05796417 26.07598541 5.19850159 26.78120422 C5.80553731 30.01554936 6.06026928 31.81919216 5 35 C3.97261719 34.2265625 2.94523437 33.453125 1.88671875 32.65625 C-6.02869504 26.70437938 -13.96402156 20.78862853 -22 15 C-18.28627812 11.01040164 -14.43282005 8.11778486 -9.8125 5.25 C-9.18408203 4.85167969 -8.55566406 4.45335937 -7.90820312 4.04296875 C-1.50112553 0 -1.50112553 0 0 0 Z " fill="#FEF1F1" transform="translate(292,345)"/>
<path d="M0 0 C2.68125 -0.0825 5.3625 -0.165 8.125 -0.25 C8.95789551 -0.28641602 9.79079102 -0.32283203 10.64892578 -0.36035156 C15.89753078 -0.43799735 18.84890043 0.50842092 23 4 C24.20463755 6.40927511 24.07893471 7.70611534 23.875 10.375 C23.83117187 11.14585937 23.78734375 11.91671875 23.7421875 12.7109375 C22.61562283 16.18550012 21.16160158 17.19686723 18 19 C14.87159109 19.46554571 11.84108414 19.37842779 8.6875 19.25 C4.3871875 19.12625 4.3871875 19.12625 0 19 C0 12.73 0 6.46 0 0 Z " fill="#F8FAFA" transform="translate(773,290)"/>
<path d="M0 0 C0 0.66 0 1.32 0 2 C-1.32 2.33 -2.64 2.66 -4 3 C0.29 3 4.58 3 9 3 C9.495 11.91 9.495 11.91 10 21 C10.33 16.38 10.66 11.76 11 7 C11.66 7 12.32 7 13 7 C12.65382457 17.89855744 11.9468393 28.67972801 10.5625 39.5 C10.44028076 40.48427979 10.31806152 41.46855957 10.19213867 42.48266602 C10.06814697 43.40619873 9.94415527 44.32973145 9.81640625 45.28125 C9.70756104 46.09658203 9.59871582 46.91191406 9.48657227 47.75195312 C9 50 9 50 7 54 C6.505 49.545 6.505 49.545 6 45 C5.67 45 5.34 45 5 45 C5.52395594 31.26683911 6.48872838 17.66013472 8 4 C-9.91896306 7.84638216 -26.87498876 13.53545883 -44 20 C-44.33 19.01 -44.66 18.02 -45 17 C-45.99 17.33 -46.98 17.66 -48 18 C-48 17.34 -48 16.68 -48 16 C-11.73604061 0 -11.73604061 0 0 0 Z " fill="#E61F27" transform="translate(344,321)"/>
<path d="M0 0 C2.536875 -0.061875 5.07375 -0.12375 7.6875 -0.1875 C8.47729248 -0.21481201 9.26708496 -0.24212402 10.08081055 -0.27026367 C14.62928046 -0.32374802 17.38608784 0.23089848 21 3 C23.37040308 5.37040308 23.34465793 6.06302753 23.4375 9.3125 C23.47746094 10.07175781 23.51742187 10.83101563 23.55859375 11.61328125 C22.67802345 15.37571797 21.09980155 16.74055386 18 19 C14.86111651 19.58979602 11.86664009 19.47433567 8.6875 19.3125 C4.3871875 19.1578125 4.3871875 19.1578125 0 19 C0 12.73 0 6.46 0 0 Z " fill="#FCFDFD" transform="translate(704,290)"/>
<path d="M0 0 C0.46148437 0.35191406 0.92296875 0.70382812 1.3984375 1.06640625 C10.33084852 8.11075332 10.33084852 8.11075332 20 14 C20 14.66 20 15.32 20 16 C19.50185791 16.26627197 19.00371582 16.53254395 18.49047852 16.80688477 C5.94421925 23.44486945 5.94421925 23.44486945 -5.46875 31.8203125 C-7 33 -7 33 -9 33 C-8.10464413 21.58421271 -3.64964218 10.77420963 0 0 Z " fill="#FEF5F5" transform="translate(267,273)"/>
<path d="M0 0 C0.20157715 0.66531738 0.4031543 1.33063477 0.61083984 2.01611328 C1.53137627 5.05266737 2.45317681 8.08883631 3.375 11.125 C3.69210937 12.17171875 4.00921875 13.2184375 4.3359375 14.296875 C4.8 15.82441406 4.8 15.82441406 5.2734375 17.3828125 C5.57088867 18.36668945 5.86833984 19.35056641 6.17480469 20.36425781 C6.82040554 22.42636041 7.5408007 24.46507826 8.2890625 26.4921875 C9.04170031 29.14709669 8.98024458 30.45136409 8 33 C7.63390625 32.56171875 7.2678125 32.1234375 6.890625 31.671875 C-1.25532307 22.12947869 -10.0345108 13.46231345 -19.91796875 5.7421875 C-22 4 -22 4 -23 2 C-20.29017103 0.64508551 -17.89544205 0.65825157 -14.875 0.4375 C-13.77929688 0.35371094 -12.68359375 0.26992188 -11.5546875 0.18359375 C-7.69130976 -0.01594334 -3.86786773 -0.02962262 0 0 Z " fill="#FEEFEF" transform="translate(382,271)"/>
<path d="M0 0 C9.9 0 19.8 0 30 0 C33 14 33 14 33 20 C29.62126981 19.35210383 27.20031812 18.05843679 24.296875 16.234375 C22.94916016 15.39326172 22.94916016 15.39326172 21.57421875 14.53515625 C20.64222656 13.94605469 19.71023438 13.35695313 18.75 12.75 C17.83347656 12.17636719 16.91695313 11.60273438 15.97265625 11.01171875 C14.16789278 9.88148884 12.36510519 8.74809677 10.56445312 7.61132812 C8.89735194 6.56383499 7.22443142 5.52552726 5.54492188 4.49804688 C3.68120274 3.35682679 1.83800391 2.18219031 0 1 C0 0.67 0 0.34 0 0 Z " fill="#FEF5F5" transform="translate(315,244)"/>
<path d="M0 0 C0.66 0 1.32 0 2 0 C2.66 12.21 3.32 24.42 4 37 C6.97 37.33 9.94 37.66 13 38 C12.67 38.99 12.34 39.98 12 41 C10.02 41 8.04 41 6 41 C6 41.99 6 42.98 6 44 C6.66 44 7.32 44 8 44 C8 44.66 8 45.32 8 46 C5.03 46.495 5.03 46.495 2 47 C2 51.95 2 56.9 2 62 C1.34 61.67 0.68 61.34 0 61 C0 55.06 0 49.12 0 43 C-2.97 43.495 -2.97 43.495 -6 44 C-8.67810075 44.11196073 -11.31732686 44.04625299 -14 44 C-13.67 43.34 -13.34 42.68 -13 42 C-11.68 42 -10.36 42 -9 42 C-9 41.34 -9 40.68 -9 40 C-7.35 40 -5.7 40 -4 40 C-4.33 38.02 -4.66 36.04 -5 34 C-3.35 34.33 -1.7 34.66 0 35 C0 23.45 0 11.9 0 0 Z " fill="#F9020A" transform="translate(353,281)"/>
<path d="M0 0 C2 1 2 1 2.8515625 3.2578125 C6.15963855 15.52108434 6.15963855 15.52108434 4 22 C3.34 22 2.68 22 2 22 C2 20.68 2 19.36 2 18 C1.23333008 18.12640869 0.46666016 18.25281738 -0.32324219 18.38305664 C-3.79753449 18.95114185 -7.27368236 19.50694924 -10.75 20.0625 C-11.9565625 20.26166016 -13.163125 20.46082031 -14.40625 20.66601562 C-15.56640625 20.84970703 -16.7265625 21.03339844 -17.921875 21.22265625 C-18.99018555 21.39547119 -20.05849609 21.56828613 -21.15917969 21.74633789 C-23.79983578 21.98212697 -25.51449449 21.84161104 -28 21 C-27.67 20.34 -27.34 19.68 -27 19 C-29.97 19 -32.94 19 -36 19 C-36 18.67 -36 18.34 -36 18 C-24.24819577 15.5086175 -13.06251884 13.7690156 -1 14 C-1.9590625 12.9171875 -1.9590625 12.9171875 -2.9375 11.8125 C-4.98673535 9.01808816 -5.61332946 7.38336726 -6 4 C-3.50907189 2.75453595 -2.58919267 3.2232422 0 4 C0 2.68 0 1.36 0 0 Z " fill="#F9030C" transform="translate(393,300)"/>
<path d="M0 0 C6.77440489 4.14866656 12.72076804 9.0233888 18.71875 14.19140625 C21.7194785 16.7764456 24.78750127 19.26897423 27.875 21.75 C32.1962763 25.26614767 36.15884265 28.97095996 40 33 C40.804375 33.804375 41.60875 34.60875 42.4375 35.4375 C42.953125 35.953125 43.46875 36.46875 44 37 C43.01 37 42.02 37 41 37 C41.495 39.475 41.495 39.475 42 42 C37.93152346 38.57459785 33.97086437 35.07182968 30.11621094 31.40771484 C24.15136608 25.73955076 18.01878642 20.46463777 11.44311523 15.51489258 C8.74324167 13.46650939 6.90173063 11.85259594 5 9 C5.66 9 6.32 9 7 9 C7.33 8.34 7.66 7.68 8 7 C7.4225 6.9175 6.845 6.835 6.25 6.75 C3.3460664 5.78202213 1.96259396 4.31305716 0 2 C0 1.34 0 0.68 0 0 Z " fill="#E9141D" transform="translate(299,342)"/>
<path d="M0 0 C2 1 2 1 2.86962891 2.9777832 C3.15241699 3.82687256 3.43520508 4.67596191 3.7265625 5.55078125 C4.0359375 6.47697266 4.3453125 7.40316406 4.6640625 8.35742188 C4.98117187 9.33259766 5.29828125 10.30777344 5.625 11.3125 C5.94984375 12.27607422 6.2746875 13.23964844 6.609375 14.23242188 C7.9857646 18.40496428 9 21.56034828 9 26 C3.39 26 -2.22 26 -8 26 C-7.28665506 22.43327531 -6.52083748 19.32539109 -5.37109375 15.91796875 C-5.05849609 14.98662109 -4.74589844 14.05527344 -4.42382812 13.09570312 C-4.09833984 12.13599609 -3.77285156 11.17628906 -3.4375 10.1875 C-3.10814453 9.20845703 -2.77878906 8.22941406 -2.43945312 7.22070312 C-1.62901285 4.81287331 -0.81577946 2.40602504 0 0 Z " fill="#EEF0F0" transform="translate(644,300)"/>
<path d="M0 0 C6.36105523 3.9204871 12.57683827 8.01391158 18.6875 12.3125 C19.31156738 12.74481934 19.93563477 13.17713867 20.57861328 13.62255859 C22.09027104 14.69699842 23.55077158 15.84273292 25 17 C25 17.66 25 18.32 25 19 C24.0821875 19.06058594 23.164375 19.12117188 22.21875 19.18359375 C15.781492 19.62311242 9.39064295 20.10530999 3 21 C2.49265716 18.6263603 1.99397614 16.25142575 1.5 13.875 C1.35691406 13.20984375 1.21382813 12.5446875 1.06640625 11.859375 C0.2387717 7.83943578 -0.15330658 4.10095101 0 0 Z " fill="#FEEEEE" transform="translate(351,248)"/>
<path d="M0 0 C0.66 0 1.32 0 2 0 C3.4783226 2.95664519 3.06032783 5.74229737 3 9 C3.99 9 4.98 9 6 9 C6 10.65 6 12.3 6 14 C7.32 14 8.64 14 10 14 C9.67 14.99 9.34 15.98 9 17 C6.36 16.67 3.72 16.34 1 16 C1 27.88 1 39.76 1 52 C-2 49 -2 49 -2.34057617 45.72192383 C-2.34010264 44.3835323 -2.32323735 43.04508054 -2.29296875 41.70703125 C-2.28872391 41.00100266 -2.28447906 40.29497406 -2.28010559 39.56755066 C-2.26333034 37.31547697 -2.22568243 35.06430258 -2.1875 32.8125 C-2.17245157 31.28451815 -2.15876344 29.75652224 -2.14648438 28.22851562 C-2.11343089 24.48533128 -2.06165832 20.74281804 -2 17 C-3.98 17 -5.96 17 -8 17 C-7.484375 16.236875 -6.96875 15.47375 -6.4375 14.6875 C-5.7259375 13.3571875 -5.7259375 13.3571875 -5 12 C-5.33 11.01 -5.66 10.02 -6 9 C-4.35 8.67 -2.7 8.34 -1 8 C-0.67 5.36 -0.34 2.72 0 0 Z " fill="#F7030C" transform="translate(293,276)"/>
<path d="M0 0 C3.63 1.98 7.26 3.96 11 6 C9.02 6.99 9.02 6.99 7 8 C7.33 8.66 7.66 9.32 8 10 C7.0625 12.125 7.0625 12.125 6 14 C7.32 14.33 8.64 14.66 10 15 C10.02505615 15.96413818 10.0501123 16.92827637 10.07592773 17.92163086 C10.16985306 21.48687842 10.27010939 25.05192433 10.37231445 28.61694336 C10.41571985 30.16214289 10.45739071 31.70739214 10.49731445 33.25268555 C10.55488199 35.46939096 10.61861424 37.6858448 10.68359375 39.90234375 C10.70030624 40.5971434 10.71701874 41.29194305 10.73423767 42.00779724 C10.56502856 45.28762029 10.56502856 45.28762029 12 48 C12.33 36.78 12.66 25.56 13 14 C13.99 14.33 14.98 14.66 16 15 C15.34 15 14.68 15 14 15 C14.33 28.86 14.66 42.72 15 57 C13.66666667 55 12.33333333 53 11 51 C10.34 51.99 9.68 52.98 9 54 C9 41.46 9 28.92 9 16 C3.20817904 18.47410674 3.20817904 18.47410674 -2.4375 21.1875 C-3.613125 21.785625 -4.78875 22.38375 -6 23 C-6 22.01 -6 21.02 -6 20 C-6.66 19.34 -7.32 18.68 -8 18 C-6.04480616 16.82807953 -4.0857461 15.6626071 -2.125 14.5 C-1.03445313 13.8503125 0.05609375 13.200625 1.1796875 12.53125 C4 11 4 11 6 11 C6 10.34 6 9.68 6 9 C4.9790625 8.6596875 4.9790625 8.6596875 3.9375 8.3125 C0.20385676 6.64427643 -2.72163421 4.44270392 -6 2 C-5.34 1.67 -4.68 1.34 -4 1 C-1.5249829 2.11431765 0.67883419 3.58150978 3 5 C2.505 4.54625 2.01 4.0925 1.5 3.625 C0 2 0 2 0 0 Z " fill="#E31F27" transform="translate(281,278)"/>
<path d="M0 0 C4.23582327 -0.04938628 8.47149465 -0.08571263 12.70751953 -0.10986328 C14.14895547 -0.11992963 15.59037095 -0.1335838 17.03173828 -0.15087891 C19.10193934 -0.17510012 21.17187076 -0.18647641 23.2421875 -0.1953125 C25.11173096 -0.21102295 25.11173096 -0.21102295 27.01904297 -0.22705078 C30 0 30 0 32 2 C32 3.32 32 4.64 32 6 C35.465 5.505 35.465 5.505 39 5 C39 5.66 39 6.32 39 7 C39.66 7 40.32 7 41 7 C41.66 6.01 42.32 5.02 43 4 C45.475 6.475 45.475 6.475 48 9 C47.01 9.33 46.02 9.66 45 10 C49.455 13.465 49.455 13.465 54 17 C50.71752569 17 50.17433033 16.66923327 47.64453125 14.8125 C47.02255859 14.36132812 46.40058594 13.91015625 45.75976562 13.4453125 C45.11716797 12.96835938 44.47457031 12.49140625 43.8125 12 C43.15830078 11.52304688 42.50410156 11.04609375 41.83007812 10.5546875 C40.21542318 9.37610725 38.60709503 8.18886818 37 7 C37.495 13.435 37.495 13.435 38 20 C37.34 20 36.68 20 36 20 C35.505 17.03 35.505 17.03 35 14 C34.95101562 14.71027344 34.90203125 15.42054688 34.8515625 16.15234375 C34.77679688 17.07144531 34.70203125 17.99054688 34.625 18.9375 C34.55539062 19.85402344 34.48578125 20.77054687 34.4140625 21.71484375 C34.27742188 22.46894531 34.14078125 23.22304688 34 24 C33.01 24.495 33.01 24.495 32 25 C31.34786708 27.02463255 31.34786708 27.02463255 31 29 C27.31197956 27.77065985 26.27643027 26.06140622 24 23 C25.32 23 26.64 23 28 23 C28 22.34 28 21.68 28 21 C27.34 21 26.68 21 26 21 C26.33 20.34 26.66 19.68 27 19 C28.98 19.99 30.96 20.98 33 22 C32.7834375 20.89140625 32.566875 19.7828125 32.34375 18.640625 C32.06230682 17.17712047 31.7810675 15.71357673 31.5 14.25 C31.35691406 13.52039063 31.21382813 12.79078125 31.06640625 12.0390625 C30.41111121 8.60656468 30 5.50830509 30 2 C14.655 2.495 14.655 2.495 -1 3 C-0.67 2.01 -0.34 1.02 0 0 Z " fill="#E91D25" transform="translate(315,242)"/>
<path d="M0 0 C2.7972908 2.06756277 3.02692273 3.14440371 3.6875 6.6875 C3.790625 7.780625 3.89375 8.87375 4 10 C5.65 9.34 7.3 8.68 9 8 C8.67 10.31 8.34 12.62 8 15 C8.99 15.66 9.98 16.32 11 17 C11 17.66 11 18.32 11 19 C12.32 19.33 13.64 19.66 15 20 C14.67 20.99 14.34 21.98 14 23 C13.2575 22.360625 12.515 21.72125 11.75 21.0625 C9.00606339 18.72664214 9.00606339 18.72664214 5 18 C5 23.61 5 29.22 5 35 C5.66 35 6.32 35 7 35 C7 37.31 7 39.62 7 42 C6.34 42 5.68 42 5 42 C0.42553191 24.85106383 0.42553191 24.85106383 0 16 C-1.65 16 -3.3 16 -5 16 C-4.34 15.01 -3.68 14.02 -3 13 C-3.3121764 10.35367713 -3.3121764 10.35367713 -4 8 C-2.68 8 -1.36 8 0 8 C0 5.36 0 2.72 0 0 Z " fill="#F6060E" transform="translate(292,329)"/>
<path d="M0 0 C0.48339844 0.37898438 0.96679688 0.75796875 1.46484375 1.1484375 C1.46484375 1.8084375 1.46484375 2.4684375 1.46484375 3.1484375 C0.68109375 3.3959375 -0.10265625 3.6434375 -0.91015625 3.8984375 C-3.62322665 4.83397902 -6.25421646 5.82170515 -8.91015625 6.8984375 C-13.51051046 8.75815516 -18.14001006 10.52951143 -22.78515625 12.2734375 C-23.45853027 12.52706055 -24.1319043 12.78068359 -24.82568359 13.04199219 C-28.70376863 14.49351771 -32.59839702 15.86471166 -36.53515625 17.1484375 C-36.86515625 16.1584375 -37.19515625 15.1684375 -37.53515625 14.1484375 C-38.52515625 14.4784375 -39.51515625 14.8084375 -40.53515625 15.1484375 C-40.53515625 14.4884375 -40.53515625 13.8284375 -40.53515625 13.1484375 C-30.85801122 8.87879008 -21.1560337 4.81634116 -11.09765625 1.5234375 C-9.90112427 1.11617432 -9.90112427 1.11617432 -8.68041992 0.70068359 C-3.13340474 -1.052515 -3.13340474 -1.052515 0 0 Z " fill="#EA161F" transform="translate(336.53515625,323.8515625)"/>
<path d="M0 0 C1.32 0 2.64 0 4 0 C5.32 2.64 6.64 5.28 8 8 C8.32613281 7.4225 8.65226563 6.845 8.98828125 6.25 C9.42527344 5.5075 9.86226562 4.765 10.3125 4 C10.74175781 3.2575 11.17101562 2.515 11.61328125 1.75 C12.07089844 1.1725 12.52851562 0.595 13 0 C13.99 0 14.98 0 16 0 C16 5.61 16 11.22 16 17 C15.01 17 14.02 17 13 17 C12.67 14.36 12.34 11.72 12 9 C11.34 10.65 10.68 12.3 10 14 C8.0625 13.625 8.0625 13.625 6 13 C5.67 12.34 5.34 11.68 5 11 C4.67 12.98 4.34 14.96 4 17 C2.68 17 1.36 17 0 17 C0 11.39 0 5.78 0 0 Z " fill="#393F3F" transform="translate(935,279)"/>
<path d="M0 0 C0.66 0.33 1.32 0.66 2 1 C2 2.98 2 4.96 2 7 C2.66 7 3.32 7 4 7 C4.33 9.64 4.66 12.28 5 15 C5.54140625 14.83628906 6.0828125 14.67257812 6.640625 14.50390625 C9.40222593 13.91409413 11.92818139 13.90390692 14.75 13.9375 C15.73484375 13.94652344 16.7196875 13.95554687 17.734375 13.96484375 C18.85585938 13.98224609 18.85585938 13.98224609 20 14 C20 14.66 20 15.32 20 16 C17.03 16 14.06 16 11 16 C10.67 17.98 10.34 19.96 10 22 C7.03 21.67 4.06 21.34 1 21 C1 20.01 1 19.02 1 18 C-0.98 18.33 -2.96 18.66 -5 19 C-5 18.01 -5 17.02 -5 16 C-4.34 16 -3.68 16 -3 16 C-2.67 14.35 -2.34 12.7 -2 11 C-1.34 11 -0.68 11 0 11 C0 7.37 0 3.74 0 0 Z " fill="#F9030B" transform="translate(349,255)"/>
<path d="M0 0 C8.98737173 4.01788383 16.91528851 9.44849811 25 15 C25.33 12.36 25.66 9.72 26 7 C26.33 7 26.66 7 27 7 C27 10.3 27 13.6 27 17 C25.68 17 24.36 17 23 17 C22.67 17.99 22.34 18.98 22 20 C21.07960938 19.3709375 20.15921875 18.741875 19.2109375 18.09375 C10.68420847 12.3124939 2.01977942 6.97547155 -7 2 C-5.68 1.67 -4.36 1.34 -3 1 C-3 1.66 -3 2.32 -3 3 C-2.01 2.67 -1.02 2.34 0 2 C0 1.34 0 0.68 0 0 Z " fill="#EA1219" transform="translate(265,320)"/>
<path d="M0 0 C1.98 1.32 3.96 2.64 6 4 C4 5 4 5 2 5 C4.31 7.31 6.62 9.62 9 12 C6 12 6 12 -2 5 C-2 17.87 -2 30.74 -2 44 C-2.33 44 -2.66 44 -3 44 C-3.76677886 31.64938342 -4.13305432 19.37405198 -4 7 C-4.66 7 -5.32 7 -6 7 C-6 18.55 -6 30.1 -6 42 C-6.66 41.67 -7.32 41.34 -8 41 C-7.99476318 40.28046143 -7.98952637 39.56092285 -7.98413086 38.81958008 C-7.75957268 20.38080429 -7.75957268 20.38080429 -9 2 C-6.03 2.33 -3.06 2.66 0 3 C0 2.01 0 1.02 0 0 Z " fill="#E22129" transform="translate(359,274)"/>
<path d="M0 0 C5.13481976 1.94916788 9.62685529 4.60096528 14.3125 7.4375 C15.14845703 7.92798828 15.98441406 8.41847656 16.84570312 8.92382812 C17.63525391 9.40142578 18.42480469 9.87902344 19.23828125 10.37109375 C20.321698 11.0196936 20.321698 11.0196936 21.42700195 11.68139648 C21.94609131 12.11653564 22.46518066 12.5516748 23 13 C23 13.99 23 14.98 23 16 C23.66 16 24.32 16 25 16 C25 16.66 25 17.32 25 18 C19.55411126 17.53301332 16.12814229 16.22297637 11.5625 13.25 C11.00409424 12.89164062 10.44568848 12.53328125 9.87036133 12.1640625 C8.2414627 11.11780386 6.62055588 10.0591348 5 9 C3.39834708 7.99597877 1.79466053 6.99518125 0.1875 6 C-1.3903125 5.01 -1.3903125 5.01 -3 4 C-2.34 3.67 -1.68 3.34 -1 3 C-0.34 3.33 0.32 3.66 1 4 C0.67 2.68 0.34 1.36 0 0 Z " fill="#EE0C17" transform="translate(318,247)"/>
<path d="M0 0 C0 0.33 0 0.66 0 1 C-2.64 1.33 -5.28 1.66 -8 2 C-5.03 2.33 -2.06 2.66 1 3 C-3.70643269 5.35321634 -7.8443512 5.93993092 -13 6.6875 C-13.90234375 6.82994141 -14.8046875 6.97238281 -15.734375 7.11914062 C-16.60578125 7.24869141 -17.4771875 7.37824219 -18.375 7.51171875 C-19.16648437 7.62990967 -19.95796875 7.74810059 -20.7734375 7.86987305 C-23.08198828 8.00479164 -24.80252297 7.68138093 -27 7 C-26.67 6.34 -26.34 5.68 -26 5 C-28.97 5 -31.94 5 -35 5 C-35 4.67 -35 4.34 -35 4 C-23.24819577 1.5086175 -12.06251884 -0.2309844 0 0 Z " fill="#E71219" transform="translate(392,314)"/>
<path d="M0 0 C1.80394157 2.70591236 2.52503338 4.37538284 3.3671875 7.4296875 C3.61138428 8.30157715 3.85558105 9.1734668 4.10717773 10.07177734 C4.48724976 11.45937256 4.48724976 11.45937256 4.875 12.875 C6.59908776 19.09530063 8.38563281 25.25514524 10.4375 31.375 C12.91071936 39.39235276 10.75071291 45.3706642 8 53 C7.34 51.68 6.68 50.36 6 49 C5.34 49.99 4.68 50.98 4 52 C2.60804085 47.82412255 4.17676781 45.86525224 6 42 C6.33 43.32 6.66 44.64 7 46 C7.66 46 8.32 46 9 46 C9.44032071 38.48193151 8.28612778 32.15775723 6 25 C5.67 25.99 5.34 26.98 5 28 C4.34 28 3.68 28 3 28 C0.57142857 21.71428571 0.57142857 21.71428571 2 18 C2.33 19.65 2.66 21.3 3 23 C3.66 23 4.32 23 5 23 C4.72285156 22.17757813 4.44570313 21.35515625 4.16015625 20.5078125 C1.93037862 13.63597113 0.3262742 7.22697345 0 0 Z " fill="#E3272F" transform="translate(388,276)"/>
<path d="M0 0 C-0.33 0.66 -0.66 1.32 -1 2 C-16.84 2 -32.68 2 -49 2 C-48.67 1.01 -48.34 0.02 -48 -1 C-41.96802226 -1.19265169 -35.93585191 -1.37131287 -29.90307617 -1.53710938 C-27.85153132 -1.59545175 -25.8000908 -1.6575933 -23.7487793 -1.72363281 C-20.79755654 -1.81798045 -17.84622644 -1.89858863 -14.89453125 -1.9765625 C-13.97976517 -2.00875885 -13.06499908 -2.0409552 -12.12251282 -2.0741272 C-7.6094921 -2.17991948 -4.09623352 -2.18019332 0 0 Z " fill="#FECFD4" transform="translate(349,238)"/>
<path d="M0 0 C4.26832981 -0.09965569 8.53602469 -0.17183391 12.80517578 -0.21972656 C14.25418917 -0.23971295 15.70312325 -0.26691197 17.15185547 -0.30175781 C25.3114361 -0.49295405 31.98845808 -0.63784283 39 4 C39 5.65 39 7.3 39 9 C38.01 8.67 37.02 8.34 36 8 C36 7.34 36 6.68 36 6 C34.68 6 33.36 6 32 6 C31.67 6.66 31.34 7.32 31 8 C28.7522025 5.94766315 27.9977758 4.99332739 27 2 C18.09 1.67 9.18 1.34 0 1 C0 0.67 0 0.34 0 0 Z " fill="#F8020A" transform="translate(318,241)"/>
<path d="M0 0 C1.65 0.33 3.3 0.66 5 1 C5.66 1.99 6.32 2.98 7 4 C5 3 3 2 1 1 C1.45161801 4.16766142 1.91253672 7.33390525 2.375 10.5 C2.50132812 11.386875 2.62765625 12.27375 2.7578125 13.1875 C3.36679807 17.32860189 4.04115721 21.3840371 5.09375 25.4375 C5.94852375 28.79764508 6.17228495 31.55430101 6 35 C4.58622659 32.36095629 3.62759865 29.92879371 3 27 C2.67 28.98 2.34 30.96 2 33 C-0.27474277 29.58788584 -0.56629644 27.3431471 -1.125 23.3125 C-1.29257812 22.13300781 -1.46015625 20.95351563 -1.6328125 19.73828125 C-1.75398438 18.83464844 -1.87515625 17.93101562 -2 17 C0 19 0 19 0.125 21.625 C0.08375 22.40875 0.0425 23.1925 0 24 C0.66 24 1.32 24 2 24 C2 21.69 2 19.38 2 17 C1.34 17 0.68 17 0 17 C0 11.39 0 5.78 0 0 Z " fill="#E4232B" transform="translate(297,347)"/>
<path d="M0 0 C1.32 0 2.64 0 4 0 C6.03435531 3.72965139 7 5.66905042 7 10 C6.34 10 5.68 10 5 10 C4.67 12.31 4.34 14.62 4 17 C2.68 17 1.36 17 0 17 C0 11.39 0 5.78 0 0 Z " fill="#4F5554" transform="translate(935,279)"/>
<path d="M0 0 C0.66 0.33 1.32 0.66 2 1 C-0.23264677 3.80186117 -1.37891655 4.91138993 -4.984375 5.42578125 C-6.84835937 5.36970703 -6.84835937 5.36970703 -8.75 5.3125 C-9.79909546 5.28820923 -9.79909546 5.28820923 -10.86938477 5.26342773 C-12.54290896 5.22082643 -14.21618373 5.16782036 -15.88916016 5.10742188 C-18.92664609 5.00253302 -21.96419891 4.9228726 -25.00259399 4.8495636 C-28.64775317 4.76086841 -32.29262419 4.6620738 -35.9375 4.5625 C-36.66457153 4.54321442 -37.39164307 4.52392883 -38.14074707 4.50405884 C-40.22814038 4.44670996 -42.31521483 4.38261544 -44.40234375 4.31640625 C-45.62429443 4.27974854 -46.84624512 4.24309082 -48.10522461 4.20532227 C-51 4 -51 4 -53 3 C-52.67 2.34 -52.34 1.68 -52 1 C-51.34 1.33 -50.68 1.66 -50 2 C-48.50457513 2.09974811 -47.00483527 2.13830915 -45.50610352 2.14526367 C-44.57496231 2.15164352 -43.64382111 2.15802338 -42.6844635 2.16459656 C-41.17196266 2.16626579 -41.17196266 2.16626579 -39.62890625 2.16796875 C-38.59563705 2.17129715 -37.56236786 2.17462555 -36.49778748 2.17805481 C-34.30964606 2.1831238 -32.12149689 2.18546314 -29.93334961 2.18530273 C-26.57978624 2.18748873 -23.22655197 2.20564354 -19.87304688 2.22460938 C-17.75000113 2.22754335 -15.62695382 2.22952812 -13.50390625 2.23046875 C-11.99444176 2.24124702 -11.99444176 2.24124702 -10.45448303 2.25224304 C-9.52018967 2.24916641 -8.5858963 2.24608978 -7.62329102 2.24291992 C-6.38990746 2.24505745 -6.38990746 2.24505745 -5.13160706 2.24723816 C-2.70065897 2.12915307 -2.70065897 2.12915307 0 0 Z " fill="#FEE0E5" transform="translate(351,386)"/>
<path d="M0 0 C0.99 0.33 1.98 0.66 3 1 C3.8685347 3.56966474 4.53797604 5.99043648 5.125 8.625 C5.29386719 9.32496094 5.46273438 10.02492188 5.63671875 10.74609375 C6.67289876 15.14373961 7.42378918 19.51966691 8 24 C7.34 24 6.68 24 6 24 C5.67 22.35 5.34 20.7 5 19 C4.34 19 3.68 19 3 19 C0.99134292 12.49577707 -0.38614349 6.8218683 0 0 Z " fill="#EE0912" transform="translate(385,275)"/>
<path d="M0 0 C3.96 0 7.92 0 12 0 C12 0.66 12 1.32 12 2 C10.35 2 8.7 2 7 2 C7 6.95 7 11.9 7 17 C6.01 17 5.02 17 4 17 C4 12.38 4 7.76 4 3 C2.68 3 1.36 3 0 3 C0 2.01 0 1.02 0 0 Z " fill="#3B3F3D" transform="translate(921,279)"/>
<path d="M0 0 C-1.38192554 4.75349085 -3.59931497 6.55069283 -7.625 9.3125 C-8.62789063 10.00988281 -9.63078125 10.70726562 -10.6640625 11.42578125 C-11.43492187 11.94527344 -12.20578125 12.46476562 -13 13 C-13.33 11.68 -13.66 10.36 -14 9 C-13.34 8.67 -12.68 8.34 -12 8 C-11.9175 7.401875 -11.835 6.80375 -11.75 6.1875 C-10.01569724 1.12911695 -4.96765751 -0.58443029 0 0 Z " fill="#E7171D" transform="translate(276,297)"/>
<path d="M0 0 C0.66 0 1.32 0 2 0 C2.042721 1.66611905 2.04063832 3.33382885 2 5 C1.67 5.33 1.34 5.66 1 6 C0.92851801 7.35243917 0.91600546 8.70834367 0.9375 10.0625 C0.958125 11.361875 0.97875 12.66125 1 14 C1.12375 12.700625 1.2475 11.40125 1.375 10.0625 C1.5859375 7.84765625 1.5859375 7.84765625 2 6 C2.66 5.67 3.32 5.34 4 5 C3.34 11.27 2.68 17.54 2 24 C3.32 23.67 4.64 23.34 6 23 C5.67 23.66 5.34 24.32 5 25 C3.68 25 2.36 25 1 25 C0.67 22.03 0.34 19.06 0 16 C-0.66 16 -1.32 16 -2 16 C-2 18.64 -2 21.28 -2 24 C-2.33 24 -2.66 24 -3 24 C-3.43630637 15.71017896 -1.77967263 8.04030671 0 0 Z " fill="#E21B24" transform="translate(295,260)"/>
<path d="M0 0 C0 0.99 0 1.98 0 3 C1.98 2.67 3.96 2.34 6 2 C6 2.66 6 3.32 6 4 C-1.7558343 5.70994772 -9.06603268 6.24923458 -17 6 C-16 4 -16 4 -12.91015625 2.9296875 C-11.64042969 2.58164062 -10.37070312 2.23359375 -9.0625 1.875 C-7.79535156 1.52179688 -6.52820313 1.16859375 -5.22265625 0.8046875 C-2 0 -2 0 0 0 Z " fill="#F10913" transform="translate(344,271)"/>
<path d="M0 0 C0.33 0 0.66 0 1 0 C1.09765625 6.15234375 1.09765625 6.15234375 1 8 C0.67 8.33 0.34 8.66 0 9 C-0.20699563 10.49496842 -0.36679259 11.9966592 -0.5 13.5 C-0.88888889 17.88888889 -0.88888889 17.88888889 -2 19 C-2.23287008 20.68183948 -2.41264166 22.3712416 -2.5625 24.0625 C-2.68818359 25.44115234 -2.68818359 25.44115234 -2.81640625 26.84765625 C-2.87699219 27.55792969 -2.93757813 28.26820313 -3 29 C0.465 28.505 0.465 28.505 4 28 C1.3144406 30.6855594 -1.37621328 31.06049974 -5 32 C-5.1362505 26.45088889 -4.73024937 21.43068267 -3.625 16 C-3.48924561 15.30519531 -3.35349121 14.61039062 -3.21362305 13.89453125 C-2.28680096 9.22041019 -1.24547071 4.59866108 0 0 Z " fill="#FDCBD0" transform="translate(302,252)"/>
<path d="M0 0 C0.33 0 0.66 0 1 0 C1.41179264 8.64764547 -0.00903674 16.6247067 -1.63623047 25.07226562 C-2.13358738 27.70792348 -2.57122714 30.35243163 -3 33 C-3.33 33 -3.66 33 -4 33 C-4.02686553 31.02090602 -4.04633375 29.04171029 -4.0625 27.0625 C-4.07410156 25.96035156 -4.08570313 24.85820312 -4.09765625 23.72265625 C-4 21 -4 21 -3 20 C-2.81346805 18.14948461 -2.67634713 16.29390519 -2.5625 14.4375 C-2.18869118 9.39108099 -1.40022833 4.85412486 0 0 Z " fill="#FBCACE" transform="translate(349,348)"/>
<path d="M0 0 C1.44558008 2.77753377 2.65035413 5.54539908 3.6875 8.5 C3.95949219 9.2528125 4.23148437 10.005625 4.51171875 10.78125 C5.0519311 13.23597493 4.79774824 14.64423338 4 17 C3.34 15.02 2.68 13.04 2 11 C1.67 12.65 1.34 14.3 1 16 C-0.90318884 13.14521674 -1.4619099 11.58058692 -2.125 8.3125 C-2.29257813 7.50425781 -2.46015625 6.69601562 -2.6328125 5.86328125 C-2.75398437 5.24839844 -2.87515625 4.63351562 -3 4 C-2.34 4 -1.68 4 -1 4 C-0.67 2.68 -0.34 1.36 0 0 Z " fill="#E6141D" transform="translate(256,321)"/>
<path d="M0 0 C5.03611017 -0.61415978 7.70610592 0.56362791 11.5859375 3.5546875 C13.53068306 5.54241086 13.92163689 7.25729109 14 10 C10.19136032 8.65378455 7.34590149 6.94641263 4.1875 4.4375 C3.39730469 3.81746094 2.60710937 3.19742188 1.79296875 2.55859375 C0.90544922 1.78708984 0.90544922 1.78708984 0 1 C0 0.67 0 0.34 0 0 Z " fill="#EE111A" transform="translate(359,251)"/>
<path d="M0 0 C3.99500618 1.3697164 6.80009492 3.25722422 10 6 C9.34 6.66 8.68 7.32 8 8 C8.33 8.66 8.66 9.32 9 10 C4.38486888 8.68139111 0.90102388 6.78644563 -3 4 C-2.34 3.67 -1.68 3.34 -1 3 C-0.34 3.33 0.32 3.66 1 4 C0.67 2.68 0.34 1.36 0 0 Z " fill="#E90F16" transform="translate(318,247)"/>
<path d="M0 0 C1.32 0 2.64 0 4 0 C4.33 13.86 4.66 27.72 5 42 C3.35 41.01 1.7 40.02 0 39 C0.99 38.505 0.99 38.505 2 38 C2.33 25.79 2.66 13.58 3 1 C2.01 0.67 1.02 0.34 0 0 Z " fill="#FEE7E8" transform="translate(286,294)"/>
<path d="M0 0 C-4.62 1.32 -9.24 2.64 -14 4 C-11.03 4.495 -11.03 4.495 -8 5 C-11.79541663 7.21399303 -15.75629421 8.00980198 -20 9 C-20 8.34 -20 7.68 -20 7 C-18.68 7 -17.36 7 -16 7 C-16 6.34 -16 5.68 -16 5 C-17.98 5 -19.96 5 -22 5 C-19.18034769 2.18034769 -15.88680496 1.73464157 -12.125 0.8125 C-11.40441406 0.62236328 -10.68382812 0.43222656 -9.94140625 0.23632812 C-6.04301469 -0.73647492 -3.97972805 -0.99493201 0 0 Z " fill="#E2272F" transform="translate(342,272)"/>
<path d="M0 0 C0.40236151 5.36482009 -1.0054384 9.15311198 -3 14 C-3.33 14.99 -3.66 15.98 -4 17 C-4.66 17 -5.32 17 -6 17 C-6.33 18.98 -6.66 20.96 -7 23 C-7.33 23 -7.66 23 -8 23 C-7.24727898 16.4764178 -7.24727898 16.4764178 -5.98828125 14.05078125 C-4.57416011 11.11634014 -4.60944886 8.33558619 -4.44140625 5.12109375 C-3.96800721 2.84626473 -2.72054356 0 0 0 Z " fill="#F7030D" transform="translate(395,324)"/>
<path d="M0 0 C9.9 0 19.8 0 30 0 C29.67 1.32 29.34 2.64 29 4 C28.67 3.01 28.34 2.02 28 1 C20.74 1 13.48 1 6 1 C6.66 2.32 7.32 3.64 8 5 C4.35446828 3.7191375 2.83328987 2.83328987 0 0 Z " fill="#FFE2E6" transform="translate(315,244)"/>
<path d="M0 0 C-0.75796875 0.47179687 -0.75796875 0.47179687 -1.53125 0.953125 C-2.1809375 1.38109375 -2.830625 1.8090625 -3.5 2.25 C-4.47453125 2.87648438 -4.47453125 2.87648438 -5.46875 3.515625 C-5.9740625 4.00546875 -6.479375 4.4953125 -7 5 C-7 6.32 -7 7.64 -7 9 C-6.34 9 -5.68 9 -5 9 C-5.33 9.66 -5.66 10.32 -6 11 C-8.64 9.02 -11.28 7.04 -14 5 C-11.75043698 2.75043698 -9.93676737 1.99489035 -7 0.8125 C-6.113125 0.44769531 -5.22625 0.08289063 -4.3125 -0.29296875 C-2 -1 -2 -1 0 0 Z " fill="#FED8DA" transform="translate(313,337)"/>
<path d="M0 0 C0.99 0 1.98 0 3 0 C3.33 0.99 3.66 1.98 4 3 C4.99 3.66 5.98 4.32 7 5 C7.1875 7.625 7.1875 7.625 7 10 C5.35 10 3.7 10 2 10 C2 9.01 2 8.02 2 7 C1.34 7 0.68 7 0 7 C0 4.69 0 2.38 0 0 Z " fill="#F1060E" transform="translate(263,351)"/>
<path d="M0 0 C8.38709677 3.38709677 8.38709677 3.38709677 11 6 C11.75 8.6875 11.75 8.6875 12 11 C6.80546349 9.58330822 3.33817117 6.07891809 0 2 C0 1.34 0 0.68 0 0 Z " fill="#F30810" transform="translate(360,277)"/>
<path d="M0 0 C0.33 0 0.66 0 1 0 C1.33 4.29 1.66 8.58 2 13 C2.66 12.67 3.32 12.34 4 12 C5.87379605 11.92966231 7.75001102 11.9156978 9.625 11.9375 C11.12933594 11.95103516 11.12933594 11.95103516 12.6640625 11.96484375 C13.43492187 11.97644531 14.20578125 11.98804688 15 12 C15 12.33 15 12.66 15 13 C13.43883181 13.33951619 11.87598662 13.67132544 10.3125 14 C9.00732422 14.2784375 9.00732422 14.2784375 7.67578125 14.5625 C5 15 5 15 0 15 C0 10.05 0 5.1 0 0 Z " fill="#FECBCE" transform="translate(357,303)"/>
<path d="M0 0 C0.97868964 3.06610462 0.98040257 4.92832604 0.0625 8 C-0.81271705 10.96762337 -1 12.76692848 -1 16 C-0.01 16.33 0.98 16.66 2 17 C-2.75 21 -2.75 21 -5 21 C-4.42351925 13.64987044 -2.28953836 6.98575424 0 0 Z " fill="#FDCFD1" transform="translate(263,285)"/>
<path d="M0 0 C0.86625 0.495 0.86625 0.495 1.75 1 C4.19883862 2.27075898 4.19883862 2.27075898 8 2 C8 2.99 8 3.98 8 5 C7.01 5.495 7.01 5.495 6 6 C5.34786708 8.02463255 5.34786708 8.02463255 5 10 C1.31197956 8.77065985 0.27643027 7.06140622 -2 4 C-0.68 4 0.64 4 2 4 C2 3.34 2 2.68 2 2 C1.34 2 0.68 2 0 2 C0 1.34 0 0.68 0 0 Z " fill="#E61F29" transform="translate(341,261)"/>
<path d="M0 0 C1.98 0.99 3.96 1.98 6 3 C6 4.65 6 6.3 6 8 C5.01 7.67 4.02 7.34 3 7 C3 6.34 3 5.68 3 5 C1.68 5 0.36 5 -1 5 C-1.33 5.66 -1.66 6.32 -2 7 C-2.66 6.67 -3.32 6.34 -4 6 C-4 5.01 -4 4.02 -4 3 C-2.68 2.67 -1.36 2.34 0 2 C0 1.34 0 0.68 0 0 Z " fill="#F30A14" transform="translate(351,242)"/>
<path d="M0 0 C2 2 2 2 2.125 4.625 C2.08375 5.40875 2.0425 6.1925 2 7 C2.99 6.67 3.98 6.34 5 6 C7.41685712 10.22949995 8.34833144 13.12335991 8 18 C6.58622659 15.36095629 5.62759865 12.92879371 5 10 C4.67 11.98 4.34 13.96 4 16 C1.72525723 12.58788584 1.43370356 10.3431471 0.875 6.3125 C0.70742188 5.13300781 0.53984375 3.95351563 0.3671875 2.73828125 C0.24601562 1.83464844 0.12484375 0.93101562 0 0 Z " fill="#E11821" transform="translate(295,364)"/>
<path d="M0 0 C0.33 0 0.66 0 1 0 C1 3.3 1 6.6 1 10 C-0.32 10 -1.64 10 -3 10 C-3.33 10.99 -3.66 11.98 -4 13 C-4.99 12.34 -5.98 11.68 -7 11 C-7 10.01 -7 9.02 -7 8 C-7.66 8 -8.32 8 -9 8 C-9 7.34 -9 6.68 -9 6 C-2.125 6.875 -2.125 6.875 -1 8 C-0.67 5.36 -0.34 2.72 0 0 Z " fill="#EC0E17" transform="translate(291,327)"/>
<path d="M0 0 C1.98 0.99 3.96 1.98 6 3 C5.01 3.495 5.01 3.495 4 4 C4.66 9.28 5.32 14.56 6 20 C3.89736898 16.84605348 2.98223382 14.17536296 1.875 10.5625 C1.52179688 9.42941406 1.16859375 8.29632813 0.8046875 7.12890625 C0 4 0 4 0 0 Z " fill="#FED3D2" transform="translate(257,321)"/>
<path d="M0 0 C-0.66 0 -1.32 0 -2 0 C-2 0.66 -2 1.32 -2 2 C0.31 2.33 2.62 2.66 5 3 C5 3.33 5 3.66 5 4 C1.7 4.33 -1.6 4.66 -5 5 C-4.67 4.01 -4.34 3.02 -4 2 C-6.97 2 -9.94 2 -13 2 C-13 1.67 -13 1.34 -13 1 C-11.58622218 0.63447197 -10.16879424 0.28304505 -8.75 -0.0625 C-7.96109375 -0.25972656 -7.1721875 -0.45695312 -6.359375 -0.66015625 C-3.89605178 -1.01497267 -2.34395868 -0.76877544 0 0 Z " fill="#E31B22" transform="translate(370,317)"/>
<path d="M0 0 C0.66 0.99 1.32 1.98 2 3 C1.01 3.495 1.01 3.495 0 4 C0.99 4.66 1.98 5.32 3 6 C1.02 6.99 -0.96 7.98 -3 9 C-3 8.01 -3 7.02 -3 6 C-5.31 6.66 -7.62 7.32 -10 8 C-7.63202009 5.38275905 -5.10399646 3.67138271 -2 2 C-1.34 2 -0.68 2 0 2 C0 1.34 0 0.68 0 0 Z " fill="#E71C22" transform="translate(288,340)"/>
<path d="M0 0 C1.03253906 0.01353516 1.03253906 0.01353516 2.0859375 0.02734375 C3.76577838 0.05067487 5.44543746 0.08653674 7.125 0.125 C4.11009443 2.13493705 1.9100073 2.85123341 -1.5625 3.75 C-3.05330078 4.14058594 -3.05330078 4.14058594 -4.57421875 4.5390625 C-5.33347656 4.73242188 -6.09273438 4.92578125 -6.875 5.125 C-6.545 4.465 -6.215 3.805 -5.875 3.125 C-5.215 3.125 -4.555 3.125 -3.875 3.125 C-3.875 2.465 -3.875 1.805 -3.875 1.125 C-4.7825 1.475625 -5.69 1.82625 -6.625 2.1875 C-9.75258436 3.08968779 -10.92708081 3.25881507 -13.875 2.125 C-9.17038677 0.26367327 -4.9992304 -0.1259496 0 0 Z " fill="#E11B23" transform="translate(320.875,329.875)"/>
<path d="M0 0 C0.33 0 0.66 0 1 0 C1.48841153 7.2040701 1.48841153 7.2040701 -0.6875 10.75 C-3.04748731 13.04620387 -5.25634158 15.17089438 -8 17 C-8.99 16.67 -9.98 16.34 -11 16 C-10.45730469 15.68289063 -9.91460937 15.36578125 -9.35546875 15.0390625 C-3.80327226 11.41762983 -1.89389315 8.41287222 -0.375 1.9765625 C-0.25125 1.32429688 -0.1275 0.67203125 0 0 Z " fill="#FDD1D3" transform="translate(388,351)"/>
<path d="M0 0 C0.33 0.66 0.66 1.32 1 2 C0.01 2.495 0.01 2.495 -1 3 C0.32 3.66 1.64 4.32 3 5 C0.36 5.99 -2.28 6.98 -5 8 C-5.33 7.01 -5.66 6.02 -6 5 C-6.99 5.33 -7.98 5.66 -9 6 C-9 5.34 -9 4.68 -9 4 C-6.03 2.68 -3.06 1.36 0 0 Z " fill="#E61B25" transform="translate(305,333)"/>
<path d="M0 0 C1.16983989 3.42967895 0.81325413 5.54339435 -0.21484375 8.984375 C-0.48876953 9.91894531 -0.76269531 10.85351562 -1.04492188 11.81640625 C-1.33947266 12.78449219 -1.63402344 13.75257813 -1.9375 14.75 C-2.22818359 15.73355469 -2.51886719 16.71710938 -2.81835938 17.73046875 C-3.53672769 20.15643388 -4.26420822 22.57927358 -5 25 C-5.33 25 -5.66 25 -6 25 C-5.40357597 16.20274552 -2.77465587 8.3239676 0 0 Z " fill="#FED5D9" transform="translate(259,277)"/>
<path d="M0 0 C2.31 0.33 4.62 0.66 7 1 C7 1.99 7 2.98 7 4 C7.66 4 8.32 4 9 4 C9 4.66 9 5.32 9 6 C6.69 5.67 4.38 5.34 2 5 C1.34 3.35 0.68 1.7 0 0 Z " fill="#F00A14" transform="translate(334,259)"/>
<path d="M0 0 C1.84187025 2.76280538 2.72248277 4.80707826 3.6875 7.9375 C3.95949219 8.79214844 4.23148437 9.64679688 4.51171875 10.52734375 C5 13 5 13 4 17 C2.02 14.36 0.04 11.72 -2 9 C-1.34 9 -0.68 9 0 9 C0 6.03 0 3.06 0 0 Z " fill="#FEC4CA" transform="translate(386,287)"/>
<path d="M0 0 C0 0.66 0 1.32 0 2 C-1.32 2 -2.64 2 -4 2 C-4 2.66 -4 3.32 -4 4 C-6.97 4 -9.94 4 -13 4 C-13 3.34 -13 2.68 -13 2 C-8.49646738 0.24252386 -4.82360189 -0.19294408 0 0 Z " fill="#F6050D" transform="translate(326,277)"/>
<path d="M0 0 C3.40755272 1.92880342 6.74147635 3.8276509 10 6 C10 6.66 10 7.32 10 8 C7.36 8 4.72 8 2 8 C2 6.02 2 4.04 2 2 C1.34 2 0.68 2 0 2 C0 1.34 0 0.68 0 0 Z " fill="#FEC4C5" transform="translate(366,259)"/>
<path d="M0 0 C0.33 0 0.66 0 1 0 C1.55353075 11.52164009 1.55353075 11.52164009 -2 17 C-2.66 17 -3.32 17 -4 17 C-4.33 15.68 -4.66 14.36 -5 13 C-4.01 13.495 -4.01 13.495 -3 14 C-2.01 9.38 -1.02 4.76 0 0 Z " fill="#E71A22" transform="translate(348,366)"/>
<path d="M0 0 C0.33 0 0.66 0 1 0 C1.29869796 5.77482729 0.85877606 8.85420308 -2 14 C-2.69907414 16.73572585 -2.69907414 16.73572585 -3 19 C-3.66 19 -4.32 19 -5 19 C-4.35561067 16.39546825 -3.7095496 13.7913709 -3.0625 11.1875 C-2.88009766 10.44951172 -2.69769531 9.71152344 -2.50976562 8.95117188 C-1.7577385 5.92939016 -0.98514427 2.95543282 0 0 Z " fill="#E2262E" transform="translate(390,328)"/>
<path d="M0 0 C0.66 0 1.32 0 2 0 C3.5078125 1.75 3.5078125 1.75 5.125 4 C5.66382813 4.7425 6.20265625 5.485 6.7578125 6.25 C7.16773438 6.8275 7.57765625 7.405 8 8 C6.35 7.67 4.7 7.34 3 7 C2.67 7.66 2.34 8.32 2 9 C1.01 7.68 0.02 6.36 -1 5 C-0.01 5 0.98 5 2 5 C2 4.34 2 3.68 2 3 C1.34 3 0.68 3 0 3 C0 2.01 0 1.02 0 0 Z " fill="#E71B22" transform="translate(359,322)"/>
<path d="M0 0 C0 0.99 0 1.98 0 3 C-5.94 3.495 -5.94 3.495 -12 4 C-12 3.34 -12 2.68 -12 2 C-7.82262526 0.40861915 -4.46839215 -0.21278058 0 0 Z " fill="#F6040D" transform="translate(331,327)"/>
<path d="M0 0 C0.33 1.32 0.66 2.64 1 4 C1.66 4 2.32 4 3 4 C2.67 6.31 2.34 8.62 2 11 C1.34 9.68 0.68 8.36 0 7 C-0.66 7.99 -1.32 8.98 -2 10 C-3.39195915 5.82412255 -1.82323219 3.86525224 0 0 Z " fill="#E71823" transform="translate(394,318)"/>
<path d="M0 0 C0.99 0.66 1.98 1.32 3 2 C3 2.66 3 3.32 3 4 C-5.415 4.495 -5.415 4.495 -14 5 C-11.31907309 2.31907309 -9.60832637 2.61329743 -5.875 2.375 C-4.77929688 2.30023438 -3.68359375 2.22546875 -2.5546875 2.1484375 C-1.71164062 2.09945313 -0.86859375 2.05046875 0 2 C0 1.34 0 0.68 0 0 Z " fill="#FEC5C8" transform="translate(389,310)"/>
<path d="M0 0 C0.66 0.66 1.32 1.32 2 2 C1.01 3.98 0.02 5.96 -1 8 C-2.9375 7.6875 -2.9375 7.6875 -5 7 C-5.33 6.01 -5.66 5.02 -6 4 C-5.34 4 -4.68 4 -4 4 C-3.67 3.34 -3.34 2.68 -3 2 C-2.01 1.34 -1.02 0.68 0 0 Z " fill="#3F4445" transform="translate(946,285)"/>
<path d="M0 0 C0.99 0 1.98 0 3 0 C3.49230769 6.4 3.49230769 6.4 1 9.4375 C0.01 10.2109375 0.01 10.2109375 -1 11 C-0.67 7.37 -0.34 3.74 0 0 Z " fill="#F5040D" transform="translate(260,279)"/>
<path d="M0 0 C0.33 0.66 0.66 1.32 1 2 C2.32 2.66 3.64 3.32 5 4 C0.545 6.97 0.545 6.97 -4 10 C-4 8.68 -4 7.36 -4 6 C-3.01 6 -2.02 6 -1 6 C-1.309375 5.071875 -1.309375 5.071875 -1.625 4.125 C-1.810625 3.073125 -1.810625 3.073125 -2 2 C-1.34 1.34 -0.68 0.68 0 0 Z " fill="#E81B25" transform="translate(291,246)"/>
<path d="M0 0 C1.21333397 2.42666795 1 4.33499722 1 7 C-2.46153846 10 -2.46153846 10 -5 10 C-4.67 8.68 -4.34 7.36 -4 6 C-3.34 6.33 -2.68 6.66 -2 7 C-2 6.34 -2 5.68 -2 5 C-2.99 4.67 -3.98 4.34 -5 4 C-3.35 2.68 -1.7 1.36 0 0 Z " fill="#E81A24" transform="translate(364,370)"/>
<path d="M0 0 C0.33 0 0.66 0 1 0 C1 2.64 1 5.28 1 8 C4.465 7.505 4.465 7.505 8 7 C5.3144406 9.6855594 2.62378672 10.06049974 -1 11 C-1.125 3.375 -1.125 3.375 0 0 Z " fill="#FFD4D8" transform="translate(298,273)"/>
<path d="M0 0 C0.66 0.33 1.32 0.66 2 1 C2.625 3.5625 2.625 3.5625 3 6 C2.01 6 1.02 6 0 6 C0 7.65 0 9.3 0 11 C-2.12508244 7.81237635 -2.5020163 5.73487777 -3 2 C-2.01 2.495 -2.01 2.495 -1 3 C-0.67 2.01 -0.34 1.02 0 0 Z " fill="#E51A25" transform="translate(263,345)"/>
<path d="M0 0 C-0.33 1.32 -0.66 2.64 -1 4 C-3.31 4.33 -5.62 4.66 -8 5 C-8 4.01 -8 3.02 -8 2 C-5.09399739 0.74335022 -3.20395416 0 0 0 Z " fill="#F00811" transform="translate(285,346)"/>
<path d="M0 0 C1.32 0.99 2.64 1.98 4 3 C3.67 4.65 3.34 6.3 3 8 C-0.26460973 6.19587357 -1.88929795 5.16605307 -4 2 C-2.68 2.33 -1.36 2.66 0 3 C0 2.01 0 1.02 0 0 Z " fill="#E81721" transform="translate(272,271)"/>
<path d="M0 0 C1.65 0.99 3.3 1.98 5 3 C4.01 3.33 3.02 3.66 2 4 C2.33 5.65 2.66 7.3 3 9 C1.68 8.01 0.36 7.02 -1 6 C-0.67 4.02 -0.34 2.04 0 0 Z " fill="#EB202A" transform="translate(338,375)"/>
<path d="M0 0 C0.99 0.33 1.98 0.66 3 1 C1.95125002 3.62187494 1.35068687 4.79371361 -1.125 6.25 C-1.74375 6.4975 -2.3625 6.745 -3 7 C-3.66 6.01 -4.32 5.02 -5 4 C-2.6875 1.9375 -2.6875 1.9375 0 0 Z " fill="#F0080E" transform="translate(273,297)"/>
<path d="M0 0 C1.98 1.65 3.96 3.3 6 5 C5.01 5.495 5.01 5.495 4 6 C3.34 5.67 2.68 5.34 2 5 C2.33 6.32 2.66 7.64 3 9 C1.02 7.35 -0.96 5.7 -3 4 C-2.34 3.67 -1.68 3.34 -1 3 C-0.34 3.33 0.32 3.66 1 4 C0.67 2.68 0.34 1.36 0 0 Z " fill="#DF161E" transform="translate(371,284)"/>
<path d="M0 0 C2.76223278 2.76223278 2.57856291 5.20706617 3 9 C2.01 8.67 1.02 8.34 0 8 C0 9.65 0 11.3 0 13 C-2 10 -2 10 -2 7 C-1.34 7 -0.68 7 0 7 C0 4.69 0 2.38 0 0 Z " fill="#E3202B" transform="translate(385,267)"/>
<path d="M0 0 C3.08089673 2.77280706 4.68775452 5.06326356 6 9 C5.01 8.67 4.02 8.34 3 8 C2.34 8.66 1.68 9.32 1 10 C0.01 8.35 -0.98 6.7 -2 5 C-0.68 5 0.64 5 2 5 C1.34 3.35 0.68 1.7 0 0 Z " fill="#E32329" transform="translate(371,335)"/>
<path d="M0 0 C3.465 1.98 3.465 1.98 7 4 C6.01 4.495 6.01 4.495 5 5 C4.01 4.67 3.02 4.34 2 4 C2 4.66 2 5.32 2 6 C2.66 6 3.32 6 4 6 C3.67 6.66 3.34 7.32 3 8 C1.02 6.68 -0.96 5.36 -3 4 C-2.34 3.67 -1.68 3.34 -1 3 C-0.34 3.33 0.32 3.66 1 4 C0.67 2.68 0.34 1.36 0 0 Z " fill="#E01922" transform="translate(280,329)"/>
<path d="M0 0 C2 1 2 1 3.125 3.75 C3.91973395 6.70186896 4.17810598 8.97219837 4 12 C3.34 12 2.68 12 2 12 C0.00214565 7.8794254 -0.17835515 4.54805635 0 0 Z " fill="#F9020B" transform="translate(257,331)"/>
<path d="M0 0 C2.92879371 0.62759865 5.36095629 1.58622659 8 3 C3.59085217 4.10228696 -0.48382401 4.07654536 -5 4 C-4.67 3.34 -4.34 2.68 -4 2 C-2.68 2 -1.36 2 0 2 C0 1.34 0 0.68 0 0 Z " fill="#F0050F" transform="translate(344,321)"/>
<path d="M0 0 C1.09898702 3.29696105 0.87124444 4.40494903 0.0625 7.6875 C-0.13214844 8.49574219 -0.32679688 9.30398438 -0.52734375 10.13671875 C-0.68332031 10.75160156 -0.83929688 11.36648438 -1 12 C-1.33 12 -1.66 12 -2 12 C-2 9.69 -2 7.38 -2 5 C-2.99 4.67 -3.98 4.34 -5 4 C-3.35 2.68 -1.7 1.36 0 0 Z " fill="#FFD2D6" transform="translate(297,248)"/>
<path d="M0 0 C0.66 0 1.32 0 2 0 C3.80619523 4.46236469 4.11658501 7.31034294 3 12 C1.09598862 10.09598862 0.06479561 8.66574314 -0.19921875 5.953125 C-0.1886578 3.96766727 -0.09915043 1.9830086 0 0 Z " fill="#E60C15" transform="translate(349,358)"/>
<path d="M0 0 C0.66 0 1.32 0 2 0 C2 0.99 2 1.98 2 3 C2.928125 2.773125 3.85625 2.54625 4.8125 2.3125 C8 2 8 2 9.875 3.4375 C10.431875 4.2109375 10.431875 4.2109375 11 5 C9.35 4.67 7.7 4.34 6 4 C6.33 4.99 6.66 5.98 7 7 C4.13302508 5.71480435 2.02392288 4.42870746 0 2 C0 1.34 0 0.68 0 0 Z " fill="#E31E26" transform="translate(263,358)"/>
<path d="M0 0 C1.32 1.32 2.64 2.64 4 4 C3.01 4 2.02 4 1 4 C1.33 5.32 1.66 6.64 2 8 C-0.31 6.35 -2.62 4.7 -5 3 C-4.34 2.67 -3.68 2.34 -3 2 C-2.01 2.33 -1.02 2.66 0 3 C0 2.01 0 1.02 0 0 Z " fill="#E31E26" transform="translate(316,355)"/>
<path d="M0 0 C0.33 0 0.66 0 1 0 C1.33 5.61 1.66 11.22 2 17 C0.35 16.01 -1.3 15.02 -3 14 C-2.34 13.67 -1.68 13.34 -1 13 C-0.53045739 9.95418731 -0.53045739 9.95418731 -0.375 6.4375 C-0.30023438 5.23996094 -0.22546875 4.04242188 -0.1484375 2.80859375 C-0.09945313 1.88175781 -0.05046875 0.95492188 0 0 Z " fill="#FFD7DA" transform="translate(289,319)"/>
<path d="M0 0 C0.33 0 0.66 0 1 0 C1 1.98 1 3.96 1 6 C1.66 6 2.32 6 3 6 C2.67 8.31 2.34 10.62 2 13 C1.67 13 1.34 13 1 13 C1 11.02 1 9.04 1 7 C0.01 7 -0.98 7 -2 7 C-1.34 4.69 -0.68 2.38 0 0 Z " fill="#E21C23" transform="translate(262,272)"/>
<path d="M0 0 C0.66 0 1.32 0 2 0 C3.42258812 3.82320557 4.24042276 6.91281305 4 11 C3.34 11 2.68 11 2 11 C0.57741188 7.17679443 -0.24042276 4.08718695 0 0 Z " fill="#FA020B" transform="translate(387,282)"/>
<path d="M0 0 C1.32 0 2.64 0 4 0 C4 0.66 4 1.32 4 2 C3.34 2 2.68 2 2 2 C1.34 3.65 0.68 5.3 0 7 C-0.99 6.67 -1.98 6.34 -3 6 C-1.125 1.125 -1.125 1.125 0 0 Z " fill="#F0080E" transform="translate(358,375)"/>
<path d="M0 0 C0.66 0.33 1.32 0.66 2 1 C2 2.65 2 4.3 2 6 C0.35 6 -1.3 6 -3 6 C-2.625 3.5625 -2.625 3.5625 -2 1 C-1.34 0.67 -0.68 0.34 0 0 Z " fill="#FC0108" transform="translate(268,355)"/>
<path d="M0 0 C0.33 0.99 0.66 1.98 1 3 C3.01508358 3.73323796 3.01508358 3.73323796 5 4 C3.02 4.99 1.04 5.98 -1 7 C-1.33 6.01 -1.66 5.02 -2 4 C-2.66 3.67 -3.32 3.34 -4 3 C-2.68 2.01 -1.36 1.02 0 0 Z " fill="#E41922" transform="translate(276,348)"/>
<path d="M0 0 C2.31 0.33 4.62 0.66 7 1 C7 1.99 7 2.98 7 4 C4.69 3.67 2.38 3.34 0 3 C0 2.01 0 1.02 0 0 Z " fill="#F00610" transform="translate(318,299)"/>
<path d="M0 0 C5.75 -0.125 5.75 -0.125 8 1 C8 1.99 8 2.98 8 4 C5.23723823 3.47731534 2.6739124 2.89130413 0 2 C0 1.34 0 0.68 0 0 Z " fill="#F3060E" transform="translate(308,295)"/>
<path d="M0 0 C0.99 0.33 1.98 0.66 3 1 C3.12375 1.804375 3.2475 2.60875 3.375 3.4375 C3.684375 4.7059375 3.684375 4.7059375 4 6 C4.66 6.33 5.32 6.66 6 7 C5.67 7.66 5.34 8.32 5 9 C2.36 7.35 -0.28 5.7 -3 4 C-2.34 3.67 -1.68 3.34 -1 3 C-0.34 3.33 0.32 3.66 1 4 C0.67 2.68 0.34 1.36 0 0 Z " fill="#E4262D" transform="translate(318,247)"/>
<path d="M0 0 C0.99 0.33 1.98 0.66 3 1 C3.33 2.65 3.66 4.3 4 6 C1.36 5.34 -1.28 4.68 -4 4 C-2.68 3.67 -1.36 3.34 0 3 C0 2.01 0 1.02 0 0 Z " fill="#EC111B" transform="translate(315,245)"/>
<path d="M0 0 C0 0.66 0 1.32 0 2 C-3.22791555 4.1519437 -4.28400809 4.20086443 -8 4 C-8.33 3.34 -8.66 2.68 -9 2 C-3.375 0 -3.375 0 0 0 Z " fill="#F7030E" transform="translate(317,331)"/>
<path d="M0 0 C-1 1 -1 1 -2.84765625 1.09765625 C-4.8984375 1.06510417 -6.94921875 1.03255208 -9 1 C-9.33 1.99 -9.66 2.98 -10 4 C-10.66 2.68 -11.32 1.36 -12 0 C-3.42857143 -1.28571429 -3.42857143 -1.28571429 0 0 Z " fill="#FFDEE2" transform="translate(373,322)"/>
<path d="M0 0 C1.98 0.99 3.96 1.98 6 3 C6 3.66 6 4.32 6 5 C4.35 5.66 2.7 6.32 1 7 C0.67 4.69 0.34 2.38 0 0 Z " fill="#FEDDDC" transform="translate(281,284)"/>
<path d="M0 0 C1.98 0.99 3.96 1.98 6 3 C4.68 3.33 3.36 3.66 2 4 C2.33 4.99 2.66 5.98 3 7 C0.525 6.01 0.525 6.01 -2 5 C-1.01 4.67 -0.02 4.34 1 4 C0.67 2.68 0.34 1.36 0 0 Z " fill="#E4212A" transform="translate(332,255)"/>
<path d="M0 0 C1.32 0.33 2.64 0.66 4 1 C4.33 2.32 4.66 3.64 5 5 C3.35 4.67 1.7 4.34 0 4 C0 2.68 0 1.36 0 0 Z " fill="#F1060F" transform="translate(311,353)"/>
<path d="M0 0 C1.98 0.66 3.96 1.32 6 2 C5.01 2.495 5.01 2.495 4 3 C4 4.32 4 5.64 4 7 C1.525 6.01 1.525 6.01 -1 5 C0.32 4.67 1.64 4.34 3 4 C3 3.34 3 2.68 3 2 C2.01 2 1.02 2 0 2 C0 1.34 0 0.68 0 0 Z " fill="#E52028" transform="translate(330,303)"/>
<path d="M0 0 C4.44870215 -0.39253254 7.14243493 0.84694043 11 3 C11 3.66 11 4.32 11 5 C9.53932801 4.54917531 8.08151968 4.08906463 6.625 3.625 C5.81289063 3.36976563 5.00078125 3.11453125 4.1640625 2.8515625 C2 2 2 2 0 0 Z " fill="#FDCBCD" transform="translate(314,295)"/>
<path d="M0 0 C0 0.99 0 1.98 0 3 C1.98 2.67 3.96 2.34 6 2 C6 2.66 6 3.32 6 4 C3.36 4 0.72 4 -2 4 C-2 3.34 -2 2.68 -2 2 C-2.66 1.67 -3.32 1.34 -4 1 C-2 0 -2 0 0 0 Z " fill="#E71319" transform="translate(344,271)"/>
<path d="M0 0 C0.33 0.99 0.66 1.98 1 3 C0.01 3.495 0.01 3.495 -1 4 C-1.65213292 6.02463255 -1.65213292 6.02463255 -2 8 C-2.99 7.67 -3.98 7.34 -5 7 C-5 5.68 -5 4.36 -5 3 C-2.5 1.25 -2.5 1.25 0 0 Z " fill="#F5313A" transform="translate(348,263)"/>
<path d="M0 0 C0.33 0 0.66 0 1 0 C1 1.65 1 3.3 1 5 C1.99 5.33 2.98 5.66 4 6 C1.525 7.485 1.525 7.485 -1 9 C-0.67 6.03 -0.34 3.06 0 0 Z " fill="#FEC6CA" transform="translate(352,371)"/>
<path d="M0 0 C0.99 0 1.98 0 3 0 C2.625 2.4375 2.625 2.4375 2 5 C1.01 5.495 1.01 5.495 0 6 C-0.66 5.34 -1.32 4.68 -2 4 C-1.34 2.68 -0.68 1.36 0 0 Z " fill="#EF080F" transform="translate(365,370)"/>
<path d="M0 0 C1.32 0 2.64 0 4 0 C4 0.99 4 1.98 4 3 C5.32 3.33 6.64 3.66 8 4 C7.67 4.99 7.34 5.98 7 7 C5.83040013 6.02433888 4.66438823 5.044375 3.5 4.0625 C2.8503125 3.51722656 2.200625 2.97195313 1.53125 2.41015625 C1.0259375 1.94480469 0.520625 1.47945313 0 1 C0 0.67 0 0.34 0 0 Z " fill="#FED6D7" transform="translate(312,351)"/>
<path d="M0 0 C2.97 0.33 5.94 0.66 9 1 C9 1.33 9 1.66 9 2 C5.7 2.33 2.4 2.66 -1 3 C-0.67 2.01 -0.34 1.02 0 0 Z " fill="#E83841" transform="translate(366,319)"/>
<path d="M0 0 C2.62187494 1.04874998 3.79371361 1.64931313 5.25 4.125 C5.4975 4.74375 5.745 5.3625 6 6 C4.35 5.67 2.7 5.34 1 5 C0.67 3.35 0.34 1.7 0 0 Z " fill="#F6020A" transform="translate(368,335)"/>
<path d="M0 0 C1.98 1.65 3.96 3.3 6 5 C3 6 3 6 1 6 C0.67 4.02 0.34 2.04 0 0 Z " fill="#FED7D9" transform="translate(357,327)"/>
<path d="M0 0 C2.97 0.495 2.97 0.495 6 1 C6.33 2.32 6.66 3.64 7 5 C3.34683329 3.75023244 2.21934164 3.32901247 0 0 Z " fill="#F7040C" transform="translate(366,256)"/>
<path d="M0 0 C0.33 0 0.66 0 1 0 C1.33 2.64 1.66 5.28 2 8 C0.02 6.68 -1.96 5.36 -4 4 C-3.34 3.67 -2.68 3.34 -2 3 C-1.34 3.33 -0.68 3.66 0 4 C0 2.68 0 1.36 0 0 Z " fill="#FFBFC5" transform="translate(296,372)"/>
<path d="M0 0 C1.32 0 2.64 0 4 0 C4 0.66 4 1.32 4 2 C4.99 2 5.98 2 7 2 C7 2.66 7 3.32 7 4 C2.25 3.125 2.25 3.125 0 2 C0 1.34 0 0.68 0 0 Z " fill="#FA020D" transform="translate(326,303)"/>
<path d="M0 0 C0.66 0 1.32 0 2 0 C2.125 2.875 2.125 2.875 2 6 C1.34 6.66 0.68 7.32 0 8 C-0.98120464 4.94736336 -0.98120464 3.05263664 0 0 Z " fill="#F7020A" transform="translate(255,299)"/>
<path d="M0 0 C0.99 0.33 1.98 0.66 3 1 C1 4 1 4 -1.625 4.6875 C-2.800625 4.8421875 -2.800625 4.8421875 -4 5 C-3 2 -3 2 0 0 Z " fill="#F7020D" transform="translate(306,281)"/>
</svg>
