<?xml version="1.0" encoding="UTF-8"?>
<svg version="1.1" xmlns="http://www.w3.org/2000/svg" width="256" height="256">
<path d="M0 0 C84.48 0 168.96 0 256 0 C256 84.48 256 168.96 256 256 C171.52 256 87.04 256 0 256 C0 171.52 0 87.04 0 0 Z " fill="#B1B1B1" transform="translate(0,0)"/>
<path d="M0 0 C16.41108686 -0.02332895 32.82216837 -0.04097916 49.23326778 -0.05181217 C56.85270173 -0.05697514 64.47212539 -0.06401784 72.09155273 -0.07543945 C78.73028827 -0.08538628 85.36901637 -0.09185342 92.00775915 -0.09408849 C95.52504336 -0.09539561 99.04230626 -0.09848147 102.55958366 -0.10573006 C106.47974938 -0.11374389 110.39989399 -0.11399114 114.32006836 -0.11352539 C115.49466614 -0.11712067 116.66926392 -0.12071594 117.87945557 -0.12442017 C119.47179268 -0.12235817 119.47179268 -0.12235817 121.09629822 -0.12025452 C122.02454375 -0.12117631 122.95278929 -0.1220981 123.90916348 -0.12304783 C126 0 126 0 127 1 C127.09725103 2.34909388 127.12555393 3.70323738 127.12584114 5.05583191 C127.12844889 5.93502194 127.13105664 6.81421198 127.13374341 7.72004414 C127.13151268 8.69696815 127.12928196 9.67389215 127.12698364 10.68041992 C127.12932363 12.224226 127.12932363 12.224226 127.13171089 13.79922009 C127.13572573 17.27631719 127.13252937 20.75337126 127.12939453 24.23046875 C127.13074836 26.71172105 127.13252818 29.19297314 127.13470459 31.67422485 C127.13880503 37.73107049 127.1381856 43.78789899 127.13529195 49.84474397 C127.13303812 54.7650985 127.13272531 59.68544955 127.13381577 64.60580444 C127.133969 65.30477126 127.13412223 66.00373808 127.13428011 66.72388572 C127.13459982 68.14360245 127.13492403 69.56331919 127.1352527 70.98303592 C127.13810764 84.31127898 127.13482025 97.63951517 127.12945233 110.96775711 C127.12498428 122.4163337 127.12576021 133.86490015 127.13037109 145.31347656 C127.13571661 158.59241179 127.13783295 171.87134099 127.13475883 185.15027714 C127.13444026 186.56491661 127.13412589 187.97955608 127.13381577 189.39419556 C127.13358435 190.43837569 127.13358435 190.43837569 127.13334826 191.50365037 C127.13248304 196.42092259 127.1339461 201.33819101 127.13629532 206.25546265 C127.13938469 212.86765478 127.13720088 219.47983065 127.13140106 226.09202194 C127.13007272 228.52656395 127.13046882 230.96110757 127.13266373 233.39564896 C127.13537234 236.70364827 127.13199765 240.01158483 127.12698364 243.31958008 C127.13032973 244.78496609 127.13032973 244.78496609 127.13374341 246.27995586 C127.12983178 247.59874092 127.12983178 247.59874092 127.12584114 248.94416809 C127.12567879 249.70876248 127.12551644 250.47335688 127.12534916 251.2611208 C127 253 127 253 126 254 C124.38275615 254.09820173 122.76121367 254.12631935 121.14099121 254.12698364 C120.08929245 254.12980347 119.03759369 254.13262329 117.95402527 254.13552856 C116.79034927 254.13350433 115.62667328 254.1314801 114.42773438 254.12939453 C113.20999832 254.13114685 111.99226227 254.13289917 110.73762512 254.13470459 C107.38852884 254.13836281 104.03949398 254.13748966 100.69040108 254.1343255 C97.19281046 254.13180154 93.69522255 254.13413954 90.19763184 254.13571167 C84.32299323 254.13753326 78.44836717 254.13512734 72.57373047 254.13037109 C65.77260949 254.12492849 58.97151849 254.12669116 52.17039824 254.1321975 C46.34110872 254.13672893 40.51182826 254.13737903 34.68253756 254.13475883 C31.19657175 254.13319622 27.71062006 254.13300185 24.22465515 254.13629532 C20.34051337 254.13970835 16.45640542 254.1349838 12.57226562 254.12939453 C10.82675163 254.13243088 10.82675163 254.13243088 9.04597473 254.13552856 C7.46842659 254.13129883 7.46842659 254.13129883 5.85900879 254.12698364 C4.93943642 254.12660662 4.01986404 254.12622959 3.07242584 254.12584114 C1 254 1 254 0 253 C-0.09638077 251.64472265 -0.12371945 250.28445733 -0.12304783 248.92575741 C-0.12503888 248.04246728 -0.12702993 247.15917715 -0.12908131 246.24912065 C-0.12616847 245.26762358 -0.12325563 244.2861265 -0.12025452 243.27488708 C-0.12110894 242.24089391 -0.12196337 241.20690074 -0.12284368 240.14157444 C-0.12450158 236.64832087 -0.11897206 233.15511445 -0.11352539 229.66186523 C-0.11324356 227.1691386 -0.11340117 224.67641189 -0.1139679 222.1836853 C-0.11419622 216.80235109 -0.11134477 211.42103179 -0.10573006 206.03970146 C-0.0976173 198.25911703 -0.09500007 190.47853846 -0.09374207 182.69795025 C-0.09155119 170.07572979 -0.08489015 157.45351578 -0.07543945 144.83129883 C-0.06626625 132.56697624 -0.05918497 120.3026554 -0.05493164 108.03833008 C-0.05466892 107.28288292 -0.05440619 106.52743576 -0.05413551 105.74909627 C-0.05283051 101.95939688 -0.05156679 98.16969749 -0.05032361 94.37999809 C-0.03994989 62.91999404 -0.0222565 31.459998 0 0 Z " fill="#163C71" transform="translate(128,1)"/>
<path d="M0 0 C9.9 0 19.8 0 30 0 C30.495 54.945 30.495 54.945 31 111 C55.75 111.495 55.75 111.495 81 112 C81 121.9 81 131.8 81 142 C70.45618307 142.02255102 59.91238203 142.04091508 49.36854649 142.05181217 C44.47314626 142.057041 39.57776332 142.06413864 34.68237305 142.07543945 C29.96212022 142.08626834 25.24188408 142.09227684 20.5216198 142.09487724 C18.71661046 142.09673149 16.91160208 142.10035209 15.10659981 142.10573006 C12.58740356 142.11294052 10.0682771 142.11399094 7.54907227 142.11352539 C6.41835045 142.1189183 6.41835045 142.1189183 5.26478577 142.12442017 C0.11405216 142.11405216 0.11405216 142.11405216 -1 141 C-1.09859695 139.19270354 -1.12632123 137.38151702 -1.12698364 135.5715332 C-1.13121338 133.8046666 -1.13121338 133.8046666 -1.13552856 132.00210571 C-1.13350433 130.69816864 -1.1314801 129.39423157 -1.12939453 128.05078125 C-1.13074855 126.67296299 -1.13252849 125.29514509 -1.13470459 123.91732788 C-1.13927884 120.16536453 -1.1374894 116.41342855 -1.1343255 112.66146469 C-1.13180186 108.74346592 -1.13413945 104.82546956 -1.13571167 100.9074707 C-1.13753335 94.32665585 -1.13512709 87.74585221 -1.13037109 81.16503906 C-1.12492847 73.54594557 -1.12669113 65.92687883 -1.1321975 58.30778599 C-1.13672867 51.77786562 -1.13737916 45.24795332 -1.13475883 38.71803188 C-1.13319607 34.81288146 -1.13300225 30.90774362 -1.13629532 27.00259399 C-1.13917409 23.33205532 -1.13719825 19.6615513 -1.13140106 15.99101639 C-1.12943786 13.99330951 -1.13242733 11.99559972 -1.13552856 9.99789429 C-1.13270874 8.81998322 -1.12988892 7.64207214 -1.12698364 6.4284668 C-1.12660662 5.39827927 -1.12622959 4.36809174 -1.12584114 3.3066864 C-1 1 -1 1 0 0 Z " fill="#B0B0B1" transform="translate(149,57)"/>
<path d="M0 0 C10.23 0 20.46 0 31 0 C31.02254622 18.36684668 31.0409787 36.73368222 31.05181217 55.10053921 C31.05697533 63.62798494 31.06401841 72.15542149 31.07543945 80.68286133 C31.08538568 88.11266255 31.09185328 95.54245713 31.09408849 102.97226483 C31.09539571 106.9087332 31.09848221 110.84518253 31.10573006 114.78164482 C31.11248931 118.48253327 31.11461716 122.18339475 31.11310768 125.88428879 C31.11351638 127.89870802 31.11891207 129.91312427 31.12442017 131.92753601 C31.1230455 133.1153064 31.12167084 134.30307678 31.12025452 135.52684021 C31.12117631 136.5657009 31.1220981 137.6045616 31.12304783 138.67490292 C31 141 31 141 30 142 C27.51046303 142.10033866 25.04865047 142.13617943 22.55859375 142.12939453 C21.77976837 142.13114685 21.00094299 142.13289917 20.19851685 142.13470459 C17.61148889 142.13912349 15.02452871 142.13618499 12.4375 142.1328125 C10.64770494 142.13348553 8.85790998 142.13445554 7.06811523 142.13571167 C3.31200289 142.13718869 -0.44408572 142.13503394 -4.20019531 142.13037109 C-9.02600493 142.1246738 -13.85175895 142.12795278 -18.67756653 142.13394356 C-22.37488223 142.13754905 -26.07218464 142.13641064 -29.76950073 142.13381577 C-31.54938768 142.13314646 -33.32927582 142.13397503 -35.10916138 142.13629532 C-37.59233822 142.13882165 -40.07542374 142.13498154 -42.55859375 142.12939453 C-43.67293289 142.13243088 -43.67293289 142.13243088 -44.80978394 142.13552856 C-49.88573738 142.11426262 -49.88573738 142.11426262 -51 141 C-51.09993532 138.9394469 -51.13080906 136.8754741 -51.1328125 134.8125 C-51.13410156 133.55695313 -51.13539062 132.30140625 -51.13671875 131.0078125 C-51.13462402 130.35071289 -51.1325293 129.69361328 -51.13037109 129.01660156 C-51.12502234 127.00838665 -51.13031691 125.00039541 -51.13671875 122.9921875 C-51.13542969 121.73664063 -51.13414063 120.48109375 -51.1328125 119.1875 C-51.13168457 118.02605469 -51.13055664 116.86460937 -51.12939453 115.66796875 C-51 113 -51 113 -50 112 C-33.5 112 -17 112 0 112 C0 75.04 0 38.08 0 0 Z " fill="#183E72" transform="translate(77,57)"/>
<path d="M0 0 C84.48 0 168.96 0 256 0 C256 84.48 256 168.96 256 256 C171.52 256 87.04 256 0 256 C0 171.52 0 87.04 0 0 Z M63.94244897 1.39027476 C59.76134437 1.42211761 55.58023305 1.45265713 51.39911085 1.48209733 C44.15126386 1.53315651 36.90348808 1.58976443 29.65573311 1.65281487 C27.24355923 1.6731891 24.83137138 1.69197669 22.41917229 1.70910835 C19.14226013 1.73289516 15.86546578 1.76287553 12.58862305 1.79467773 C11.13726267 1.80330998 11.13726267 1.80330998 9.65658188 1.81211662 C8.78580631 1.82190607 7.91503075 1.83169552 7.01786804 1.84178162 C6.26064799 1.84823417 5.50342794 1.85468672 4.72326183 1.8613348 C2.96880191 1.8151603 2.96880191 1.8151603 2 3 C1.90365356 4.34484652 1.87628038 5.69471472 1.87695217 7.04300785 C1.87496112 7.91933119 1.87297007 8.79565453 1.87091869 9.69853312 C1.87383153 10.6722483 1.87674437 11.64596348 1.87974548 12.64918518 C1.87889106 13.67501125 1.87803663 14.70083732 1.87715632 15.75774902 C1.87549843 19.22336366 1.88102791 22.68893077 1.88647461 26.15454102 C1.88675644 28.62756346 1.88659883 31.100586 1.8860321 33.5736084 C1.88580378 38.91238081 1.8886552 44.25113819 1.89426994 49.58990669 C1.90238273 57.30895295 1.90499994 65.0279933 1.90625793 72.74704336 C1.9084488 85.26943525 1.91510983 97.79182063 1.92456055 110.31420898 C1.93373377 122.48152636 1.94081504 134.64884197 1.94506836 146.81616211 C1.94533108 147.56563528 1.94559381 148.31510844 1.94586449 149.08729292 C1.94716949 152.84702416 1.94843321 156.60675541 1.94967639 160.36648667 C1.96005009 191.57766251 1.97774347 222.78883027 2 254 C2.97267272 253.99861731 2.97267272 253.99861731 3.96499538 253.99720669 C19.7210841 253.97515151 35.47716747 253.95858848 51.23326778 253.94818783 C58.85270173 253.94302486 66.47212539 253.93598216 74.09155273 253.92456055 C80.73028827 253.91461372 87.36901637 253.90814658 94.00775915 253.90591151 C97.52504336 253.90460439 101.04230626 253.90151853 104.55958366 253.89426994 C108.47974938 253.88625611 112.39989399 253.88600886 116.32006836 253.88647461 C117.49466614 253.88287933 118.66926392 253.87928406 119.87945557 253.87557983 C121.47179268 253.87764183 121.47179268 253.87764183 123.09629822 253.87974548 C124.02454375 253.87882369 124.95278929 253.8779019 125.90916348 253.87695217 C128 254 128 254 129 255 C130.61724385 255.09820173 132.23878633 255.12631935 133.85900879 255.12698364 C135.43655693 255.13121338 135.43655693 255.13121338 137.04597473 255.13552856 C138.20965073 255.13350433 139.37332672 255.1314801 140.57226562 255.12939453 C141.79000168 255.13114685 143.00773773 255.13289917 144.26237488 255.13470459 C147.61147116 255.13836281 150.96050602 255.13748966 154.30959892 255.1343255 C157.80718954 255.13180154 161.30477745 255.13413954 164.80236816 255.13571167 C170.67700677 255.13753326 176.55163283 255.13512734 182.42626953 255.13037109 C189.22739051 255.12492849 196.02848151 255.12669116 202.82960176 255.1321975 C208.65889128 255.13672893 214.48817174 255.13737903 220.31746244 255.13475883 C223.80342825 255.13319622 227.28937994 255.13300185 230.77534485 255.13629532 C234.65948663 255.13970835 238.54359458 255.1349838 242.42773438 255.12939453 C244.17324837 255.13243088 244.17324837 255.13243088 245.95402527 255.13552856 C247.00572403 255.13270874 248.05742279 255.12988892 249.14099121 255.12698364 C250.06056358 255.12660662 250.98013596 255.12622959 251.92757416 255.12584114 C253.99058135 255.23040166 253.99058135 255.23040166 255 254 C255.09725103 252.65090612 255.12555393 251.29676262 255.12584114 249.94416809 C255.12844889 249.06497806 255.13105664 248.18578802 255.13374341 247.27995586 C255.13151268 246.30303185 255.12928196 245.32610785 255.12698364 244.31958008 C255.12854363 243.29037602 255.13010362 242.26117197 255.13171089 241.20077991 C255.13572573 237.72368281 255.13252937 234.24662874 255.12939453 230.76953125 C255.13074836 228.28827895 255.13252818 225.80702686 255.13470459 223.32577515 C255.13880503 217.26892951 255.1381856 211.21210101 255.13529195 205.15525603 C255.13303812 200.2349015 255.13272531 195.31455045 255.13381577 190.39419556 C255.13404561 189.34574533 255.13404561 189.34574533 255.13428011 188.27611428 C255.13459982 186.85639755 255.13492403 185.43668081 255.1352527 184.01696408 C255.13810764 170.68872102 255.13482025 157.36048483 255.12945233 144.03224289 C255.12498428 132.5836663 255.12576021 121.13509985 255.13037109 109.68652344 C255.13571661 96.40758821 255.13783295 83.12865901 255.13475883 69.84972286 C255.13444026 68.43508339 255.13412589 67.02044392 255.13381577 65.60580444 C255.13366149 64.90968436 255.13350721 64.21356427 255.13334826 63.49634963 C255.13248304 58.57907741 255.1339461 53.66180899 255.13629532 48.74453735 C255.13938469 42.13234522 255.13720088 35.52016935 255.13140106 28.90797806 C255.13007272 26.47343605 255.13046882 24.03889243 255.13266373 21.60435104 C255.13537234 18.29635173 255.13199765 14.98841517 255.12698364 11.68041992 C255.12921436 10.70349591 255.13144509 9.7265719 255.13374341 8.72004414 C255.13113566 7.8408541 255.12852791 6.96166407 255.12584114 6.05583191 C255.12567879 5.29123752 255.12551644 4.52664312 255.12534916 3.7388792 C255.18851374 1.9703684 255.18851374 1.9703684 254 1 C252.64867434 0.90236261 251.29228717 0.87368331 249.93743896 0.87301636 C249.05680125 0.8701937 248.17616354 0.86737104 247.26883984 0.86446285 C245.80110103 0.86750345 245.80110103 0.86750345 244.30371094 0.87060547 C243.27292325 0.86887864 242.24213556 0.86715181 241.18011189 0.86537266 C237.69818405 0.86097518 234.21630362 0.86399569 230.734375 0.8671875 C228.25036097 0.86612843 225.76634706 0.86474256 223.28233337 0.86305237 C216.51671172 0.86021765 209.75111738 0.86468078 202.98550034 0.87122726 C198.76593811 0.87523498 194.54637646 0.87708115 190.32681274 0.87869263 C148.19781725 0.89686944 106.07021794 1.06909818 63.94244897 1.39027476 Z " fill="#888D96" transform="translate(0,0)"/>
<path d="M0 0 C55.44 0 110.88 0 168 0 C168 84.48 168 168.96 168 256 C123.45 256 78.9 256 33 256 C35.36556709 253.63443291 36.74303521 253.41755959 40 253 C40.33 253.33 40.66 253.66 41 254 C82.25 254 123.5 254 166 254 C166 170.84 166 87.68 166 2 C125.96080838 2.03934183 125.96080838 2.03934183 85.92163086 2.09008789 C80.81102603 2.09430322 75.70044739 2.09761241 70.58984375 2.09765625 C69.9249351 2.09768308 69.26002645 2.09770991 68.57496905 2.09773755 C45.70490356 2.09601193 22.85642908 1.81914742 0 1 C0 0.67 0 0.34 0 0 Z " fill="#828790" transform="translate(88,0)"/>
</svg>
